<?xml version="1.0" standalone="no"?>
<!DOCTYPE svg PUBLIC "-//W3C//DTD SVG 1.1//EN" "http://www.w3.org/Graphics/SVG/1.1/DTD/svg11.dtd" >
<svg>
<metadata>
Created by FontForge 20090622 at Tue Apr 24 16:22:40 2018
 By deploy user
Copyright (c) The Font Bureau, Inc., 2008. All rights reserved.
</metadata>
<defs>
<font id="BentonSansBBVA-Medium" horiz-adv-x="650" >
  <font-face 
    font-family="BentonSansBBVA Medium"
    font-weight="500"
    font-stretch="normal"
    units-per-em="1000"
    panose-1="0 0 0 0 0 0 0 2 0 0"
    ascent="787"
    descent="-213"
    x-height="530"
    cap-height="740"
    bbox="-92 -270 1431 979"
    underline-thickness="0"
    underline-position="0"
    unicode-range="U+0020-U+FEFF"
  />
<missing-glyph horiz-adv-x="500" 
d="M0 0v700h500v-700h-500zM50 650v-600h400v600h-400z" />
    <glyph glyph-name="f_f" unicode="ff" horiz-adv-x="688" 
d="M235 0h-122v433h-90v97h90v55q0 72 37.5 115t120.5 43q23 0 68 -5l2 -88q-9 2 -38 2q-68 0 -68 -69v-53h187v55q0 74 38.5 116t132.5 42q28 0 73 -5l2 -89q-13 3 -43 3q-38 0 -59 -15t-21 -54v-53h116v-97h-116v-433h-123v433h-187v-433z" />
    <glyph glyph-name="f_i" unicode="fi" horiz-adv-x="626" 
d="M483 609q-33 0 -51.5 18t-18.5 47t18.5 47t51.5 18q34 0 53 -18t19 -47t-19 -47t-53 -18zM113 530v55q0 158 159 158q24 0 69 -5l8 -91q-17 5 -46 5q-32 0 -50 -14.5t-18 -54.5v-53h104v-97h-104v-433h-122v433h-90v97h90zM545 0h-122v530h122v-530z" />
    <glyph glyph-name="f_l" unicode="fl" horiz-adv-x="624" 
d="M545 0h-122v731l122 18v-749zM113 530v55q0 158 159 158q24 0 69 -5l8 -91q-17 5 -46 5q-32 0 -50 -14.5t-18 -54.5v-53h104v-97h-104v-433h-122v433h-90v97h90z" />
    <glyph glyph-name="f_f_i" unicode="ffi" horiz-adv-x="929" 
d="M791 609q-33 0 -51.5 18t-18.5 47t18.5 47t51.5 18q34 0 53 -18t19 -47t-19 -47t-53 -18zM853 0h-122v530h122v-530zM545 530h103v-97h-103v-433h-123v433h-187v-433h-122v433h-90v97h90v55q0 158 159 158q39 0 69 -5l8 -91q-17 5 -46 5q-32 0 -50 -14.5t-18 -54.5v-53
h187v55q0 158 160 158q38 0 68 -5l9 -91q-17 5 -46 5q-32 0 -50 -14.5t-18 -54.5v-53z" />
    <glyph glyph-name="f_f_l" unicode="ffl" horiz-adv-x="929" 
d="M854 0h-123v731l123 18v-749zM545 530h103v-97h-103v-433h-123v433h-187v-433h-122v433h-90v97h90v55q0 158 159 158q24 0 69 -5l8 -91q-17 5 -46 5q-32 0 -50 -14.5t-18 -54.5v-53h187v55q0 158 160 158q28 0 68 -5l9 -91q-17 5 -46 5q-32 0 -50 -14.5t-18 -54.5v-53z
" />
    <glyph glyph-name="f_j" unicode="fj" horiz-adv-x="624" 
d="M483 609q-33 0 -51.5 18t-18.5 47t18.5 47t51.5 18q34 0 53 -18t19 -47t-19 -47t-53 -18zM235 0h-122v433h-90v97h90v55q0 158 159 158q28 0 68 -5l9 -91q-17 5 -46 5q-32 0 -50 -14.5t-18 -54.5v-53h104v-97h-104v-433zM398 -202q-46 0 -71 5l-8 89q17 -5 44 -5
q60 0 60 67v576h122v-577q0 -34 -6 -59.5t-21 -48.5t-45.5 -35t-74.5 -12z" />
    <glyph glyph-name=".notdef" horiz-adv-x="500" 
d="M0 0v700h500v-700h-500zM50 650v-600h400v600h-400z" />
    <glyph glyph-name=".null" horiz-adv-x="0" 
 />
    <glyph glyph-name="nonmarkingreturn" horiz-adv-x="333" 
 />
    <glyph glyph-name="space" unicode=" " horiz-adv-x="251" 
 />
    <glyph glyph-name="space" unicode="&#xa0;" horiz-adv-x="251" 
 />
    <glyph glyph-name="exclam" unicode="!" horiz-adv-x="339" 
d="M216 221h-88l-33 519h154zM171 -7q-36 0 -56 20.5t-20 51.5t20 51t56 20t56.5 -20t20.5 -51t-20.5 -51.5t-56.5 -20.5z" />
    <glyph glyph-name="quotedbl" unicode="&#x22;" horiz-adv-x="437" 
d="M349 478h-75l-17 196v66h109v-66zM163 478h-75l-17 196v66h109v-66z" />
    <glyph glyph-name="numbersign" unicode="#" horiz-adv-x="740" 
d="M309 448l-33 -156h145l32 156h-144zM215 0h-111l41 199h-112v93h132l32 156h-121v93h141l42 199h111l-42 -199h145l42 199h111l-42 -199h123v-93h-143l-32 -156h132v-93h-152l-41 -199h-111l41 199h-144z" />
    <glyph glyph-name="dollar" unicode="$" horiz-adv-x="668" 
d="M298 443v209q-56 -5 -84.5 -32t-28.5 -66q0 -43 28 -68t85 -43zM371 314v-228q125 13 125 107q0 48 -31.5 75t-93.5 46zM295 -93v86q-160 16 -247 134l74 69q70 -97 176 -109v247q-41 11 -70 21t-61 27.5t-51.5 38.5t-32.5 52t-13 70q0 87 60.5 142.5t164.5 62.5v71h78
v-73q79 -9 127 -38.5t88 -79.5l-77 -70q-60 76 -140 91v-225q56 -15 93.5 -29.5t74 -39.5t54.5 -62.5t18 -88.5q0 -87 -61 -144.5t-177 -66.5v-86h-78z" />
    <glyph glyph-name="percent" unicode="%" horiz-adv-x="1051" 
d="M237 284q-87 0 -136.5 63.5t-49.5 169.5q0 107 50.5 170.5t136.5 63.5q85 0 135 -63t50 -169t-49.5 -170.5t-136.5 -64.5zM358 0h-107l442 740h107zM238 365q40 0 60.5 41.5t20.5 110.5q0 71 -21 111.5t-61 40.5q-41 0 -62 -40.5t-21 -109.5q0 -72 21 -113t63 -41z
M814 -10q-87 0 -136.5 63.5t-49.5 169.5q0 108 50.5 171.5t136.5 63.5q85 0 135 -63.5t50 -169.5t-49.5 -170.5t-136.5 -64.5zM815 72q40 0 60.5 41t20.5 111q0 151 -82 151t-82 -150q0 -153 83 -153z" />
    <glyph glyph-name="ampersand" unicode="&#x26;" horiz-adv-x="734" 
d="M301 454q54 30 83.5 63t29.5 78q0 27 -17 45.5t-52 18.5q-38 0 -59.5 -21.5t-21.5 -58.5q0 -61 37 -125zM293 85q86 0 128 34q-48 46 -117 133q-41 52 -61 80q-92 -58 -92 -133q0 -54 37.5 -84t104.5 -30zM292 -14q-130 0 -198 52.5t-68 144.5q0 79 45.5 131t125.5 92
q-48 90 -48 166q0 77 50 129.5t144 52.5q87 0 132 -44t45 -110q0 -73 -47 -122.5t-131 -91.5q17 -25 55 -72q55 -72 100 -115q48 71 60 183l108 -11q-19 -135 -85 -233q67 -45 135 -45l10 -103q-128 3 -222 66q-89 -70 -211 -70z" />
    <glyph glyph-name="quotesingle" unicode="'" horiz-adv-x="251" 
d="M163 478h-75l-17 196v66h109v-66z" />
    <glyph glyph-name="parenleft" unicode="(" horiz-adv-x="401" 
d="M365 -148l-60 -57q-126 106 -189.5 224t-63.5 261t63.5 261t189.5 224l56 -60q-179 -184 -179 -425q0 -247 183 -428z" />
    <glyph glyph-name="parenright" unicode=")" horiz-adv-x="401" 
d="M96 -205l-59 57q182 182 182 428q0 242 -180 425l57 60q126 -106 189.5 -224t63.5 -261t-63.5 -261t-189.5 -224z" />
    <glyph glyph-name="asterisk" unicode="*" horiz-adv-x="508" 
d="M254 479l-74 -156l-70 41l97 142l-172 -12v78l173 -12l-98 142l70 41l74 -156l74 156l71 -41l-98 -142l172 12v-78l-172 12l98 -142l-70 -41z" />
    <glyph glyph-name="plus" unicode="+" horiz-adv-x="642" 
d="M371 82h-100v210h-205v99h205v210h100v-210h205v-99h-205v-210z" />
    <glyph glyph-name="comma" unicode="," horiz-adv-x="276" 
d="M128 -112h-73l26 242h137z" />
    <glyph glyph-name="hyphen" unicode="-" horiz-adv-x="357" 
d="M302 270h-247v88h247v-88z" />
    <glyph glyph-name="hyphen" unicode="&#x2011;" horiz-adv-x="357" 
d="M302 270h-247v88h247v-88z" />
    <glyph glyph-name="hyphen" unicode="&#x2010;" horiz-adv-x="357" 
d="M302 270h-247v88h247v-88z" />
    <glyph glyph-name="hyphen" unicode="&#xad;" horiz-adv-x="357" 
d="M302 270h-247v88h247v-88z" />
    <glyph glyph-name="period" unicode="." horiz-adv-x="276" 
d="M138 -7q-36 0 -56 20.5t-20 51.5t20 51t56 20t56.5 -20t20.5 -51t-20.5 -51.5t-56.5 -20.5z" />
    <glyph glyph-name="slash" unicode="/" horiz-adv-x="603" 
d="M150 0h-127l430 740h127z" />
    <glyph glyph-name="zero" unicode="0" horiz-adv-x="678" 
d="M340 -14q-138 0 -216 104.5t-78 279.5t78 279.5t216 104.5t215 -104t77 -280t-77 -280t-215 -104zM340 96q167 0 167 274q0 136 -43.5 204t-123.5 68q-169 0 -169 -272q0 -136 44.5 -205t124.5 -69z" />
    <glyph glyph-name="one" unicode="1" horiz-adv-x="447" 
d="M320 0h-120v627l-142 -40l-16 102l162 51h116v-740z" />
    <glyph glyph-name="two" unicode="2" horiz-adv-x="603" 
d="M559 0h-524v16q0 91 48 169.5t184 165.5q92 58 125.5 94.5t33.5 90.5q0 49 -31.5 77.5t-88.5 28.5q-108 0 -173 -117l-86 73q91 156 263 156q111 0 174 -57t63 -153q0 -72 -37 -128.5t-138 -120.5q-187 -119 -191 -185h362z" />
    <glyph glyph-name="three" unicode="3" horiz-adv-x="610" 
d="M293 -14q-173 0 -270 127l71 85q77 -102 195 -102q72 0 112 30.5t40 83.5q0 67 -49.5 97.5t-157.5 30.5h-27l-13 102h44q102 0 142.5 28t40.5 80q0 93 -128 93q-97 0 -176 -83l-62 94q45 46 111 73.5t140 27.5q116 0 177 -51t61 -136q0 -68 -37.5 -114t-104.5 -59
q163 -28 163 -189q0 -98 -74.5 -158t-197.5 -60z" />
    <glyph glyph-name="four" unicode="4" horiz-adv-x="647" 
d="M505 0h-121v152h-357v98l337 490h141v-480h118l11 -108h-129v-152zM382 592l-224 -332h226v332h-2z" />
    <glyph glyph-name="five" unicode="5" horiz-adv-x="598" 
d="M289 -14q-160 0 -259 109l58 96q83 -95 195 -95q78 0 118.5 42t40.5 106q0 69 -38.5 107.5t-106.5 38.5q-97 0 -150 -71l-83 28l29 393h414l21 -110h-337l-17 -191q53 55 156 55q110 0 173 -67t63 -178q0 -117 -75 -190t-202 -73z" />
    <glyph glyph-name="six" unicode="6" horiz-adv-x="636" 
d="M332 -14q-127 0 -206.5 96t-79.5 275q0 187 93 292t229 105q105 0 184 -58l-46 -101q-64 50 -137 50q-90 0 -143 -67.5t-58 -186.5q89 80 196 80q108 0 171.5 -60.5t63.5 -172.5t-73 -182t-194 -70zM338 92q66 0 104.5 39t38.5 102q0 60 -33.5 97t-106.5 37
q-110 0 -172 -73q7 -100 51.5 -151t117.5 -51z" />
    <glyph glyph-name="seven" unicode="7" horiz-adv-x="543" 
d="M220 -8l-120 16l292 622h-353l-21 110h502v-102z" />
    <glyph glyph-name="eight" unicode="8" horiz-adv-x="625" 
d="M313 -17q-132 0 -208 56t-76 147q0 127 177 203q-73 35 -108 75.5t-35 105.5q0 75 67 131t183 56q118 0 183.5 -55.5t65.5 -131.5q0 -114 -143 -178q90 -39 133.5 -84t43.5 -122q0 -90 -76 -146.5t-207 -56.5zM321 435q65 30 92.5 57.5t27.5 68.5q0 39 -32 66.5t-96 27.5
q-63 0 -96 -26.5t-33 -65.5q0 -43 32 -70.5t105 -57.5zM313 84q72 0 115 29t43 80q0 48 -39 81t-128 69q-78 -36 -114 -70t-36 -80q0 -50 43 -79.5t116 -29.5z" />
    <glyph glyph-name="nine" unicode="9" horiz-adv-x="636" 
d="M295 373q111 0 171 73q-7 100 -51 150t-116 50q-67 0 -105.5 -38t-38.5 -101q0 -60 33.5 -97t106.5 -37zM280 -14q-123 0 -202 62l46 101q39 -29 71.5 -42.5t80.5 -13.5q83 0 135 71t56 185q-89 -80 -195 -80q-108 0 -171.5 60.5t-63.5 172.5t73 182t194 70
q127 0 206 -96t79 -275q0 -186 -90.5 -291.5t-218.5 -105.5z" />
    <glyph glyph-name="colon" unicode=":" horiz-adv-x="285" 
d="M141 394q-36 0 -56 20t-20 51q0 32 20 51.5t56 19.5q37 0 57.5 -19.5t20.5 -51.5q0 -31 -21 -51t-57 -20zM141 -7q-36 0 -56 20.5t-20 51.5t20 51t56 20t57 -20t21 -51t-21 -51.5t-57 -20.5z" />
    <glyph glyph-name="semicolon" unicode=";" horiz-adv-x="285" 
d="M141 394q-36 0 -56 20t-20 51q0 32 20 51.5t56 19.5q37 0 57.5 -19.5t20.5 -51.5q0 -31 -21 -51t-57 -20zM135 -112h-73l26 242h136z" />
    <glyph glyph-name="less" unicode="&#x3c;" horiz-adv-x="642" 
d="M585 162v-104l-529 230v72l529 230v-104l-395 -162z" />
    <glyph glyph-name="equal" unicode="=" horiz-adv-x="642" 
d="M573 395h-505v91h505v-91zM573 167h-505v91h505v-91z" />
    <glyph glyph-name="greater" unicode="&#x3e;" horiz-adv-x="642" 
d="M589 288l-529 -230v104l395 162l-395 162v104l529 -230v-72z" />
    <glyph glyph-name="question" unicode="?" horiz-adv-x="571" 
d="M313 219h-101q-3 36 -3 70q0 101 99 156q55 33 75 55.5t20 62.5q0 37 -31 59t-86 22q-54 0 -102 -26.5t-79 -67.5l-72 86q98 118 265 118q105 0 165.5 -50.5t60.5 -131.5q0 -65 -31.5 -105t-90.5 -73q-63 -34 -76 -63t-13 -112zM262 -7q-36 0 -56 20.5t-20 51.5t20 51
t56 20t56.5 -20t20.5 -51t-20.5 -51.5t-56.5 -20.5z" />
    <glyph glyph-name="at" unicode="@" horiz-adv-x="868" 
d="M428 -14q-172 0 -277.5 106.5t-105.5 276.5q0 169 109 277t281 108q171 0 279.5 -104.5t108.5 -269.5q0 -103 -50 -164.5t-135 -61.5q-100 0 -126 84q-78 -76 -161 -76q-65 0 -103 40.5t-38 116.5q0 118 57 193.5t142 75.5q74 0 122 -52l7 44h95l-47 -297
q-6 -34 10.5 -53.5t54.5 -19.5q50 0 81.5 43.5t31.5 123.5q0 142 -91.5 231t-237.5 89q-147 0 -237 -91t-90 -237t89 -238t234 -92q111 0 195 51l27 -42q-95 -62 -225 -62zM385 237q55 0 107 50l27 177q-38 44 -94 44q-54 0 -86 -52.5t-32 -126.5q0 -92 78 -92z" />
    <glyph glyph-name="A" unicode="A" horiz-adv-x="696" 
d="M141 0h-116l262 743h122l259 -733l-121 -20l-63 186h-281zM344 586l-104 -300h208l-102 300h-2z" />
    <glyph glyph-name="B" unicode="B" horiz-adv-x="702" 
d="M382 0h-298v740h280q258 0 258 -184q0 -72 -37 -115t-94 -55v-2q69 -12 111 -56.5t42 -124.5q0 -99 -72 -151t-190 -52zM207 631v-200h145q150 0 150 102q0 98 -148 98h-147zM207 325v-217h162q153 0 153 107q0 110 -166 110h-149z" />
    <glyph glyph-name="C" unicode="C" horiz-adv-x="710" 
d="M376 -14q-147 0 -237.5 101.5t-90.5 284.5q0 178 90 280t231 102q199 0 278 -171l-106 -63q-50 119 -172 119q-93 0 -144.5 -71.5t-51.5 -194.5q0 -129 53.5 -202t149.5 -73q67 0 112.5 36.5t68.5 101.5l108 -49q-72 -201 -289 -201z" />
    <glyph glyph-name="D" unicode="D" horiz-adv-x="727" 
d="M294 0h-210v740h210q182 0 283.5 -90t101.5 -277q0 -191 -102.5 -282t-282.5 -91zM208 624v-511h97q129 0 189 62t60 196q0 130 -61 191.5t-190 61.5h-95z" />
    <glyph glyph-name="E" unicode="E" horiz-adv-x="621" 
d="M582 0h-498v740h478v-116h-353v-184h270l18 -111h-288v-216h373v-113z" />
    <glyph glyph-name="F" unicode="F" horiz-adv-x="582" 
d="M209 0h-125v740h466v-116h-341v-198h251l18 -111h-269v-315z" />
    <glyph glyph-name="G" unicode="G" horiz-adv-x="745" 
d="M362 -14q-152 0 -233 107t-81 280t89 277t235 104q91 0 165 -43.5t114 -131.5l-107 -58q-49 118 -167 118q-37 0 -71 -13.5t-64.5 -42.5t-49 -82t-18.5 -125q0 -140 58.5 -209t145.5 -69q74 0 121 44.5t53 122.5h-141l-18 101h278v-366h-103v83h-2q-23 -44 -76.5 -70.5
t-127.5 -26.5z" />
    <glyph glyph-name="H" unicode="H" horiz-adv-x="754" 
d="M209 0h-125v740h125v-295h336v295h125v-740h-125v329h-336v-329z" />
    <glyph glyph-name="I" unicode="I" horiz-adv-x="310" 
d="M217 0h-124v740h124v-740z" />
    <glyph glyph-name="J" unicode="J" horiz-adv-x="520" 
d="M223 -14q-120 0 -193 75l57 98q59 -64 130 -64q105 0 105 130v515h125v-530q0 -107 -55.5 -165.5t-168.5 -58.5z" />
    <glyph glyph-name="K" unicode="K" horiz-adv-x="697" 
d="M209 0h-125v740h125v-344l292 344h147l-252 -285l285 -445l-130 -20l-237 370l-105 -116v-244z" />
    <glyph glyph-name="L" unicode="L" horiz-adv-x="577" 
d="M559 0h-475v740h125v-627h331z" />
    <glyph glyph-name="M" unicode="M" horiz-adv-x="893" 
d="M197 0h-113v740h164l199 -587h2l193 587h167v-740h-121v553h-2q-8 -36 -43 -151l-145 -402h-111l-144 402q-30 95 -44 156h-2v-558z" />
    <glyph glyph-name="N" unicode="N" horiz-adv-x="763" 
d="M199 0h-115v740h127l350 -529h2v529h116v-740h-114l-364 539h-2v-539z" />
    <glyph glyph-name="O" unicode="O" horiz-adv-x="764" 
d="M382 -14q-141 0 -237.5 102.5t-96.5 281.5t96.5 281.5t237.5 102.5t237 -102.5t96 -281.5t-96 -281.5t-237 -102.5zM382 98q94 0 151.5 73.5t57.5 198.5t-57 197t-152 72t-152 -72t-57 -197t57.5 -198.5t151.5 -73.5z" />
    <glyph glyph-name="P" unicode="P" horiz-adv-x="662" 
d="M208 0h-124v740h259q284 0 284 -227q0 -232 -288 -232h-131v-281zM208 626v-236h137q83 0 121.5 29t38.5 91q0 59 -39 87.5t-122 28.5h-136z" />
    <glyph glyph-name="Q" unicode="Q" horiz-adv-x="764" 
d="M637 -193h-92q-109 0 -170.5 51.5t-63.5 135.5q-116 21 -189.5 120.5t-73.5 255.5q0 179 96.5 281.5t237.5 102.5q140 0 236 -102.5t96 -281.5q0 -160 -77.5 -260t-198.5 -118q10 -47 49 -63t109 -16h60zM382 98q94 0 150.5 73.5t56.5 198.5t-56.5 197t-150.5 72
q-95 0 -152.5 -72t-57.5 -197t57.5 -198.5t152.5 -73.5z" />
    <glyph glyph-name="R" unicode="R" horiz-adv-x="691" 
d="M207 0h-123v740h265q277 0 277 -227q0 -163 -163 -205l176 -298l-122 -20l-179 302h-131v-292zM207 626v-225h136q82 0 121.5 26.5t39.5 87.5q0 60 -39.5 85.5t-121.5 25.5h-136z" />
    <glyph glyph-name="S" unicode="S" horiz-adv-x="674" 
d="M348 -14q-179 0 -312 126l67 95q46 -47 111 -78.5t130 -31.5q72 0 114 24.5t42 71.5t-37.5 75t-131.5 57q-53 16 -83 26t-68 29t-58 39.5t-34 53t-14 73.5q0 93 70 150.5t182 57.5q148 0 276 -106l-59 -100q-106 93 -215 93q-61 0 -96.5 -24t-35.5 -61q0 -49 37.5 -74.5
t136.5 -54.5q48 -14 80.5 -26t68 -31t56 -41t34 -54.5t13.5 -73.5q0 -93 -73 -154t-201 -61z" />
    <glyph glyph-name="T" unicode="T" horiz-adv-x="635" 
d="M380 0h-125v624h-228v116h572l18 -116h-237v-624z" />
    <glyph glyph-name="U" unicode="U" horiz-adv-x="721" 
d="M361 -13q-142 0 -214.5 76t-72.5 206v471h125v-464q0 -83 40 -129t123 -46q162 0 162 174v465h123v-469q0 -131 -72 -207.5t-214 -76.5z" />
    <glyph glyph-name="V" unicode="V" horiz-adv-x="682" 
d="M400 -3h-118l-254 733l121 20l193 -587h2l195 577h118z" />
    <glyph glyph-name="W" unicode="W" horiz-adv-x="943" 
d="M336 0h-110l-195 730l121 20l96 -393q29 -110 40 -172h2q9 59 38 171l89 384h119l93 -387q32 -134 38 -168h2q8 43 37 165l92 390h116l-194 -740h-109l-134 568h-2z" />
    <glyph glyph-name="X" unicode="X" horiz-adv-x="697" 
d="M163 0h-131l246 393l-214 337l130 20l159 -260l150 250h131l-216 -347l241 -383l-126 -20l-188 304z" />
    <glyph glyph-name="Y" unicode="Y" horiz-adv-x="661" 
d="M392 0h-124v319l-247 411l119 20l191 -325l186 315h128l-253 -421v-319z" />
    <glyph glyph-name="Z" unicode="Z" horiz-adv-x="645" 
d="M610 0h-575v87l410 549h-374l-19 104h549v-89l-405 -549h395z" />
    <glyph glyph-name="bracketleft" unicode="[" horiz-adv-x="421" 
d="M385 -200h-308v940h308v-88h-184v-764h184v-88z" />
    <glyph glyph-name="backslash" unicode="\" horiz-adv-x="583" 
d="M570 0h-127l-430 740h127z" />
    <glyph glyph-name="bracketright" unicode="]" horiz-adv-x="421" 
d="M344 -200h-308v88h184v764h-184v88h308v-940z" />
    <glyph glyph-name="asciicircum" unicode="^" horiz-adv-x="642" 
d="M56 331l231 409h72l229 -409h-103l-163 285l-162 -285h-104z" />
    <glyph glyph-name="underscore" unicode="_" horiz-adv-x="500" 
d="M500 -145h-500v89h500v-89z" />
    <glyph glyph-name="grave" unicode="`" horiz-adv-x="500" 
d="M262 587l-144 166h132l93 -166h-81z" />
    <glyph glyph-name="a" unicode="a" horiz-adv-x="565" 
d="M230 87q90 0 151 61v117q-124 -17 -175 -44.5t-51 -69.5q0 -31 20 -47.5t55 -16.5zM186 -8q-67 0 -109 37.5t-42 101.5q0 90 82 143t264 74v16q0 76 -92 76q-86 0 -171 -71l-67 75q104 97 254 97q196 0 196 -192v-349h-110l-10 68q-75 -76 -195 -76z" />
    <glyph glyph-name="b" unicode="b" horiz-adv-x="611" 
d="M359 -8q-107 0 -167 66l-8 -58h-115v731l123 18v-290q62 82 169 82q94 0 152 -70.5t58 -204.5q0 -133 -58.5 -203.5t-153.5 -70.5zM323 89q58 0 91.5 45t33.5 131q0 82 -33.5 126.5t-93.5 44.5q-65 0 -129 -66v-217q66 -64 131 -64z" />
    <glyph glyph-name="c" unicode="c" horiz-adv-x="545" 
d="M287 -11q-102 0 -175 70t-73 206q0 73 23 128.5t61 86.5t81 46t90 15q72 0 128 -34.5t87 -99.5l-91 -58q-21 47 -50 68.5t-74 21.5q-58 0 -95 -44.5t-37 -130.5q0 -81 34.5 -128.5t97.5 -47.5q86 0 132 99l91 -57q-69 -141 -230 -141z" />
    <glyph glyph-name="d" unicode="d" horiz-adv-x="611" 
d="M290 93q65 0 129 66v216q-66 64 -131 64q-58 0 -91.5 -44.5t-33.5 -131.5q0 -81 33.5 -125.5t93.5 -44.5zM250 -8q-95 0 -152.5 68.5t-57.5 201.5q0 134 58.5 206.5t153.5 72.5q110 0 167 -71v261l123 18v-749h-113l-10 70q-62 -78 -169 -78z" />
    <glyph glyph-name="e" unicode="e" horiz-adv-x="564" 
d="M299 -11q-112 0 -186 69t-74 207q0 71 23.5 126.5t62 87t81 47t86.5 15.5q46 0 85.5 -15t73.5 -47t54 -89.5t20 -135.5v-29h-363q3 -67 42.5 -102.5t101.5 -35.5q94 0 164 68l49 -81q-89 -85 -220 -85zM163 316h249q-5 59 -35.5 92t-85.5 33q-48 0 -83.5 -32t-44.5 -93z
" />
    <glyph glyph-name="f" unicode="f" horiz-adv-x="374" 
d="M235 0h-122v433h-90v97h90v55q0 74 38.5 116t132.5 42q24 0 69 -5l8 -91q-17 5 -46 5q-38 0 -59 -15t-21 -54v-53h116v-97h-116v-433z" />
    <glyph glyph-name="g" unicode="g" horiz-adv-x="595" 
d="M272 247q51 0 79 26t28 74q0 50 -28 76t-80 26q-51 0 -79.5 -26.5t-28.5 -75.5q0 -48 28.5 -74t80.5 -26zM269 -206q-256 0 -256 130q0 78 87 112q-41 21 -41 65q0 54 72 97q-84 53 -84 153q0 83 60.5 136.5t162.5 53.5q100 0 163 -56q56 46 121 52l16 -99q-52 0 -98 -15
q19 -30 19 -72q0 -85 -59.5 -137t-161.5 -52q-33 0 -74 11q-27 -15 -27 -34q0 -16 13 -22.5t48 -9.5l94 -6q117 -7 168 -41t51 -104q0 -80 -73.5 -121t-200.5 -41zM288 -117q67 0 106.5 16.5t39.5 45.5t-27.5 41.5t-107.5 17.5l-92 6q-15 0 -32 3q-49 -22 -49 -68
q0 -34 39 -48t123 -14z" />
    <glyph glyph-name="h" unicode="h" horiz-adv-x="603" 
d="M192 0h-123v731l123 18v-294q74 86 190 86q75 0 116 -39t41 -116v-386h-123v350q0 86 -80 86q-70 0 -144 -69v-367z" />
    <glyph glyph-name="i" unicode="i" horiz-adv-x="272" 
d="M135 609q-33 0 -51.5 18t-18.5 47t18.5 47t51.5 18q34 0 53 -18t19 -47t-19 -47t-53 -18zM197 0h-122v530h122v-530z" />
    <glyph glyph-name="j" unicode="j" horiz-adv-x="272" 
d="M135 609q-33 0 -51.5 18t-18.5 47t18.5 47t51.5 18q34 0 53 -18t19 -47t-19 -47t-53 -18zM50 -202q-46 0 -71 5l-8 89q17 -5 44 -5q60 0 60 67v576h122v-577q0 -34 -6 -59.5t-21 -48.5t-45.5 -35t-74.5 -12z" />
    <glyph glyph-name="k" unicode="k" horiz-adv-x="562" 
d="M192 0h-123v731l123 18v-450l201 231h135l-173 -193l188 -327l-117 -20l-149 257l-85 -94v-153z" />
    <glyph glyph-name="l" unicode="l" horiz-adv-x="272" 
d="M197 0h-122v731l122 18v-749z" />
    <glyph glyph-name="m" unicode="m" horiz-adv-x="924" 
d="M192 0h-123v530h113l10 -75q74 86 182 86q123 0 146 -86q80 86 185 86q78 0 116.5 -43t38.5 -117v-381h-123v350q0 45 -16.5 65.5t-58.5 20.5q-62 0 -136 -69v-367h-123v350q0 45 -16.5 65.5t-58.5 20.5q-62 0 -136 -69v-367z" />
    <glyph glyph-name="n" unicode="n" horiz-adv-x="603" 
d="M192 0h-123v530h113l10 -75q76 86 191 86q74 0 115 -39t41 -116v-386h-122v350q0 89 -81 89q-68 0 -144 -69v-370z" />
    <glyph glyph-name="o" unicode="o" horiz-adv-x="596" 
d="M298 -11q-107 0 -183 70t-76 206q0 70 22 124.5t59 87t82.5 48.5t95.5 16t95 -16t82 -48.5t59 -87t22 -124.5q0 -136 -75.5 -206t-182.5 -70zM298 92q65 0 100.5 47t35.5 125q0 77 -34.5 124.5t-101.5 47.5q-66 0 -101 -46t-35 -126q0 -79 33.5 -125.5t102.5 -46.5z" />
    <glyph glyph-name="p" unicode="p" horiz-adv-x="611" 
d="M323 89q125 0 125 176q0 82 -33.5 126.5t-93.5 44.5q-65 0 -129 -66v-217q66 -64 131 -64zM192 -191l-123 -18v739h113l10 -69q65 80 169 80q94 0 152 -70.5t58 -204.5q0 -133 -58.5 -203.5t-153.5 -70.5q-107 0 -167 66v-249z" />
    <glyph glyph-name="q" unicode="q" horiz-adv-x="611" 
d="M419 -209v281q-71 -80 -169 -80q-95 0 -152.5 68.5t-57.5 201.5q0 134 58.5 206.5t153.5 72.5q106 0 167 -70l10 59h113v-721zM290 93q65 0 129 66v216q-66 64 -131 64q-58 0 -91.5 -44.5t-33.5 -131.5q0 -81 33.5 -125.5t93.5 -44.5z" />
    <glyph glyph-name="r" unicode="r" horiz-adv-x="411" 
d="M192 0h-123v530h113l10 -86h1q62 97 187 97h5l11 -113q-8 2 -32 2q-116 0 -172 -94v-336z" />
    <glyph glyph-name="s" unicode="s" horiz-adv-x="523" 
d="M262 -10q-135 0 -229 83l47 83q84 -72 183 -72q50 0 78 15t28 43q0 31 -25.5 46.5t-93.5 29.5q-48 10 -79 20.5t-61 28.5t-44 47.5t-14 70.5q0 70 53.5 113t141.5 43q121 0 215 -67l-43 -87q-79 57 -163 57q-44 0 -66.5 -14.5t-22.5 -39.5q0 -26 24 -40.5t84 -27.5
q106 -21 158 -54.5t52 -109.5q0 -83 -62.5 -125.5t-160.5 -42.5z" />
    <glyph glyph-name="t" unicode="t" horiz-adv-x="401" 
d="M272 -7q-86 0 -124.5 34.5t-38.5 118.5v287h-90v97h90v177l122 18v-195h137v-97h-137v-268q0 -42 17.5 -58.5t56.5 -16.5q24 0 54 8l10 -97q-40 -8 -97 -8z" />
    <glyph glyph-name="u" unicode="u" horiz-adv-x="603" 
d="M221 -11q-75 0 -116 39t-41 116v386h123v-353q0 -43 19 -63.5t61 -20.5q67 0 144 70v367h123v-530h-113l-10 74q-79 -85 -190 -85z" />
    <glyph glyph-name="v" unicode="v" horiz-adv-x="527" 
d="M325 -2h-123l-189 523l121 19l134 -402h2l129 392h118z" />
    <glyph glyph-name="w" unicode="w" horiz-adv-x="764" 
d="M284 0h-113l-156 521l120 19l60 -229q35 -142 41 -170h2q19 94 41 172l57 217h99l59 -221q16 -54 42 -168h2q21 97 41 166l61 223h111l-158 -530h-114l-96 370h-2z" />
    <glyph glyph-name="x" unicode="x" horiz-adv-x="533" 
d="M145 0h-126l186 274l-166 247l118 19l117 -180l108 170h125l-174 -256l178 -264l-118 -20l-128 196z" />
    <glyph glyph-name="y" unicode="y" horiz-adv-x="546" 
d="M125 -203q-55 0 -87 8l-9 103q40 -11 87 -11q33 0 52.5 14t32.5 47l15 39l-200 524l121 19l139 -396h2l137 386h121l-225 -588q-29 -75 -70 -110t-116 -35z" />
    <glyph glyph-name="z" unicode="z" horiz-adv-x="520" 
d="M496 0h-462v71l284 362h-254l-16 97h423v-73l-285 -362h294z" />
    <glyph glyph-name="braceleft" unicode="{" horiz-adv-x="416" 
d="M386 -200h-109q-67 0 -102 38t-35 105v163q0 70 -25.5 95t-85.5 25v88q60 0 85.5 25t25.5 95v163q0 67 35 105t102 38h109v-88h-44q-78 0 -78 -78v-154q0 -70 -20.5 -102t-64.5 -47v-2q44 -15 64.5 -47t20.5 -102v-154q0 -78 78 -78h44v-88z" />
    <glyph glyph-name="bar" unicode="|" horiz-adv-x="377" 
d="M249 -200h-121v940h121v-940z" />
    <glyph glyph-name="braceright" unicode="}" horiz-adv-x="416" 
d="M149 -200h-119v88h44q78 0 78 78v164q0 68 20 96t65 43v2q-45 15 -65 43t-20 96v164q0 80 -76 80h-44l-2 86h119q67 0 97 -33t30 -100v-173q0 -70 25.5 -95t85.5 -25v-88q-60 0 -85.5 -25t-25.5 -95v-173q0 -67 -30 -100t-97 -33z" />
    <glyph glyph-name="asciitilde" unicode="~" horiz-adv-x="642" 
d="M455 262q-42 1 -145.5 34t-123.5 34q-43 2 -48 -45l-75 11q7 69 39 101.5t84 30.5q45 -2 147.5 -35t122.5 -34q43 -2 49 46l74 -9q-8 -70 -40.5 -103t-83.5 -31z" />
    <glyph glyph-name="exclamdown" unicode="&#xa1;" horiz-adv-x="339" 
d="M168 747q35 0 55.5 -20.5t20.5 -51.5t-20.5 -51t-55.5 -20q-36 0 -57 20t-21 51t21 51.5t57 20.5zM123 519h88l33 -519h-154z" />
    <glyph glyph-name="cent" unicode="&#xa2;" horiz-adv-x="549" 
d="M202 118l92 322h-2q-59 0 -98.5 -41.5t-39.5 -133.5q0 -101 48 -147zM127 -129l43 146q-59 32 -95 94.5t-36 153.5q0 71 23 126t60.5 86.5t81.5 47.5t90 16q18 0 26 -1l28 98h68l-32 -111q88 -31 132 -141l-99 -37q-21 61 -65 80l-96 -338q13 -4 34 -4q92 0 131 95
l97 -37q-70 -156 -231 -156q-27 0 -56 6l-35 -124h-69z" />
    <glyph glyph-name="sterling" unicode="&#xa3;" horiz-adv-x="656" 
d="M226 337h-137v82h90q-43 75 -43 137q0 86 57.5 142t153.5 56q192 0 224 -193l-111 -21q-14 111 -110 111q-45 0 -69.5 -26t-24.5 -68q0 -17 3.5 -33.5t13.5 -38l14 -30t20 -36.5h175v-82h-136q21 -53 21 -113q0 -56 -20 -104q54 -34 94 -34q48 0 66 24t20 86h109
q0 -94 -41 -152t-135 -58q-84 0 -162 61q-61 -61 -154 -61q-50 0 -87 28.5t-37 81.5q0 57 36.5 90t94.5 33q49 0 108 -36q1 10 1 31q0 57 -34 123zM234 102q-50 43 -82 43q-23 0 -36.5 -12.5t-13.5 -33.5q0 -20 13.5 -32.5t35.5 -12.5q54 0 83 48z" />
    <glyph glyph-name="currency" unicode="&#xa4;" horiz-adv-x="642" 
d="M320 248q48 0 78 31.5t30 82.5t-30 82t-78 31t-77.5 -31t-29.5 -82t29.5 -82.5t77.5 -31.5zM320 177q-50 0 -89 22l-100 -99l-71 71l98 99q-24 42 -24 91q0 51 23 91l-97 96l71 72l98 -97q40 23 91 23q52 0 92 -23l96 97l72 -72l-96 -95q24 -42 24 -91q0 -51 -25 -92
l98 -97l-71 -72l-99 99q-40 -23 -91 -23z" />
    <glyph glyph-name="yen" unicode="&#xa5;" horiz-adv-x="656" 
d="M390 0h-125v97h-184v83h184v70h-184v83h181l-243 407h131l179 -305l179 305h129l-245 -407h184v-83h-186v-70h186v-83h-186v-97z" />
    <glyph glyph-name="brokenbar" unicode="&#xa6;" horiz-adv-x="377" 
d="M249 331h-121v409h121v-409zM249 -200h-121v409h121v-409z" />
    <glyph glyph-name="section" unicode="&#xa7;" horiz-adv-x="561" 
d="M332 151q72 38 72 92q0 38 -27.5 64.5t-116.5 78.5l-31 17q-73 -37 -73 -92q0 -38 27.5 -65t117.5 -78q2 -1 13.5 -7.5t17.5 -9.5zM279 -200q-172 0 -213 144l92 37q29 -89 116 -89q46 0 66 19.5t20 49.5q0 32 -28 58.5t-95 64.5q-97 55 -140 97.5t-43 108.5
q0 95 108 158q-43 33 -60.5 65t-17.5 74q0 71 53 119t144 48q178 0 217 -144l-91 -37q-28 92 -121 92q-46 0 -68 -20.5t-22 -51.5t29.5 -57.5t98.5 -65.5q49 -28 75.5 -45.5t55 -43t40.5 -54t12 -63.5q0 -98 -109 -159q42 -33 58 -64t16 -74q0 -71 -51 -119t-142 -48z" />
    <glyph glyph-name="dieresis" unicode="&#xa8;" horiz-adv-x="520" 
d="M358 577q-29 0 -46 19.5t-17 48.5t17 47.5t46 18.5q31 0 48 -18.5t17 -47.5q0 -30 -17 -49t-48 -19zM160 577q-30 0 -46.5 19t-16.5 49q0 29 16.5 47.5t46.5 18.5t47 -18.5t17 -47.5q0 -30 -17 -49t-47 -19z" />
    <glyph glyph-name="copyright" unicode="&#xa9;" horiz-adv-x="865" 
d="M432 -14q-162 0 -272 110.5t-110 272.5t111 273.5t273 111.5q160 0 270.5 -111t110.5 -272t-111.5 -273t-271.5 -112zM434 44q136 0 227 93.5t91 231.5t-92 232.5t-228 94.5t-227.5 -93.5t-91.5 -231.5t92.5 -232.5t228.5 -94.5zM433 155q-81 0 -130.5 59t-49.5 160
q0 99 49.5 158t132.5 59q118 0 155 -109l-67 -32q-23 73 -87 73q-47 0 -75.5 -41t-28.5 -108q0 -69 28 -109.5t76 -40.5q66 0 89 75q69 -26 71 -26q-40 -118 -163 -118z" />
    <glyph glyph-name="ordfeminine" unicode="&#xaa;" horiz-adv-x="434" 
d="M183 433q59 0 103 44v85q-84 -11 -118.5 -32.5t-34.5 -53.5q0 -21 13.5 -32t36.5 -11zM152 364q-48 0 -77.5 25.5t-29.5 70.5q0 127 241 153v13q0 55 -58 55q-67 0 -121 -46l-49 46q74 69 181 69q136 0 136 -135v-243h-81l-8 51q-57 -59 -134 -59z" />
    <glyph glyph-name="guillemotleft" unicode="&#xab;" horiz-adv-x="587" 
d="M311 0h-120l-158 266l158 264h120l-154 -264zM546 0h-120l-159 266l159 264h120l-155 -264z" />
    <glyph glyph-name="logicalnot" unicode="&#xac;" horiz-adv-x="639" 
d="M572 399v-314h-99v208h-407v106h506z" />
    <glyph glyph-name="registered" unicode="&#xae;" horiz-adv-x="536" 
d="M267 292q-97 0 -163.5 67t-66.5 164q0 98 67 165.5t165 67.5q97 0 163.5 -67t66.5 -164q0 -98 -67 -165.5t-165 -67.5zM269 330q80 0 135 55.5t55 137.5t-55.5 138.5t-136.5 56.5q-80 0 -134.5 -55.5t-54.5 -137.5q0 -83 54.5 -139t136.5 -56zM230 538h41q48 0 48 37
q0 36 -49 36h-40v-73zM179 401v255h95q94 0 94 -79q0 -54 -49 -72l55 -104h-53l-52 98h-39v-98h-51z" />
    <glyph glyph-name="macron" unicode="&#xaf;" horiz-adv-x="500" 
d="M95 583v91h310v-91h-310z" />
    <glyph glyph-name="degree" unicode="&#xb0;" horiz-adv-x="410" 
d="M205 450q-66 0 -110 42.5t-44 108.5t44 109t110 43t110 -42.5t44 -108.5t-44 -109t-110 -43zM205 513q36 0 59 24.5t23 64.5q0 39 -23 63t-59 24t-59 -24t-23 -63q0 -40 23 -64.5t59 -24.5z" />
    <glyph glyph-name="plusminus" unicode="&#xb1;" horiz-adv-x="642" 
d="M66 29v93h205v186h-205v97h205v211h100v-211h205v-97h-205v-186h205v-93h-510z" />
    <glyph glyph-name="two.sups" unicode="&#xb2;" horiz-adv-x="465" 
d="M61 270v23q0 59 29.5 109t115.5 103q56 35 74 54t18 49q0 27 -15.5 42t-45.5 15q-62 0 -104 -76l-71 48q65 113 177 113q76 0 116 -37.5t40 -102.5q0 -46 -26.5 -83.5t-94.5 -76.5q-88 -52 -98 -97h222v-83h-337z" />
    <glyph glyph-name="three.sups" unicode="&#xb3;" horiz-adv-x="465" 
d="M229 262q-120 0 -182 97l64 53q46 -67 111 -67q41 0 61.5 17.5t20.5 47.5q0 37 -26 54.5t-84 17.5h-33v72h36q53 0 75.5 14.5t22.5 44.5q0 24 -16.5 38.5t-48.5 14.5q-56 0 -108 -52l-57 60q73 76 172 76q77 0 117 -34.5t40 -91.5q0 -77 -73 -103q86 -26 86 -112
q0 -69 -48 -108t-130 -39z" />
    <glyph glyph-name="acute" unicode="&#xb4;" horiz-adv-x="500" 
d="M157 587l93 166h133l-145 -166h-81z" />
    <glyph glyph-name="uni00B5" unicode="&#xb5;" horiz-adv-x="608" 
d="M192 -200h-123v730h123v-351q0 -88 80 -88q68 0 144 69v370h123v-530h-123v84q-71 -77 -152 -88q-49 -3 -72 17v-213z" />
    <glyph glyph-name="paragraph" unicode="&#xb6;" horiz-adv-x="630" 
d="M382 -200h-88v523q-118 2 -180.5 55t-62.5 152q0 92 60.5 151t168.5 59h283v-940h-88v845h-93v-845z" />
    <glyph glyph-name="periodcentered" unicode="&#xb7;" horiz-adv-x="281" 
d="M140 258q-36 0 -56 20t-20 52q0 31 20 51t56 20t56.5 -20t20.5 -51q0 -32 -20.5 -52t-56.5 -20z" />
    <glyph glyph-name="cedilla" unicode="&#xb8;" horiz-adv-x="500" 
d="M258 -199q-82 0 -138 37l25 40q45 -30 102 -30q60 0 60 40q0 30 -36 30q-24 0 -47 -18l-35 17l26 83h56l-13 -49q23 15 60 15q30 0 51 -18.5t21 -50.5q0 -46 -37.5 -71t-94.5 -25z" />
    <glyph glyph-name="one.sups" unicode="&#xb9;" horiz-adv-x="371" 
d="M256 269h-101v388l-74 -21l-14 72l109 32h80v-471z" />
    <glyph glyph-name="ordmasculine" unicode="&#xba;" horiz-adv-x="451" 
d="M225 364q-76 0 -129.5 49t-53.5 144q0 97 53.5 145.5t129.5 48.5q77 0 130.5 -48.5t53.5 -145.5q0 -95 -54 -144t-130 -49zM225 431q45 0 69 34.5t24 91.5q0 55 -23.5 90.5t-69.5 35.5q-44 0 -68.5 -34.5t-24.5 -91.5q0 -55 23.5 -90.5t69.5 -35.5z" />
    <glyph glyph-name="guillemotright" unicode="&#xbb;" horiz-adv-x="587" 
d="M161 0h-119l153 266l-153 264h119l159 -264zM396 0h-120l154 266l-154 264h120l159 -264z" />
    <glyph glyph-name="onequarter" unicode="&#xbc;" horiz-adv-x="1008" 
d="M218 0l443 740h107l-442 -740h-108zM265 269h-100v370l-70 -13l-20 84l129 29h61v-470zM782 0v104h-215v64l209 304h106v-288h75v-80h-75v-104h-100zM666 179h121v180z" />
    <glyph glyph-name="onehalf" unicode="&#xbd;" horiz-adv-x="1043" 
d="M218 0l443 740h107l-442 -740h-108zM265 269h-100v370l-70 -13l-20 84l129 29h61v-470zM639 0v23q0 58 30 107.5t115 104.5q51 32 71 53t20 50q0 26 -16.5 41.5t-44.5 15.5q-60 0 -102 -76l-71 48q65 113 177 113q73 0 114 -38t41 -102q0 -46 -26 -83.5t-92 -76.5
q-89 -53 -99 -97h220v-83h-337z" />
    <glyph glyph-name="threequarters" unicode="&#xbe;" horiz-adv-x="1042" 
d="M273 0l442 740h108l-443 -740h-107zM816 0v104h-215v64l209 304h106v-288h67l15 -80h-82v-104h-100zM229 262q-120 0 -182 97l64 53q46 -67 111 -67q41 0 61.5 17.5t20.5 47.5q0 37 -26 54.5t-84 17.5h-33v72h36q53 0 75.5 14.5t22.5 44.5q0 24 -16.5 38.5t-48.5 14.5
q-56 0 -108 -52l-57 60q73 76 172 76q77 0 117 -34.5t40 -91.5q0 -77 -73 -103q86 -26 86 -112q0 -69 -48 -108t-130 -39zM700 179h121v180z" />
    <glyph glyph-name="questiondown" unicode="&#xbf;" horiz-adv-x="571" 
d="M310 747q35 0 55 -20.5t20 -51.5t-20 -51t-55 -20q-36 0 -57 20t-21 51t21 51.5t57 20.5zM258 521h101q3 -36 3 -70q0 -101 -99 -156q-55 -33 -75 -55.5t-20 -62.5q0 -37 31 -59t86 -22t102 26.5t79 67.5l72 -86q-98 -118 -265 -118q-105 0 -165.5 50.5t-60.5 131.5
q0 65 31.5 105t90.5 73q63 34 76 63t13 112z" />
    <glyph glyph-name="Agrave" unicode="&#xc0;" horiz-adv-x="696" 
d="M314 784l-144 166h132l93 -166h-81zM141 0h-116l262 743h122l259 -733l-121 -20l-63 186h-281zM344 586l-104 -300h208l-102 300h-2z" />
    <glyph glyph-name="Aacute" unicode="&#xc1;" horiz-adv-x="696" 
d="M301 784l93 166h133l-145 -166h-81zM141 0h-116l262 743h122l259 -733l-121 -20l-63 186h-281zM344 586l-104 -300h208l-102 300h-2z" />
    <glyph glyph-name="Acircumflex" unicode="&#xc2;" horiz-adv-x="696" 
d="M176 784l129 166h85l129 -166h-72l-101 84l-99 -84h-71zM141 0h-116l262 743h122l259 -733l-121 -20l-63 186h-281zM344 586l-104 -300h208l-102 300h-2z" />
    <glyph glyph-name="Atilde" unicode="&#xc3;" horiz-adv-x="696" 
d="M424 777q-36 0 -82 28t-65 28q-42 0 -39 -60l-70 12q0 65 27.5 99t77.5 34q36 0 82 -28t65 -28q41 0 40 59l68 -11q0 -65 -27.5 -99t-76.5 -34zM141 0h-116l262 743h122l259 -733l-121 -20l-63 186h-281zM344 586l-104 -300h208l-102 300h-2z" />
    <glyph glyph-name="Adieresis" unicode="&#xc4;" horiz-adv-x="696" 
d="M446 774q-29 0 -46 19.5t-17 48.5t17 47.5t46 18.5q31 0 48 -18.5t17 -47.5q0 -30 -17 -49t-48 -19zM248 774q-30 0 -46.5 19t-16.5 49q0 29 16.5 47.5t46.5 18.5t47 -18.5t17 -47.5q0 -30 -17 -49t-47 -19zM141 0h-116l262 743h122l259 -733l-121 -20l-63 186h-281z
M344 586l-104 -300h208l-102 300h-2z" />
    <glyph glyph-name="Aring" unicode="&#xc5;" horiz-adv-x="696" 
d="M25 0l255 724q-34 26 -34 72q0 44 29 73t73 29t73 -29t29 -73q0 -47 -34 -71l252 -715l-121 -20l-63 186h-281l-62 -176h-116zM348 745q21 0 35 14.5t14 36.5t-14 36.5t-35 14.5t-35 -14.5t-14 -36.5t14 -36.5t35 -14.5zM240 286h208l-102 301h-2z" />
    <glyph glyph-name="AE" unicode="&#xc6;" horiz-adv-x="1042" 
d="M504 636l-179 -318h180v318h-1zM146 0h-126l421 740h541v-116h-353v-184h249l19 -111h-268v-216h372v-113h-496v208h-242z" />
    <glyph glyph-name="Ccedilla" unicode="&#xc7;" horiz-adv-x="710" 
d="M379 -199q-82 0 -138 37l25 40q45 -30 102 -30q60 0 60 40q0 30 -36 30q-24 0 -47 -18l-35 17l22 71q-130 15 -207 115t-77 269q0 178 90 280t231 102q199 0 278 -171l-106 -63q-50 119 -172 119q-93 0 -144.5 -71.5t-51.5 -194.5q0 -129 53.5 -202t149.5 -73
q67 0 112.5 36.5t68.5 101.5l108 -49q-71 -195 -277 -201l-9 -35q23 15 60 15q30 0 51 -18.5t21 -50.5q0 -46 -37.5 -71t-94.5 -25z" />
    <glyph glyph-name="Egrave" unicode="&#xc8;" horiz-adv-x="621" 
d="M309 784l-144 166h132l93 -166h-81zM582 0h-498v740h478v-116h-353v-184h270l18 -111h-288v-216h373v-113z" />
    <glyph glyph-name="Eacute" unicode="&#xc9;" horiz-adv-x="621" 
d="M251 784l93 166h133l-145 -166h-81zM582 0h-498v740h478v-116h-353v-184h270l18 -111h-288v-216h373v-113z" />
    <glyph glyph-name="Ecircumflex" unicode="&#xca;" horiz-adv-x="621" 
d="M150 784l129 166h85l129 -166h-72l-101 84l-99 -84h-71zM582 0h-498v740h478v-116h-353v-184h270l18 -111h-288v-216h373v-113z" />
    <glyph glyph-name="Edieresis" unicode="&#xcb;" horiz-adv-x="621" 
d="M425 774q-29 0 -46 19.5t-17 48.5t17 47.5t46 18.5q31 0 48 -18.5t17 -47.5q0 -30 -17 -49t-48 -19zM227 774q-30 0 -46.5 19t-16.5 49q0 29 16.5 47.5t46.5 18.5t47 -18.5t17 -47.5q0 -30 -17 -49t-47 -19zM582 0h-498v740h478v-116h-353v-184h270l18 -111h-288v-216
h373v-113z" />
    <glyph glyph-name="Igrave" unicode="&#xcc;" horiz-adv-x="310" 
d="M126 784l-144 166h132l93 -166h-81zM217 0h-124v740h124v-740z" />
    <glyph glyph-name="Iacute" unicode="&#xcd;" horiz-adv-x="310" 
d="M110 784l93 166h133l-145 -166h-81zM217 0h-124v740h124v-740z" />
    <glyph glyph-name="Icircumflex" unicode="&#xce;" horiz-adv-x="310" 
d="M-16 784l129 166h85l129 -166h-72l-101 84l-99 -84h-71zM217 0h-124v740h124v-740z" />
    <glyph glyph-name="Idieresis" unicode="&#xcf;" horiz-adv-x="310" 
d="M253 774q-29 0 -46 19.5t-17 48.5t17 47.5t46 18.5q31 0 48 -18.5t17 -47.5q0 -30 -17 -49t-48 -19zM55 774q-30 0 -46.5 19t-16.5 49q0 29 16.5 47.5t46.5 18.5t47 -18.5t17 -47.5q0 -30 -17 -49t-47 -19zM217 0h-124v740h124v-740z" />
    <glyph glyph-name="Eth" unicode="&#xd0;" horiz-adv-x="727" 
d="M294 0h-210v335h-73v96h73v309h210q182 0 283.5 -90t101.5 -280q0 -187 -102.5 -278.5t-282.5 -91.5zM208 335v-224h97q129 0 189 62.5t60 197.5q0 130 -61 191.5t-190 61.5h-95v-193h154v-96h-154z" />
    <glyph glyph-name="Ntilde" unicode="&#xd1;" horiz-adv-x="763" 
d="M463 777q-36 0 -82 28t-65 28q-42 0 -39 -60l-70 12q0 65 27.5 99t77.5 34q36 0 82 -28t65 -28q41 0 40 59l68 -11q0 -65 -27.5 -99t-76.5 -34zM199 0h-115v740h127l350 -529h2v529h116v-740h-114l-364 539h-2v-539z" />
    <glyph glyph-name="Ograve" unicode="&#xd2;" horiz-adv-x="764" 
d="M361 784l-144 166h132l93 -166h-81zM382 -14q-141 0 -237.5 102.5t-96.5 281.5t96.5 281.5t237.5 102.5t237 -102.5t96 -281.5t-96 -281.5t-237 -102.5zM382 98q94 0 151.5 73.5t57.5 198.5t-57 197t-152 72t-152 -72t-57 -197t57.5 -198.5t151.5 -73.5z" />
    <glyph glyph-name="Oacute" unicode="&#xd3;" horiz-adv-x="764" 
d="M319 784l93 166h133l-145 -166h-81zM382 -14q-141 0 -237.5 102.5t-96.5 281.5t96.5 281.5t237.5 102.5t237 -102.5t96 -281.5t-96 -281.5t-237 -102.5zM382 98q94 0 151.5 73.5t57.5 198.5t-57 197t-152 72t-152 -72t-57 -197t57.5 -198.5t151.5 -73.5z" />
    <glyph glyph-name="Ocircumflex" unicode="&#xd4;" horiz-adv-x="764" 
d="M210 784l129 166h85l129 -166h-72l-101 84l-99 -84h-71zM382 -14q-141 0 -237.5 102.5t-96.5 281.5t96.5 281.5t237.5 102.5t237 -102.5t96 -281.5t-96 -281.5t-237 -102.5zM382 98q94 0 151.5 73.5t57.5 198.5t-57 197t-152 72t-152 -72t-57 -197t57.5 -198.5
t151.5 -73.5z" />
    <glyph glyph-name="Otilde" unicode="&#xd5;" horiz-adv-x="764" 
d="M456 777q-36 0 -82 28t-65 28q-42 0 -39 -60l-70 12q0 65 27.5 99t77.5 34q36 0 82 -28t65 -28q41 0 40 59l68 -11q0 -65 -27.5 -99t-76.5 -34zM382 -14q-141 0 -237.5 102.5t-96.5 281.5t96.5 281.5t237.5 102.5t237 -102.5t96 -281.5t-96 -281.5t-237 -102.5zM382 98
q94 0 151.5 73.5t57.5 198.5t-57 197t-152 72t-152 -72t-57 -197t57.5 -198.5t151.5 -73.5z" />
    <glyph glyph-name="Odieresis" unicode="&#xd6;" horiz-adv-x="764" 
d="M479 774q-29 0 -46 19.5t-17 48.5t17 47.5t46 18.5q31 0 48 -18.5t17 -47.5q0 -30 -17 -49t-48 -19zM281 774q-30 0 -46.5 19t-16.5 49q0 29 16.5 47.5t46.5 18.5t47 -18.5t17 -47.5q0 -30 -17 -49t-47 -19zM382 -14q-141 0 -237.5 102.5t-96.5 281.5t96.5 281.5
t237.5 102.5t237 -102.5t96 -281.5t-96 -281.5t-237 -102.5zM382 98q94 0 151.5 73.5t57.5 198.5t-57 197t-152 72t-152 -72t-57 -197t57.5 -198.5t151.5 -73.5z" />
    <glyph glyph-name="multiply" unicode="&#xd7;" horiz-adv-x="642" 
d="M321 249l-165 -165l-71 73l163 163l-163 163l71 72l164 -163l163 163l72 -72l-163 -163l164 -162l-71 -72z" />
    <glyph glyph-name="Oslash" unicode="&#xd8;" horiz-adv-x="764" 
d="M203 208l312 385q-53 50 -132 50q-97 0 -154.5 -72t-57.5 -201q0 -93 32 -162zM561 531l-313 -385q54 -52 135 -52q95 0 152.5 73.5t57.5 202.5q0 95 -32 161zM717 716l-74 -90q73 -100 73 -256q0 -181 -93.5 -282.5t-239.5 -101.5q-120 0 -206 69l-67 -80l-63 49l74 89
q-73 102 -73 257q0 181 94.5 282.5t240.5 101.5q121 0 204 -69l67 80z" />
    <glyph glyph-name="Ugrave" unicode="&#xd9;" horiz-adv-x="721" 
d="M343 784l-144 166h132l93 -166h-81zM361 -13q-142 0 -214.5 76t-72.5 206v471h125v-464q0 -83 40 -129t123 -46q162 0 162 174v465h123v-469q0 -131 -72 -207.5t-214 -76.5z" />
    <glyph glyph-name="Uacute" unicode="&#xda;" horiz-adv-x="721" 
d="M288 784l93 166h133l-145 -166h-81zM361 -13q-142 0 -214.5 76t-72.5 206v471h125v-464q0 -83 40 -129t123 -46q162 0 162 174v465h123v-469q0 -131 -72 -207.5t-214 -76.5z" />
    <glyph glyph-name="Ucircumflex" unicode="&#xdb;" horiz-adv-x="721" 
d="M188 784l129 166h85l129 -166h-72l-101 84l-99 -84h-71zM361 -13q-142 0 -214.5 76t-72.5 206v471h125v-464q0 -83 40 -129t123 -46q162 0 162 174v465h123v-469q0 -131 -72 -207.5t-214 -76.5z" />
    <glyph glyph-name="Udieresis" unicode="&#xdc;" horiz-adv-x="721" 
d="M458 774q-29 0 -46 19.5t-17 48.5t17 47.5t46 18.5q31 0 48 -18.5t17 -47.5q0 -30 -17 -49t-48 -19zM260 774q-30 0 -46.5 19t-16.5 49q0 29 16.5 47.5t46.5 18.5t47 -18.5t17 -47.5q0 -30 -17 -49t-47 -19zM361 -13q-142 0 -214.5 76t-72.5 206v471h125v-464
q0 -83 40 -129t123 -46q162 0 162 174v465h123v-469q0 -131 -72 -207.5t-214 -76.5z" />
    <glyph glyph-name="Yacute" unicode="&#xdd;" horiz-adv-x="661" 
d="M254 786l93 166h133l-145 -166h-81zM392 0h-124v319l-247 411l119 20l191 -325l186 315h128l-253 -421v-319z" />
    <glyph glyph-name="Thorn" unicode="&#xde;" horiz-adv-x="665" 
d="M209 0h-125v740h125v-124h132q286 0 286 -229q0 -66 -23.5 -113t-65.5 -72.5t-91 -37t-110 -11.5h-128v-153zM209 501v-237h132q82 0 121 29t39 90q0 60 -39 89t-122 29h-131z" />
    <glyph glyph-name="germandbls" unicode="&#xdf;" horiz-adv-x="654" 
d="M413 -11q-98 0 -162 44l37 86q58 -34 116 -34q46 0 74 31.5t28 84.5q0 79 -58 112t-166 36v89q152 1 152 111q0 39 -31 63.5t-85 24.5q-128 0 -128 -134v-503h-121v499q0 120 65.5 180.5t181.5 60.5q107 0 170 -47.5t63 -134.5q0 -58 -34.5 -97.5t-92.5 -56.5
q84 -11 141 -60t57 -138q0 -102 -56 -159.5t-151 -57.5z" />
    <glyph glyph-name="agrave" unicode="&#xe0;" horiz-adv-x="565" 
d="M272 587l-144 166h132l93 -166h-81zM230 87q90 0 151 61v117q-124 -17 -175 -44.5t-51 -69.5q0 -31 20 -47.5t55 -16.5zM186 -8q-67 0 -109 37.5t-42 101.5q0 90 82 143t264 74v16q0 76 -92 76q-86 0 -171 -71l-67 75q104 97 254 97q196 0 196 -192v-349h-110l-10 68
q-75 -76 -195 -76z" />
    <glyph glyph-name="aacute" unicode="&#xe1;" horiz-adv-x="565" 
d="M223 587l93 166h133l-145 -166h-81zM230 87q90 0 151 61v117q-124 -17 -175 -44.5t-51 -69.5q0 -31 20 -47.5t55 -16.5zM186 -8q-67 0 -109 37.5t-42 101.5q0 90 82 143t264 74v16q0 76 -92 76q-86 0 -171 -71l-67 75q104 97 254 97q196 0 196 -192v-349h-110l-10 68
q-75 -76 -195 -76z" />
    <glyph glyph-name="acircumflex" unicode="&#xe2;" horiz-adv-x="565" 
d="M114 587l129 166h85l129 -166h-72l-101 84l-99 -84h-71zM230 87q90 0 151 61v117q-124 -17 -175 -44.5t-51 -69.5q0 -31 20 -47.5t55 -16.5zM186 -8q-67 0 -109 37.5t-42 101.5q0 90 82 143t264 74v16q0 76 -92 76q-86 0 -171 -71l-67 75q104 97 254 97q196 0 196 -192
v-349h-110l-10 68q-75 -76 -195 -76z" />
    <glyph glyph-name="atilde" unicode="&#xe3;" horiz-adv-x="565" 
d="M360 580q-36 0 -82 28t-65 28q-42 0 -39 -60l-70 12q0 65 27.5 99t77.5 34q36 0 82 -28t65 -28q41 0 40 59l68 -11q0 -65 -27.5 -99t-76.5 -34zM230 87q90 0 151 61v117q-124 -17 -175 -44.5t-51 -69.5q0 -31 20 -47.5t55 -16.5zM186 -8q-67 0 -109 37.5t-42 101.5
q0 90 82 143t264 74v16q0 76 -92 76q-86 0 -171 -71l-67 75q104 97 254 97q196 0 196 -192v-349h-110l-10 68q-75 -76 -195 -76z" />
    <glyph glyph-name="adieresis" unicode="&#xe4;" horiz-adv-x="565" 
d="M387 577q-29 0 -46 19.5t-17 48.5t17 47.5t46 18.5q31 0 48 -18.5t17 -47.5q0 -30 -17 -49t-48 -19zM189 577q-30 0 -46.5 19t-16.5 49q0 29 16.5 47.5t46.5 18.5t47 -18.5t17 -47.5q0 -30 -17 -49t-47 -19zM230 87q90 0 151 61v117q-124 -17 -175 -44.5t-51 -69.5
q0 -31 20 -47.5t55 -16.5zM186 -8q-67 0 -109 37.5t-42 101.5q0 90 82 143t264 74v16q0 76 -92 76q-86 0 -171 -71l-67 75q104 97 254 97q196 0 196 -192v-349h-110l-10 68q-75 -76 -195 -76z" />
    <glyph glyph-name="aring" unicode="&#xe5;" horiz-adv-x="565" 
d="M290 579q-44 0 -73 29t-29 73q0 43 29 72t73 29t73 -29t29 -72q0 -44 -29 -73t-73 -29zM290 629q22 0 35.5 14.5t13.5 37.5q0 22 -13.5 36.5t-35.5 14.5t-35.5 -14.5t-13.5 -36.5q0 -23 13.5 -37.5t35.5 -14.5zM230 87q90 0 151 61v117q-124 -17 -175 -44.5t-51 -69.5
q0 -31 20 -47.5t55 -16.5zM186 -8q-67 0 -109 37.5t-42 101.5q0 90 82 143t264 74v16q0 76 -92 76q-86 0 -171 -71l-67 75q104 97 254 97q196 0 196 -192v-349h-110l-10 68q-75 -76 -195 -76z" />
    <glyph glyph-name="ae" unicode="&#xe6;" horiz-adv-x="895" 
d="M185 -11q-66 0 -108 36t-42 100q0 91 82 147t263 76v16q0 76 -86 76q-89 0 -176 -71l-67 75q106 97 259 97q117 0 151 -84q27 38 70.5 61t91.5 23q100 0 166.5 -68.5t66.5 -218.5v-24h-362q3 -75 41.5 -109t102.5 -34q88 0 160 70l51 -83q-91 -85 -220 -85
q-150 0 -211 109q-99 -109 -233 -109zM495 317h248q-5 59 -36 91.5t-85 32.5q-48 0 -83 -31.5t-44 -92.5zM230 83q88 0 163 76q-12 38 -13 81q-2 14 0 28q-126 -17 -175.5 -47t-49.5 -73q0 -32 20 -48.5t55 -16.5z" />
    <glyph glyph-name="ccedilla" unicode="&#xe7;" horiz-adv-x="550" 
d="M288 -199q-82 0 -138 37l25 40q45 -30 102 -30q60 0 60 40q0 30 -36 30q-24 0 -47 -18l-35 17l24 76q-88 14 -146 82.5t-58 189.5q0 73 23 128.5t61 86.5t81 46t90 15q72 0 128 -34.5t87 -99.5l-91 -58q-21 47 -50 68.5t-74 21.5q-58 0 -95 -44.5t-37 -130.5
q0 -81 34.5 -128.5t97.5 -47.5q86 0 132 99l91 -57q-67 -136 -219 -141l-10 -38q23 15 60 15q30 0 51 -18.5t21 -50.5q0 -46 -37.5 -71t-94.5 -25z" />
    <glyph glyph-name="egrave" unicode="&#xe8;" horiz-adv-x="564" 
d="M263 587l-144 166h132l93 -166h-81zM299 -11q-112 0 -186 69t-74 207q0 71 23.5 126.5t62 87t81 47t86.5 15.5q46 0 85.5 -15t73.5 -47t54 -89.5t20 -135.5v-29h-363q3 -67 42.5 -102.5t101.5 -35.5q94 0 164 68l49 -81q-89 -85 -220 -85zM163 316h249q-5 59 -35.5 92
t-85.5 33q-48 0 -83.5 -32t-44.5 -93z" />
    <glyph glyph-name="eacute" unicode="&#xe9;" horiz-adv-x="564" 
d="M224 587l93 166h133l-145 -166h-81zM299 -11q-112 0 -186 69t-74 207q0 71 23.5 126.5t62 87t81 47t86.5 15.5q46 0 85.5 -15t73.5 -47t54 -89.5t20 -135.5v-29h-363q3 -67 42.5 -102.5t101.5 -35.5q94 0 164 68l49 -81q-89 -85 -220 -85zM163 316h249q-5 59 -35.5 92
t-85.5 33q-48 0 -83.5 -32t-44.5 -93z" />
    <glyph glyph-name="ecircumflex" unicode="&#xea;" horiz-adv-x="564" 
d="M114 587l129 166h85l129 -166h-72l-101 84l-99 -84h-71zM299 -11q-112 0 -186 69t-74 207q0 71 23.5 126.5t62 87t81 47t86.5 15.5q46 0 85.5 -15t73.5 -47t54 -89.5t20 -135.5v-29h-363q3 -67 42.5 -102.5t101.5 -35.5q94 0 164 68l49 -81q-89 -85 -220 -85zM163 316
h249q-5 59 -35.5 92t-85.5 33q-48 0 -83.5 -32t-44.5 -93z" />
    <glyph glyph-name="edieresis" unicode="&#xeb;" horiz-adv-x="564" 
d="M382 577q-29 0 -46 19.5t-17 48.5t17 47.5t46 18.5q31 0 48 -18.5t17 -47.5q0 -30 -17 -49t-48 -19zM184 577q-30 0 -46.5 19t-16.5 49q0 29 16.5 47.5t46.5 18.5t47 -18.5t17 -47.5q0 -30 -17 -49t-47 -19zM299 -11q-112 0 -186 69t-74 207q0 71 23.5 126.5t62 87t81 47
t86.5 15.5q46 0 85.5 -15t73.5 -47t54 -89.5t20 -135.5v-29h-363q3 -67 42.5 -102.5t101.5 -35.5q94 0 164 68l49 -81q-89 -85 -220 -85zM163 316h249q-5 59 -35.5 92t-85.5 33q-48 0 -83.5 -32t-44.5 -93z" />
    <glyph glyph-name="igrave" unicode="&#xec;" horiz-adv-x="272" 
d="M104 587l-144 166h132l93 -166h-81zM197 0h-122v530h122v-530z" />
    <glyph glyph-name="iacute" unicode="&#xed;" horiz-adv-x="272" 
d="M95 587l93 166h133l-145 -166h-81zM197 0h-122v530h122v-530z" />
    <glyph glyph-name="icircumflex" unicode="&#xee;" horiz-adv-x="272" 
d="M-35 587l129 166h85l129 -166h-72l-101 84l-99 -84h-71zM197 0h-122v530h122v-530z" />
    <glyph glyph-name="idieresis" unicode="&#xef;" horiz-adv-x="272" 
d="M234 577q-29 0 -46 19.5t-17 48.5t17 47.5t46 18.5q31 0 48 -18.5t17 -47.5q0 -30 -17 -49t-48 -19zM36 577q-30 0 -46.5 19t-16.5 49q0 29 16.5 47.5t46.5 18.5t47 -18.5t17 -47.5q0 -30 -17 -49t-47 -19zM197 0h-122v530h122v-530z" />
    <glyph glyph-name="eth" unicode="&#xf0;" horiz-adv-x="595" 
d="M298 -11q-113 0 -185 69.5t-72 188.5q0 120 66 187t165 67q41 0 84.5 -20t70.5 -55q-20 87 -70 149l-89 -39l-36 69l75 31q-29 28 -67 55l58 69q59 -36 99 -76l89 40l35 -68l-72 -34q105 -141 105 -359q0 -126 -71.5 -200t-184.5 -74zM298 88q62 0 98 41.5t36 119.5
q0 71 -36 114t-98 43q-63 0 -99 -42t-36 -116q0 -75 35.5 -117.5t99.5 -42.5z" />
    <glyph glyph-name="ntilde" unicode="&#xf1;" horiz-adv-x="603" 
d="M381 580q-36 0 -82 28t-65 28q-42 0 -39 -60l-70 12q0 65 27.5 99t77.5 34q36 0 82 -28t65 -28q41 0 40 59l68 -11q0 -65 -27.5 -99t-76.5 -34zM193 0h-123v530h113l10 -75q76 86 191 86q74 0 115 -39t41 -116v-386h-122v350q0 89 -81 89q-68 0 -144 -69v-370z" />
    <glyph glyph-name="ograve" unicode="&#xf2;" horiz-adv-x="596" 
d="M277 587l-144 166h132l93 -166h-81zM298 -11q-107 0 -183 70t-76 206q0 70 22 124.5t59 87t82.5 48.5t95.5 16t95 -16t82 -48.5t59 -87t22 -124.5q0 -136 -75.5 -206t-182.5 -70zM298 92q65 0 100.5 47t35.5 125q0 77 -34.5 124.5t-101.5 47.5q-66 0 -101 -46t-35 -126
q0 -79 33.5 -125.5t102.5 -46.5z" />
    <glyph glyph-name="oacute" unicode="&#xf3;" horiz-adv-x="596" 
d="M236 587l93 166h133l-145 -166h-81zM298 -11q-107 0 -183 70t-76 206q0 70 22 124.5t59 87t82.5 48.5t95.5 16t95 -16t82 -48.5t59 -87t22 -124.5q0 -136 -75.5 -206t-182.5 -70zM298 92q65 0 100.5 47t35.5 125q0 77 -34.5 124.5t-101.5 47.5q-66 0 -101 -46t-35 -126
q0 -79 33.5 -125.5t102.5 -46.5z" />
    <glyph glyph-name="ocircumflex" unicode="&#xf4;" horiz-adv-x="596" 
d="M126 587l129 166h85l129 -166h-72l-101 84l-99 -84h-71zM298 -11q-107 0 -183 70t-76 206q0 70 22 124.5t59 87t82.5 48.5t95.5 16t95 -16t82 -48.5t59 -87t22 -124.5q0 -136 -75.5 -206t-182.5 -70zM298 92q65 0 100.5 47t35.5 125q0 77 -34.5 124.5t-101.5 47.5
q-66 0 -101 -46t-35 -126q0 -79 33.5 -125.5t102.5 -46.5z" />
    <glyph glyph-name="otilde" unicode="&#xf5;" horiz-adv-x="596" 
d="M374 580q-36 0 -82 28t-65 28q-42 0 -39 -60l-70 12q0 65 27.5 99t77.5 34q36 0 82 -28t65 -28q41 0 40 59l68 -11q0 -65 -27.5 -99t-76.5 -34zM298 -11q-107 0 -183 70t-76 206q0 70 22 124.5t59 87t82.5 48.5t95.5 16t95 -16t82 -48.5t59 -87t22 -124.5
q0 -136 -75.5 -206t-182.5 -70zM298 92q65 0 100.5 47t35.5 125q0 77 -34.5 124.5t-101.5 47.5q-66 0 -101 -46t-35 -126q0 -79 33.5 -125.5t102.5 -46.5z" />
    <glyph glyph-name="odieresis" unicode="&#xf6;" horiz-adv-x="596" 
d="M395 577q-29 0 -46 19.5t-17 48.5t17 47.5t46 18.5q31 0 48 -18.5t17 -47.5q0 -30 -17 -49t-48 -19zM197 577q-30 0 -46.5 19t-16.5 49q0 29 16.5 47.5t46.5 18.5t47 -18.5t17 -47.5q0 -30 -17 -49t-47 -19zM298 -11q-107 0 -183 70t-76 206q0 70 22 124.5t59 87
t82.5 48.5t95.5 16t95 -16t82 -48.5t59 -87t22 -124.5q0 -136 -75.5 -206t-182.5 -70zM298 92q65 0 100.5 47t35.5 125q0 77 -34.5 124.5t-101.5 47.5q-66 0 -101 -46t-35 -126q0 -79 33.5 -125.5t102.5 -46.5z" />
    <glyph glyph-name="divide" unicode="&#xf7;" horiz-adv-x="642" 
d="M319 465q-30 0 -47 17.5t-17 44.5t17 44t47 17t47.5 -17t17.5 -44t-17.5 -44.5t-47.5 -17.5zM576 292h-510v99h510v-99zM319 91q-30 0 -47 17.5t-17 44.5q0 28 17 45t47 17t47.5 -17t17.5 -45q0 -27 -17.5 -44.5t-47.5 -17.5z" />
    <glyph glyph-name="oslash" unicode="&#xf8;" horiz-adv-x="596" 
d="M178 166l202 249q-33 27 -82 27q-66 0 -102 -47.5t-36 -129.5q0 -57 18 -99zM420 359l-202 -248q33 -26 80 -26q66 0 102 48t36 132q0 55 -16 94zM557 515l-56 -65q56 -72 56 -185q0 -136 -76 -206t-183 -70q-83 0 -147 41l-59 -68l-52 48l58 67q-59 74 -59 188
q0 137 75.5 206.5t183.5 69.5q87 0 150 -43l56 66z" />
    <glyph glyph-name="ugrave" unicode="&#xf9;" horiz-adv-x="603" 
d="M282 587l-144 166h132l93 -166h-81zM221 -11q-75 0 -116 39t-41 116v386h123v-353q0 -43 19 -63.5t61 -20.5q67 0 144 70v367h123v-530h-113l-10 74q-79 -85 -190 -85z" />
    <glyph glyph-name="uacute" unicode="&#xfa;" horiz-adv-x="603" 
d="M233 587l93 166h133l-145 -166h-81zM221 -11q-75 0 -116 39t-41 116v386h123v-353q0 -43 19 -63.5t61 -20.5q67 0 144 70v367h123v-530h-113l-10 74q-79 -85 -190 -85z" />
    <glyph glyph-name="ucircumflex" unicode="&#xfb;" horiz-adv-x="603" 
d="M127 587l129 166h85l129 -166h-72l-101 84l-99 -84h-71zM221 -11q-75 0 -116 39t-41 116v386h123v-353q0 -43 19 -63.5t61 -20.5q67 0 144 70v367h123v-530h-113l-10 74q-79 -85 -190 -85z" />
    <glyph glyph-name="udieresis" unicode="&#xfc;" horiz-adv-x="603" 
d="M397 577q-29 0 -46 19.5t-17 48.5t17 47.5t46 18.5q31 0 48 -18.5t17 -47.5q0 -30 -17 -49t-48 -19zM199 577q-30 0 -46.5 19t-16.5 49q0 29 16.5 47.5t46.5 18.5t47 -18.5t17 -47.5q0 -30 -17 -49t-47 -19zM221 -11q-75 0 -116 39t-41 116v386h123v-353q0 -43 19 -63.5
t61 -20.5q67 0 144 70v367h123v-530h-113l-10 74q-79 -85 -190 -85z" />
    <glyph glyph-name="yacute" unicode="&#xfd;" horiz-adv-x="546" 
d="M203 587l93 166h133l-145 -166h-81zM125 -203q-55 0 -87 8l-9 103q40 -11 87 -11q33 0 52.5 14t32.5 47l15 39l-200 524l121 19l139 -396h2l137 386h121l-225 -588q-29 -75 -70 -110t-116 -35z" />
    <glyph glyph-name="thorn" unicode="&#xfe;" horiz-adv-x="611" 
d="M323 89q58 0 91.5 45t33.5 131q0 82 -33.5 126.5t-93.5 44.5q-65 0 -129 -66v-217q66 -64 131 -64zM192 -191l-123 -18v940l123 18v-288q65 80 169 80q94 0 152 -70.5t58 -204.5q0 -133 -59 -203.5t-153 -70.5q-107 0 -167 66v-249z" />
    <glyph glyph-name="ydieresis" unicode="&#xff;" horiz-adv-x="546" 
d="M375 577q-29 0 -46 19.5t-17 48.5t17 47.5t46 18.5q31 0 48 -18.5t17 -47.5q0 -30 -17 -49t-48 -19zM177 577q-30 0 -46.5 19t-16.5 49q0 29 16.5 47.5t46.5 18.5t47 -18.5t17 -47.5q0 -30 -17 -49t-47 -19zM125 -203q-55 0 -87 8l-9 103q40 -11 87 -11q33 0 52.5 14
t32.5 47l15 39l-200 524l121 19l139 -396h2l137 386h121l-225 -588q-29 -75 -70 -110t-116 -35z" />
    <glyph glyph-name="Amacron" unicode="&#x100;" horiz-adv-x="696" 
d="M193 780v91h310v-91h-310zM141 0h-116l262 743h122l259 -733l-121 -20l-63 186h-281zM344 586l-104 -300h208l-102 300h-2z" />
    <glyph glyph-name="amacron" unicode="&#x101;" horiz-adv-x="565" 
d="M127 583v91h310v-91h-310zM230 87q90 0 151 61v117q-124 -17 -175 -44.5t-51 -69.5q0 -31 20 -47.5t55 -16.5zM186 -8q-67 0 -109 37.5t-42 101.5q0 90 82 143t264 74v16q0 76 -92 76q-86 0 -171 -71l-67 75q104 97 254 97q196 0 196 -192v-349h-110l-10 68
q-75 -76 -195 -76z" />
    <glyph glyph-name="Abreve" unicode="&#x102;" horiz-adv-x="696" 
d="M348 776q-75 0 -118.5 48.5t-47.5 127.5h69q11 -94 97 -94t97 94h69q-4 -79 -47.5 -127.5t-118.5 -48.5zM141 0h-116l262 743h122l259 -733l-121 -20l-63 186h-281zM344 586l-104 -300h208l-102 300h-2z" />
    <glyph glyph-name="abreve" unicode="&#x103;" horiz-adv-x="565" 
d="M282 579q-75 0 -118.5 48.5t-47.5 127.5h69q11 -94 97 -94t97 94h69q-4 -79 -47.5 -127.5t-118.5 -48.5zM230 87q90 0 151 61v117q-124 -17 -175 -44.5t-51 -69.5q0 -31 20 -47.5t55 -16.5zM186 -8q-67 0 -109 37.5t-42 101.5q0 90 82 143t264 74v16q0 76 -92 76
q-86 0 -171 -71l-67 75q104 97 254 97q196 0 196 -192v-349h-110l-10 68q-75 -76 -195 -76z" />
    <glyph glyph-name="Aogonek" unicode="&#x104;" horiz-adv-x="696" 
d="M566 -187q-50 0 -77 20.5t-27 56.5q0 58 81 111l-59 175h-281l-62 -176h-116l262 743h122l259 -733l-55 -9q-64 -44 -64 -91q0 -43 48 -43q38 0 88 25l24 -40q-68 -39 -143 -39zM344 586l-104 -300h208l-102 300h-2z" />
    <glyph glyph-name="aogonek" unicode="&#x105;" horiz-adv-x="565" 
d="M230 87q90 0 151 61v117q-124 -17 -175 -44.5t-51 -69.5q0 -31 20 -47.5t55 -16.5zM554 -148q-68 -39 -143 -39q-50 0 -77 20.5t-27 56.5q0 29 23 59t61 53l-10 66q-75 -76 -195 -76q-67 0 -109 37.5t-42 101.5q0 90 82 143t264 74v16q0 76 -92 76q-86 0 -171 -71l-67 75
q104 97 254 97q196 0 196 -192v-349h-44q-63 -43 -63 -90q0 -43 48 -43q38 0 88 25z" />
    <glyph glyph-name="Cacute" unicode="&#x106;" horiz-adv-x="717" 
d="M295 784l93 166h133l-145 -166h-81zM376 -14q-147 0 -237.5 101.5t-90.5 284.5q0 178 90 280t231 102q199 0 278 -171l-106 -63q-50 119 -172 119q-93 0 -144.5 -71.5t-51.5 -194.5q0 -129 53.5 -202t149.5 -73q67 0 112.5 36.5t68.5 101.5l108 -49q-72 -201 -289 -201z
" />
    <glyph glyph-name="cacute" unicode="&#x107;" horiz-adv-x="545" 
d="M222 587l93 166h133l-145 -166h-81zM287 -11q-102 0 -175 70t-73 206q0 73 23 128.5t61 86.5t81 46t90 15q72 0 128 -34.5t87 -99.5l-91 -58q-21 47 -50 68.5t-74 21.5q-58 0 -95 -44.5t-37 -130.5q0 -81 34.5 -128.5t97.5 -47.5q86 0 132 99l91 -57q-69 -141 -230 -141z
" />
    <glyph glyph-name="Ccircumflex" unicode="&#x108;" horiz-adv-x="717" 
d="M198 784l129 166h85l129 -166h-72l-101 84l-99 -84h-71zM376 -14q-147 0 -237.5 101.5t-90.5 284.5q0 178 90 280t231 102q199 0 278 -171l-106 -63q-50 119 -172 119q-93 0 -144.5 -71.5t-51.5 -194.5q0 -129 53.5 -202t149.5 -73q67 0 112.5 36.5t68.5 101.5l108 -49
q-72 -201 -289 -201z" />
    <glyph glyph-name="ccircumflex" unicode="&#x109;" horiz-adv-x="545" 
d="M108 587l129 166h85l129 -166h-72l-101 84l-99 -84h-71zM287 -11q-102 0 -175 70t-73 206q0 73 23 128.5t61 86.5t81 46t90 15q72 0 128 -34.5t87 -99.5l-91 -58q-21 47 -50 68.5t-74 21.5q-58 0 -95 -44.5t-37 -130.5q0 -81 34.5 -128.5t97.5 -47.5q86 0 132 99l91 -57
q-69 -141 -230 -141z" />
    <glyph glyph-name="Cdotaccent" unicode="&#x10a;" horiz-adv-x="717" 
d="M367 785q-34 0 -53.5 18t-19.5 47q0 28 19.5 46t53.5 18q36 0 56 -18t20 -46q0 -29 -20 -47t-56 -18zM376 -14q-147 0 -237.5 101.5t-90.5 284.5q0 178 90 280t231 102q199 0 278 -171l-106 -63q-50 119 -172 119q-93 0 -144.5 -71.5t-51.5 -194.5q0 -129 53.5 -202
t149.5 -73q67 0 112.5 36.5t68.5 101.5l108 -49q-72 -201 -289 -201z" />
    <glyph glyph-name="cdotaccent" unicode="&#x10b;" horiz-adv-x="545" 
d="M281 588q-34 0 -53.5 18t-19.5 47q0 28 19.5 46t53.5 18q36 0 56 -18t20 -46q0 -29 -20 -47t-56 -18zM287 -11q-102 0 -175 70t-73 206q0 73 23 128.5t61 86.5t81 46t90 15q72 0 128 -34.5t87 -99.5l-91 -58q-21 47 -50 68.5t-74 21.5q-58 0 -95 -44.5t-37 -130.5
q0 -81 34.5 -128.5t97.5 -47.5q86 0 132 99l91 -57q-69 -141 -230 -141z" />
    <glyph glyph-name="Ccaron" unicode="&#x10c;" horiz-adv-x="717" 
d="M315 786l-129 166h72l100 -84l100 84h71l-129 -166h-85zM376 -14q-147 0 -237.5 101.5t-90.5 284.5q0 178 90 280t231 102q199 0 278 -171l-106 -63q-50 119 -172 119q-93 0 -144.5 -71.5t-51.5 -194.5q0 -129 53.5 -202t149.5 -73q67 0 112.5 36.5t68.5 101.5l108 -49
q-72 -201 -289 -201z" />
    <glyph glyph-name="ccaron" unicode="&#x10d;" horiz-adv-x="545" 
d="M230 589l-129 166h72l100 -84l100 84h71l-129 -166h-85zM287 -11q-102 0 -175 70t-73 206q0 73 23 128.5t61 86.5t81 46t90 15q72 0 128 -34.5t87 -99.5l-91 -58q-21 47 -50 68.5t-74 21.5q-58 0 -95 -44.5t-37 -130.5q0 -81 34.5 -128.5t97.5 -47.5q86 0 132 99l91 -57
q-69 -141 -230 -141z" />
    <glyph glyph-name="Dcaron" unicode="&#x10e;" horiz-adv-x="727" 
d="M315 786l-129 166h72l100 -84l100 84h71l-129 -166h-85zM294 0h-210v740h210q182 0 283.5 -90t101.5 -277q0 -191 -102.5 -282t-282.5 -91zM208 624v-511h97q129 0 189 62t60 196q0 130 -61 191.5t-190 61.5h-95z" />
    <glyph glyph-name="dcaron" unicode="&#x10f;" horiz-adv-x="611" 
d="M653 580h-66l24 220h123zM290 93q65 0 129 66v216q-66 64 -131 64q-58 0 -91.5 -44.5t-33.5 -131.5q0 -81 33.5 -125.5t93.5 -44.5zM250 -8q-95 0 -152.5 68.5t-57.5 201.5q0 134 58.5 206.5t153.5 72.5q110 0 167 -71v261l123 18v-749h-113l-10 70q-62 -78 -169 -78z
" />
    <glyph glyph-name="Dcroat" unicode="&#x110;" horiz-adv-x="727" 
d="M294 0h-210v335h-73v96h73v309h210q182 0 283.5 -90t101.5 -280q0 -187 -102.5 -278.5t-282.5 -91.5zM208 335v-224h97q129 0 189 62.5t60 197.5q0 130 -61 191.5t-190 61.5h-95v-193h154v-96h-154z" />
    <glyph glyph-name="dcroat" unicode="&#x111;" horiz-adv-x="611" 
d="M290 86q64 0 130 66v223q-67 65 -132 65q-58 0 -91.5 -45t-33.5 -132q0 -84 33.5 -130.5t93.5 -46.5zM419 80q-71 -88 -169 -88q-95 0 -152.5 68.5t-57.5 201.5q0 134 58.5 206.5t153.5 72.5q102 0 168 -81v125h-97v82h97v64l122 18v-82h73v-82h-73v-585h-113z" />
    <glyph glyph-name="Emacron" unicode="&#x112;" horiz-adv-x="621" 
d="M175 780v91h310v-91h-310zM582 0h-498v740h478v-116h-353v-184h270l18 -111h-288v-216h373v-113z" />
    <glyph glyph-name="emacron" unicode="&#x113;" horiz-adv-x="564" 
d="M126 583v91h310v-91h-310zM299 -11q-112 0 -186 69t-74 207q0 71 23.5 126.5t62 87t81 47t86.5 15.5q46 0 85.5 -15t73.5 -47t54 -89.5t20 -135.5v-29h-363q3 -67 42.5 -102.5t101.5 -35.5q94 0 164 68l49 -81q-89 -85 -220 -85zM163 316h249q-5 59 -35.5 92t-85.5 33
q-48 0 -83.5 -32t-44.5 -93z" />
    <glyph glyph-name="Ebreve" unicode="&#x114;" horiz-adv-x="621" 
d="M315 775q-75 0 -118.5 48.5t-47.5 127.5h69q11 -94 97 -94t97 94h69q-4 -79 -47.5 -127.5t-118.5 -48.5zM582 0h-498v740h478v-116h-353v-184h270l18 -111h-288v-216h373v-113z" />
    <glyph glyph-name="ebreve" unicode="&#x115;" horiz-adv-x="564" 
d="M286 579q-75 0 -118.5 48.5t-47.5 127.5h69q11 -94 97 -94t97 94h69q-4 -79 -47.5 -127.5t-118.5 -48.5zM299 -11q-112 0 -186 69t-74 207q0 71 23.5 126.5t62 87t81 47t86.5 15.5q46 0 85.5 -15t73.5 -47t54 -89.5t20 -135.5v-29h-363q3 -67 42.5 -102.5t101.5 -35.5
q94 0 164 68l49 -81q-89 -85 -220 -85zM163 316h249q-5 59 -35.5 92t-85.5 33q-48 0 -83.5 -32t-44.5 -93z" />
    <glyph glyph-name="Edotaccent" unicode="&#x116;" horiz-adv-x="621" 
d="M329 785q-34 0 -53.5 18t-19.5 47q0 28 19.5 46t53.5 18q36 0 56 -18t20 -46q0 -29 -20 -47t-56 -18zM582 0h-498v740h478v-116h-353v-184h270l18 -111h-288v-216h373v-113z" />
    <glyph glyph-name="edotaccent" unicode="&#x117;" horiz-adv-x="564" 
d="M280 588q-34 0 -53.5 18t-19.5 47q0 28 19.5 46t53.5 18q36 0 56 -18t20 -46q0 -29 -20 -47t-56 -18zM299 -11q-112 0 -186 69t-74 207q0 71 23.5 126.5t62 87t81 47t86.5 15.5q46 0 85.5 -15t73.5 -47t54 -89.5t20 -135.5v-29h-363q3 -67 42.5 -102.5t101.5 -35.5
q94 0 164 68l49 -81q-89 -85 -220 -85zM163 316h249q-5 59 -35.5 92t-85.5 33q-48 0 -83.5 -32t-44.5 -93z" />
    <glyph glyph-name="Eogonek" unicode="&#x118;" horiz-adv-x="621" 
d="M601 -148q-68 -39 -143 -39q-50 0 -77 20.5t-27 56.5q0 58 80 110h-350v740h478v-116h-353v-184h270l18 -111h-288v-216h373v-113h-78q-63 -43 -63 -90q0 -43 48 -43q38 0 88 25z" />
    <glyph glyph-name="eogonek" unicode="&#x119;" horiz-adv-x="564" 
d="M316 -187q-50 0 -77 20.5t-27 56.5q0 50 65 100q-104 7 -171 75.5t-67 199.5q0 71 23.5 126.5t62 87t81 47t86.5 15.5q46 0 85.5 -15t73.5 -47t54 -89.5t20 -135.5v-29h-363q3 -67 42.5 -102.5t101.5 -35.5q94 0 164 68l49 -81q-74 -69 -167 -82q-53 -39 -53 -82t48 -43
q38 0 88 25l24 -40q-68 -39 -143 -39zM163 316h249q-5 59 -35.5 92t-85.5 33q-48 0 -83.5 -32t-44.5 -93z" />
    <glyph glyph-name="Ecaron" unicode="&#x11a;" horiz-adv-x="621" 
d="M287 786l-129 166h72l100 -84l100 84h71l-129 -166h-85zM582 0h-498v740h478v-116h-353v-184h270l18 -111h-288v-216h373v-113z" />
    <glyph glyph-name="ecaron" unicode="&#x11b;" horiz-adv-x="564" 
d="M239 589l-129 166h72l100 -84l100 84h71l-129 -166h-85zM299 -11q-112 0 -186 69t-74 207q0 71 23.5 126.5t62 87t81 47t86.5 15.5q46 0 85.5 -15t73.5 -47t54 -89.5t20 -135.5v-29h-363q3 -67 42.5 -102.5t101.5 -35.5q94 0 164 68l49 -81q-89 -85 -220 -85zM163 316
h249q-5 59 -35.5 92t-85.5 33q-48 0 -83.5 -32t-44.5 -93z" />
    <glyph glyph-name="Gcircumflex" unicode="&#x11c;" horiz-adv-x="745" 
d="M202 784l129 166h85l129 -166h-72l-101 84l-99 -84h-71zM362 -14q-152 0 -233 107t-81 280t89 277t235 104q91 0 165 -43.5t114 -131.5l-107 -58q-49 118 -167 118q-37 0 -71 -13.5t-64.5 -42.5t-49 -82t-18.5 -125q0 -140 58.5 -209t145.5 -69q74 0 121 44.5t53 122.5
h-141l-18 101h278v-366h-103v83h-2q-23 -44 -76.5 -70.5t-127.5 -26.5z" />
    <glyph glyph-name="gcircumflex" unicode="&#x11d;" horiz-adv-x="595" 
d="M102 587l129 166h85l129 -166h-72l-101 84l-99 -84h-71zM272 247q51 0 79 26t28 74q0 50 -28 76t-80 26q-51 0 -79.5 -26.5t-28.5 -75.5q0 -48 28.5 -74t80.5 -26zM269 -206q-256 0 -256 130q0 78 87 112q-41 21 -41 65q0 54 72 97q-84 53 -84 153q0 83 60.5 136.5
t162.5 53.5q100 0 163 -56q56 46 121 52l16 -99q-52 0 -98 -15q19 -30 19 -72q0 -85 -59.5 -137t-161.5 -52q-33 0 -74 11q-27 -15 -27 -34q0 -16 13 -22.5t48 -9.5l94 -6q117 -7 168 -41t51 -104q0 -80 -73.5 -121t-200.5 -41zM288 -117q67 0 106.5 16.5t39.5 45.5
t-27.5 41.5t-107.5 17.5l-92 6q-15 0 -32 3q-49 -22 -49 -68q0 -34 39 -48t123 -14z" />
    <glyph glyph-name="Gbreve" unicode="&#x11e;" horiz-adv-x="745" 
d="M372 776q-75 0 -118.5 48.5t-47.5 127.5h69q11 -94 97 -94t97 94h69q-4 -79 -47.5 -127.5t-118.5 -48.5zM362 -14q-152 0 -233 107t-81 280t89 277t235 104q91 0 165 -43.5t114 -131.5l-107 -58q-49 118 -167 118q-37 0 -71 -13.5t-64.5 -42.5t-49 -82t-18.5 -125
q0 -140 58.5 -209t145.5 -69q74 0 121 44.5t53 122.5h-141l-18 101h278v-366h-103v83h-2q-23 -44 -76.5 -70.5t-127.5 -26.5z" />
    <glyph glyph-name="gbreve" unicode="&#x11f;" horiz-adv-x="595" 
d="M281 579q-75 0 -118.5 48.5t-47.5 127.5h69q11 -94 97 -94t97 94h69q-4 -79 -47.5 -127.5t-118.5 -48.5zM272 247q51 0 79 26t28 74q0 50 -28 76t-80 26q-51 0 -79.5 -26.5t-28.5 -75.5q0 -48 28.5 -74t80.5 -26zM269 -206q-256 0 -256 130q0 78 87 112q-41 21 -41 65
q0 54 72 97q-84 53 -84 153q0 83 60.5 136.5t162.5 53.5q100 0 163 -56q56 46 121 52l16 -99q-52 0 -98 -15q19 -30 19 -72q0 -85 -59.5 -137t-161.5 -52q-33 0 -74 11q-27 -15 -27 -34q0 -16 13 -22.5t48 -9.5l94 -6q117 -7 168 -41t51 -104q0 -80 -73.5 -121t-200.5 -41z
M288 -117q67 0 106.5 16.5t39.5 45.5t-27.5 41.5t-107.5 17.5l-92 6q-15 0 -32 3q-49 -22 -49 -68q0 -34 39 -48t123 -14z" />
    <glyph glyph-name="Gdotaccent" unicode="&#x120;" horiz-adv-x="745" 
d="M368 785q-34 0 -53.5 18t-19.5 47q0 28 19.5 46t53.5 18q36 0 56 -18t20 -46q0 -29 -20 -47t-56 -18zM362 -14q-152 0 -233 107t-81 280t89 277t235 104q91 0 165 -43.5t114 -131.5l-107 -58q-49 118 -167 118q-37 0 -71 -13.5t-64.5 -42.5t-49 -82t-18.5 -125
q0 -140 58.5 -209t145.5 -69q74 0 121 44.5t53 122.5h-141l-18 101h278v-366h-103v83h-2q-23 -44 -76.5 -70.5t-127.5 -26.5z" />
    <glyph glyph-name="gdotaccent" unicode="&#x121;" horiz-adv-x="595" 
d="M272 588q-34 0 -53.5 18t-19.5 47q0 28 19.5 46t53.5 18q36 0 56 -18t20 -46q0 -29 -20 -47t-56 -18zM272 247q51 0 79 26t28 74q0 50 -28 76t-80 26q-51 0 -79.5 -26.5t-28.5 -75.5q0 -48 28.5 -74t80.5 -26zM269 -206q-256 0 -256 130q0 78 87 112q-41 21 -41 65
q0 54 72 97q-84 53 -84 153q0 83 60.5 136.5t162.5 53.5q100 0 163 -56q56 46 121 52l16 -99q-52 0 -98 -15q19 -30 19 -72q0 -85 -59.5 -137t-161.5 -52q-33 0 -74 11q-27 -15 -27 -34q0 -16 13 -22.5t48 -9.5l94 -6q117 -7 168 -41t51 -104q0 -80 -73.5 -121t-200.5 -41z
M288 -117q67 0 106.5 16.5t39.5 45.5t-27.5 41.5t-107.5 17.5l-92 6q-15 0 -32 3q-49 -22 -49 -68q0 -34 39 -48t123 -14z" />
    <glyph glyph-name="Gcommaaccent" unicode="&#x122;" horiz-adv-x="745" 
d="M362 -14q-152 0 -233 107t-81 280t89 277t235 104q91 0 165 -43.5t114 -131.5l-107 -58q-49 118 -167 118q-37 0 -71 -13.5t-64.5 -42.5t-49 -82t-18.5 -125q0 -140 58.5 -209t145.5 -69q74 0 121 44.5t53 122.5h-141l-18 101h278v-366h-103v83h-2q-23 -44 -76.5 -70.5
t-127.5 -26.5zM365 -270h-67l24 226h127z" />
    <glyph glyph-name="gcommaaccent" unicode="&#x123;" horiz-adv-x="595" 
d="M290 810h67l-24 -226h-127zM272 247q51 0 79 26t28 74q0 50 -28 76t-80 26q-51 0 -79.5 -26.5t-28.5 -75.5q0 -48 28.5 -74t80.5 -26zM269 -206q-256 0 -256 130q0 78 87 112q-41 21 -41 65q0 54 72 97q-84 53 -84 153q0 83 60.5 136.5t162.5 53.5q100 0 163 -56
q56 46 121 52l16 -99q-52 0 -98 -15q19 -30 19 -72q0 -85 -59.5 -137t-161.5 -52q-33 0 -74 11q-27 -15 -27 -34q0 -16 13 -22.5t48 -9.5l94 -6q117 -7 168 -41t51 -104q0 -80 -73.5 -121t-200.5 -41zM288 -117q67 0 106.5 16.5t39.5 45.5t-27.5 41.5t-107.5 17.5l-92 6
q-15 0 -32 3q-49 -22 -49 -68q0 -34 39 -48t123 -14z" />
    <glyph glyph-name="Hcircumflex" unicode="&#x124;" horiz-adv-x="754" 
d="M205 784l129 166h85l129 -166h-72l-101 84l-99 -84h-71zM209 0h-125v740h125v-295h336v295h125v-740h-125v329h-336v-329z" />
    <glyph glyph-name="hcircumflex" unicode="&#x125;" horiz-adv-x="603" 
d="M-42 784l129 166h85l129 -166h-72l-101 84l-99 -84h-71zM192 0h-123v731l123 18v-294q74 86 190 86q75 0 116 -39t41 -116v-386h-123v350q0 86 -80 86q-70 0 -144 -69v-367z" />
    <glyph glyph-name="Hbar" unicode="&#x126;" horiz-adv-x="754" 
d="M209 444h336v89h-336v-89zM209 329v-329h-125v533h-73v96h73v111h125v-111h336v111h125v-111h73v-96h-73v-533h-125v329h-336z" />
    <glyph glyph-name="hbar" unicode="&#x127;" horiz-adv-x="603" 
d="M192 367v-367h-123v585h-73v82h73v72l123 2v-74h96v-82h-96v-130q74 86 190 86q75 0 116 -39t41 -116v-386h-123v347q0 90 -80 90q-69 0 -144 -70z" />
    <glyph glyph-name="Itilde" unicode="&#x128;" horiz-adv-x="310" 
d="M231 777q-36 0 -82 28t-65 28q-42 0 -39 -60l-70 12q0 65 27.5 99t77.5 34q36 0 82 -28t65 -28q41 0 40 59l68 -11q0 -65 -27.5 -99t-76.5 -34zM217 0h-124v740h124v-740z" />
    <glyph glyph-name="itilde" unicode="&#x129;" horiz-adv-x="272" 
d="M212 580q-36 0 -82 28t-65 28q-42 0 -39 -60l-70 12q0 65 27.5 99t77.5 34q36 0 82 -28t65 -28q41 0 40 59l68 -11q0 -65 -27.5 -99t-76.5 -34zM197 0h-122v530h122v-530z" />
    <glyph glyph-name="Imacron" unicode="&#x12a;" horiz-adv-x="310" 
d="M0 780v91h310v-91h-310zM217 0h-124v740h124v-740z" />
    <glyph glyph-name="imacron" unicode="&#x12b;" horiz-adv-x="272" 
d="M-19 583v91h310v-91h-310zM197 0h-122v530h122v-530z" />
    <glyph glyph-name="Ibreve" unicode="&#x12c;" horiz-adv-x="310" 
d="M155 775q-75 0 -118.5 48.5t-47.5 127.5h69q11 -94 97 -94t97 94h69q-4 -79 -47.5 -127.5t-118.5 -48.5zM217 0h-124v740h124v-740z" />
    <glyph glyph-name="ibreve" unicode="&#x12d;" horiz-adv-x="272" 
d="M136 579q-75 0 -118.5 48.5t-47.5 127.5h69q11 -94 97 -94t97 94h69q-4 -79 -47.5 -127.5t-118.5 -48.5zM197 0h-122v530h122v-530z" />
    <glyph glyph-name="Iogonek" unicode="&#x12e;" horiz-adv-x="310" 
d="M257 -148q-68 -39 -143 -39q-50 0 -77 20.5t-27 56.5q0 60 83 112v738h124v-740h-57q-63 -43 -63 -90q0 -43 48 -43q38 0 88 25z" />
    <glyph glyph-name="iogonek" unicode="&#x12f;" horiz-adv-x="272" 
d="M135 609q-33 0 -51.5 18t-18.5 47t18.5 47t51.5 18q34 0 53 -18t19 -47t-19 -47t-53 -18zM239 -148q-68 -39 -143 -39q-50 0 -77 20.5t-27 56.5q0 60 83 112v528h122v-530h-55q-63 -43 -63 -90q0 -43 48 -43q38 0 88 25z" />
    <glyph glyph-name="Idotaccent" unicode="&#x130;" horiz-adv-x="310" 
d="M154 785q-34 0 -53.5 18t-19.5 47q0 28 19.5 46t53.5 18q36 0 56 -18t20 -46q0 -29 -20 -47t-56 -18zM217 0h-124v740h124v-740z" />
    <glyph glyph-name="dotlessi" unicode="&#x131;" horiz-adv-x="272" 
d="M197 0h-122v530h122v-530z" />
    <glyph glyph-name="IJ" unicode="&#x132;" horiz-adv-x="790" 
d="M217 0h-124v740h124v-740zM493 -11q-120 0 -193 75l57 98q59 -64 130 -64q105 0 105 130v515h125v-530q0 -107 -55.5 -165.5t-168.5 -58.5z" />
    <glyph glyph-name="ij" unicode="&#x133;" horiz-adv-x="544" 
d="M407 612q-33 0 -51.5 18t-18.5 47t18.5 47t51.5 18q34 0 53 -18t19 -47t-19 -47t-53 -18zM135 609q-33 0 -51.5 18t-18.5 47t18.5 47t51.5 18q34 0 53 -18t19 -47t-19 -47t-53 -18zM197 0h-122v530h122v-530zM322 -199q-46 0 -71 5l-8 89q17 -5 44 -5q60 0 60 67v576h122
v-577q0 -34 -6 -59.5t-21 -48.5t-45.5 -35t-74.5 -12z" />
    <glyph glyph-name="Jcircumflex" unicode="&#x134;" horiz-adv-x="520" 
d="M212 784l129 166h85l129 -166h-72l-101 84l-99 -84h-71zM223 -14q-120 0 -193 75l57 98q59 -64 130 -64q105 0 105 130v515h125v-530q0 -107 -55.5 -165.5t-168.5 -58.5z" />
    <glyph glyph-name="jcircumflex" unicode="&#x135;" horiz-adv-x="272" 
d="M-35 587l129 166h85l129 -166h-72l-101 84l-99 -84h-71zM50 -202q-44 0 -72 5l-6 89q17 -5 43 -5q60 0 60 67v576h122v-577q0 -72 -31 -113.5t-116 -41.5z" />
    <glyph glyph-name="Kcommaaccent" unicode="&#x136;" horiz-adv-x="697" 
d="M209 0h-125v740h125v-344l292 344h147l-252 -285l285 -445l-130 -20l-237 370l-105 -116v-244zM341 -270h-67l24 226h127z" />
    <glyph glyph-name="kcommaaccent" unicode="&#x137;" horiz-adv-x="562" 
d="M192 0h-123v731l123 18v-450l201 231h135l-173 -193l188 -327l-117 -20l-149 257l-85 -94v-153zM273 -270h-67l24 226h127z" />
    <glyph glyph-name="kgreenlandic" unicode="&#x138;" horiz-adv-x="562" 
d="M69 0v530h123v-231l201 231h135l-173 -193l188 -327l-117 -20l-149 257l-85 -94v-153h-123z" />
    <glyph glyph-name="Lacute" unicode="&#x139;" horiz-adv-x="577" 
d="M106 784l93 166h133l-145 -166h-81zM559 0h-475v740h125v-627h331z" />
    <glyph glyph-name="lacute" unicode="&#x13a;" horiz-adv-x="272" 
d="M93 784l93 166h133l-145 -166h-81zM197 0h-122v731l122 18v-749z" />
    <glyph glyph-name="Lcommaaccent" unicode="&#x13b;" horiz-adv-x="577" 
d="M559 0h-475v740h125v-627h331zM281 -270h-67l24 226h127z" />
    <glyph glyph-name="lcommaaccent" unicode="&#x13c;" horiz-adv-x="272" 
d="M197 0h-122v731l122 18v-749zM128 -270h-67l24 226h127z" />
    <glyph glyph-name="Lcaron" unicode="&#x13d;" horiz-adv-x="577" 
d="M559 0h-475v740h125v-627h331zM365 513h-67l24 226h127z" />
    <glyph glyph-name="lcaron" unicode="&#x13e;" horiz-adv-x="272" 
d="M308 580h-66l24 220h123zM197 0h-122v731l122 18v-749z" />
    <glyph glyph-name="Ldot" unicode="&#x13f;" horiz-adv-x="602" 
d="M559 0h-475v740h125v-627h331zM445 344q-31 0 -48.5 17.5t-17.5 44.5t17.5 44.5t48.5 17.5t49.5 -17.5t18.5 -44.5t-18.5 -44.5t-49.5 -17.5z" />
    <glyph glyph-name="ldot" unicode="&#x140;" horiz-adv-x="395" 
d="M197 0h-122v731l122 18v-749zM334 268q-31 0 -49 17.5t-18 44.5t18 44t49 17t49 -17t18 -44t-18 -44.5t-49 -17.5z" />
    <glyph glyph-name="Lslash" unicode="&#x141;" horiz-adv-x="577" 
d="M559 0h-474v332l-83 -22v96l83 22v312h124v-279l149 40v-96l-149 -39v-253h331z" />
    <glyph glyph-name="lslash" unicode="&#x142;" horiz-adv-x="320" 
d="M100 0v416l-79 -22v92l79 21v232l122 2v-201l78 21v-92l-78 -21v-448h-122z" />
    <glyph glyph-name="Nacute" unicode="&#x143;" horiz-adv-x="763" 
d="M303 784l93 166h133l-145 -166h-81zM199 0h-115v740h127l350 -529h2v529h116v-740h-114l-364 539h-2v-539z" />
    <glyph glyph-name="nacute" unicode="&#x144;" horiz-adv-x="603" 
d="M219 587l93 166h133l-145 -166h-81zM192 0h-123v530h113l10 -75q76 86 191 86q74 0 115 -39t41 -116v-386h-122v350q0 89 -81 89q-68 0 -144 -69v-370z" />
    <glyph glyph-name="Ncommaaccent" unicode="&#x145;" horiz-adv-x="763" 
d="M199 0h-115v740h127l350 -529h2v529h116v-740h-114l-364 539h-2v-539zM373 -270h-67l24 226h127z" />
    <glyph glyph-name="ncommaaccent" unicode="&#x146;" horiz-adv-x="603" 
d="M192 0h-123v530h113l10 -75q76 86 191 86q74 0 115 -39t41 -116v-386h-122v350q0 89 -81 89q-68 0 -144 -69v-370zM295 -270h-67l24 226h127z" />
    <glyph glyph-name="Ncaron" unicode="&#x147;" horiz-adv-x="763" 
d="M338 786l-129 166h72l100 -84l100 84h71l-129 -166h-85zM199 0h-115v740h127l350 -529h2v529h116v-740h-114l-364 539h-2v-539z" />
    <glyph glyph-name="ncaron" unicode="&#x148;" horiz-adv-x="603" 
d="M260 589l-129 166h72l100 -84l100 84h71l-129 -166h-85zM192 0h-123v530h113l10 -75q76 86 191 86q74 0 115 -39t41 -116v-386h-122v350q0 89 -81 89q-68 0 -144 -69v-370z" />
    <glyph glyph-name="Eng" unicode="&#x14a;" horiz-adv-x="763" 
d="M84 0v740h127l350 -529h2v529h116v-736q0 -98 -55.5 -152t-163.5 -54q-123 0 -198 79l68 83q51 -61 123 -61q98 0 106 106v3l-358 532h-2v-540h-115z" />
    <glyph glyph-name="eng" unicode="&#x14b;" horiz-adv-x="603" 
d="M69 0v530h121l2 -85q84 96 191 96q74 0 115 -39t41 -116v-452q0 -64 -31 -100t-116 -36q-34 0 -74 5l-2 86q18 -4 42 -4q59 0 59 63v402q0 90 -81 90q-67 0 -144 -70v-370h-123z" />
    <glyph glyph-name="Omacron" unicode="&#x14c;" horiz-adv-x="764" 
d="M226 780v91h310v-91h-310zM382 -14q-141 0 -237.5 102.5t-96.5 281.5t96.5 281.5t237.5 102.5t237 -102.5t96 -281.5t-96 -281.5t-237 -102.5zM382 98q94 0 151.5 73.5t57.5 198.5t-57 197t-152 72t-152 -72t-57 -197t57.5 -198.5t151.5 -73.5z" />
    <glyph glyph-name="omacron" unicode="&#x14d;" horiz-adv-x="596" 
d="M143 583v91h310v-91h-310zM298 -11q-107 0 -183 70t-76 206q0 70 22 124.5t59 87t82.5 48.5t95.5 16t95 -16t82 -48.5t59 -87t22 -124.5q0 -136 -75.5 -206t-182.5 -70zM298 92q65 0 100.5 47t35.5 125q0 77 -34.5 124.5t-101.5 47.5q-66 0 -101 -46t-35 -126
q0 -79 33.5 -125.5t102.5 -46.5z" />
    <glyph glyph-name="Obreve" unicode="&#x14e;" horiz-adv-x="764" 
d="M381 776q-75 0 -118.5 48.5t-47.5 127.5h69q11 -94 97 -94t97 94h69q-4 -79 -47.5 -127.5t-118.5 -48.5zM382 -14q-141 0 -237.5 102.5t-96.5 281.5t96.5 281.5t237.5 102.5t237 -102.5t96 -281.5t-96 -281.5t-237 -102.5zM382 98q94 0 151.5 73.5t57.5 198.5t-57 197
t-152 72t-152 -72t-57 -197t57.5 -198.5t151.5 -73.5z" />
    <glyph glyph-name="obreve" unicode="&#x14f;" horiz-adv-x="596" 
d="M298 579q-75 0 -118.5 48.5t-47.5 127.5h69q11 -94 97 -94t97 94h69q-4 -79 -47.5 -127.5t-118.5 -48.5zM298 -11q-107 0 -183 70t-76 206q0 70 22 124.5t59 87t82.5 48.5t95.5 16t95 -16t82 -48.5t59 -87t22 -124.5q0 -136 -75.5 -206t-182.5 -70zM298 92q65 0 100.5 47
t35.5 125q0 77 -34.5 124.5t-101.5 47.5q-66 0 -101 -46t-35 -126q0 -79 33.5 -125.5t102.5 -46.5z" />
    <glyph glyph-name="Ohungarumlaut" unicode="&#x150;" horiz-adv-x="764" 
d="M399 784l106 166h133l-157 -166h-82zM221 784l100 166h133l-152 -166h-81zM382 -14q-141 0 -237.5 102.5t-96.5 281.5t96.5 281.5t237.5 102.5t237 -102.5t96 -281.5t-96 -281.5t-237 -102.5zM382 98q94 0 151.5 73.5t57.5 198.5t-57 197t-152 72t-152 -72t-57 -197
t57.5 -198.5t151.5 -73.5z" />
    <glyph glyph-name="ohungarumlaut" unicode="&#x151;" horiz-adv-x="596" 
d="M324 587l106 166h133l-157 -166h-82zM146 587l100 166h133l-152 -166h-81zM298 -11q-107 0 -183 70t-76 206q0 70 22 124.5t59 87t82.5 48.5t95.5 16t95 -16t82 -48.5t59 -87t22 -124.5q0 -136 -75.5 -206t-182.5 -70zM298 92q65 0 100.5 47t35.5 125q0 77 -34.5 124.5
t-101.5 47.5q-66 0 -101 -46t-35 -126q0 -79 33.5 -125.5t102.5 -46.5z" />
    <glyph glyph-name="OE" unicode="&#x152;" horiz-adv-x="1125" 
d="M382 98q94 0 150.5 73.5t56.5 198.5t-56.5 197t-150.5 72q-95 0 -152.5 -72t-57.5 -197t57.5 -198.5t152.5 -73.5zM376 -14q-140 0 -234 102t-94 282q0 179 96.5 281.5t237.5 102.5q139 0 218 -110v96h467v-116h-354v-184h250l19 -111h-269v-216h373v-113h-486v107
q-89 -121 -224 -121z" />
    <glyph glyph-name="oe" unicode="&#x153;" horiz-adv-x="950" 
d="M297 -11q-107 0 -182.5 70t-75.5 206q0 70 21.5 124.5t59 87t82.5 48.5t95 16q63 0 114 -27.5t79 -79.5q29 51 80 79t109 28q100 0 166 -68.5t66 -218.5v-24h-361q7 -143 144 -143q92 0 163 68l49 -81q-91 -85 -221 -85q-64 0 -116.5 27t-80.5 77q-27 -50 -77.5 -77
t-113.5 -27zM551 317h248q-6 64 -35.5 93.5t-85.5 29.5q-110 0 -127 -123zM297 91q66 0 100 45t34 128q0 79 -33 126t-101 47q-66 0 -100.5 -45.5t-34.5 -127.5q0 -79 33.5 -126t101.5 -47z" />
    <glyph glyph-name="Racute" unicode="&#x154;" horiz-adv-x="691" 
d="M277 784l93 166h133l-145 -166h-81zM207 0h-123v740h265q277 0 277 -227q0 -163 -163 -205l176 -298l-122 -20l-179 302h-131v-292zM207 626v-225h136q82 0 121.5 26.5t39.5 87.5q0 60 -39.5 85.5t-121.5 25.5h-136z" />
    <glyph glyph-name="racute" unicode="&#x155;" horiz-adv-x="411" 
d="M138 587l93 166h133l-145 -166h-81zM192 0h-123v530h113l10 -86h1q62 97 187 97h5l11 -113q-8 2 -32 2q-116 0 -172 -94v-336z" />
    <glyph glyph-name="Rcommaaccent" unicode="&#x156;" horiz-adv-x="691" 
d="M207 0h-123v740h265q277 0 277 -227q0 -163 -163 -205l176 -298l-122 -20l-179 302h-131v-292zM207 626v-225h136q82 0 121.5 26.5t39.5 87.5q0 60 -39.5 85.5t-121.5 25.5h-136zM337 -270h-67l24 226h127z" />
    <glyph glyph-name="rcommaaccent" unicode="&#x157;" horiz-adv-x="411" 
d="M192 0h-123v530h113l10 -86h1q62 97 187 97h5l11 -113q-8 2 -32 2q-116 0 -172 -94v-336zM122 -270h-67l24 226h127z" />
    <glyph glyph-name="Rcaron" unicode="&#x158;" horiz-adv-x="691" 
d="M302 786l-129 166h72l100 -84l100 84h71l-129 -166h-85zM207 0h-123v740h265q277 0 277 -227q0 -163 -163 -205l176 -298l-122 -20l-179 302h-131v-292zM207 626v-225h136q82 0 121.5 26.5t39.5 87.5q0 60 -39.5 85.5t-121.5 25.5h-136z" />
    <glyph glyph-name="rcaron" unicode="&#x159;" horiz-adv-x="411" 
d="M163 589l-129 166h72l100 -84l100 84h71l-129 -166h-85zM192 0h-123v530h113l10 -86h1q62 97 187 97h5l11 -113q-8 2 -32 2q-116 0 -172 -94v-336z" />
    <glyph glyph-name="Sacute" unicode="&#x15a;" horiz-adv-x="674" 
d="M268 784l93 166h133l-145 -166h-81zM348 -14q-179 0 -312 126l67 95q46 -47 111 -78.5t130 -31.5q72 0 114 24.5t42 71.5t-37.5 75t-131.5 57q-53 16 -83 26t-68 29t-58 39.5t-34 53t-14 73.5q0 93 70 150.5t182 57.5q148 0 276 -106l-59 -100q-106 93 -215 93
q-61 0 -96.5 -24t-35.5 -61q0 -49 37.5 -74.5t136.5 -54.5q48 -14 80.5 -26t68 -31t56 -41t34 -54.5t13.5 -73.5q0 -93 -73 -154t-201 -61z" />
    <glyph glyph-name="sacute" unicode="&#x15b;" horiz-adv-x="523" 
d="M193 587l93 166h133l-145 -166h-81zM262 -10q-135 0 -229 83l47 83q84 -72 183 -72q50 0 78 15t28 43q0 31 -25.5 46.5t-93.5 29.5q-48 10 -79 20.5t-61 28.5t-44 47.5t-14 70.5q0 70 53.5 113t141.5 43q121 0 215 -67l-43 -87q-79 57 -163 57q-44 0 -66.5 -14.5
t-22.5 -39.5q0 -26 24 -40.5t84 -27.5q106 -21 158 -54.5t52 -109.5q0 -83 -62.5 -125.5t-160.5 -42.5z" />
    <glyph glyph-name="Scircumflex" unicode="&#x15c;" horiz-adv-x="674" 
d="M160 784l129 166h85l129 -166h-72l-101 84l-99 -84h-71zM348 -14q-179 0 -312 126l67 95q46 -47 111 -78.5t130 -31.5q72 0 114 24.5t42 71.5t-37.5 75t-131.5 57q-53 16 -83 26t-68 29t-58 39.5t-34 53t-14 73.5q0 93 70 150.5t182 57.5q148 0 276 -106l-59 -100
q-106 93 -215 93q-61 0 -96.5 -24t-35.5 -61q0 -49 37.5 -74.5t136.5 -54.5q48 -14 80.5 -26t68 -31t56 -41t34 -54.5t13.5 -73.5q0 -93 -73 -154t-201 -61z" />
    <glyph glyph-name="scircumflex" unicode="&#x15d;" horiz-adv-x="523" 
d="M81 587l129 166h85l129 -166h-72l-101 84l-99 -84h-71zM262 -10q-135 0 -229 83l47 83q84 -72 183 -72q50 0 78 15t28 43q0 31 -25.5 46.5t-93.5 29.5q-48 10 -79 20.5t-61 28.5t-44 47.5t-14 70.5q0 70 53.5 113t141.5 43q121 0 215 -67l-43 -87q-79 57 -163 57
q-44 0 -66.5 -14.5t-22.5 -39.5q0 -26 24 -40.5t84 -27.5q106 -21 158 -54.5t52 -109.5q0 -83 -62.5 -125.5t-160.5 -42.5z" />
    <glyph glyph-name="Scedilla" unicode="&#x15e;" horiz-adv-x="674" 
d="M344 -199q-82 0 -138 37l25 40q45 -30 102 -30q60 0 60 40q0 30 -36 30q-24 0 -47 -18l-35 17l22 72q-149 16 -261 123l67 95q46 -47 111 -78.5t130 -31.5q72 0 114 24.5t42 71.5t-37.5 75t-131.5 57q-53 16 -83 26t-68 29t-58 39.5t-34 53t-14 73.5q0 93 70 150.5
t182 57.5q148 0 276 -106l-59 -100q-106 93 -215 93q-61 0 -96.5 -24t-35.5 -61q0 -49 37.5 -74.5t136.5 -54.5q48 -14 80.5 -26t68 -31t56 -41t34 -54.5t13.5 -73.5q0 -93 -72 -154t-197 -61l-9 -35q23 15 60 15q30 0 51 -18.5t21 -50.5q0 -46 -37.5 -71t-94.5 -25z" />
    <glyph glyph-name="scedilla" unicode="&#x15f;" horiz-adv-x="523" 
d="M269 -199q-82 0 -138 37l25 40q45 -30 102 -30q60 0 60 40q0 30 -36 30q-24 0 -47 -18l-35 17l23 75q-111 11 -190 81l47 83q84 -72 183 -72q50 0 78 15t28 43q0 31 -25.5 46.5t-93.5 29.5q-48 10 -79 20.5t-61 28.5t-44 47.5t-14 70.5q0 70 53.5 113t141.5 43
q121 0 215 -67l-43 -87q-79 57 -163 57q-44 0 -66.5 -14.5t-22.5 -39.5q0 -26 24 -40.5t84 -27.5q106 -21 158 -54.5t52 -109.5q0 -79 -57.5 -121.5t-148.5 -46.5l-10 -39q23 15 60 15q30 0 51 -18.5t21 -50.5q0 -46 -37.5 -71t-94.5 -25z" />
    <glyph glyph-name="Scaron" unicode="&#x160;" horiz-adv-x="674" 
d="M294 791l-129 166h72l100 -84l100 84h71l-129 -166h-85zM348 -14q-179 0 -312 126l67 95q46 -47 111 -78.5t130 -31.5q72 0 114 24.5t42 71.5t-37.5 75t-131.5 57q-53 16 -83 26t-68 29t-58 39.5t-34 53t-14 73.5q0 93 70 150.5t182 57.5q148 0 276 -106l-59 -100
q-106 93 -215 93q-61 0 -96.5 -24t-35.5 -61q0 -49 37.5 -74.5t136.5 -54.5q48 -14 80.5 -26t68 -31t56 -41t34 -54.5t13.5 -73.5q0 -93 -73 -154t-201 -61z" />
    <glyph glyph-name="scaron" unicode="&#x161;" horiz-adv-x="523" 
d="M219 589l-129 166h72l100 -84l100 84h71l-129 -166h-85zM262 -10q-135 0 -229 83l47 83q84 -72 183 -72q50 0 78 15t28 43q0 31 -25.5 46.5t-93.5 29.5q-48 10 -79 20.5t-61 28.5t-44 47.5t-14 70.5q0 70 53.5 113t141.5 43q121 0 215 -67l-43 -87q-79 57 -163 57
q-44 0 -66.5 -14.5t-22.5 -39.5q0 -26 24 -40.5t84 -27.5q106 -21 158 -54.5t52 -109.5q0 -83 -62.5 -125.5t-160.5 -42.5z" />
    <glyph glyph-name="Tcaron" unicode="&#x164;" horiz-adv-x="635" 
d="M275 786l-129 166h72l100 -84l100 84h71l-129 -166h-85zM380 0h-125v624h-228v116h572l18 -116h-237v-624z" />
    <glyph glyph-name="tcaron" unicode="&#x165;" horiz-adv-x="401" 
d="M349 604h-66l24 220h123zM272 -7q-86 0 -124.5 34.5t-38.5 118.5v287h-90v97h90v177l122 18v-195h137v-97h-137v-268q0 -42 17.5 -58.5t56.5 -16.5q24 0 54 8l10 -97q-40 -8 -97 -8z" />
    <glyph glyph-name="Tbar" unicode="&#x166;" horiz-adv-x="635" 
d="M607 304h-227v-304h-125v304h-228v95h228v225h-228v116h573l16 -116h-236v-225h227v-95z" />
    <glyph glyph-name="tbar" unicode="&#x167;" horiz-adv-x="401" 
d="M369 1q-40 -8 -97 -8q-86 0 -124.5 34.5t-38.5 118.5v87h-90v82h90v118h-90v97h90v178l122 16v-194h137v-97h-137v-118h137v-82h-137v-73q0 -42 17.5 -58.5t56.5 -16.5q29 0 55 8z" />
    <glyph glyph-name="Utilde" unicode="&#x168;" horiz-adv-x="721" 
d="M436 777q-36 0 -82 28t-65 28q-42 0 -39 -60l-70 12q0 65 27.5 99t77.5 34q36 0 82 -28t65 -28q41 0 40 59l68 -11q0 -65 -27.5 -99t-76.5 -34zM361 -13q-142 0 -214.5 76t-72.5 206v471h125v-464q0 -83 40 -129t123 -46q162 0 162 174v465h123v-469q0 -131 -72 -207.5
t-214 -76.5z" />
    <glyph glyph-name="utilde" unicode="&#x169;" horiz-adv-x="603" 
d="M377 580q-36 0 -82 28t-65 28q-42 0 -39 -60l-70 12q0 65 27.5 99t77.5 34q36 0 82 -28t65 -28q41 0 40 59l68 -11q0 -65 -27.5 -99t-76.5 -34zM221 -11q-75 0 -116 39t-41 116v386h123v-353q0 -43 19 -63.5t61 -20.5q67 0 144 70v367h123v-530h-113l-10 74
q-79 -85 -190 -85z" />
    <glyph glyph-name="Umacron" unicode="&#x16a;" horiz-adv-x="721" 
d="M205 780v91h310v-91h-310zM361 -13q-142 0 -214.5 76t-72.5 206v471h125v-464q0 -83 40 -129t123 -46q162 0 162 174v465h123v-469q0 -131 -72 -207.5t-214 -76.5z" />
    <glyph glyph-name="umacron" unicode="&#x16b;" horiz-adv-x="603" 
d="M146 583v91h310v-91h-310zM221 -11q-75 0 -116 39t-41 116v386h123v-353q0 -43 19 -63.5t61 -20.5q67 0 144 70v367h123v-530h-113l-10 74q-79 -85 -190 -85z" />
    <glyph glyph-name="Ubreve" unicode="&#x16c;" horiz-adv-x="721" 
d="M361 776q-75 0 -118.5 48.5t-47.5 127.5h69q11 -94 97 -94t97 94h69q-4 -79 -47.5 -127.5t-118.5 -48.5zM361 -13q-142 0 -214.5 76t-72.5 206v471h125v-464q0 -83 40 -129t123 -46q162 0 162 174v465h123v-469q0 -131 -72 -207.5t-214 -76.5z" />
    <glyph glyph-name="ubreve" unicode="&#x16d;" horiz-adv-x="603" 
d="M301 579q-75 0 -118.5 48.5t-47.5 127.5h69q11 -94 97 -94t97 94h69q-4 -79 -47.5 -127.5t-118.5 -48.5zM221 -11q-75 0 -116 39t-41 116v386h123v-353q0 -43 19 -63.5t61 -20.5q67 0 144 70v367h123v-530h-113l-10 74q-79 -85 -190 -85z" />
    <glyph glyph-name="Uring" unicode="&#x16e;" horiz-adv-x="721" 
d="M360 776q-44 0 -73 29t-29 73q0 43 29 72t73 29t73 -29t29 -72q0 -44 -29 -73t-73 -29zM360 826q22 0 35.5 14.5t13.5 37.5q0 22 -13.5 36.5t-35.5 14.5t-35.5 -14.5t-13.5 -36.5q0 -23 13.5 -37.5t35.5 -14.5zM361 -13q-142 0 -214.5 76t-72.5 206v471h125v-464
q0 -83 40 -129t123 -46q162 0 162 174v465h123v-469q0 -131 -72 -207.5t-214 -76.5z" />
    <glyph glyph-name="uring" unicode="&#x16f;" horiz-adv-x="603" 
d="M301 579q-44 0 -73 29t-29 73q0 43 29 72t73 29t73 -29t29 -72q0 -44 -29 -73t-73 -29zM301 629q22 0 35.5 14.5t13.5 37.5q0 22 -13.5 36.5t-35.5 14.5t-35.5 -14.5t-13.5 -36.5q0 -23 13.5 -37.5t35.5 -14.5zM221 -11q-75 0 -116 39t-41 116v386h123v-353
q0 -43 19 -63.5t61 -20.5q67 0 144 70v367h123v-530h-113l-10 74q-79 -85 -190 -85z" />
    <glyph glyph-name="Uhungarumlaut" unicode="&#x170;" horiz-adv-x="721" 
d="M382 784l106 166h133l-157 -166h-82zM204 784l100 166h133l-152 -166h-81zM361 -13q-142 0 -214.5 76t-72.5 206v471h125v-464q0 -83 40 -129t123 -46q162 0 162 174v465h123v-469q0 -131 -72 -207.5t-214 -76.5z" />
    <glyph glyph-name="uhungarumlaut" unicode="&#x171;" horiz-adv-x="603" 
d="M329 587l106 166h133l-157 -166h-82zM151 587l100 166h133l-152 -166h-81zM221 -11q-75 0 -116 39t-41 116v386h123v-353q0 -43 19 -63.5t61 -20.5q67 0 144 70v367h123v-530h-113l-10 74q-79 -85 -190 -85z" />
    <glyph glyph-name="Uogonek" unicode="&#x172;" horiz-adv-x="721" 
d="M375 -187q-50 0 -77 20.5t-27 56.5q0 50 63 98q-129 7 -194.5 82.5t-65.5 198.5v471h125v-464q0 -83 40 -129t123 -46q162 0 162 174v465h123v-469q0 -119 -60.5 -194.5t-179.5 -87.5q-49 -37 -49 -79q0 -43 48 -43q38 0 88 25l24 -40q-68 -39 -143 -39z" />
    <glyph glyph-name="uogonek" unicode="&#x173;" horiz-adv-x="603" 
d="M575 -148q-68 -39 -143 -39q-50 0 -77 20.5t-27 56.5q0 30 25 61.5t65 54.5h2l-9 68q-79 -85 -190 -85q-75 0 -116 39t-41 116v386h123v-353q0 -43 19 -63.5t61 -20.5q67 0 144 70v367h123v-530h-56q-63 -43 -63 -90q0 -43 48 -43q38 0 88 25z" />
    <glyph glyph-name="Wcircumflex" unicode="&#x174;" horiz-adv-x="943" 
d="M300 784l129 166h85l129 -166h-72l-101 84l-99 -84h-71zM336 0h-110l-195 730l121 20l96 -393q29 -110 40 -172h2q9 59 38 171l89 384h119l93 -387q32 -134 38 -168h2q8 43 37 165l92 390h116l-194 -740h-109l-134 568h-2z" />
    <glyph glyph-name="wcircumflex" unicode="&#x175;" horiz-adv-x="764" 
d="M210 587l129 166h85l129 -166h-72l-101 84l-99 -84h-71zM284 0h-113l-156 521l120 19l60 -229q35 -142 41 -170h2q19 94 41 172l57 217h99l59 -221q16 -54 42 -168h2q21 97 41 166l61 223h111l-158 -530h-114l-96 370h-2z" />
    <glyph glyph-name="Ycircumflex" unicode="&#x176;" horiz-adv-x="661" 
d="M158 784l129 166h85l129 -166h-72l-101 84l-99 -84h-71zM392 0h-124v319l-247 411l119 20l191 -325l186 315h128l-253 -421v-319z" />
    <glyph glyph-name="ycircumflex" unicode="&#x177;" horiz-adv-x="546" 
d="M106 587l129 166h85l129 -166h-72l-101 84l-99 -84h-71zM125 -203q-55 0 -87 8l-9 103q40 -11 87 -11q33 0 52.5 14t32.5 47l15 39l-200 524l121 19l139 -396h2l137 386h121l-225 -588q-29 -75 -70 -110t-116 -35z" />
    <glyph glyph-name="Ydieresis" unicode="&#x178;" horiz-adv-x="661" 
d="M429 774q-29 0 -46 19.5t-17 48.5t17 47.5t46 18.5q31 0 48 -18.5t17 -47.5q0 -30 -17 -49t-48 -19zM231 774q-30 0 -46.5 19t-16.5 49q0 29 16.5 47.5t46.5 18.5t47 -18.5t17 -47.5q0 -30 -17 -49t-47 -19zM392 0h-124v319l-247 411l119 20l191 -325l186 315h128
l-253 -421v-319z" />
    <glyph glyph-name="Zacute" unicode="&#x179;" horiz-adv-x="645" 
d="M242 784l93 166h133l-145 -166h-81zM610 0h-575v87l410 549h-374l-19 104h549v-89l-405 -549h395z" />
    <glyph glyph-name="zacute" unicode="&#x17a;" horiz-adv-x="520" 
d="M192 587l93 166h133l-145 -166h-81zM496 0h-462v71l284 362h-254l-16 97h423v-73l-285 -362h294z" />
    <glyph glyph-name="Zdotaccent" unicode="&#x17b;" horiz-adv-x="645" 
d="M321 785q-34 0 -53.5 18t-19.5 47q0 28 19.5 46t53.5 18q36 0 56 -18t20 -46q0 -29 -20 -47t-56 -18zM610 0h-575v87l410 549h-374l-19 104h549v-89l-405 -549h395z" />
    <glyph glyph-name="zdotaccent" unicode="&#x17c;" horiz-adv-x="520" 
d="M259 588q-34 0 -53.5 18t-19.5 47q0 28 19.5 46t53.5 18q36 0 56 -18t20 -46q0 -29 -20 -47t-56 -18zM496 0h-462v71l284 362h-254l-16 97h423v-73l-285 -362h294z" />
    <glyph glyph-name="Zcaron" unicode="&#x17d;" horiz-adv-x="645" 
d="M284 791l-129 166h72l100 -84l100 84h71l-129 -166h-85zM610 0h-575v87l410 549h-374l-19 104h549v-89l-405 -549h395z" />
    <glyph glyph-name="zcaron" unicode="&#x17e;" horiz-adv-x="520" 
d="M220 589l-129 166h72l100 -84l100 84h71l-129 -166h-85zM496 0h-462v71l284 362h-254l-16 97h423v-73l-285 -362h294z" />
    <glyph glyph-name="florin" unicode="&#x192;" horiz-adv-x="384" 
d="M-92 -197l11 86q12 -3 41 -3q81 0 91 79l58 432h-92l11 89h92l13 99q9 75 52.5 116.5t139.5 41.5q28 0 73 -5l-12 -89q-12 3 -41 3q-82 0 -90 -69l-12 -97h116l-11 -89h-116l-61 -452q-9 -69 -52 -108t-139 -39q-52 0 -72 5z" />
    <glyph glyph-name="Scommaaccent" unicode="&#x218;" horiz-adv-x="674" 
d="M348 -14q-179 0 -312 126l67 95q46 -47 111 -78.5t130 -31.5q72 0 114 24.5t42 71.5t-37.5 75t-131.5 57q-53 16 -83 26t-68 29t-58 39.5t-34 53t-14 73.5q0 93 70 150.5t182 57.5q148 0 276 -106l-59 -100q-106 93 -215 93q-61 0 -96.5 -24t-35.5 -61q0 -49 37.5 -74.5
t136.5 -54.5q48 -14 80.5 -26t68 -31t56 -41t34 -54.5t13.5 -73.5q0 -93 -73 -154t-201 -61zM329 -270h-67l24 226h127z" />
    <glyph glyph-name="scommaaccent" unicode="&#x219;" horiz-adv-x="523" 
d="M262 -10q-135 0 -229 83l47 83q84 -72 183 -72q50 0 78 15t28 43q0 31 -25.5 46.5t-93.5 29.5q-48 10 -79 20.5t-61 28.5t-44 47.5t-14 70.5q0 70 53.5 113t141.5 43q121 0 215 -67l-43 -87q-79 57 -163 57q-44 0 -66.5 -14.5t-22.5 -39.5q0 -26 24 -40.5t84 -27.5
q106 -21 158 -54.5t52 -109.5q0 -83 -62.5 -125.5t-160.5 -42.5zM253 -270h-67l24 226h127z" />
    <glyph glyph-name="Tcommaaccent" unicode="&#x21a;" horiz-adv-x="635" 
d="M380 0h-125v624h-228v116h572l18 -116h-237v-624zM310 -270h-67l24 226h127z" />
    <glyph glyph-name="tcommaaccent" unicode="&#x21b;" horiz-adv-x="401" 
d="M272 -7q-86 0 -124.5 34.5t-38.5 118.5v287h-90v97h90v177l122 18v-195h137v-97h-137v-268q0 -42 17.5 -58.5t56.5 -16.5q24 0 54 8l10 -97q-40 -8 -97 -8zM175 -270h-67l24 226h127z" />
    <glyph glyph-name="schwa" unicode="&#x259;" horiz-adv-x="564" 
d="M266 541q111 0 185 -69t74 -207q0 -71 -23.5 -126t-61.5 -86.5t-81 -47.5t-87 -16q-98 0 -165.5 69t-67.5 219v28h364q-8 138 -145 138q-93 0 -163 -68l-50 82q91 84 221 84zM401 213h-249q9 -124 121 -124q49 0 84.5 31t43.5 93z" />
    <glyph glyph-name="uni02BB" unicode="&#x2bb;" horiz-adv-x="276" 
d="M151 740h73l-26 -242h-137z" />
    <glyph glyph-name="uni02BC" unicode="&#x2bc;" horiz-adv-x="276" 
d="M134 498h-73l27 242h136z" />
    <glyph glyph-name="circumflex" unicode="&#x2c6;" horiz-adv-x="535" 
d="M96 587l129 166h85l129 -166h-72l-101 84l-99 -84h-71z" />
    <glyph glyph-name="caron" unicode="&#x2c7;" horiz-adv-x="535" 
d="M225 589l-129 166h72l100 -84l100 84h71l-129 -166h-85z" />
    <glyph glyph-name="uni02C9" unicode="&#x2c9;" horiz-adv-x="500" 
d="M95 583v91h310v-91h-310z" />
    <glyph glyph-name="breve" unicode="&#x2d8;" horiz-adv-x="500" 
d="M250 579q-75 0 -118.5 48.5t-47.5 127.5h69q11 -94 97 -94t97 94h69q-4 -79 -47.5 -127.5t-118.5 -48.5z" />
    <glyph glyph-name="dotaccent" unicode="&#x2d9;" horiz-adv-x="500" 
d="M249 588q-34 0 -53.5 18t-19.5 47q0 28 19.5 46t53.5 18q36 0 56 -18t20 -46q0 -29 -20 -47t-56 -18z" />
    <glyph glyph-name="ring" unicode="&#x2da;" horiz-adv-x="540" 
d="M270 579q-44 0 -73 29t-29 73q0 43 29 72t73 29t73 -29t29 -72q0 -44 -29 -73t-73 -29zM270 629q22 0 35.5 14.5t13.5 37.5q0 22 -13.5 36.5t-35.5 14.5t-35.5 -14.5t-13.5 -36.5q0 -23 13.5 -37.5t35.5 -14.5z" />
    <glyph glyph-name="ogonek" unicode="&#x2db;" horiz-adv-x="500" 
d="M260 -187q-50 0 -77 20.5t-27 56.5q0 30 25 61.5t65 54.5h69q-72 -46 -72 -96q0 -43 48 -43q38 0 88 25l24 -40q-68 -39 -143 -39z" />
    <glyph glyph-name="tilde" unicode="&#x2dc;" horiz-adv-x="515" 
d="M333 580q-36 0 -82 28t-65 28q-42 0 -39 -60l-70 12q0 65 27.5 99t77.5 34q36 0 82 -28t65 -28q41 0 40 59l68 -11q0 -65 -27.5 -99t-76.5 -34z" />
    <glyph glyph-name="hungarumlaut" unicode="&#x2dd;" horiz-adv-x="517" 
d="M241 587l106 166h133l-157 -166h-82zM63 587l100 166h133l-152 -166h-81z" />
    <glyph glyph-name="Delta" unicode="&#x394;" horiz-adv-x="694" 
d="M24 0l264 743h117l265 -743h-646zM172 110h340l-168 473h-1z" />
    <glyph glyph-name="Omega" unicode="&#x3a9;" horiz-adv-x="762" 
d="M381 754q150 0 236.5 -104t86.5 -251q0 -87 -39 -165t-109 -131h141v-103h-249v103q67 64 99.5 133t32.5 162q0 107 -53.5 179t-147.5 72q-91 0 -144 -70t-53 -180q0 -93 33 -162.5t99 -133.5v-103h-249v103h141q-70 52 -109 131t-39 165q0 147 87 251t236 104z" />
    <glyph glyph-name="mu" unicode="&#x3bc;" horiz-adv-x="608" 
d="M192 -200h-123v730h123v-351q0 -88 80 -88q68 0 144 69v370h123v-530h-123v84q-71 -77 -152 -88q-49 -3 -72 17v-213z" />
    <glyph glyph-name="pi" unicode="&#x3c0;" horiz-adv-x="668" 
d="M8 434v98h652v-98h-91v-434h-122v434h-226v-434h-122v434h-91z" />
    <glyph glyph-name="Wgrave" unicode="&#x1e80;" horiz-adv-x="943" 
d="M464 784l-144 166h132l93 -166h-81zM336 0h-110l-195 730l121 20l96 -393q29 -110 40 -172h2q9 59 38 171l89 384h119l93 -387q32 -134 38 -168h2q8 43 37 165l92 390h116l-194 -740h-109l-134 568h-2z" />
    <glyph glyph-name="wgrave" unicode="&#x1e81;" horiz-adv-x="764" 
d="M345 587l-144 166h132l93 -166h-81zM284 0h-113l-156 521l120 19l60 -229q35 -142 41 -170h2q19 94 41 172l57 217h99l59 -221q16 -54 42 -168h2q21 97 41 166l61 223h111l-158 -530h-114l-96 370h-2z" />
    <glyph glyph-name="Wacute" unicode="&#x1e82;" horiz-adv-x="943" 
d="M404 784l93 166h133l-145 -166h-81zM336 0h-110l-195 730l121 20l96 -393q29 -110 40 -172h2q9 59 38 171l89 384h119l93 -387q32 -134 38 -168h2q8 43 37 165l92 390h116l-194 -740h-109l-134 568h-2z" />
    <glyph glyph-name="wacute" unicode="&#x1e83;" horiz-adv-x="764" 
d="M343 587l93 166h133l-145 -166h-81zM284 0h-113l-156 521l120 19l60 -229q35 -142 41 -170h2q19 94 41 172l57 217h99l59 -221q16 -54 42 -168h2q21 97 41 166l61 223h111l-158 -530h-114l-96 370h-2z" />
    <glyph glyph-name="Wdieresis" unicode="&#x1e84;" horiz-adv-x="943" 
d="M569 774q-29 0 -46 19.5t-17 48.5t17 47.5t46 18.5q31 0 48 -18.5t17 -47.5q0 -30 -17 -49t-48 -19zM371 774q-30 0 -46.5 19t-16.5 49q0 29 16.5 47.5t46.5 18.5t47 -18.5t17 -47.5q0 -30 -17 -49t-47 -19zM336 0h-110l-195 730l121 20l96 -393q29 -110 40 -172h2
q9 59 38 171l89 384h119l93 -387q32 -134 38 -168h2q8 43 37 165l92 390h116l-194 -740h-109l-134 568h-2z" />
    <glyph glyph-name="wdieresis" unicode="&#x1e85;" horiz-adv-x="764" 
d="M479 577q-29 0 -46 19.5t-17 48.5t17 47.5t46 18.5q31 0 48 -18.5t17 -47.5q0 -30 -17 -49t-48 -19zM281 577q-30 0 -46.5 19t-16.5 49q0 29 16.5 47.5t46.5 18.5t47 -18.5t17 -47.5q0 -30 -17 -49t-47 -19zM284 0h-113l-156 521l120 19l60 -229q35 -142 41 -170h2
q19 94 41 172l57 217h99l59 -221q16 -54 42 -168h2q21 97 41 166l61 223h111l-158 -530h-114l-96 370h-2z" />
    <glyph glyph-name="Ygrave" unicode="&#x1ef2;" horiz-adv-x="661" 
d="M316 784l-144 166h132l93 -166h-81zM392 0h-124v319l-247 411l119 20l191 -325l186 315h128l-253 -421v-319z" />
    <glyph glyph-name="ygrave" unicode="&#x1ef3;" horiz-adv-x="546" 
d="M249 587l-144 166h132l93 -166h-81zM125 -203q-55 0 -87 8l-9 103q40 -11 87 -11q33 0 52.5 14t32.5 47l15 39l-200 524l121 19l139 -396h2l137 386h121l-225 -588q-29 -75 -70 -110t-116 -35z" />
    <glyph glyph-name="uni2000" unicode="&#x2000;" horiz-adv-x="500" 
 />
    <glyph glyph-name="uni2001" unicode="&#x2001;" horiz-adv-x="1000" 
 />
    <glyph glyph-name="space.en" unicode="&#x2002;" horiz-adv-x="500" 
 />
    <glyph glyph-name="space.em" unicode="&#x2003;" horiz-adv-x="1000" 
 />
    <glyph glyph-name="uni2004" unicode="&#x2004;" horiz-adv-x="333" 
 />
    <glyph glyph-name="uni2005" unicode="&#x2005;" horiz-adv-x="250" 
 />
    <glyph glyph-name="space.tab_en" unicode="&#x2007;" 
 />
    <glyph glyph-name="space.thin" unicode="&#x2009;" horiz-adv-x="200" 
 />
    <glyph glyph-name="uni200A" unicode="&#x200a;" horiz-adv-x="100" 
 />
    <glyph glyph-name="uni200B" unicode="&#x200b;" horiz-adv-x="0" 
 />
    <glyph glyph-name="endash.tab" unicode="&#x2012;" 
d="M52 260v105h546v-105h-546z" />
    <glyph glyph-name="endash" unicode="&#x2013;" horiz-adv-x="665" 
d="M605 260h-545v105h545v-105z" />
    <glyph glyph-name="emdash" unicode="&#x2014;" horiz-adv-x="935" 
d="M875 259h-815v106h815v-106z" />
    <glyph glyph-name="emdash.salt_em" unicode="&#x2015;" horiz-adv-x="1000" 
d="M0 259v106h1000v-106h-1000z" />
    <glyph glyph-name="quoteleft" unicode="&#x2018;" horiz-adv-x="276" 
d="M151 740h73l-26 -242h-137z" />
    <glyph glyph-name="quoteright" unicode="&#x2019;" horiz-adv-x="276" 
d="M134 498h-73l27 242h136z" />
    <glyph glyph-name="quotesinglbase" unicode="&#x201a;" horiz-adv-x="276" 
d="M128 -112h-73l26 242h137z" />
    <glyph glyph-name="quotedblleft" unicode="&#x201c;" horiz-adv-x="491" 
d="M151 740h73l-26 -242h-137zM366 740h73l-27 -242h-136z" />
    <glyph glyph-name="quotedblright" unicode="&#x201d;" horiz-adv-x="491" 
d="M349 498h-73l26 242h137zM134 498h-73l27 242h136z" />
    <glyph glyph-name="quotedblbase" unicode="&#x201e;" horiz-adv-x="491" 
d="M343 -112h-73l26 242h137zM128 -112h-73l27 242h136z" />
    <glyph glyph-name="dagger" unicode="&#x2020;" horiz-adv-x="588" 
d="M359 -200h-130l20 591l-211 -14v114l211 -15l-20 264h130l-20 -264l211 15v-114l-211 14z" />
    <glyph glyph-name="daggerdbl" unicode="&#x2021;" horiz-adv-x="588" 
d="M359 -200h-130l20 219l-196 -15v109l196 -14l-16 172l16 170l-196 -14v109l196 -15l-20 219h130l-20 -219l196 15v-109l-196 14l16 -170l-16 -172l196 14v-109l-196 15z" />
    <glyph glyph-name="bullet" unicode="&#x2022;" horiz-adv-x="463" 
d="M231 222q-55 0 -91.5 36t-36.5 92t36 92.5t92 36.5t92.5 -36.5t36.5 -92.5t-36.5 -92t-92.5 -36z" />
    <glyph glyph-name="ellipsis" unicode="&#x2026;" horiz-adv-x="828" 
d="M689 -7q-36 0 -56 20.5t-20 51.5t20 51t56 20t56.5 -20t20.5 -51t-20.5 -51.5t-56.5 -20.5zM413 -7q-36 0 -56 20.5t-20 51.5t20 51t56 20t56.5 -20t20.5 -51t-20.5 -51.5t-56.5 -20.5zM138 -7q-36 0 -56 20.5t-20 51.5t20 51t56 20t56.5 -20t20.5 -51t-20.5 -51.5
t-56.5 -20.5z" />
    <glyph glyph-name="perthousand" unicode="&#x2030;" horiz-adv-x="1482" 
d="M237 284q-87 0 -136.5 63.5t-49.5 169.5q0 107 50.5 170.5t136.5 63.5q85 0 135 -63t50 -169t-49.5 -170.5t-136.5 -64.5zM358 0h-107l442 740h107zM238 365q40 0 60.5 41.5t20.5 110.5q0 71 -21 111.5t-61 40.5q-41 0 -62 -40.5t-21 -109.5q0 -72 21 -113t63 -41z
M1245 -10q-87 0 -136.5 63.5t-49.5 169.5q0 108 50.5 171.5t136.5 63.5t135.5 -63.5t49.5 -169.5t-50 -170.5t-136 -64.5zM814 -10q-87 0 -136.5 63.5t-49.5 169.5q0 108 50.5 171.5t136.5 63.5q85 0 135 -63.5t50 -169.5t-49.5 -170.5t-136.5 -64.5zM1245 72q41 0 61.5 41
t20.5 111q0 151 -82 151q-41 0 -62 -40.5t-21 -109.5q0 -72 21 -112.5t62 -40.5zM815 72q40 0 60.5 41t20.5 111q0 151 -82 151t-82 -150q0 -153 83 -153z" />
    <glyph glyph-name="minute" unicode="&#x2032;" horiz-adv-x="251" 
d="M62 478l18 196l11 66h109l-63 -262h-75z" />
    <glyph glyph-name="second" unicode="&#x2033;" horiz-adv-x="437" 
d="M248 478l18 196l11 66h109l-63 -262h-75zM62 478l18 196l11 66h109l-63 -262h-75z" />
    <glyph glyph-name="guilsinglleft" unicode="&#x2039;" horiz-adv-x="353" 
d="M311 0h-120l-158 266l158 264h120l-154 -264z" />
    <glyph glyph-name="guilsinglright" unicode="&#x203a;" horiz-adv-x="353" 
d="M161 0h-119l153 266l-153 264h119l159 -264z" />
    <glyph glyph-name="fraction" unicode="&#x2044;" horiz-adv-x="512" 
d="M92 0h-108l436 740h108z" />
    <glyph glyph-name="zero.sups" unicode="&#x2070;" horiz-adv-x="507" 
d="M254 261q-94 0 -145 65t-51 178q0 112 51 178.5t145 66.5q92 0 143.5 -66.5t51.5 -178.5t-51 -177.5t-144 -65.5zM254 340q95 0 95 164q0 78 -24 120.5t-71 42.5q-96 0 -96 -163q0 -164 96 -164z" />
    <glyph glyph-name="four.sups" unicode="&#x2074;" horiz-adv-x="472" 
d="M263 269v103h-214v64l209 304h103v-288h67l15 -80h-82v-103h-98zM147 447h120v180z" />
    <glyph glyph-name="five.sups" unicode="&#x2075;" horiz-adv-x="451" 
d="M217 261q-108 0 -174 74l49 62q52 -59 123 -59q44 0 67.5 24.5t23.5 64.5q0 41 -22 63t-60 22q-48 0 -84 -46l-71 24l18 250h276l14 -79h-213l-9 -111q30 32 96 32q69 0 110.5 -40t41.5 -116q0 -79 -50.5 -122t-135.5 -43z" />
    <glyph glyph-name="six.sups" unicode="&#x2076;" horiz-adv-x="475" 
d="M249 261q-91 0 -141 59.5t-50 177.5q0 125 56.5 188t149.5 63q92 0 146 -45l-43 -69q-49 33 -103 33q-104 0 -108 -143q55 48 122 48q70 0 110.5 -38.5t40.5 -111.5q0 -74 -47.5 -118t-132.5 -44zM250 337q40 0 62 21.5t22 59.5q0 81 -81 81q-53 0 -96 -46
q4 -57 28.5 -86.5t64.5 -29.5z" />
    <glyph glyph-name="seven.sups" unicode="&#x2077;" horiz-adv-x="416" 
d="M86 269l180 388h-212l-14 83h332v-75l-182 -396h-104z" />
    <glyph glyph-name="eight.sups" unicode="&#x2078;" horiz-adv-x="468" 
d="M234 261q-90 0 -139 34.5t-49 93.5q0 80 105 127q-43 22 -63.5 47.5t-20.5 65.5q0 49 44 84.5t123 35.5q80 0 123 -35t43 -85q0 -71 -86 -110q53 -24 80 -53.5t27 -76.5q0 -58 -49.5 -93t-137.5 -35zM242 547q35 18 50.5 33.5t15.5 39.5q0 23 -18.5 40.5t-53.5 17.5
q-36 0 -55 -16.5t-19 -39.5q0 -26 17.5 -41.5t62.5 -33.5zM232 328q43 0 67.5 17.5t24.5 47.5q0 29 -25 50t-76 42q-82 -37 -82 -92q0 -30 24 -47.5t67 -17.5z" />
    <glyph glyph-name="nine.sups" unicode="&#x2079;" horiz-adv-x="475" 
d="M222 508q55 0 96 46q-4 56 -29 86.5t-65 30.5q-39 0 -61 -22.5t-22 -60.5q0 -80 81 -80zM210 261q-92 0 -145 44l43 68q45 -33 103 -33q53 0 79.5 34t28.5 108q-57 -48 -123 -48q-69 0 -109.5 40t-40.5 112q0 73 47.5 118t131.5 45q91 0 141.5 -60t50.5 -177
q0 -124 -59 -187.5t-148 -63.5z" />
    <glyph glyph-name="zero.sinf" unicode="&#x2080;" horiz-adv-x="507" 
d="M254 -208q-94 0 -145 65t-51 178q0 112 51 178.5t145 66.5q92 0 143.5 -66.5t51.5 -178.5t-51 -177.5t-144 -65.5zM254 -129q95 0 95 164q0 78 -24 120.5t-71 42.5q-96 0 -96 -163q0 -164 96 -164z" />
    <glyph glyph-name="one.sinf" unicode="&#x2081;" horiz-adv-x="369" 
d="M252 -200h-101v388l-74 -21l-14 72l109 32h80v-471z" />
    <glyph glyph-name="two.sinf" unicode="&#x2082;" horiz-adv-x="465" 
d="M61 -199v23q0 59 29.5 109t115.5 103q56 35 74 53.5t18 49.5q0 27 -15.5 42t-45.5 15q-62 0 -104 -76l-71 48q65 113 177 113q76 0 116 -37.5t40 -102.5q0 -46 -26.5 -83.5t-94.5 -76.5q-88 -52 -98 -97h222v-83h-337z" />
    <glyph glyph-name="three.sinf" unicode="&#x2083;" horiz-adv-x="465" 
d="M229 -207q-120 0 -182 97l64 53q46 -67 111 -67q41 0 61.5 17.5t20.5 47.5q0 37 -26 54.5t-84 17.5h-33v72h36q53 0 75.5 14.5t22.5 44.5q0 24 -16.5 38.5t-48.5 14.5q-56 0 -108 -52l-57 60q73 76 172 76q77 0 117 -34.5t40 -91.5q0 -77 -73 -103q86 -26 86 -112
q0 -69 -48 -108t-130 -39z" />
    <glyph glyph-name="four.sinf" unicode="&#x2084;" horiz-adv-x="472" 
d="M263 -200v103h-214v64l209 304h103v-288h67l15 -80h-82v-103h-98zM147 -22h120v180z" />
    <glyph glyph-name="five.sinf" unicode="&#x2085;" horiz-adv-x="451" 
d="M217 -208q-108 0 -174 74l49 62q52 -59 123 -59q44 0 67.5 24.5t23.5 64.5q0 41 -22 63t-60 22q-48 0 -84 -46l-71 24l18 250h276l14 -79h-213l-9 -111q30 32 96 32q69 0 110.5 -40t41.5 -116q0 -79 -50.5 -122t-135.5 -43z" />
    <glyph glyph-name="six.sinf" unicode="&#x2086;" horiz-adv-x="475" 
d="M249 -208q-91 0 -141 59.5t-50 177.5q0 125 56.5 188t149.5 63q92 0 146 -45l-43 -69q-49 33 -103 33q-104 0 -108 -143q55 48 122 48q70 0 110.5 -38.5t40.5 -111.5q0 -74 -47.5 -118t-132.5 -44zM250 -132q40 0 62 21.5t22 59.5q0 81 -81 81q-53 0 -96 -46
q4 -57 28.5 -86.5t64.5 -29.5z" />
    <glyph glyph-name="seven.sinf" unicode="&#x2087;" horiz-adv-x="416" 
d="M86 -200l180 388h-212l-14 83h332v-75l-182 -396h-104z" />
    <glyph glyph-name="eight.sinf" unicode="&#x2088;" horiz-adv-x="468" 
d="M234 -208q-90 0 -139 34.5t-49 93.5q0 80 105 127q-43 22 -63.5 47.5t-20.5 65.5q0 49 44 84.5t123 35.5q80 0 123 -35t43 -85q0 -71 -86 -110q53 -24 80 -53.5t27 -76.5q0 -58 -49.5 -93t-137.5 -35zM242 78q35 18 50.5 33.5t15.5 39.5q0 23 -18.5 40.5t-53.5 17.5
q-36 0 -55 -16.5t-19 -39.5q0 -26 17.5 -41.5t62.5 -33.5zM232 -141q43 0 67.5 17.5t24.5 47.5q0 29 -25 50t-76 42q-82 -37 -82 -92q0 -30 24 -47.5t67 -17.5z" />
    <glyph glyph-name="nine.sinf" unicode="&#x2089;" horiz-adv-x="475" 
d="M222 39q55 0 96 46q-4 56 -29 86.5t-65 30.5q-39 0 -61 -22.5t-22 -60.5q0 -80 81 -80zM210 -208q-92 0 -145 44l43 68q45 -33 103 -33q53 0 79.5 34t28.5 108q-57 -48 -123 -48q-69 0 -109.5 40t-40.5 112q0 73 47.5 118t131.5 45q91 0 141.5 -60t50.5 -177
q0 -124 -59 -187.5t-148 -63.5z" />
    <glyph glyph-name="Euro" unicode="&#x20ac;" horiz-adv-x="729" 
d="M131 372v28h-110v83h119q24 134 100.5 202.5t182.5 68.5q188 0 254 -164l-104 -59q-20 59 -55.5 87t-93.5 28q-63 0 -105 -41t-58 -122h186v-83h-195v-26q0 -29 1 -43h194v-84h-184q32 -155 163 -155q58 0 94.5 28.5t58.5 91.5l102 -61q-33 -76 -98.5 -120.5
t-157.5 -44.5q-108 0 -183 65.5t-100 195.5h-121v84h111q-1 13 -1 41z" />
    <glyph glyph-name="uni2117" unicode="&#x2117;" horiz-adv-x="865" 
d="M432 -14q-162 0 -272 110.5t-110 272.5t111 273.5t273 111.5q160 0 270.5 -111t110.5 -272t-111.5 -273t-271.5 -112zM434 44q136 0 227 93.5t91 231.5t-92 232.5t-228 94.5t-227.5 -93.5t-91.5 -231.5t92.5 -232.5t228.5 -94.5zM377 163h-79v419h155q156 0 156 -126
q0 -66 -43 -98.5t-119 -32.5h-70v-162zM377 514v-125h73q81 0 81 63q0 62 -82 62h-72z" />
    <glyph glyph-name="trademark" unicode="&#x2122;" horiz-adv-x="905" 
d="M237 317h-86v351h-122v72h331v-72h-123v-351zM502 317h-77v423h116l98 -311l99 311h115v-423h-85v299l-97 -299h-71l-98 298v-298z" />
    <glyph glyph-name="uni2126" unicode="&#x2126;" horiz-adv-x="762" 
d="M381 754q150 0 236.5 -104t86.5 -251q0 -87 -39 -165t-109 -131h141v-103h-249v103q67 64 99.5 133t32.5 162q0 107 -53.5 179t-147.5 72q-91 0 -144 -70t-53 -180q0 -93 33 -162.5t99 -133.5v-103h-249v103h141q-70 52 -109 131t-39 165q0 147 87 251t236 104z" />
    <glyph glyph-name="estimated" unicode="&#x212e;" horiz-adv-x="697" 
d="M664 318h-490v-220q71 -71 174 -71q84 0 137.5 37t99.5 108l37 -23q-50 -78 -114 -119.5t-160 -41.5q-138 0 -224 96t-86 235q0 141 85.5 236t227.5 95t226.5 -95.5t86.5 -236.5zM525 358v182q-76 71 -175 71q-105 0 -176 -71v-182h351z" />
    <glyph glyph-name="onethird" unicode="&#x2153;" horiz-adv-x="1111" 
d="M371 0h-108l436 740h108zM232 264h-101v388l-74 -21l-14 72l109 32h80v-471zM895 -6q-120 0 -182 97l64 53q46 -67 111 -67q41 0 61.5 17.5t20.5 47.5q0 37 -26 54.5t-84 17.5h-33v72h36q53 0 75.5 14.5t22.5 44.5q0 24 -16.5 38.5t-48.5 14.5q-56 0 -108 -52l-57 60
q73 76 172 76q77 0 117 -34.5t40 -91.5q0 -77 -73 -103q86 -26 86 -112q0 -69 -48 -108t-130 -39z" />
    <glyph glyph-name="twothirds" unicode="&#x2154;" horiz-adv-x="1182" 
d="M41 265v23q0 59 29.5 109t115.5 103q56 35 74 53.5t18 49.5q0 27 -15.5 42t-45.5 15q-62 0 -104 -76l-71 48q65 113 177 113q76 0 116 -37.5t40 -102.5q0 -46 -26.5 -83.5t-94.5 -76.5q-88 -52 -98 -97h222v-83h-337zM442 0h-108l436 740h108zM966 -6q-120 0 -182 97
l64 53q46 -67 111 -67q41 0 61.5 17.5t20.5 47.5q0 37 -26 54.5t-84 17.5h-33v72h36q53 0 75.5 14.5t22.5 44.5q0 24 -16.5 38.5t-48.5 14.5q-56 0 -108 -52l-57 60q73 76 172 76q77 0 117 -34.5t40 -91.5q0 -77 -73 -103q86 -26 86 -112q0 -69 -48 -108t-130 -39z" />
    <glyph glyph-name="oneeighth" unicode="&#x215b;" horiz-adv-x="1114" 
d="M371 0h-108l436 740h108zM232 264h-101v388l-74 -21l-14 72l109 32h80v-471zM900 -7q-90 0 -139 34.5t-49 93.5q0 80 105 127q-43 22 -63.5 47.5t-20.5 65.5q0 49 44 84.5t123 35.5q80 0 123 -35t43 -85q0 -71 -86 -110q53 -24 80 -53.5t27 -76.5q0 -58 -49.5 -93
t-137.5 -35zM908 279q35 18 50.5 33.5t15.5 39.5q0 23 -18.5 40.5t-53.5 17.5q-36 0 -55 -16.5t-19 -39.5q0 -26 17.5 -41.5t62.5 -33.5zM898 60q43 0 67.5 17.5t24.5 47.5q0 29 -25 50t-76 42q-82 -37 -82 -92q0 -30 24 -47.5t67 -17.5z" />
    <glyph glyph-name="threeeighths" unicode="&#x215c;" horiz-adv-x="1150" 
d="M407 0h-108l436 740h108zM936 -7q-90 0 -139 34.5t-49 93.5q0 80 105 127q-43 22 -63.5 47.5t-20.5 65.5q0 49 44 84.5t123 35.5q80 0 123 -35t43 -85q0 -71 -86 -110q53 -24 80 -53.5t27 -76.5q0 -58 -49.5 -93t-137.5 -35zM944 279q35 18 50.5 33.5t15.5 39.5
q0 23 -18.5 40.5t-53.5 17.5q-36 0 -55 -16.5t-19 -39.5q0 -26 17.5 -41.5t62.5 -33.5zM209 257q-120 0 -182 97l64 53q46 -67 111 -67q41 0 61.5 17.5t20.5 47.5q0 37 -26 54.5t-84 17.5h-33v72h36q53 0 75.5 14.5t22.5 44.5q0 24 -16.5 38.5t-48.5 14.5q-56 0 -108 -52
l-57 60q73 76 172 76q77 0 117 -34.5t40 -91.5q0 -77 -73 -103q86 -26 86 -112q0 -69 -48 -108t-130 -39zM934 60q43 0 67.5 17.5t24.5 47.5q0 29 -25 50t-76 42q-82 -37 -82 -92q0 -30 24 -47.5t67 -17.5z" />
    <glyph glyph-name="fiveeighths" unicode="&#x215d;" horiz-adv-x="1141" 
d="M398 0h-108l436 740h108zM927 -7q-90 0 -139 34.5t-49 93.5q0 80 105 127q-43 22 -63.5 47.5t-20.5 65.5q0 49 44 84.5t123 35.5q80 0 123 -35t43 -85q0 -71 -86 -110q53 -24 80 -53.5t27 -76.5q0 -58 -49.5 -93t-137.5 -35zM935 279q35 18 50.5 33.5t15.5 39.5
q0 23 -18.5 40.5t-53.5 17.5q-36 0 -55 -16.5t-19 -39.5q0 -26 17.5 -41.5t62.5 -33.5zM197 256q-108 0 -174 74l49 62q52 -59 123 -59q44 0 67.5 24.5t23.5 64.5q0 41 -22 63t-60 22q-48 0 -84 -46l-71 24l18 250h276l14 -79h-213l-9 -111q30 32 96 32q69 0 110.5 -40
t41.5 -116q0 -79 -50.5 -122t-135.5 -43zM925 60q43 0 67.5 17.5t24.5 47.5q0 29 -25 50t-76 42q-82 -37 -82 -92q0 -30 24 -47.5t67 -17.5z" />
    <glyph glyph-name="seveneighths" unicode="&#x215e;" horiz-adv-x="1051" 
d="M308 0h-108l436 740h108zM66 264l180 388h-212l-14 83h332v-75l-182 -396h-104zM837 -7q-90 0 -139 34.5t-49 93.5q0 80 105 127q-43 22 -63.5 47.5t-20.5 65.5q0 49 44 84.5t123 35.5q80 0 123 -35t43 -85q0 -71 -86 -110q53 -24 80 -53.5t27 -76.5q0 -58 -49.5 -93
t-137.5 -35zM845 279q35 18 50.5 33.5t15.5 39.5q0 23 -18.5 40.5t-53.5 17.5q-36 0 -55 -16.5t-19 -39.5q0 -26 17.5 -41.5t62.5 -33.5zM835 60q43 0 67.5 17.5t24.5 47.5q0 29 -25 50t-76 42q-82 -37 -82 -92q0 -30 24 -47.5t67 -17.5z" />
    <glyph glyph-name="partialdiff" unicode="&#x2202;" horiz-adv-x="587" 
d="M369 763q177 -148 177 -432q0 -161 -82.5 -251.5t-207.5 -90.5q-107 0 -169 62.5t-62 161.5q0 134 80 211.5t178 77.5q46 0 86 -20.5t64 -57.5q-5 73 -43.5 150t-89.5 124zM260 76q63 0 110.5 55.5t47.5 148.5q0 63 -29.5 100.5t-80.5 37.5q-64 0 -112 -56t-48 -149
q0 -62 30 -99.5t82 -37.5z" />
    <glyph glyph-name="uni2206" unicode="&#x2206;" horiz-adv-x="694" 
d="M24 0l264 743h117l265 -743h-646zM172 110h340l-168 473h-1z" />
    <glyph glyph-name="product" unicode="&#x220f;" horiz-adv-x="742" 
d="M84 -200v940h573v-940h-124v827h-324v-827h-125z" />
    <glyph glyph-name="summation" unicode="&#x2211;" horiz-adv-x="604" 
d="M393 289l-210 -378h375v-111h-510v97l216 387l-205 344v112h486v-114h-350z" />
    <glyph glyph-name="minus" unicode="&#x2212;" horiz-adv-x="642" 
d="M576 292h-510v99h510v-99z" />
    <glyph glyph-name="uni2215" unicode="&#x2215;" horiz-adv-x="512" 
d="M92 0h-108l436 740h108z" />
    <glyph glyph-name="uni2219" unicode="&#x2219;" horiz-adv-x="281" 
d="M140 258q-36 0 -56 20t-20 52q0 31 20 51t56 20t56.5 -20t20.5 -51q0 -32 -20.5 -52t-56.5 -20z" />
    <glyph glyph-name="radical" unicode="&#x221a;" horiz-adv-x="632" 
d="M390 -2h-123l-161 445h-81v87h177l130 -392h2l202 602h117z" />
    <glyph glyph-name="infinity" unicode="&#x221e;" horiz-adv-x="783" 
d="M211 171q-88 0 -134.5 48t-46.5 140t46.5 140.5t134.5 48.5q107 0 181 -110q72 110 180 110q88 0 134.5 -48.5t46.5 -140.5t-46.5 -140t-134.5 -48q-106 0 -180 112q-75 -112 -181 -112zM566 260q45 0 69 25.5t24 73.5q0 49 -24 75t-69 26q-41 0 -69 -26t-58 -74
q30 -48 58 -74t69 -26zM217 260q41 0 69.5 25t58.5 74q-21 33 -35 51t-39 34t-54 16q-45 0 -69 -26t-24 -75q0 -48 24 -73.5t69 -25.5z" />
    <glyph glyph-name="integral" unicode="&#x222b;" horiz-adv-x="374" 
d="M113 585q0 74 38.5 116t132.5 42q43 0 73 -5v-89q-12 3 -42 3q-38 0 -59 -15t-21 -54v-649q0 -64 -31 -100t-116 -36q-35 0 -75 5v87q15 -5 40 -5q60 0 60 67v633z" />
    <glyph glyph-name="approxequal" unicode="&#x2248;" horiz-adv-x="641" 
d="M449 342q-43 1 -136.5 39t-113.5 39q-41 3 -48 -45l-74 11q8 70 40 102t82 30q46 -1 138.5 -39t111.5 -39q45 -3 49 46l74 -9q-7 -70 -39.5 -103.5t-83.5 -31.5zM440 120q-42 1 -135.5 39t-113.5 39q-44 3 -49 -46l-74 12q8 69 40 101t82 30q46 -1 138.5 -39t111.5 -39
q44 -2 49 46l75 -9q-8 -70 -40.5 -103t-83.5 -31z" />
    <glyph glyph-name="notequal" unicode="&#x2260;" horiz-adv-x="642" 
d="M134 -1l70 168h-136v91h170l60 137h-230v91h264l78 188h106l-78 -188h135v-91h-169l-60 -137h229v-91h-263l-70 -168h-106z" />
    <glyph glyph-name="lessequal" unicode="&#x2264;" horiz-adv-x="642" 
d="M585 143l-529 185v72l529 190v-103l-380 -123l380 -117v-104zM56 29v93h529v-93h-529z" />
    <glyph glyph-name="greaterequal" unicode="&#x2265;" horiz-adv-x="642" 
d="M60 143v104l380 117l-380 123v103l529 -190v-72zM60 29v93h529v-93h-529z" />
    <glyph glyph-name="lozenge" unicode="&#x25ca;" 
d="M276 740h94l235 -370l-231 -370h-98l-231 370zM325 119l160 251l-160 252l-159 -252z" />
    <glyph glyph-name="uni2713" unicode="&#x2713;" horiz-adv-x="567" 
d="M325 -2h-123l-193 532h128l131 -392h2l201 602h117z" />
    <glyph glyph-name="commaaccent" unicode="&#xf6c3;" horiz-adv-x="276" 
d="M130 -270h-67l24 226h127z" />
    <glyph glyph-name="apple" unicode="&#xf8ff;" horiz-adv-x="760" 
d="M425 511v-97h96l-6 91zM246 505l-7 -91h96v97zM425 324v-95l90 6l6 89h-96zM245 236l90 -7v95h-96zM445 0h-130l20 164l-84 -6l2 -30h-94l2 23l-22 -2v94l29 -1l6 82l-164 -20v130l164 -20l-6 85l-29 -2v94l22 -1l-2 20h94l-2 -28l84 -6l-20 164h130l-20 -164l84 6l-2 28
h94l-1 -21l21 2v-94l-29 2l-6 -85l164 20v-130l-164 20l6 -83l29 2v-94l-22 2l2 -23h-94l2 30l-84 6z" />
    <glyph glyph-name="uniFEFF" unicode="&#xfeff;" horiz-adv-x="0" 
 />
    <glyph glyph-name="commaaccent.scrap" horiz-adv-x="276" 
d="M147 810h67l-24 -226h-127z" />
    <glyph glyph-name="space.frac" horiz-adv-x="80" 
 />
    <glyph glyph-name="space.tab_em" horiz-adv-x="1300" 
 />
    <glyph glyph-name="space.tab_thin" horiz-adv-x="163" 
 />
    <glyph glyph-name="space.thin_fra" horiz-adv-x="120" 
 />
    <glyph glyph-name="hyphen.uc" horiz-adv-x="357" 
d="M302 340h-247v88h247v-88z" />
    <glyph glyph-name="endash.uc" horiz-adv-x="665" 
d="M605 330h-545v105h545v-105z" />
    <glyph glyph-name="emdash.uc" horiz-adv-x="935" 
d="M875 329h-815v106h815v-106z" />
    <glyph glyph-name="parenleft.uc" horiz-adv-x="401" 
d="M365 -78l-60 -57q-126 106 -189.5 224t-63.5 261t63.5 261t189.5 224l56 -60q-179 -184 -179 -425q0 -247 183 -428z" />
    <glyph glyph-name="parenright.uc" horiz-adv-x="401" 
d="M96 -135l-59 57q182 182 182 428q0 242 -180 425l57 60q126 -106 189.5 -224t63.5 -261t-63.5 -261t-189.5 -224z" />
    <glyph glyph-name="bracketleft.uc" horiz-adv-x="421" 
d="M385 -130h-308v940h308v-88h-184v-764h184v-88z" />
    <glyph glyph-name="bracketright.uc" horiz-adv-x="421" 
d="M344 -130h-308v88h184v764h-184v88h308v-940z" />
    <glyph glyph-name="braceleft.uc" horiz-adv-x="416" 
d="M386 -130h-109q-67 0 -102 38t-35 105v163q0 70 -25.5 95t-85.5 25v88q60 0 85.5 25t25.5 95v163q0 67 35 105t102 38h109v-88h-44q-78 0 -78 -78v-154q0 -70 -20.5 -102t-64.5 -47v-2q44 -15 64.5 -47t20.5 -102v-154q0 -78 78 -78h44v-88z" />
    <glyph glyph-name="braceright.uc" horiz-adv-x="416" 
d="M149 -130h-119v88h44q78 0 78 78v164q0 68 20 96t65 43v2q-45 15 -65 43t-20 96v164q0 80 -76 80h-44l-2 86h119q67 0 97 -33t30 -100v-173q0 -70 25.5 -95t85.5 -25v-88q-60 0 -85.5 -25t-25.5 -95v-173q0 -67 -30 -100t-97 -33z" />
    <glyph glyph-name="guilsinglleft.uc" horiz-adv-x="353" 
d="M311 70h-120l-158 266l158 264h120l-154 -264z" />
    <glyph glyph-name="guilsinglright.uc" horiz-adv-x="353" 
d="M161 70h-119l153 266l-153 264h119l159 -264z" />
    <glyph glyph-name="guillemotleft.uc" horiz-adv-x="587" 
d="M311 70h-120l-158 266l158 264h120l-154 -264zM546 70h-120l-159 266l159 264h120l-155 -264z" />
    <glyph glyph-name="guillemotright.uc" horiz-adv-x="587" 
d="M161 70h-119l153 266l-153 264h119l159 -264zM396 70h-120l154 266l-154 264h120l159 -264z" />
    <glyph glyph-name="periodcentered.uc" horiz-adv-x="281" 
d="M140 328q-36 0 -56 20t-20 52q0 31 20 51t56 20t56.5 -20t20.5 -51q0 -32 -20.5 -52t-56.5 -20z" />
    <glyph glyph-name="endash.salt_en" horiz-adv-x="500" 
d="M0 260v105h500v-105h-500z" />
    <glyph glyph-name="emdash.uc_salt_em" horiz-adv-x="1000" 
d="M0 329v106h1000v-106h-1000z" />
    <glyph glyph-name="endash.uc_salt_en" horiz-adv-x="500" 
d="M0 330v105h500v-105h-500z" />
    <glyph glyph-name="registered.salt_big" horiz-adv-x="865" 
d="M432 -14q-162 0 -272 110.5t-110 272.5t111 273.5t273 111.5q160 0 270.5 -111t110.5 -272t-111.5 -273t-271.5 -112zM434 44q136 0 227 93.5t91 231.5t-92 232.5t-228 94.5t-227.5 -93.5t-91.5 -231.5t92.5 -232.5t228.5 -94.5zM365 168h-78v420h154q75 0 116 -32.5
t41 -95.5q0 -91 -85 -119l89 -168l-80 -9l-87 167h-70v-163zM365 517v-126h72q83 0 83 64q0 62 -84 62h-71z" />
    <glyph glyph-name="zero.dnom" horiz-adv-x="467" 
d="M234 -7q-94 0 -145 65t-51 178q0 112 51 178.5t145 66.5q92 0 143.5 -66.5t51.5 -178.5t-51 -177.5t-144 -65.5zM234 72q95 0 95 164q0 78 -24 120.5t-71 42.5q-96 0 -96 -163q0 -164 96 -164z" />
    <glyph glyph-name="one.dnom" horiz-adv-x="329" 
d="M232 1h-101v388l-74 -21l-14 72l109 32h80v-471z" />
    <glyph glyph-name="two.dnom" horiz-adv-x="425" 
d="M41 2v23q0 59 29.5 109t115.5 103q56 35 74 54t18 49q0 27 -15.5 42t-45.5 15q-62 0 -104 -76l-71 48q65 113 177 113q76 0 116 -37.5t40 -102.5q0 -46 -26.5 -83.5t-94.5 -76.5q-88 -52 -98 -97h222v-83h-337z" />
    <glyph glyph-name="three.dnom" horiz-adv-x="425" 
d="M209 -6q-120 0 -182 97l64 53q46 -67 111 -67q41 0 61.5 17.5t20.5 47.5q0 37 -26 54.5t-84 17.5h-33v72h36q53 0 75.5 14.5t22.5 44.5q0 24 -16.5 38.5t-48.5 14.5q-56 0 -108 -52l-57 60q73 76 172 76q77 0 117 -34.5t40 -91.5q0 -77 -73 -103q86 -26 86 -112
q0 -69 -48 -108t-130 -39z" />
    <glyph glyph-name="four.dnom" horiz-adv-x="432" 
d="M243 1v103h-214v64l209 304h103v-288h67l15 -80h-82v-103h-98zM127 179h120v180z" />
    <glyph glyph-name="five.dnom" horiz-adv-x="411" 
d="M197 -7q-108 0 -174 74l49 62q52 -59 123 -59q44 0 67.5 24.5t23.5 64.5q0 41 -22 63t-60 22q-48 0 -84 -46l-71 24l18 250h276l14 -79h-213l-9 -111q30 32 96 32q69 0 110.5 -40t41.5 -116q0 -79 -50.5 -122t-135.5 -43z" />
    <glyph glyph-name="six.dnom" horiz-adv-x="435" 
d="M229 -7q-91 0 -141 59.5t-50 177.5q0 125 56.5 188t149.5 63q92 0 146 -45l-43 -69q-49 33 -103 33q-104 0 -108 -143q55 48 122 48q70 0 110.5 -38.5t40.5 -111.5q0 -74 -47.5 -118t-132.5 -44zM230 69q40 0 62 21.5t22 59.5q0 81 -81 81q-53 0 -96 -46
q4 -57 28.5 -86.5t64.5 -29.5z" />
    <glyph glyph-name="seven.dnom" horiz-adv-x="376" 
d="M66 1l180 388h-212l-14 83h332v-75l-182 -396h-104z" />
    <glyph glyph-name="eight.dnom" horiz-adv-x="428" 
d="M214 -7q-90 0 -139 34.5t-49 93.5q0 80 105 127q-43 22 -63.5 47.5t-20.5 65.5q0 49 44 84.5t123 35.5q80 0 123 -35t43 -85q0 -71 -86 -110q53 -24 80 -53.5t27 -76.5q0 -58 -49.5 -93t-137.5 -35zM222 279q35 18 50.5 33.5t15.5 39.5q0 23 -18.5 40.5t-53.5 17.5
q-36 0 -55 -16.5t-19 -39.5q0 -26 17.5 -41.5t62.5 -33.5zM212 60q43 0 67.5 17.5t24.5 47.5q0 29 -25 50t-76 42q-82 -37 -82 -92q0 -30 24 -47.5t67 -17.5z" />
    <glyph glyph-name="nine.dnom" horiz-adv-x="435" 
d="M202 240q55 0 96 46q-4 56 -29 86.5t-65 30.5q-39 0 -61 -22.5t-22 -60.5q0 -80 81 -80zM190 -7q-92 0 -145 44l43 68q45 -33 103 -33q53 0 79.5 34t28.5 108q-57 -48 -123 -48q-69 0 -109.5 40t-40.5 112q0 73 47.5 118t131.5 45q91 0 141.5 -60t50.5 -177
q0 -124 -59 -187.5t-148 -63.5z" />
    <glyph glyph-name="zero.numr" horiz-adv-x="467" 
d="M234 256q-94 0 -145 65t-51 178q0 112 51 178.5t145 66.5q92 0 143.5 -66.5t51.5 -178.5t-51 -177.5t-144 -65.5zM234 335q95 0 95 164q0 78 -24 120.5t-71 42.5q-96 0 -96 -163q0 -164 96 -164z" />
    <glyph glyph-name="one.numr" horiz-adv-x="329" 
d="M232 264h-101v388l-74 -21l-14 72l109 32h80v-471z" />
    <glyph glyph-name="two.numr" horiz-adv-x="425" 
d="M41 265v23q0 59 29.5 109t115.5 103q56 35 74 53.5t18 49.5q0 27 -15.5 42t-45.5 15q-62 0 -104 -76l-71 48q65 113 177 113q76 0 116 -37.5t40 -102.5q0 -46 -26.5 -83.5t-94.5 -76.5q-88 -52 -98 -97h222v-83h-337z" />
    <glyph glyph-name="three.numr" horiz-adv-x="425" 
d="M209 257q-120 0 -182 97l64 53q46 -67 111 -67q41 0 61.5 17.5t20.5 47.5q0 37 -26 54.5t-84 17.5h-33v72h36q53 0 75.5 14.5t22.5 44.5q0 24 -16.5 38.5t-48.5 14.5q-56 0 -108 -52l-57 60q73 76 172 76q77 0 117 -34.5t40 -91.5q0 -77 -73 -103q86 -26 86 -112
q0 -69 -48 -108t-130 -39z" />
    <glyph glyph-name="four.numr" horiz-adv-x="432" 
d="M243 264v103h-214v64l209 304h103v-288h67l15 -80h-82v-103h-98zM127 442h120v180z" />
    <glyph glyph-name="five.numr" horiz-adv-x="411" 
d="M197 256q-108 0 -174 74l49 62q52 -59 123 -59q44 0 67.5 24.5t23.5 64.5q0 41 -22 63t-60 22q-48 0 -84 -46l-71 24l18 250h276l14 -79h-213l-9 -111q30 32 96 32q69 0 110.5 -40t41.5 -116q0 -79 -50.5 -122t-135.5 -43z" />
    <glyph glyph-name="six.numr" horiz-adv-x="435" 
d="M229 256q-91 0 -141 59.5t-50 177.5q0 125 56.5 188t149.5 63q92 0 146 -45l-43 -69q-49 33 -103 33q-104 0 -108 -143q55 48 122 48q70 0 110.5 -38.5t40.5 -111.5q0 -74 -47.5 -118t-132.5 -44zM230 332q40 0 62 21.5t22 59.5q0 81 -81 81q-53 0 -96 -46
q4 -57 28.5 -86.5t64.5 -29.5z" />
    <glyph glyph-name="seven.numr" horiz-adv-x="376" 
d="M66 264l180 388h-212l-14 83h332v-75l-182 -396h-104z" />
    <glyph glyph-name="eight.numr" horiz-adv-x="428" 
d="M214 256q-90 0 -139 34.5t-49 93.5q0 80 105 127q-43 22 -63.5 47.5t-20.5 65.5q0 49 44 84.5t123 35.5q80 0 123 -35t43 -85q0 -71 -86 -110q53 -24 80 -53.5t27 -76.5q0 -58 -49.5 -93t-137.5 -35zM222 542q35 18 50.5 33.5t15.5 39.5q0 23 -18.5 40.5t-53.5 17.5
q-36 0 -55 -16.5t-19 -39.5q0 -26 17.5 -41.5t62.5 -33.5zM212 323q43 0 67.5 17.5t24.5 47.5q0 29 -25 50t-76 42q-82 -37 -82 -92q0 -30 24 -47.5t67 -17.5z" />
    <glyph glyph-name="nine.numr" horiz-adv-x="435" 
d="M202 503q55 0 96 46q-4 56 -29 86.5t-65 30.5q-39 0 -61 -22.5t-22 -60.5q0 -80 81 -80zM190 256q-92 0 -145 44l43 68q45 -33 103 -33q53 0 79.5 34t28.5 108q-57 -48 -123 -48q-69 0 -109.5 40t-40.5 112q0 73 47.5 118t131.5 45q91 0 141.5 -60t50.5 -177
q0 -124 -59 -187.5t-148 -63.5z" />
    <glyph glyph-name="zero.salt_slash" horiz-adv-x="678" 
d="M339 -14q-137 0 -215 104.5t-78 279.5t78 279.5t215 104.5q138 0 215 -104t77 -280t-77 -280t-215 -104zM170 370q0 -80 16 -135l274 343q-44 65 -121 65q-81 0 -125 -70t-44 -203zM339 95q81 0 125 70.5t44 204.5q0 76 -15 132l-274 -342q44 -65 120 -65z" />
    <glyph glyph-name="zero.sc_salt_slash" horiz-adv-x="561" 
d="M281 -13q-115 0 -180 84t-65 225t64.5 224t180.5 83t180.5 -83t64.5 -224t-65 -225t-180 -84zM151 296q0 -61 12 -106l204 278q-33 41 -86 41q-130 0 -130 -213zM281 81q128 0 128 215q0 62 -12 105l-203 -278q33 -42 87 -42z" />
    <glyph glyph-name="zero.tab_salt_slash" 
d="M325 -14q-138 0 -215.5 104t-77.5 280t77.5 280t215.5 104t215 -104t77 -280t-77 -280t-215 -104zM156 370q0 -79 15 -136l276 345q-43 64 -122 64q-169 0 -169 -273zM325 95q82 0 125.5 69t43.5 206q0 79 -15 134l-275 -345q43 -64 121 -64z" />
    <glyph glyph-name="i.trk" horiz-adv-x="272" 
d="M135 609q-33 0 -51.5 18t-18.5 47t18.5 47t51.5 18q34 0 53 -18t19 -47t-19 -47t-53 -18zM197 0h-122v530h122v-530z" />
    <glyph glyph-name="A.sc" horiz-adv-x="606" 
d="M22 0l223 594h116l220 -586l-118 -16l-48 138h-232l-49 -130h-112zM215 222h166l-40 112l-40 116h-3l-42 -116z" />
    <glyph glyph-name="Agrave.sc" horiz-adv-x="606" 
d="M267 642l-144 166h132l93 -166h-81zM22 0l223 594h116l220 -586l-118 -16l-48 138h-232l-49 -130h-112zM215 222h166l-40 112l-40 116h-3l-42 -116z" />
    <glyph glyph-name="Aacute.sc" horiz-adv-x="606" 
d="M258 642l93 166h133l-145 -166h-81zM22 0l223 594h116l220 -586l-118 -16l-48 138h-232l-49 -130h-112zM215 222h166l-40 112l-40 116h-3l-42 -116z" />
    <glyph glyph-name="Acircumflex.sc" horiz-adv-x="606" 
d="M131 642l129 166h85l129 -166h-72l-101 84l-99 -84h-71zM22 0l223 594h116l220 -586l-118 -16l-48 138h-232l-49 -130h-112zM215 222h166l-40 112l-40 116h-3l-42 -116z" />
    <glyph glyph-name="Atilde.sc" horiz-adv-x="606" 
d="M378 635q-36 0 -82 28t-65 28q-42 0 -39 -60l-70 12q0 65 27.5 99t77.5 34q36 0 82 -28t65 -28q41 0 40 59l68 -11q0 -65 -27.5 -99t-76.5 -34zM22 0l223 594h116l220 -586l-118 -16l-48 138h-232l-49 -130h-112zM215 222h166l-40 112l-40 116h-3l-42 -116z" />
    <glyph glyph-name="Adieresis.sc" horiz-adv-x="606" 
d="M401 632q-29 0 -46 19.5t-17 48.5t17 47.5t46 18.5q31 0 48 -18.5t17 -47.5q0 -30 -17 -49t-48 -19zM203 632q-30 0 -46.5 19t-16.5 49q0 29 16.5 47.5t46.5 18.5t47 -18.5t17 -47.5q0 -30 -17 -49t-47 -19zM22 0l223 594h116l220 -586l-118 -16l-48 138h-232l-49 -130
h-112zM215 222h166l-40 112l-40 116h-3l-42 -116z" />
    <glyph glyph-name="Aring.sc" horiz-adv-x="606" 
d="M463 -8l-48 138h-232l-49 -130h-112l214 569q-35 29 -35 78q0 43 29 72t73 29t73 -29t29 -72q0 -49 -35 -78l211 -561zM303 595q22 0 35.5 14.5t13.5 37.5q0 22 -13.5 36.5t-35.5 14.5t-35.5 -14.5t-13.5 -36.5q0 -23 13.5 -37.5t35.5 -14.5zM215 222h166l-40 112
l-40 116h-3l-42 -116z" />
    <glyph glyph-name="Amacron.sc" horiz-adv-x="606" 
d="M148 638v91h310v-91h-310zM22 0l223 594h116l220 -586l-118 -16l-48 138h-232l-49 -130h-112zM215 222h166l-40 112l-40 116h-3l-42 -116z" />
    <glyph glyph-name="Abreve.sc" horiz-adv-x="606" 
d="M303 634q-75 0 -118.5 48.5t-47.5 127.5h69q11 -94 97 -94t97 94h69q-4 -79 -47.5 -127.5t-118.5 -48.5zM22 0l223 594h116l220 -586l-118 -16l-48 138h-232l-49 -130h-112zM215 222h166l-40 112l-40 116h-3l-42 -116z" />
    <glyph glyph-name="Aogonek.sc" horiz-adv-x="606" 
d="M478 -187q-50 0 -77 20.5t-27 56.5q0 30 24.5 61t60.5 52l-44 127h-232l-49 -130h-112l223 594h116l220 -586l-57 -8q-63 -43 -63 -90q0 -43 48 -43q38 0 88 25l24 -40q-68 -39 -143 -39zM215 222h166l-40 112l-40 116h-3l-42 -116z" />
    <glyph glyph-name="B.sc" horiz-adv-x="602" 
d="M72 0v592h247q101 0 160 -32t59 -115q0 -58 -32.5 -92t-81.5 -44v-2q131 -22 131 -144q0 -84 -62 -123.5t-160 -39.5h-261zM188 504v-156h118q116 0 116 75q0 81 -112 81h-122zM188 257v-169h131q118 0 118 87q0 82 -127 82h-122z" />
    <glyph glyph-name="C.sc" horiz-adv-x="616" 
d="M322 -11q-125 0 -202.5 80t-77.5 228q0 146 78.5 226t201.5 80q176 0 235 -141l-101 -50q-37 95 -135 95q-75 0 -116.5 -56.5t-41.5 -152.5q0 -100 42 -157.5t118 -57.5q104 0 140 104l106 -39q-64 -159 -247 -159z" />
    <glyph glyph-name="Ccedilla.sc" horiz-adv-x="616" 
d="M315 -199q-82 0 -138 37l25 40q45 -30 102 -30q60 0 60 40q0 30 -36 30q-24 0 -47 -18l-35 17l24 76q-104 16 -166 94t-62 210q0 146 78.5 226t201.5 80q176 0 235 -141l-101 -50q-37 95 -135 95q-75 0 -116.5 -56.5t-41.5 -152.5q0 -100 42 -157.5t118 -57.5
q104 0 140 104l106 -39q-64 -159 -244 -159l-10 -38q23 15 60 15q30 0 51 -18.5t21 -50.5q0 -46 -37.5 -71t-94.5 -25z" />
    <glyph glyph-name="Cacute.sc" horiz-adv-x="616" 
d="M244 642l93 166h133l-145 -166h-81zM322 -11q-125 0 -202.5 80t-77.5 228q0 146 78.5 226t201.5 80q176 0 235 -141l-101 -50q-37 95 -135 95q-75 0 -116.5 -56.5t-41.5 -152.5q0 -100 42 -157.5t118 -57.5q104 0 140 104l106 -39q-64 -159 -247 -159z" />
    <glyph glyph-name="Ccircumflex.sc" horiz-adv-x="616" 
d="M144 642l129 166h85l129 -166h-72l-101 84l-99 -84h-71zM322 -11q-125 0 -202.5 80t-77.5 228q0 146 78.5 226t201.5 80q176 0 235 -141l-101 -50q-37 95 -135 95q-75 0 -116.5 -56.5t-41.5 -152.5q0 -100 42 -157.5t118 -57.5q104 0 140 104l106 -39q-64 -159 -247 -159
z" />
    <glyph glyph-name="Cdotaccent.sc" horiz-adv-x="616" 
d="M316 643q-34 0 -53.5 18t-19.5 47q0 28 19.5 46t53.5 18q36 0 56 -18t20 -46q0 -29 -20 -47t-56 -18zM322 -11q-125 0 -202.5 80t-77.5 228q0 146 78.5 226t201.5 80q176 0 235 -141l-101 -50q-37 95 -135 95q-75 0 -116.5 -56.5t-41.5 -152.5q0 -100 42 -157.5
t118 -57.5q104 0 140 104l106 -39q-64 -159 -247 -159z" />
    <glyph glyph-name="Ccaron.sc" horiz-adv-x="616" 
d="M265 644l-129 166h72l100 -84l100 84h71l-129 -166h-85zM322 -11q-125 0 -202.5 80t-77.5 228q0 146 78.5 226t201.5 80q176 0 235 -141l-101 -50q-37 95 -135 95q-75 0 -116.5 -56.5t-41.5 -152.5q0 -100 42 -157.5t118 -57.5q104 0 140 104l106 -39q-64 -159 -247 -159
z" />
    <glyph glyph-name="D.sc" horiz-adv-x="630" 
d="M72 0v592h189q326 0 326 -293q0 -299 -326 -299h-189zM192 496v-402h77q105 0 151.5 47.5t46.5 155.5q0 104 -47.5 151.5t-151.5 47.5h-76z" />
    <glyph glyph-name="Dcaron.sc" horiz-adv-x="630" 
d="M272 644l-129 166h72l100 -84l100 84h71l-129 -166h-85zM72 0v592h189q326 0 326 -293q0 -299 -326 -299h-189zM192 496v-402h77q105 0 151.5 47.5t46.5 155.5q0 104 -47.5 151.5t-151.5 47.5h-76z" />
    <glyph glyph-name="E.sc" horiz-adv-x="541" 
d="M504 0h-432v592h417v-98h-296v-140h208l16 -96h-224v-163h311v-95z" />
    <glyph glyph-name="Egrave.sc" horiz-adv-x="541" 
d="M267 642l-144 166h132l93 -166h-81zM504 0h-432v592h417v-98h-296v-140h208l16 -96h-224v-163h311v-95z" />
    <glyph glyph-name="Eacute.sc" horiz-adv-x="541" 
d="M207 642l93 166h133l-145 -166h-81zM504 0h-432v592h417v-98h-296v-140h208l16 -96h-224v-163h311v-95z" />
    <glyph glyph-name="Ecircumflex.sc" horiz-adv-x="541" 
d="M108 642l129 166h85l129 -166h-72l-101 84l-99 -84h-71zM504 0h-432v592h417v-98h-296v-140h208l16 -96h-224v-163h311v-95z" />
    <glyph glyph-name="Edieresis.sc" horiz-adv-x="541" 
d="M378 632q-29 0 -46 19.5t-17 48.5t17 47.5t46 18.5q31 0 48 -18.5t17 -47.5q0 -30 -17 -49t-48 -19zM180 632q-30 0 -46.5 19t-16.5 49q0 29 16.5 47.5t46.5 18.5t47 -18.5t17 -47.5q0 -30 -17 -49t-47 -19zM504 0h-432v592h417v-98h-296v-140h208l16 -96h-224v-163h311
v-95z" />
    <glyph glyph-name="Emacron.sc" horiz-adv-x="541" 
d="M120 638v91h310v-91h-310zM504 0h-432v592h417v-98h-296v-140h208l16 -96h-224v-163h311v-95z" />
    <glyph glyph-name="Ebreve.sc" horiz-adv-x="541" 
d="M275 634q-75 0 -118.5 48.5t-47.5 127.5h69q11 -94 97 -94t97 94h69q-4 -79 -47.5 -127.5t-118.5 -48.5zM504 0h-432v592h417v-98h-296v-140h208l16 -96h-224v-163h311v-95z" />
    <glyph glyph-name="Edotaccent.sc" horiz-adv-x="541" 
d="M279 643q-34 0 -53.5 18t-19.5 47q0 28 19.5 46t53.5 18q36 0 56 -18t20 -46q0 -29 -20 -47t-56 -18zM504 0h-432v592h417v-98h-296v-140h208l16 -96h-224v-163h311v-95z" />
    <glyph glyph-name="Eogonek.sc" horiz-adv-x="541" 
d="M543 -148q-68 -39 -143 -39q-50 0 -77 20.5t-27 56.5q0 58 80 110h-304v592h417v-98h-296v-140h208l16 -96h-224v-163h311v-95h-58q-63 -43 -63 -90q0 -43 48 -43q38 0 88 25z" />
    <glyph glyph-name="Ecaron.sc" horiz-adv-x="541" 
d="M237 644l-129 166h72l100 -84l100 84h71l-129 -166h-85zM504 0h-432v592h417v-98h-296v-140h208l16 -96h-224v-163h311v-95z" />
    <glyph glyph-name="F.sc" horiz-adv-x="503" 
d="M193 0h-121v592h406v-98h-285v-156h198l16 -94h-214v-244z" />
    <glyph glyph-name="G.sc" horiz-adv-x="646" 
d="M307 -10q-128 0 -196.5 85t-68.5 223q0 139 76.5 222t204.5 83q178 0 236 -151l-105 -44q-39 98 -130 98q-72 0 -116.5 -49.5t-44.5 -155.5q0 -107 43.5 -163t119.5 -56q62 0 101.5 35.5t44.5 93.5h-115l-15 89h239v-300h-95v73h-1q-20 -36 -65 -59.5t-113 -23.5z" />
    <glyph glyph-name="Gcircumflex.sc" horiz-adv-x="646" 
d="M151 642l129 166h85l129 -166h-72l-101 84l-99 -84h-71zM307 -10q-128 0 -196.5 85t-68.5 223q0 139 76.5 222t204.5 83q178 0 236 -151l-105 -44q-39 98 -130 98q-72 0 -116.5 -49.5t-44.5 -155.5q0 -107 43.5 -163t119.5 -56q62 0 101.5 35.5t44.5 93.5h-115l-15 89
h239v-300h-95v73h-1q-20 -36 -65 -59.5t-113 -23.5z" />
    <glyph glyph-name="Gbreve.sc" horiz-adv-x="646" 
d="M323 634q-75 0 -118.5 48.5t-47.5 127.5h69q11 -94 97 -94t97 94h69q-4 -79 -47.5 -127.5t-118.5 -48.5zM307 -10q-128 0 -196.5 85t-68.5 223q0 139 76.5 222t204.5 83q178 0 236 -151l-105 -44q-39 98 -130 98q-72 0 -116.5 -49.5t-44.5 -155.5q0 -107 43.5 -163
t119.5 -56q62 0 101.5 35.5t44.5 93.5h-115l-15 89h239v-300h-95v73h-1q-20 -36 -65 -59.5t-113 -23.5z" />
    <glyph glyph-name="Gdotaccent.sc" horiz-adv-x="646" 
d="M324 643q-34 0 -53.5 18t-19.5 47q0 28 19.5 46t53.5 18q36 0 56 -18t20 -46q0 -29 -20 -47t-56 -18zM307 -10q-128 0 -196.5 85t-68.5 223q0 139 76.5 222t204.5 83q178 0 236 -151l-105 -44q-39 98 -130 98q-72 0 -116.5 -49.5t-44.5 -155.5q0 -107 43.5 -163
t119.5 -56q62 0 101.5 35.5t44.5 93.5h-115l-15 89h239v-300h-95v73h-1q-20 -36 -65 -59.5t-113 -23.5z" />
    <glyph glyph-name="Gcommaaccent.sc" horiz-adv-x="646" 
d="M307 -10q-128 0 -196.5 85t-68.5 223q0 139 76.5 222t204.5 83q178 0 236 -151l-105 -44q-39 98 -130 98q-72 0 -116.5 -49.5t-44.5 -155.5q0 -107 43.5 -163t119.5 -56q62 0 101.5 35.5t44.5 93.5h-115l-15 89h239v-300h-95v73h-1q-20 -36 -65 -59.5t-113 -23.5z
M318 -270h-67l24 226h127z" />
    <glyph glyph-name="H.sc" horiz-adv-x="653" 
d="M192 0h-120v592h120v-231h268v231h121v-592h-121v257h-268v-257z" />
    <glyph glyph-name="Hcircumflex.sc" horiz-adv-x="653" 
d="M155 642l129 166h85l129 -166h-72l-101 84l-99 -84h-71zM192 0h-120v592h120v-231h268v231h121v-592h-121v257h-268v-257z" />
    <glyph glyph-name="I.sc" horiz-adv-x="278" 
d="M200 0h-121v592h121v-592z" />
    <glyph glyph-name="Igrave.sc" horiz-adv-x="278" 
d="M108 642l-144 166h132l93 -166h-81zM200 0h-121v592h121v-592z" />
    <glyph glyph-name="Iacute.sc" horiz-adv-x="278" 
d="M89 642l93 166h133l-145 -166h-81zM200 0h-121v592h121v-592z" />
    <glyph glyph-name="Icircumflex.sc" horiz-adv-x="278" 
d="M-32 642l129 166h85l129 -166h-72l-101 84l-99 -84h-71zM200 0h-121v592h121v-592z" />
    <glyph glyph-name="Idieresis.sc" horiz-adv-x="278" 
d="M237 632q-29 0 -46 19.5t-17 48.5t17 47.5t46 18.5q31 0 48 -18.5t17 -47.5q0 -30 -17 -49t-48 -19zM39 632q-30 0 -46.5 19t-16.5 49q0 29 16.5 47.5t46.5 18.5t47 -18.5t17 -47.5q0 -30 -17 -49t-47 -19zM200 0h-121v592h121v-592z" />
    <glyph glyph-name="Itilde.sc" horiz-adv-x="278" 
d="M215 637q-36 0 -82 28t-65 28q-42 0 -39 -60l-70 12q0 65 27.5 99t77.5 34q36 0 82 -28t65 -28q41 0 40 59l68 -11q0 -65 -27.5 -99t-76.5 -34zM200 0h-121v592h121v-592z" />
    <glyph glyph-name="Imacron.sc" horiz-adv-x="278" 
d="M-16 638v91h310v-91h-310zM200 0h-121v592h121v-592z" />
    <glyph glyph-name="Ibreve.sc" horiz-adv-x="278" 
d="M139 634q-75 0 -118.5 48.5t-47.5 127.5h69q11 -94 97 -94t97 94h69q-4 -79 -47.5 -127.5t-118.5 -48.5zM200 0h-121v592h121v-592z" />
    <glyph glyph-name="Iogonek.sc" horiz-adv-x="278" 
d="M251 -148q-68 -39 -144 -39q-50 0 -76.5 20.5t-26.5 56.5q0 30 21.5 61t53.5 52v589h121v-592h-55q-55 -45 -55 -90q0 -43 48 -43q40 0 88 25z" />
    <glyph glyph-name="Idotaccent.sc" horiz-adv-x="278" 
d="M138 643q-34 0 -53.5 18t-19.5 47q0 28 19.5 46t53.5 18q36 0 56 -18t20 -46q0 -29 -20 -47t-56 -18zM200 0h-121v592h121v-592z" />
    <glyph glyph-name="J.sc" horiz-adv-x="453" 
d="M192 -11q-101 0 -178 56l52 83q60 -44 117 -44q42 0 64.5 21t22.5 70v417h120v-421q0 -182 -198 -182z" />
    <glyph glyph-name="Jcircumflex.sc" horiz-adv-x="453" 
d="M158 642l129 166h85l129 -166h-72l-101 84l-99 -84h-71zM192 -11q-101 0 -178 56l52 83q60 -44 117 -44q42 0 64.5 21t22.5 70v417h120v-421q0 -182 -198 -182z" />
    <glyph glyph-name="K.sc" horiz-adv-x="608" 
d="M191 0h-119v592h119v-267l104 117l135 150h130l-211 -230l230 -354l-123 -16l-184 283l-81 -83v-192z" />
    <glyph glyph-name="Kcommaaccent.sc" horiz-adv-x="608" 
d="M191 0h-119v592h119v-267l104 117l135 150h130l-211 -230l230 -354l-123 -16l-184 283l-81 -83v-192zM296 -270h-67l24 226h127z" />
    <glyph glyph-name="L.sc" horiz-adv-x="503" 
d="M485 0h-413v592h121v-496h277z" />
    <glyph glyph-name="Lacute.sc" horiz-adv-x="503" 
d="M92 642l93 166h133l-145 -166h-81zM485 0h-413v592h121v-496h277z" />
    <glyph glyph-name="Lcommaaccent.sc" horiz-adv-x="503" 
d="M485 0h-413v592h121v-496h277zM243 -270h-67l24 226h127z" />
    <glyph glyph-name="Lcaron.sc" horiz-adv-x="503" 
d="M335 372h-66l24 220h123zM485 0h-413v592h121v-496h277z" />
    <glyph glyph-name="M.sc" horiz-adv-x="768" 
d="M177 0h-105v592h158l154 -455h2l147 455h162v-592h-114v452h-1q-10 -47 -32 -116q-3 -16 -56 -159.5t-60 -176.5h-106q-7 36 -60 181.5t-55 155.5q-5 20 -16.5 59t-16.5 59h-1v-455z" />
    <glyph glyph-name="N.sc" horiz-adv-x="655" 
d="M182 0h-110v592h122l187 -266l97 -138h1v404h110v-592h-112l-195 274l-99 137h-1v-411z" />
    <glyph glyph-name="Ntilde.sc" horiz-adv-x="655" 
d="M402 635q-36 0 -82 28t-65 28q-42 0 -39 -60l-70 12q0 65 27.5 99t77.5 34q36 0 82 -28t65 -28q41 0 40 59l68 -11q0 -65 -27.5 -99t-76.5 -34zM182 0h-110v592h122l187 -266l97 -138h1v404h110v-592h-112l-195 274l-99 137h-1v-411z" />
    <glyph glyph-name="Nacute.sc" horiz-adv-x="655" 
d="M258 642l93 166h133l-145 -166h-81zM182 0h-110v592h122l187 -266l97 -138h1v404h110v-592h-112l-195 274l-99 137h-1v-411z" />
    <glyph glyph-name="Ncommaaccent.sc" horiz-adv-x="655" 
d="M182 0h-110v592h122l187 -266l97 -138h1v404h110v-592h-112l-195 274l-99 137h-1v-411zM319 -270h-67l24 226h127z" />
    <glyph glyph-name="Ncaron.sc" horiz-adv-x="655" 
d="M284 644l-129 166h72l100 -84l100 84h71l-129 -166h-85zM182 0h-110v592h122l187 -266l97 -138h1v404h110v-592h-112l-195 274l-99 137h-1v-411z" />
    <glyph glyph-name="O.sc" horiz-adv-x="662" 
d="M332 -11q-121 0 -205 80.5t-84 226.5t84 226.5t205 80.5q120 0 204 -81t84 -226t-84 -226t-204 -81zM332 87q76 0 121.5 56.5t45.5 152.5t-45.5 151.5t-121.5 55.5q-77 0 -123 -55.5t-46 -151.5t46.5 -152.5t122.5 -56.5z" />
    <glyph glyph-name="Ograve.sc" horiz-adv-x="662" 
d="M318 642l-144 166h132l93 -166h-81zM332 -11q-121 0 -205 80.5t-84 226.5t84 226.5t205 80.5q120 0 204 -81t84 -226t-84 -226t-204 -81zM332 87q76 0 121.5 56.5t45.5 152.5t-45.5 151.5t-121.5 55.5q-77 0 -123 -55.5t-46 -151.5t46.5 -152.5t122.5 -56.5z" />
    <glyph glyph-name="Oacute.sc" horiz-adv-x="662" 
d="M263 642l93 166h133l-145 -166h-81zM332 -11q-121 0 -205 80.5t-84 226.5t84 226.5t205 80.5q120 0 204 -81t84 -226t-84 -226t-204 -81zM332 87q76 0 121.5 56.5t45.5 152.5t-45.5 151.5t-121.5 55.5q-77 0 -123 -55.5t-46 -151.5t46.5 -152.5t122.5 -56.5z" />
    <glyph glyph-name="Ocircumflex.sc" horiz-adv-x="662" 
d="M159 642l129 166h85l129 -166h-72l-101 84l-99 -84h-71zM332 -11q-121 0 -205 80.5t-84 226.5t84 226.5t205 80.5q120 0 204 -81t84 -226t-84 -226t-204 -81zM332 87q76 0 121.5 56.5t45.5 152.5t-45.5 151.5t-121.5 55.5q-77 0 -123 -55.5t-46 -151.5t46.5 -152.5
t122.5 -56.5z" />
    <glyph glyph-name="Otilde.sc" horiz-adv-x="662" 
d="M406 635q-36 0 -82 28t-65 28q-42 0 -39 -60l-70 12q0 65 27.5 99t77.5 34q36 0 82 -28t65 -28q41 0 40 59l68 -11q0 -65 -27.5 -99t-76.5 -34zM332 -11q-121 0 -205 80.5t-84 226.5t84 226.5t205 80.5q120 0 204 -81t84 -226t-84 -226t-204 -81zM332 87q76 0 121.5 56.5
t45.5 152.5t-45.5 151.5t-121.5 55.5q-77 0 -123 -55.5t-46 -151.5t46.5 -152.5t122.5 -56.5z" />
    <glyph glyph-name="Odieresis.sc" horiz-adv-x="662" 
d="M429 632q-29 0 -46 19.5t-17 48.5t17 47.5t46 18.5q31 0 48 -18.5t17 -47.5q0 -30 -17 -49t-48 -19zM231 632q-30 0 -46.5 19t-16.5 49q0 29 16.5 47.5t46.5 18.5t47 -18.5t17 -47.5q0 -30 -17 -49t-47 -19zM332 -11q-121 0 -205 80.5t-84 226.5t84 226.5t205 80.5
q120 0 204 -81t84 -226t-84 -226t-204 -81zM332 87q76 0 121.5 56.5t45.5 152.5t-45.5 151.5t-121.5 55.5q-77 0 -123 -55.5t-46 -151.5t46.5 -152.5t122.5 -56.5z" />
    <glyph glyph-name="Omacron.sc" horiz-adv-x="662" 
d="M176 638v91h310v-91h-310zM332 -11q-121 0 -205 80.5t-84 226.5t84 226.5t205 80.5q120 0 204 -81t84 -226t-84 -226t-204 -81zM332 87q76 0 121.5 56.5t45.5 152.5t-45.5 151.5t-121.5 55.5q-77 0 -123 -55.5t-46 -151.5t46.5 -152.5t122.5 -56.5z" />
    <glyph glyph-name="Obreve.sc" horiz-adv-x="662" 
d="M331 636q-75 0 -118.5 48.5t-47.5 127.5h69q11 -94 97 -94t97 94h69q-4 -79 -47.5 -127.5t-118.5 -48.5zM332 -11q-121 0 -205 80.5t-84 226.5t84 226.5t205 80.5q120 0 204 -81t84 -226t-84 -226t-204 -81zM332 87q76 0 121.5 56.5t45.5 152.5t-45.5 151.5t-121.5 55.5
q-77 0 -123 -55.5t-46 -151.5t46.5 -152.5t122.5 -56.5z" />
    <glyph glyph-name="Ohungarumlaut.sc" horiz-adv-x="662" 
d="M353 642l106 166h133l-157 -166h-82zM175 642l100 166h133l-152 -166h-81zM332 -11q-121 0 -205 80.5t-84 226.5t84 226.5t205 80.5q120 0 204 -81t84 -226t-84 -226t-204 -81zM332 87q76 0 121.5 56.5t45.5 152.5t-45.5 151.5t-121.5 55.5q-77 0 -123 -55.5t-46 -151.5
t46.5 -152.5t122.5 -56.5z" />
    <glyph glyph-name="P.sc" horiz-adv-x="576" 
d="M191 0h-119v592h226q54 0 95.5 -8t77 -27.5t54.5 -57t19 -91.5q0 -189 -248 -189h-105v-219zM191 498v-192h110q66 0 96.5 24t30.5 74q0 48 -30.5 71t-97.5 23h-109z" />
    <glyph glyph-name="Q.sc" horiz-adv-x="662" 
d="M567 -70l-12 -91h-78q-107 0 -158.5 44t-53.5 117q-97 18 -159.5 95.5t-62.5 200.5q0 146 84 226.5t205 80.5q119 0 203.5 -81t84.5 -226q0 -127 -67.5 -205.5t-169.5 -93.5q4 -39 33.5 -53t99.5 -14h51zM332 83q75 0 121 57.5t46 155.5q0 97 -46 153.5t-121 56.5
q-77 0 -123 -56.5t-46 -153.5q0 -98 46.5 -155.5t122.5 -57.5z" />
    <glyph glyph-name="R.sc" horiz-adv-x="600" 
d="M190 0h-118v592h232q239 0 239 -179q0 -134 -133 -167l140 -241l-123 -10l-136 238h-101v-233zM190 498v-181h109q65 0 95.5 21t30.5 71q0 48 -31 68.5t-94 20.5h-110z" />
    <glyph glyph-name="Racute.sc" horiz-adv-x="600" 
d="M232 642l93 166h133l-145 -166h-81zM190 0h-118v592h232q239 0 239 -179q0 -134 -133 -167l140 -241l-123 -10l-136 238h-101v-233zM190 498v-181h109q65 0 95.5 21t30.5 71q0 48 -31 68.5t-94 20.5h-110z" />
    <glyph glyph-name="Rcommaaccent.sc" horiz-adv-x="600" 
d="M190 0h-118v592h232q239 0 239 -179q0 -134 -133 -167l140 -241l-123 -10l-136 238h-101v-233zM190 498v-181h109q65 0 95.5 21t30.5 71q0 48 -31 68.5t-94 20.5h-110zM292 -270h-67l24 226h127z" />
    <glyph glyph-name="Rcaron.sc" horiz-adv-x="600" 
d="M257 644l-129 166h72l100 -84l100 84h71l-129 -166h-85zM190 0h-118v592h232q239 0 239 -179q0 -134 -133 -167l140 -241l-123 -10l-136 238h-101v-233zM190 498v-181h109q65 0 95.5 21t30.5 71q0 48 -31 68.5t-94 20.5h-110z" />
    <glyph glyph-name="S.sc" horiz-adv-x="587" 
d="M303 -12q-168 0 -266 115l78 72q33 -43 83 -68.5t104 -25.5q121 0 121 76q0 29 -17.5 47t-40.5 26t-74 20q-45 10 -71.5 17.5t-60 22.5t-51.5 33t-31 47.5t-13 67.5q0 75 60 120t158 45q153 0 242 -105l-70 -71q-31 37 -75.5 59.5t-93.5 22.5q-104 0 -104 -68
q0 -22 8.5 -37t30 -25.5t41 -16.5t58.5 -15q11 -3 17 -4q38 -9 59.5 -15.5t53.5 -20.5t49 -31.5t30 -46.5t13 -66q0 -84 -66 -129.5t-172 -45.5z" />
    <glyph glyph-name="Sacute.sc" horiz-adv-x="587" 
d="M225 642l93 166h133l-145 -166h-81zM303 -12q-168 0 -266 115l78 72q33 -43 83 -68.5t104 -25.5q121 0 121 76q0 29 -17.5 47t-40.5 26t-74 20q-45 10 -71.5 17.5t-60 22.5t-51.5 33t-31 47.5t-13 67.5q0 75 60 120t158 45q153 0 242 -105l-70 -71q-31 37 -75.5 59.5
t-93.5 22.5q-104 0 -104 -68q0 -22 8.5 -37t30 -25.5t41 -16.5t58.5 -15q11 -3 17 -4q38 -9 59.5 -15.5t53.5 -20.5t49 -31.5t30 -46.5t13 -66q0 -84 -66 -129.5t-172 -45.5z" />
    <glyph glyph-name="Scircumflex.sc" horiz-adv-x="587" 
d="M116 642l129 166h85l129 -166h-72l-101 84l-99 -84h-71zM303 -12q-168 0 -266 115l78 72q33 -43 83 -68.5t104 -25.5q121 0 121 76q0 29 -17.5 47t-40.5 26t-74 20q-45 10 -71.5 17.5t-60 22.5t-51.5 33t-31 47.5t-13 67.5q0 75 60 120t158 45q153 0 242 -105l-70 -71
q-31 37 -75.5 59.5t-93.5 22.5q-104 0 -104 -68q0 -22 8.5 -37t30 -25.5t41 -16.5t58.5 -15q11 -3 17 -4q38 -9 59.5 -15.5t53.5 -20.5t49 -31.5t30 -46.5t13 -66q0 -84 -66 -129.5t-172 -45.5z" />
    <glyph glyph-name="Scedilla.sc" horiz-adv-x="587" 
d="M301 -199q-82 0 -138 37l25 40q45 -30 102 -30q60 0 60 40q0 30 -36 30q-24 0 -47 -18l-35 17l23 74q-135 14 -218 112l78 72q33 -43 83 -68.5t104 -25.5q121 0 121 76q0 29 -17.5 47t-40.5 26t-74 20q-45 10 -71.5 17.5t-60 22.5t-51.5 33t-31 47.5t-13 67.5
q0 75 60 120t158 45q153 0 242 -105l-70 -71q-31 37 -75.5 59.5t-93.5 22.5q-104 0 -104 -68q0 -22 8.5 -37t30 -25.5t41 -16.5t58.5 -15q11 -3 17 -4q38 -9 59.5 -15.5t53.5 -20.5t49 -31.5t30 -46.5t13 -66q0 -83 -64 -128t-166 -47l-10 -37q23 15 60 15q30 0 51 -18.5
t21 -50.5q0 -46 -37.5 -71t-94.5 -25z" />
    <glyph glyph-name="Scaron.sc" horiz-adv-x="587" 
d="M251 644l-129 166h72l100 -84l100 84h71l-129 -166h-85zM303 -12q-168 0 -266 115l78 72q33 -43 83 -68.5t104 -25.5q121 0 121 76q0 29 -17.5 47t-40.5 26t-74 20q-45 10 -71.5 17.5t-60 22.5t-51.5 33t-31 47.5t-13 67.5q0 75 60 120t158 45q153 0 242 -105l-70 -71
q-31 37 -75.5 59.5t-93.5 22.5q-104 0 -104 -68q0 -22 8.5 -37t30 -25.5t41 -16.5t58.5 -15q11 -3 17 -4q38 -9 59.5 -15.5t53.5 -20.5t49 -31.5t30 -46.5t13 -66q0 -84 -66 -129.5t-172 -45.5z" />
    <glyph glyph-name="Scommaaccent.sc" horiz-adv-x="587" 
d="M303 -12q-168 0 -266 115l78 72q33 -43 83 -68.5t104 -25.5q121 0 121 76q0 29 -17.5 47t-40.5 26t-74 20q-45 10 -71.5 17.5t-60 22.5t-51.5 33t-31 47.5t-13 67.5q0 75 60 120t158 45q153 0 242 -105l-70 -71q-31 37 -75.5 59.5t-93.5 22.5q-104 0 -104 -68
q0 -22 8.5 -37t30 -25.5t41 -16.5t58.5 -15q11 -3 17 -4q38 -9 59.5 -15.5t53.5 -20.5t49 -31.5t30 -46.5t13 -66q0 -84 -66 -129.5t-172 -45.5zM286 -270h-67l24 226h127z" />
    <glyph glyph-name="T.sc" horiz-adv-x="552" 
d="M337 0h-121v494h-190v98h494l14 -98h-197v-494z" />
    <glyph glyph-name="Tcaron.sc" horiz-adv-x="552" 
d="M233 644l-129 166h72l100 -84l100 84h71l-129 -166h-85zM337 0h-121v494h-190v98h494l14 -98h-197v-494z" />
    <glyph glyph-name="Tcommaaccent.sc" horiz-adv-x="552" 
d="M337 0h-121v494h-190v98h494l14 -98h-197v-494zM268 -270h-67l24 226h127z" />
    <glyph glyph-name="U.sc" horiz-adv-x="621" 
d="M311 -10q-123 0 -185.5 62t-62.5 170v370h120v-367q0 -138 129 -138q128 0 128 138v367h118v-369q0 -109 -62 -171t-185 -62z" />
    <glyph glyph-name="Ugrave.sc" horiz-adv-x="621" 
d="M297 642l-144 166h132l93 -166h-81zM311 -10q-123 0 -185.5 62t-62.5 170v370h120v-367q0 -138 129 -138q128 0 128 138v367h118v-369q0 -109 -62 -171t-185 -62z" />
    <glyph glyph-name="Uacute.sc" horiz-adv-x="621" 
d="M227 642l93 166h133l-145 -166h-81zM311 -10q-123 0 -185.5 62t-62.5 170v370h120v-367q0 -138 129 -138q128 0 128 138v367h118v-369q0 -109 -62 -171t-185 -62z" />
    <glyph glyph-name="Ucircumflex.sc" horiz-adv-x="621" 
d="M138 642l129 166h85l129 -166h-72l-101 84l-99 -84h-71zM311 -10q-123 0 -185.5 62t-62.5 170v370h120v-367q0 -138 129 -138q128 0 128 138v367h118v-369q0 -109 -62 -171t-185 -62z" />
    <glyph glyph-name="Udieresis.sc" horiz-adv-x="621" 
d="M408 632q-29 0 -46 19.5t-17 48.5t17 47.5t46 18.5q31 0 48 -18.5t17 -47.5q0 -30 -17 -49t-48 -19zM210 632q-30 0 -46.5 19t-16.5 49q0 29 16.5 47.5t46.5 18.5t47 -18.5t17 -47.5q0 -30 -17 -49t-47 -19zM311 -10q-123 0 -185.5 62t-62.5 170v370h120v-367
q0 -138 129 -138q128 0 128 138v367h118v-369q0 -109 -62 -171t-185 -62z" />
    <glyph glyph-name="Utilde.sc" horiz-adv-x="621" 
d="M386 635q-36 0 -82 28t-65 28q-42 0 -39 -60l-70 12q0 65 27.5 99t77.5 34q36 0 82 -28t65 -28q41 0 40 59l68 -11q0 -65 -27.5 -99t-76.5 -34zM311 -10q-123 0 -185.5 62t-62.5 170v370h120v-367q0 -138 129 -138q128 0 128 138v367h118v-369q0 -109 -62 -171t-185 -62z
" />
    <glyph glyph-name="Umacron.sc" horiz-adv-x="621" 
d="M155 638v91h310v-91h-310zM311 -10q-123 0 -185.5 62t-62.5 170v370h120v-367q0 -138 129 -138q128 0 128 138v367h118v-369q0 -109 -62 -171t-185 -62z" />
    <glyph glyph-name="Ubreve.sc" horiz-adv-x="621" 
d="M310 634q-75 0 -118.5 48.5t-47.5 127.5h69q11 -94 97 -94t97 94h69q-4 -79 -47.5 -127.5t-118.5 -48.5zM311 -10q-123 0 -185.5 62t-62.5 170v370h120v-367q0 -138 129 -138q128 0 128 138v367h118v-369q0 -109 -62 -171t-185 -62z" />
    <glyph glyph-name="Uring.sc" horiz-adv-x="621" 
d="M310 634q-44 0 -73 29t-29 73q0 43 29 72t73 29t73 -29t29 -72q0 -44 -29 -73t-73 -29zM310 684q22 0 35.5 14.5t13.5 37.5q0 22 -13.5 36.5t-35.5 14.5t-35.5 -14.5t-13.5 -36.5q0 -23 13.5 -37.5t35.5 -14.5zM311 -10q-123 0 -185.5 62t-62.5 170v370h120v-367
q0 -138 129 -138q128 0 128 138v367h118v-369q0 -109 -62 -171t-185 -62z" />
    <glyph glyph-name="Uhungarumlaut.sc" horiz-adv-x="621" 
d="M332 642l106 166h133l-157 -166h-82zM154 642l100 166h133l-152 -166h-81zM311 -10q-123 0 -185.5 62t-62.5 170v370h120v-367q0 -138 129 -138q128 0 128 138v367h118v-369q0 -109 -62 -171t-185 -62z" />
    <glyph glyph-name="Uogonek.sc" horiz-adv-x="621" 
d="M316 -187q-50 0 -77 20.5t-27 56.5q0 51 67 101q-107 8 -161.5 69t-54.5 162v370h120v-367q0 -138 129 -138q128 0 128 138v367h118v-369q0 -100 -52 -160.5t-155 -70.5q-52 -40 -52 -82q0 -43 48 -43q38 0 88 25l24 -40q-68 -39 -143 -39z" />
    <glyph glyph-name="V.sc" horiz-adv-x="593" 
d="M353 -2h-114l-214 585l119 17l118 -343l36 -109h2l37 109l120 335h114z" />
    <glyph glyph-name="W.sc" horiz-adv-x="811" 
d="M299 0h-104l-168 585l119 14l76 -294q9 -34 32 -134h2q2 11 29 133l69 288h113l73 -289q24 -100 30 -132h2q11 56 29 129l73 292h111l-165 -592h-103l-105 431h-2z" />
    <glyph glyph-name="Wcircumflex.sc" horiz-adv-x="811" 
d="M234 642l129 166h85l129 -166h-72l-101 84l-99 -84h-71zM299 0h-104l-168 585l119 14l76 -294q9 -34 32 -134h2q2 11 29 133l69 288h113l73 -289q24 -100 30 -132h2q11 56 29 129l73 292h111l-165 -592h-103l-105 431h-2z" />
    <glyph glyph-name="Wgrave.sc" horiz-adv-x="811" 
d="M367 642l-144 166h132l93 -166h-81zM299 0h-104l-168 585l119 14l76 -294q9 -34 32 -134h2q2 11 29 133l69 288h113l73 -289q24 -100 30 -132h2q11 56 29 129l73 292h111l-165 -592h-103l-105 431h-2z" />
    <glyph glyph-name="Wacute.sc" horiz-adv-x="811" 
d="M371 642l93 166h133l-145 -166h-81zM299 0h-104l-168 585l119 14l76 -294q9 -34 32 -134h2q2 11 29 133l69 288h113l73 -289q24 -100 30 -132h2q11 56 29 129l73 292h111l-165 -592h-103l-105 431h-2z" />
    <glyph glyph-name="Wdieresis.sc" horiz-adv-x="811" 
d="M503 632q-29 0 -46 19.5t-17 48.5t17 47.5t46 18.5q31 0 48 -18.5t17 -47.5q0 -30 -17 -49t-48 -19zM305 632q-30 0 -46.5 19t-16.5 49q0 29 16.5 47.5t46.5 18.5t47 -18.5t17 -47.5q0 -30 -17 -49t-47 -19zM299 0h-104l-168 585l119 14l76 -294q9 -34 32 -134h2
q2 11 29 133l69 288h113l73 -289q24 -100 30 -132h2q11 56 29 129l73 292h111l-165 -592h-103l-105 431h-2z" />
    <glyph glyph-name="X.sc" horiz-adv-x="591" 
d="M148 0h-127l205 314l-180 271l125 14l132 -202l121 195h123l-182 -281l201 -304l-124 -14l-150 232z" />
    <glyph glyph-name="Y.sc" horiz-adv-x="582" 
d="M229 0v253l-210 332l120 14l156 -252l150 245h122l-216 -339v-253h-122z" />
    <glyph glyph-name="Yacute.sc" horiz-adv-x="582" 
d="M223 642l93 166h133l-145 -166h-81zM229 0v253l-210 332l120 14l156 -252l150 245h122l-216 -339v-253h-122z" />
    <glyph glyph-name="Ycircumflex.sc" horiz-adv-x="582" 
d="M119 642l129 166h85l129 -166h-72l-101 84l-99 -84h-71zM229 0v253l-210 332l120 14l156 -252l150 245h122l-216 -339v-253h-122z" />
    <glyph glyph-name="Ydieresis.sc" horiz-adv-x="582" 
d="M389 632q-29 0 -46 19.5t-17 48.5t17 47.5t46 18.5q31 0 48 -18.5t17 -47.5q0 -30 -17 -49t-48 -19zM191 632q-30 0 -46.5 19t-16.5 49q0 29 16.5 47.5t46.5 18.5t47 -18.5t17 -47.5q0 -30 -17 -49t-47 -19zM229 0v253l-210 332l120 14l156 -252l150 245h122l-216 -339
v-253h-122z" />
    <glyph glyph-name="Ygrave.sc" horiz-adv-x="582" 
d="M279 642l-144 166h132l93 -166h-81zM229 0v253l-210 332l120 14l156 -252l150 245h122l-216 -339v-253h-122z" />
    <glyph glyph-name="Z.sc" horiz-adv-x="563" 
d="M530 0h-498v81l339 413h-310l-14 98h476v-85l-334 -412h327z" />
    <glyph glyph-name="Zacute.sc" horiz-adv-x="563" 
d="M213 642l93 166h133l-145 -166h-81zM530 0h-498v81l339 413h-310l-14 98h476v-85l-334 -412h327z" />
    <glyph glyph-name="Zdotaccent.sc" horiz-adv-x="563" 
d="M280 643q-34 0 -53.5 18t-19.5 47q0 28 19.5 46t53.5 18q36 0 56 -18t20 -46q0 -29 -20 -47t-56 -18zM530 0h-498v81l339 413h-310l-14 98h476v-85l-334 -412h327z" />
    <glyph glyph-name="Zcaron.sc" horiz-adv-x="563" 
d="M238 644l-129 166h72l100 -84l100 84h71l-129 -166h-85zM530 0h-498v81l339 413h-310l-14 98h476v-85l-334 -412h327z" />
    <glyph glyph-name="AE.sc" horiz-adv-x="909" 
d="M442 507l-150 -252h151v252h-1zM238 164l-98 -164h-123l359 592h481v-98h-296v-140h208l16 -96h-224v-162h312v-96h-430v164h-205z" />
    <glyph glyph-name="Eth.sc" horiz-adv-x="630" 
d="M72 0v266h-62v75h62v251h189q326 0 326 -293q0 -299 -326 -299h-189zM192 265v-171h77q105 0 151.5 47.5t46.5 155.5q0 104 -47.5 151.5t-151.5 47.5h-76v-155h112v-76h-112z" />
    <glyph glyph-name="Oslash.sc" horiz-adv-x="662" 
d="M192 161l233 319q-40 31 -93 31q-78 0 -125.5 -58t-47.5 -157q0 -82 33 -135zM332 79q77 0 124.5 59t47.5 158q0 81 -35 137l-233 -323q40 -31 96 -31zM128 -40l-56 42l51 70q-80 85 -80 224q0 146 84 226.5t205 80.5q82 0 150 -42l52 71l56 -42l-52 -70q82 -84 82 -224
q0 -145 -84 -226t-204 -81q-85 0 -153 41z" />
    <glyph glyph-name="Thorn.sc" horiz-adv-x="578" 
d="M190 0h-118v592h119v-97h107q247 0 247 -184q0 -186 -250 -186h-105v-125zM190 404v-195h110q129 0 129 98q0 97 -130 97h-109z" />
    <glyph glyph-name="Dcroat.sc" horiz-adv-x="630" 
d="M72 0v266h-62v75h62v251h189q326 0 326 -293q0 -299 -326 -299h-189zM192 265v-171h77q105 0 151.5 47.5t46.5 155.5q0 104 -47.5 151.5t-151.5 47.5h-76v-155h112v-76h-112z" />
    <glyph glyph-name="Hbar.sc" horiz-adv-x="653" 
d="M192 342h268v77h-268v-77zM192 246v-246h-120v419h-62v82h62v91h120v-91h268v91h121v-91h62v-82h-62v-419h-121v246h-268z" />
    <glyph glyph-name="IJ.sc" horiz-adv-x="701" 
d="M200 0h-121v592h121v-592zM440 -8q-101 0 -178 56l52 83q60 -44 117 -44q42 0 64.5 21t22.5 70v417h120v-421q0 -182 -198 -182z" />
    <glyph glyph-name="Ldot.sc" horiz-adv-x="533" 
d="M485 0h-413v592h121v-496h277zM398 262q-34 0 -53.5 18t-19.5 47q0 28 19.5 46t53.5 18q36 0 56 -18t20 -46q0 -29 -20 -47t-56 -18z" />
    <glyph glyph-name="Lslash.sc" horiz-adv-x="503" 
d="M470 94l15 -94h-413v257l-62 -16v75l62 16v260h121v-228l111 30v-75l-111 -29v-196h277z" />
    <glyph glyph-name="Eng.sc" horiz-adv-x="655" 
d="M72 0v592h122l187 -266l97 -138h1v404h110v-612q0 -182 -189 -182q-101 0 -178 56l53 80q58 -45 116 -45q84 0 87 88v21l-196 276l-99 137h-1v-411h-110z" />
    <glyph glyph-name="OE.sc" horiz-adv-x="959" 
d="M331 86q76 0 122 57t46 153q0 97 -46 152.5t-122 55.5t-122 -55.5t-46 -152.5q0 -96 46 -153t122 -57zM327 -11q-119 0 -201.5 80.5t-82.5 226.5q0 98 42 169.5t105 104.5t137 33q122 0 184 -92v81h395v-98h-296v-140h208l16 -96h-224v-162h312v-96h-411v79
q-61 -90 -184 -90z" />
    <glyph glyph-name="Tbar.sc" horiz-adv-x="552" 
d="M527 227h-190v-227h-121v227h-190v81h190v186h-190v98h494l14 -98h-197v-186h190v-81z" />
    <glyph glyph-name="ordfeminine.sc" horiz-adv-x="460" 
d="M215 462l-34 -94h92l-33 94l-11 34h-2zM130 226h-85l138 367h92l139 -367h-92l-28 80h-134z" />
    <glyph glyph-name="ordmasculine.sc" horiz-adv-x="451" 
d="M225 217q-76 0 -129.5 49t-53.5 144q0 97 53.5 145t129.5 48q77 0 130.5 -48t53.5 -145q0 -95 -54 -144t-130 -49zM225 283q45 0 69 34.5t24 92.5q0 55 -23.5 90.5t-69.5 35.5q-44 0 -68.5 -34.5t-24.5 -91.5q0 -55 23.5 -91t69.5 -36z" />
    <glyph glyph-name="germandbls.sc" horiz-adv-x="1175" 
d="M890 -12q-168 0 -266 115l78 72q33 -43 83 -68.5t104 -25.5q121 0 121 76q0 29 -17.5 47t-40.5 26t-74 20q-45 10 -71.5 17.5t-60 22.5t-51.5 33t-31 47.5t-13 67.5q0 75 60 120t158 45q153 0 242 -105l-70 -71q-31 37 -75.5 59.5t-93.5 22.5q-104 0 -104 -68
q0 -22 8.5 -37t30 -25.5t41 -16.5t58.5 -15q11 -3 17 -4q38 -9 59.5 -15.5t53.5 -20.5t49 -31.5t30 -46.5t13 -66q0 -84 -66 -129.5t-172 -45.5zM303 -12q-168 0 -266 115l78 72q33 -43 83 -68.5t104 -25.5q121 0 121 76q0 29 -17.5 47t-40.5 26t-74 20q-45 10 -71.5 17.5
t-60 22.5t-51.5 33t-31 47.5t-13 67.5q0 75 60 120t158 45q153 0 242 -105l-70 -71q-31 37 -75.5 59.5t-93.5 22.5q-104 0 -104 -68q0 -22 8.5 -37t30 -25.5t41 -16.5t58.5 -15q11 -3 17 -4q38 -9 59.5 -15.5t53.5 -20.5t49 -31.5t30 -46.5t13 -66q0 -84 -66 -129.5
t-172 -45.5z" />
    <glyph glyph-name="zero.sc" horiz-adv-x="561" 
d="M281 -13q-115 0 -180 84t-65 225t64.5 224t180.5 83t180.5 -83t64.5 -224t-65 -225t-180 -84zM281 81q128 0 128 215q0 105 -33.5 159t-94.5 54q-130 0 -130 -213q0 -106 34 -160.5t96 -54.5z" />
    <glyph glyph-name="one.sc" horiz-adv-x="399" 
d="M275 0h-103v486l-116 -31l-17 96l161 41h75v-592z" />
    <glyph glyph-name="two.sc" horiz-adv-x="500" 
d="M463 0h-433v15q0 74 40.5 137.5t151.5 134.5q66 42 92.5 72.5t26.5 67.5t-22.5 58t-65.5 21q-84 0 -131 -89l-84 51q35 64 92.5 100t128.5 36q90 0 142 -46.5t52 -123.5q0 -61 -32.5 -104t-107.5 -92q-138 -89 -148 -143h284z" />
    <glyph glyph-name="three.sc" horiz-adv-x="516" 
d="M245 -14q-144 0 -225 107l73 64q56 -77 149 -77q55 0 85.5 23.5t30.5 64.5q0 52 -37 75t-120 23h-29v88h31q82 0 112.5 20.5t30.5 60.5q0 73 -101 73q-78 0 -134 -59l-66 67q39 40 94.5 64t116.5 24q96 0 149.5 -42t53.5 -111q0 -54 -31 -91t-90 -47q66 -8 102 -48.5
t36 -101.5q0 -80 -64.5 -128.5t-166.5 -48.5z" />
    <glyph glyph-name="four.sc" horiz-adv-x="533" 
d="M419 0h-111v121h-289v83l272 388h128v-379h101v-92h-101v-121zM307 456l-166 -243h167v243h-1z" />
    <glyph glyph-name="five.sc" horiz-adv-x="496" 
d="M241 -14q-137 0 -222 94l64 80q66 -76 155 -76q58 0 89 31.5t31 80.5q0 53 -29.5 82.5t-81.5 29.5q-75 0 -119 -63l-76 24l23 323h348l12 -98h-271q0 -11 -11 -143q41 43 121 43q92 0 145 -52.5t53 -143.5q0 -97 -63 -154.5t-168 -57.5z" />
    <glyph glyph-name="six.sc" horiz-adv-x="530" 
d="M277 -13q-106 0 -171.5 77.5t-65.5 221.5q0 149 75 233t182 84q103 0 168 -48l-51 -80q-50 38 -114 38q-63 0 -103 -53t-45 -141q65 63 153 63q89 0 142 -50.5t53 -140.5q0 -91 -60.5 -147.5t-162.5 -56.5zM282 74q50 0 79.5 31t29.5 82q0 48 -25.5 77t-81.5 29
q-81 0 -131 -58q6 -80 40.5 -120.5t88.5 -40.5z" />
    <glyph glyph-name="seven.sc" horiz-adv-x="455" 
d="M198 0h-117l234 495h-282l-15 97h415v-91z" />
    <glyph glyph-name="eight.sc" horiz-adv-x="522" 
d="M261 -13q-112 0 -173 44t-61 116q0 56 36 94.5t102 67.5q-55 27 -82.5 61t-27.5 85q0 63 56.5 105.5t149.5 42.5q97 0 151.5 -42.5t54.5 -105.5q0 -90 -111 -141q70 -31 104.5 -68t34.5 -98q0 -72 -61.5 -116.5t-172.5 -44.5zM268 352q49 21 69 43t20 51q0 31 -24 53.5
t-71 22.5t-72 -22t-25 -52q0 -32 24 -53t79 -43zM261 67q55 0 87.5 24t32.5 64q0 36 -29.5 61.5t-96.5 52.5q-60 -26 -87 -53t-27 -61q0 -38 33.5 -63t86.5 -25z" />
    <glyph glyph-name="nine.sc" horiz-adv-x="531" 
d="M247 295q77 0 131 60q-4 78 -38.5 118.5t-89.5 40.5q-51 0 -80.5 -30t-29.5 -80q0 -109 107 -109zM234 -13q-105 0 -175 55l50 80q55 -42 122 -42q63 0 103 52t45 142q-24 -26 -65.5 -45t-85.5 -19q-90 0 -144 50.5t-54 140.5q0 91 61 146.5t163 55.5q107 0 172 -76.5
t65 -220.5q0 -150 -75 -234.5t-182 -84.5z" />
    <glyph glyph-name="exclam.sc" horiz-adv-x="294" 
d="M75 592h143l-28 -414h-85zM147 -5q-33 0 -51.5 17t-18.5 44t18.5 43.5t51.5 16.5t51.5 -16.5t18.5 -43.5t-18.5 -44t-51.5 -17z" />
    <glyph glyph-name="exclamdown.sc" horiz-adv-x="294" 
d="M148 599q32 0 50.5 -17t18.5 -43q0 -27 -18.5 -44t-50.5 -17q-34 0 -52.5 17t-18.5 44q0 26 19 43t52 17zM189 414l30 -414h-143l28 414h85z" />
    <glyph glyph-name="question.sc" horiz-adv-x="494" 
d="M277 176h-98q-4 17 -4 51q0 45 20.5 72t61.5 50q45 26 63.5 44.5t18.5 48.5q0 69 -97 69q-88 0 -155 -70l-62 76q87 89 227 89q99 0 150.5 -41.5t51.5 -111.5q0 -39 -17.5 -69t-37.5 -45.5t-54 -34.5q-43 -25 -57.5 -50.5t-10.5 -77.5zM226 -5q-33 0 -51.5 17t-18.5 44
t18.5 43.5t51.5 16.5t51.5 -16.5t18.5 -43.5t-18.5 -44t-51.5 -17z" />
    <glyph glyph-name="questiondown.sc" horiz-adv-x="485" 
d="M260 599q33 0 51 -17t18 -43q0 -27 -18 -44t-51 -17t-52 17t-19 44q0 26 19 43t52 17zM210 416h98q4 -24 4 -51q0 -45 -20.5 -72.5t-61.5 -50.5q-45 -25 -63.5 -43.5t-18.5 -48.5q0 -69 97 -69q88 0 155 70l61 -77q-86 -88 -226 -88q-99 0 -150.5 41.5t-51.5 111.5
q0 30 8.5 53t26 41t33 29t41.5 26q43 25 57.5 50.5t10.5 77.5z" />
    <glyph glyph-name="numbersign.sc" horiz-adv-x="642" 
d="M273 351l-23 -109h108l23 109h-108zM198 0h-106l33 153h-90v89h110l23 109h-97v89h116l33 152h105l-32 -152h107l33 152h106l-34 -152h102v-89h-121l-23 -109h108v-89h-127l-32 -153h-106l32 153h-106z" />
    <glyph glyph-name="percent.sc" horiz-adv-x="891" 
d="M188 224q-71 0 -112.5 52.5t-41.5 138.5q0 87 43.5 139.5t112.5 52.5q68 0 109.5 -52.5t41.5 -138.5t-41.5 -139t-111.5 -53zM216 0l354 592h102l-354 -592h-102zM189 302q62 0 62 113q0 114 -63 114q-30 0 -47 -29.5t-17 -83.5q0 -114 65 -114zM704 -10q-70 0 -112.5 52
t-42.5 137q0 87 43.5 139.5t112.5 52.5q68 0 110 -52t42 -138t-42 -138.5t-111 -52.5zM704 66q63 0 63 115q0 113 -63 113t-63 -113q0 -115 63 -115z" />
    <glyph glyph-name="perthousand.sc" horiz-adv-x="1245" 
d="M184 224q-71 0 -113 52.5t-42 138.5q0 87 43 139.5t112 52.5q68 0 110 -52.5t42 -138.5t-41.5 -139t-110.5 -53zM211 0l354 592h102l-354 -592h-102zM184 302q63 0 63 113q0 55 -16.5 84.5t-46.5 29.5q-31 0 -48 -29.5t-17 -83.5q0 -114 65 -114zM1063 -10
q-71 0 -112.5 52t-41.5 137q0 87 43 139.5t113 52.5q68 0 110 -52t42 -138t-42 -138.5t-112 -52.5zM699 -10q-70 0 -112.5 52t-42.5 137q0 87 43.5 139.5t112.5 52.5q68 0 110 -52t42 -138t-42 -138.5t-111 -52.5zM1064 66q62 0 62 115q0 113 -63 113q-30 0 -47 -29.5
t-17 -83.5q0 -115 65 -115zM700 66q62 0 62 115q0 113 -63 113q-30 0 -47 -29.5t-17 -83.5q0 -115 65 -115z" />
    <glyph glyph-name="ampersand.sc" horiz-adv-x="632" 
d="M235 458q0 -45 24 -89q44 22 67.5 45t23.5 55q0 60 -51 60q-31 0 -47.5 -19t-16.5 -52zM253 72q51 0 95 29q-40 38 -74 78q-36 39 -69 85q-36 -23 -55.5 -45.5t-19.5 -54.5q0 -44 33 -68t90 -24zM482 308l98 -12q-15 -102 -73 -181q43 -30 99 -32l13 -91q-101 -5 -188 49
q-76 -52 -179 -52q-115 0 -172.5 43.5t-57.5 118.5q0 65 38 105.5t107 75.5q-37 69 -37 126q0 62 42.5 105.5t125.5 43.5q71 0 108.5 -35.5t37.5 -94.5q0 -61 -39 -98.5t-109 -71.5q19 -27 55 -67q52 -55 78 -78q43 58 53 146z" />
    <glyph glyph-name="slash.sc" horiz-adv-x="512" 
d="M145 0h-122l344 592h122z" />
    <glyph glyph-name="backslash.sc" horiz-adv-x="512" 
d="M145 592l344 -592h-122l-344 592h122z" />
    <glyph glyph-name="plus.sc" horiz-adv-x="642" 
d="M371 42h-100v210h-205v99h205v210h100v-210h205v-99h-205v-210z" />
    <glyph glyph-name="minus.sc" horiz-adv-x="642" 
d="M576 252h-510v99h510v-99z" />
    <glyph glyph-name="divide.sc" horiz-adv-x="642" 
d="M318 426q-30 0 -47 18t-17 45t17 44t47 17t47.5 -17t17.5 -44t-17.5 -45t-47.5 -18zM576 253h-510v99h510v-99zM318 53q-30 0 -47 17.5t-17 44.5t17 44t47 17t47.5 -17t17.5 -44t-17.5 -44.5t-47.5 -17.5z" />
    <glyph glyph-name="multiply.sc" horiz-adv-x="642" 
d="M321 231l-165 -165l-71 72l163 164l-163 162l71 73l164 -164l163 164l72 -73l-163 -162l164 -163l-71 -72z" />
    <glyph glyph-name="equal.sc" horiz-adv-x="642" 
d="M573 370h-505v91h505v-91zM573 142h-505v91h505v-91z" />
    <glyph glyph-name="less.sc" horiz-adv-x="642" 
d="M585 139v-104l-529 230v73l529 229v-104l-395 -162z" />
    <glyph glyph-name="greater.sc" horiz-adv-x="642" 
d="M589 265l-529 -230v104l395 162l-395 162v104l529 -229v-73z" />
    <glyph glyph-name="dollar.sc" horiz-adv-x="568" 
d="M247 361v156q-39 -4 -60 -25t-21 -50q0 -32 21 -50t60 -31zM319 245v-168q92 9 92 79q0 37 -23.5 56t-68.5 33zM321 -74h-76v69q-131 13 -201 126q10 5 41.5 24.5l41.5 25.5q52 -82 120 -92v186q-86 23 -134 60t-48 110q0 68 49 112.5t131 51.5v57h75v-59
q108 -13 172 -108l-78 -54q-41 63 -95 77v-169q45 -12 75 -24t59.5 -32t44 -50.5t14.5 -71.5q0 -69 -49 -115.5t-142 -55.5v-68z" />
    <glyph glyph-name="sterling.sc" horiz-adv-x="557" 
d="M129 -13q-47 0 -79.5 23.5t-32.5 71.5t32.5 75.5t81.5 27.5q43 0 87 -32q1 8 1 28q-2 40 -30 92h-114v61h72q-37 61 -37 108q0 69 51.5 114.5t133.5 45.5q169 0 194 -163l-101 -19q-13 96 -88 96q-35 0 -56 -19.5t-21 -53.5q0 -19 7.5 -39.5t14 -32t22.5 -37.5h142v-61
h-109q20 -51 20 -95q0 -42 -13 -78q36 -31 68 -31q34 0 50.5 20.5t18.5 72.5h93q-2 -39 -9 -67.5t-22.5 -54.5t-44.5 -39.5t-70 -13.5q-68 0 -136 49q-49 -49 -126 -49zM131 50q46 0 66 36q-37 35 -65 35q-19 0 -30.5 -9.5t-11.5 -25.5q0 -36 41 -36z" />
    <glyph glyph-name="yen.sc" horiz-adv-x="559" 
d="M222 0v87h-148v62h148v57h-148v61h146l-199 325h121l139 -237l138 237h118l-199 -325h149v-61h-150v-57h150v-62h-150v-87h-115z" />
    <glyph glyph-name="Euro.sc" horiz-adv-x="613" 
d="M354 -12q-92 0 -154 52t-82 161h-96v62h89q-1 12 -1 33v25h-88v62h94q17 108 82.5 164.5t154.5 56.5q162 0 213 -171l-93 -31q-18 58 -44.5 85.5t-74.5 27.5t-82.5 -34t-43.5 -98h145v-62h-151q-1 -7 -1 -25q0 -13 2 -33h150v-62h-144q25 -124 127 -124q90 0 123 120
l94 -27q-56 -182 -219 -182z" />
    <glyph glyph-name="florin.sc" horiz-adv-x="360" 
d="M-61 -165l11 80q15 -3 35 -3q63 0 72 61l45 331h-74l9 80h76q0 20 10 80q17 127 160 127q42 0 70 -4l-11 -80q-15 3 -35 3q-64 0 -71 -53l-10 -73h94l-10 -80h-94l-49 -355q-16 -118 -160 -118q-56 0 -68 4z" />
    <glyph glyph-name="fi.sc" horiz-adv-x="781" 
d="M703 0h-121v592h121v-592zM193 0h-121v592h406v-98h-285v-156h198l16 -94h-214v-244z" />
    <glyph glyph-name="fl.sc" horiz-adv-x="1006" 
d="M988 0h-413v592h121v-496h277zM193 0h-121v592h406v-98h-285v-156h198l16 -94h-214v-244z" />
    <glyph glyph-name="space.tab" horiz-adv-x="325" 
 />
    <glyph glyph-name="zero.tab" 
d="M325 -14q-134 0 -211 104.5t-77 279.5t77 279.5t211 104.5t210.5 -104.5t76.5 -279.5t-76.5 -279.5t-210.5 -104.5zM325 94q79 0 123.5 71.5t44.5 204.5t-44.5 204t-123.5 71q-80 0 -124.5 -70.5t-44.5 -204.5q0 -132 45.5 -204t123.5 -72z" />
    <glyph glyph-name="one.tab" 
d="M125 0v110h156v517l-144 -38l-20 103l189 48h96v-630h141v-110h-418z" />
    <glyph glyph-name="two.tab" 
d="M58 0v16q0 91 48 169.5t184 165.5q92 58 125.5 94.5t33.5 90.5q0 49 -31.5 77.5t-88.5 28.5q-108 0 -173 -117l-86 73q91 156 263 156q111 0 174 -57t63 -153q0 -72 -37 -128.5t-138 -120.5q-187 -119 -191 -185h362l16 -110h-524z" />
    <glyph glyph-name="three.tab" 
d="M307 -14q-173 0 -270 127l71 85q77 -102 195 -102q72 0 112 30.5t40 83.5q0 67 -49.5 97.5t-157.5 30.5h-27l-13 102h44q102 0 142.5 28t40.5 80q0 93 -128 93q-97 0 -176 -83l-62 94q45 46 111 73.5t140 27.5q116 0 177 -51t61 -136q0 -68 -37.5 -114t-104.5 -59
q163 -28 163 -189q0 -98 -74.5 -158t-197.5 -60z" />
    <glyph glyph-name="four.tab" 
d="M384 0v152h-341v98l321 490h141v-480h105l11 -108h-116v-152h-121zM174 260h210v332h-2z" />
    <glyph glyph-name="five.tab" 
d="M319 -14q-160 0 -259 109l58 96q83 -95 195 -95q73 0 111 42t38 106q0 69 -36 107.5t-99 38.5q-97 0 -150 -71l-83 28l29 393h404l21 -110h-327l-17 -191q53 55 156 55q105 0 165.5 -67t60.5 -178q0 -117 -72 -190t-195 -73z" />
    <glyph glyph-name="six.tab" 
d="M337 -14q-124 0 -201.5 96t-77.5 275q0 187 91 292t224 105q99 0 179 -58l-46 -101q-64 50 -132 50q-87 0 -138 -67.5t-56 -186.5q89 80 189 80q106 0 168 -60.5t62 -172.5t-72 -182t-190 -70zM343 92q63 0 100.5 39t37.5 102q0 60 -32.5 97t-102.5 37q-103 0 -165 -73
q7 -100 50 -151t112 -51z" />
    <glyph glyph-name="seven.tab" 
d="M153 8l292 622h-353l-21 110h502v-102l-300 -646z" />
    <glyph glyph-name="eight.tab" 
d="M325 -17q-131 0 -204.5 56t-73.5 147q0 127 177 203q-73 35 -108 75.5t-35 105.5q0 76 64.5 131.5t179.5 55.5q118 0 181.5 -55.5t63.5 -131.5q0 -114 -143 -178q90 -39 133.5 -84t43.5 -122q0 -91 -74 -147t-205 -56zM333 435q64 30 90 57.5t26 68.5q0 40 -30.5 67
t-93.5 27q-62 0 -92.5 -26t-30.5 -66q0 -44 30 -71.5t101 -56.5zM325 84q72 0 113 29t41 80q0 49 -37.5 82t-125.5 68q-76 -35 -110 -69t-34 -81q0 -50 40.5 -79.5t112.5 -29.5z" />
    <glyph glyph-name="nine.tab" 
d="M302 373q104 0 166 73q-7 100 -50 150t-112 50q-65 0 -102 -38t-37 -101q0 -60 32.5 -97t102.5 -37zM287 -14q-118 0 -197 62l46 101q39 -30 70 -43t77 -13q80 0 131 71t55 185q-89 -80 -190 -80q-106 0 -168 60.5t-62 172.5t72 182t190 70q125 0 202.5 -96t77.5 -275
q0 -186 -89 -291.5t-215 -105.5z" />
    <glyph glyph-name="parenleft.tab" horiz-adv-x="325" 
d="M266 -205q-126 106 -189 224t-63 261t63 261t189 224l57 -60q-180 -183 -180 -425q0 -247 183 -428z" />
    <glyph glyph-name="parenright.tab" horiz-adv-x="325" 
d="M58 -205l-60 57q183 181 183 428q0 242 -180 425l57 60q126 -106 189 -224t63 -261t-63 -261t-189 -224z" />
    <glyph glyph-name="numbersign.tab" 
d="M238 292h135l30 156h-134zM89 0l36 199h-88v93h104l29 156h-95v93h111l37 199h99l-39 -199h135l38 199h97l-38 -199h97v-93h-112l-29 -156h103v-93h-118l-37 -199h-98l36 199h-134l-37 -199h-97z" />
    <glyph glyph-name="percent.tab" horiz-adv-x="980" 
d="M228 283q-81 0 -128 61.5t-47 170.5q0 112 47.5 173t129.5 61q81 0 128 -61t47 -171q0 -109 -47.5 -171.5t-129.5 -62.5zM244 0l409 740h83l-409 -740h-83zM229 372q79 0 79 144q0 143 -80 143q-78 0 -78 -142q0 -69 20.5 -107t58.5 -38zM751 -9q-82 0 -129 61t-47 171
q0 111 48 172.5t129 61.5t128.5 -61t47.5 -171t-47.5 -172t-129.5 -62zM752 80q38 0 58 38t20 106q0 142 -79 142t-79 -141q0 -145 80 -145z" />
    <glyph glyph-name="asterisk.tab" 
d="M251 324l-70 40l97 143l-172 -13v78l173 -12l-98 142l70 41l74 -156l74 156l71 -41l-98 -142l172 12v-78l-172 13l98 -143l-70 -40l-75 156z" />
    <glyph glyph-name="period.tab" horiz-adv-x="325" 
d="M161 -7q-36 0 -56 20.5t-20 51.5t20 51t56 20t56.5 -20t20.5 -51t-20.5 -51.5t-56.5 -20.5z" />
    <glyph glyph-name="comma.tab" horiz-adv-x="325" 
d="M158 -112h-73l26 242h137z" />
    <glyph glyph-name="colon.tab" horiz-adv-x="325" 
d="M161 394q-36 0 -56 20t-20 51q0 32 20 51.5t56 19.5q37 0 57.5 -19.5t20.5 -51.5q0 -31 -21 -51t-57 -20zM161 -7q-36 0 -56 20.5t-20 51.5t20 51t56 20t57 -20t21 -51t-21 -51.5t-57 -20.5z" />
    <glyph glyph-name="semicolon.tab" horiz-adv-x="325" 
d="M164 394q-36 0 -56 20t-20 51q0 32 20 51.5t56 19.5q37 0 57.5 -19.5t20.5 -51.5q0 -31 -21 -51t-57 -20zM158 -112h-73l26 242h136z" />
    <glyph glyph-name="slash.tab" 
d="M47 0l430 740h126l-430 -740h-126z" />
    <glyph glyph-name="periodcentered.tab" horiz-adv-x="325" 
d="M162 258q-36 0 -56 20t-20 52q0 31 20 51t56 20t56.5 -20t20.5 -51q0 -32 -20.5 -52t-56.5 -20z" />
    <glyph glyph-name="minute.tab" horiz-adv-x="325" 
d="M101 478l17 196l11 66h110l-64 -262h-74z" />
    <glyph glyph-name="second.tab" 
d="M356 478l17 196l11 66h109l-63 -262h-74zM170 478l18 196l11 66h109l-64 -262h-74z" />
    <glyph glyph-name="plus.tab" 
d="M275 82v210h-205v99h205v210h100v-210h205v-99h-205v-210h-100z" />
    <glyph glyph-name="minus.tab" 
d="M70 292v99h510v-99h-510z" />
    <glyph glyph-name="divide.tab" 
d="M323 465q-30 0 -47 18t-17 45t17 44t47 17t47.5 -17t17.5 -44t-17.5 -45t-47.5 -18zM70 292v99h510v-99h-510zM323 92q-30 0 -47 17.5t-17 44.5t17 44t47 17t47.5 -17t17.5 -44t-17.5 -44.5t-47.5 -17.5z" />
    <glyph glyph-name="multiply.tab" 
d="M160 84l-71 73l164 163l-164 163l71 72l164 -163l163 163l72 -72l-163 -163l164 -162l-71 -72l-164 163z" />
    <glyph glyph-name="equal.tab" 
d="M72 395v91h505v-91h-505zM72 167v91h505v-91h-505z" />
    <glyph glyph-name="less.tab" 
d="M589 58l-529 230v72l529 230v-103l-395 -163l395 -162v-104z" />
    <glyph glyph-name="greater.tab" 
d="M64 58v104l396 162l-396 163v103l529 -230v-72z" />
    <glyph glyph-name="dollar.tab" 
d="M298 440v216q-16 -1 -32 -6t-36 -15t-32.5 -31t-12.5 -50q0 -45 30 -71t83 -43zM363 83q126 11 126 110q0 50 -33.5 78t-92.5 46v-234zM294 -93v87q-154 11 -242 140l84 58q38 -49 75 -75.5t87 -32.5v250q-51 14 -86 28t-70.5 38t-53 59.5t-17.5 83.5q0 86 60.5 142.5
t162.5 62.5v71h72v-74q134 -16 208 -124l-83 -62q-58 78 -128 91v-224q52 -13 90 -28t74.5 -40t56 -64t19.5 -90q0 -91 -61.5 -147t-175.5 -63v-87h-72z" />
    <glyph glyph-name="cent.tab" 
d="M204 264q0 -99 48 -151l96 340h-5q-59 0 -99 -47t-40 -142zM337 -11q-26 0 -56 5l-35 -123h-68l42 145q-63 33 -96.5 100t-33.5 149q0 71 22.5 126t60.5 86.5t81.5 47.5t89.5 16q17 0 26 -1l28 98h68l-33 -111q96 -35 134 -141l-97 -37q-20 61 -68 89l-100 -357
q20 -5 38 -5q92 0 134 106l94 -37q-69 -156 -231 -156z" />
    <glyph glyph-name="sterling.tab" 
d="M455 -14q-77 0 -159 66q-55 -66 -143 -66q-52 0 -88.5 28t-36.5 82q0 56 36.5 89.5t90.5 33.5q50 0 97 -38q3 28 0 60q-5 42 -30 96h-133v82h88q-41 78 -41 137q0 86 58 142t151 56q106 0 157 -54.5t61 -138.5l-106 -21q-13 117 -109 117q-43 0 -68 -26.5t-25 -73.5
q0 -21 8.5 -47.5t15.5 -41.5t25 -49h171v-82h-133q22 -58 22 -113q0 -53 -19 -104q58 -44 92 -44q37 0 54 26t21 94h102q-1 -46 -8 -80.5t-23.5 -65.5t-48.5 -47.5t-79 -16.5zM155 54q54 0 81 51q-46 44 -81 44q-22 0 -35 -13.5t-13 -35.5q0 -21 13 -33.5t35 -12.5z" />
    <glyph glyph-name="yen.tab" 
d="M262 0v97h-179v84h179v70h-179v82h176l-238 407h131l174 -306l174 306h129l-240 -407h179v-82h-181v-70h181v-84h-181v-97h-125z" />
    <glyph glyph-name="Euro.tab" 
d="M381 -14q-107 0 -178.5 64t-93.5 198h-107v82h99q-1 11 -1 72h-98v80h105q20 137 93.5 204.5t178.5 67.5q179 0 240 -166l-103 -49q-35 109 -138 109q-129 0 -152 -166h177v-80h-184q-2 -37 0 -72h184v-82h-176q11 -82 48.5 -119.5t104.5 -37.5q107 0 143 114l101 -45
q-32 -82 -94.5 -128t-148.5 -46z" />
    <glyph glyph-name="florin.tab" 
d="M58 -197l12 86q16 -4 41 -4q80 0 91 79l58 433h-92l11 89h92l13 99q9 75 53 116.5t140 41.5q47 0 72 -5l-12 -89q-16 4 -41 4q-82 0 -90 -69l-12 -98h116l-11 -89h-116l-61 -452q-9 -69 -52 -108t-139 -39q-58 0 -73 5z" />
    </font>
</defs>
</svg>
