<?xml version="1.0" standalone="no"?>
<!DOCTYPE svg PUBLIC "-//W3C//DTD SVG 1.1//EN" "http://www.w3.org/Graphics/SVG/1.1/DTD/svg11.dtd" >
<svg>
<metadata>
Created by FontForge 20090622 at Tue Apr 24 16:16:02 2018
 By deploy user
Copyright (c) The Font Bureau, Inc., 2008. All rights reserved.
</metadata>
<defs>
<font id="BentonSansBBVA-Book" horiz-adv-x="650" >
  <font-face 
    font-family="BentonSansBBVA Book"
    font-weight="350"
    font-stretch="normal"
    units-per-em="1000"
    panose-1="0 0 0 0 0 0 0 2 0 0"
    ascent="787"
    descent="-213"
    x-height="526"
    cap-height="740"
    bbox="-96 -236 1317 961"
    underline-thickness="0"
    underline-position="0"
    unicode-range="U+0020-U+FEFF"
  />
<missing-glyph horiz-adv-x="500" 
d="M0 0v700h500v-700h-500zM50 650v-600h400v600h-400z" />
    <glyph glyph-name="f_f" unicode="ff" horiz-adv-x="625" 
d="M187 0h-69v468h-91v58h91v80q0 66 38 100.5t110 34.5q20 0 36 -2l5 -56q-9 1 -36 1q-84 0 -84 -76v-82h224v80q0 135 152 135q21 0 37 -2l5 -56q-9 1 -38 1q-87 0 -87 -76v-82h116v-58h-116v-468h-69v468h-224v-468z" />
    <glyph glyph-name="f_i" unicode="fi" horiz-adv-x="574" 
d="M446 642q-19 0 -30.5 12t-11.5 32t11 31t31 11t31 -11t11 -31t-11.5 -32t-30.5 -12zM118 526v80q0 135 148 135q22 0 36 -2l7 -57q-9 2 -38 2q-84 0 -84 -76v-82h112v-58h-112v-468h-69v468h-91v58h91zM481 0h-69v526h69v-526z" />
    <glyph glyph-name="f_l" unicode="fl" horiz-adv-x="574" 
d="M481 0h-69v735l69 10v-745zM118 526v80q0 135 148 135q22 0 36 -2l7 -57q-9 2 -38 2q-84 0 -84 -76v-82h112v-58h-112v-468h-69v468h-91v58h91z" />
    <glyph glyph-name="f_f_i" unicode="ffi" horiz-adv-x="859" 
d="M739 642q-19 0 -30.5 12t-11.5 32t11.5 31t30.5 11t30.5 -11t11.5 -31t-11.5 -32t-30.5 -12zM774 0h-69v526h69v-526zM480 526h113v-58h-113v-468h-69v468h-224v-468h-69v468h-91v58h91v80q0 135 148 135q32 0 36 -2l7 -57q-9 2 -38 2q-84 0 -84 -76v-82h224v80
q0 135 149 135q33 0 35 -2l8 -57q-9 2 -39 2q-84 0 -84 -76v-82z" />
    <glyph glyph-name="f_f_l" unicode="ffl" horiz-adv-x="859" 
d="M773 0h-69v735l69 10v-745zM480 526h113v-58h-113v-468h-69v468h-224v-468h-69v468h-91v58h91v80q0 135 148 135q22 0 36 -2l7 -57q-9 2 -38 2q-84 0 -84 -76v-82h224v80q0 135 149 135q21 0 35 -2l8 -57q-9 2 -39 2q-84 0 -84 -76v-82z" />
    <glyph glyph-name="f_j" unicode="fj" horiz-adv-x="574" 
d="M446 642q-19 0 -30.5 12t-11.5 32t11 31t31 11t31 -11t11 -31t-11.5 -32t-30.5 -12zM187 0h-69v468h-91v58h91v80q0 135 148 135q21 0 35 -2l8 -57q-9 2 -38 2q-84 0 -84 -76v-82h112v-58h-112v-468zM370 -201q-18 0 -39 3l-6 56q13 -3 35 -3q52 0 52 58v613h69v-609
q0 -118 -111 -118z" />
    <glyph glyph-name=".notdef" horiz-adv-x="500" 
d="M0 0v700h500v-700h-500zM50 650v-600h400v600h-400z" />
    <glyph glyph-name=".null" horiz-adv-x="0" 
 />
    <glyph glyph-name="nonmarkingreturn" horiz-adv-x="333" 
 />
    <glyph glyph-name="space" unicode=" " horiz-adv-x="226" 
 />
    <glyph glyph-name="space" unicode="&#xa0;" horiz-adv-x="226" 
 />
    <glyph glyph-name="exclam" unicode="!" horiz-adv-x="313" 
d="M178 202h-41l-23 538h86zM157 -5q-23 0 -36 14.5t-13 38.5q0 23 13 37t36 14q22 0 35.5 -14t13.5 -37q0 -24 -13.5 -38.5t-35.5 -14.5z" />
    <glyph glyph-name="quotedbl" unicode="&#x22;" horiz-adv-x="405" 
d="M306 489h-36l-17 196v55h70v-55zM134 489h-35l-17 196v55h69v-55z" />
    <glyph glyph-name="numbersign" unicode="#" horiz-adv-x="708" 
d="M277 466l-41 -192h192l40 192h-191zM179 0h-64l45 217h-116v57h128l40 192h-125v57h137l46 217h64l-46 -217h192l46 217h64l-46 -217h120v-57h-132l-40 -192h129v-57h-141l-45 -217h-64l45 217h-191z" />
    <glyph glyph-name="dollar" unicode="$" horiz-adv-x="647" 
d="M297 425v262q-73 -4 -110.5 -38t-37.5 -84q0 -55 37.5 -85.5t110.5 -54.5zM348 344v-290q167 11 167 134q0 34 -12.5 60t-38 44t-51.5 29t-65 23zM296 -93v89q-162 11 -237 135l49 38q70 -107 189 -115v305q-40 12 -67.5 22.5t-58 27.5t-48.5 37t-30 49t-12 65
q0 77 57.5 129.5t157.5 56.5v73h53v-74q135 -13 204 -122l-50 -39q-31 47 -65 71t-90 30v-275q55 -16 88.5 -29.5t72 -38t57 -61.5t18.5 -88q0 -85 -62.5 -138t-172.5 -60v-88h-53z" />
    <glyph glyph-name="percent" unicode="%" horiz-adv-x="970" 
d="M228 306q-79 0 -122.5 60t-43.5 160q0 103 45 163.5t122 60.5q76 0 120.5 -59.5t44.5 -160.5q0 -100 -44.5 -162t-121.5 -62zM296 0h-64l442 740h64zM229 360q48 0 75 47.5t27 120.5q0 76 -27 122t-76 46t-76 -46.5t-27 -119.5q0 -77 27.5 -123.5t76.5 -46.5zM741 -10
q-78 0 -122 60.5t-44 159.5q0 103 45.5 163.5t122.5 60.5q76 0 120.5 -59.5t44.5 -161.5q0 -99 -44.5 -161t-122.5 -62zM742 44q49 0 75.5 47t26.5 121q0 77 -27 122.5t-76 45.5t-75.5 -47t-26.5 -120q0 -77 27 -123t76 -46z" />
    <glyph glyph-name="ampersand" unicode="&#x26;" horiz-adv-x="721" 
d="M275 439q72 37 111 76t39 94q0 37 -22 61.5t-68 24.5q-50 0 -77 -31t-27 -81q0 -71 44 -144zM289 46q101 0 167 61q-60 59 -141 160q-49 62 -73 96q-131 -75 -131 -175q0 -67 45.5 -104.5t132.5 -37.5zM288 -14q-123 0 -185.5 52t-62.5 145q0 135 174 227q-51 88 -51 170
q0 73 45 123.5t127 50.5q74 0 114.5 -40t40.5 -102q0 -71 -49 -121.5t-139 -95.5q17 -26 69 -93q75 -96 128 -148q62 83 78 217l67 -3q-20 -152 -98 -252q77 -63 147 -63l7 -63q-58 3 -104 20.5t-95 57.5q-92 -82 -213 -82z" />
    <glyph glyph-name="quotesingle" unicode="'" horiz-adv-x="233" 
d="M134 489h-35l-17 196v55h69v-55z" />
    <glyph glyph-name="parenleft" unicode="(" horiz-adv-x="397" 
d="M344 -171l-32 -34q-249 209 -249 478t249 478l31 -35q-204 -188 -204 -443q0 -129 54 -242.5t151 -201.5z" />
    <glyph glyph-name="parenright" unicode=")" horiz-adv-x="397" 
d="M85 -205l-31 34q96 89 150.5 202t54.5 242q0 128 -54.5 241t-150.5 202l31 35q250 -210 250 -478t-250 -478z" />
    <glyph glyph-name="asterisk" unicode="*" horiz-adv-x="508" 
d="M254 519l-79 -166l-50 29l104 151l-183 -13v55l184 -13l-105 151l50 29l79 -166l79 166l50 -29l-104 -151l183 13v-55l-183 13l104 -151l-50 -29z" />
    <glyph glyph-name="plus" unicode="+" horiz-adv-x="636" 
d="M349 75h-61v224h-223v60h223v224h61v-224h222v-60h-222v-224z" />
    <glyph glyph-name="comma" unicode="," horiz-adv-x="268" 
d="M121 -101h-42l26 195h86z" />
    <glyph glyph-name="hyphen" unicode="-" horiz-adv-x="357" 
d="M291 284h-225v60h225v-60z" />
    <glyph glyph-name="hyphen" unicode="&#x2011;" horiz-adv-x="357" 
d="M291 284h-225v60h225v-60z" />
    <glyph glyph-name="hyphen" unicode="&#x2010;" horiz-adv-x="357" 
d="M291 284h-225v60h225v-60z" />
    <glyph glyph-name="hyphen" unicode="&#xad;" horiz-adv-x="357" 
d="M291 284h-225v60h225v-60z" />
    <glyph glyph-name="period" unicode="." horiz-adv-x="268" 
d="M134 -5q-23 0 -36 14.5t-13 38.5q0 23 13 37t36 14q22 0 35.5 -14t13.5 -37q0 -24 -13.5 -38.5t-35.5 -14.5z" />
    <glyph glyph-name="slash" unicode="/" horiz-adv-x="549" 
d="M96 0h-73l430 740h73z" />
    <glyph glyph-name="zero" unicode="0" horiz-adv-x="653" 
d="M327 -14q-129 0 -200.5 104t-71.5 280t71.5 280t200.5 104q128 0 199 -104t71 -280t-71 -280t-199 -104zM327 49q95 0 147.5 83t52.5 238q0 154 -54 237.5t-146 83.5q-95 0 -148 -83t-53 -238q0 -154 54 -237.5t147 -83.5z" />
    <glyph glyph-name="one" unicode="1" horiz-adv-x="432" 
d="M288 0h-69v674l-142 -48l-9 59l155 55h65v-740z" />
    <glyph glyph-name="two" unicode="2" horiz-adv-x="587" 
d="M527 0h-479v16q0 86 54.5 163.5t193.5 166.5q85 54 120.5 98t35.5 103q0 66 -39.5 105t-112.5 39q-120 0 -184 -130l-53 35q77 158 240 158q100 0 159 -56.5t59 -146.5q0 -75 -42 -131t-149 -124q-199 -127 -204 -232h396z" />
    <glyph glyph-name="three" unicode="3" horiz-adv-x="591" 
d="M284 -14q-81 0 -146.5 35.5t-106.5 101.5l49 42q76 -116 204 -116q82 0 129.5 41t47.5 109q0 83 -55 123t-183 40h-26l-4 61h36q115 0 165.5 34.5t50.5 104.5q0 58 -38.5 93.5t-118.5 35.5q-102 0 -177 -93l-47 45q93 111 228 111q110 0 166 -53t56 -132
q0 -71 -39.5 -117.5t-108.5 -57.5q165 -33 165 -195q0 -93 -67.5 -153t-179.5 -60z" />
    <glyph glyph-name="four" unicode="4" horiz-adv-x="606" 
d="M458 0h-69v179h-356v53l337 508h88v-498h123l3 -63h-126v-179zM387 657l-274 -415h276v415h-2z" />
    <glyph glyph-name="five" unicode="5" horiz-adv-x="582" 
d="M283 -14q-78 0 -141 35.5t-101 96.5l46 45q75 -114 195 -114q90 0 137.5 56.5t47.5 136.5q0 87 -47 135.5t-122 48.5q-105 0 -169 -93l-53 20l29 387h388l2 -65h-331l-20 -257q59 69 164 69q102 0 165.5 -66t63.5 -176q0 -113 -69 -186t-185 -73z" />
    <glyph glyph-name="six" unicode="6" horiz-adv-x="611" 
d="M318 -14q-115 0 -189 94.5t-74 276.5q0 172 82 284.5t209 112.5q106 0 174 -56l-33 -56q-33 26 -64 38t-78 12q-101 0 -161 -93t-60 -235q91 99 211 99q113 0 172 -63t59 -168q0 -107 -67.5 -176.5t-180.5 -69.5zM321 47q80 0 128 49t48 135q0 78 -42 124.5t-128 46.5
q-121 0 -200 -109q11 -122 63.5 -184t130.5 -62z" />
    <glyph glyph-name="seven" unicode="7" horiz-adv-x="549" 
d="M191 -2l-71 4l311 673h-378l-5 65h457v-61z" />
    <glyph glyph-name="eight" unicode="8" horiz-adv-x="607" 
d="M304 -15q-122 0 -193 55.5t-71 138.5q0 74 48.5 122.5t147.5 91.5q-82 37 -122 78t-40 105q0 72 63 125.5t167 53.5q106 0 167.5 -53t61.5 -126q0 -62 -39.5 -102.5t-124.5 -78.5q103 -45 150.5 -92.5t47.5 -123.5q0 -82 -71.5 -138t-191.5 -56zM307 422q87 38 122 69.5
t35 81.5q0 49 -41 85.5t-119 36.5q-75 0 -118 -35.5t-43 -83.5q0 -50 37 -82.5t127 -71.5zM304 45q85 0 139 38t54 100q0 59 -47 99t-150 83q-103 -46 -146.5 -85.5t-43.5 -96.5q0 -61 54.5 -99.5t139.5 -38.5z" />
    <glyph glyph-name="nine" unicode="9" horiz-adv-x="611" 
d="M284 338q121 0 200 109q-11 122 -64 183.5t-130 61.5q-81 0 -128.5 -48.5t-47.5 -134.5q0 -78 42 -124.5t128 -46.5zM268 -14q-116 0 -191 66l32 56q38 -32 72 -46t87 -14q99 0 159 93.5t59 234.5q-91 -99 -210 -99q-113 0 -172 63t-59 168q0 107 67.5 176.5t180.5 69.5
q115 0 188.5 -94.5t73.5 -276.5q0 -172 -81 -284.5t-206 -112.5z" />
    <glyph glyph-name="colon" unicode=":" horiz-adv-x="271" 
d="M135 427q-23 0 -36 14t-13 38t13 38t36 14t36 -14t13 -38t-13 -38t-36 -14zM135 -5q-23 0 -36 14.5t-13 38.5q0 23 13 37t36 14q22 0 35.5 -14t13.5 -37q0 -24 -13.5 -38.5t-35.5 -14.5z" />
    <glyph glyph-name="semicolon" unicode=";" horiz-adv-x="271" 
d="M135 427q-23 0 -36 14t-13 38t13 38t36 14t36 -14t13 -38t-13 -38t-36 -14zM123 -101h-42l26 195h85z" />
    <glyph glyph-name="less" unicode="&#x3c;" horiz-adv-x="636" 
d="M580 137v-65l-529 227v50l529 227v-65l-449 -187z" />
    <glyph glyph-name="equal" unicode="=" horiz-adv-x="636" 
d="M570 409h-505v59h505v-59zM570 181h-505v59h505v-59z" />
    <glyph glyph-name="greater" unicode="&#x3e;" horiz-adv-x="636" 
d="M586 299l-529 -227v65l449 187l-449 187v65l529 -227v-50z" />
    <glyph glyph-name="question" unicode="?" horiz-adv-x="539" 
d="M270 201h-57q-2 40 -2 66q0 53 20.5 88t69.5 64q66 41 91 70t25 81q0 56 -40 88.5t-109 32.5q-116 0 -190 -99l-46 46q93 116 240 116q96 0 155.5 -50t59.5 -130q0 -67 -32.5 -107.5t-95.5 -77.5q-60 -35 -74.5 -68t-14.5 -120zM241 -5q-22 0 -35.5 14.5t-13.5 38.5
q0 23 13.5 37t35.5 14q23 0 36.5 -14t13.5 -37q0 -24 -13.5 -38.5t-36.5 -14.5z" />
    <glyph glyph-name="at" unicode="@" horiz-adv-x="868" 
d="M432 -14q-169 0 -276 106t-107 278q0 170 109 277t276 107t276 -105t109 -269q0 -103 -47 -163.5t-120 -60.5q-46 0 -76.5 22t-41.5 56q-85 -76 -166 -76q-68 0 -109.5 41t-41.5 120q0 115 59 193t151 78q75 0 130 -55l7 46h57l-43 -294q-6 -39 15 -64t64 -25
q53 0 86.5 46t33.5 135q0 148 -97 241.5t-246 93.5t-245 -96t-96 -248t95.5 -248.5t244.5 -96.5q107 0 204 53l18 -34q-104 -58 -223 -58zM376 207q75 0 143 65l30 209q-48 58 -125 58q-65 0 -106 -63t-41 -152q0 -117 99 -117z" />
    <glyph glyph-name="A" unicode="A" horiz-adv-x="672" 
d="M105 0h-69l262 743h76l261 -737l-70 -12l-81 234h-300zM333 659l-127 -368h256l-127 368h-2z" />
    <glyph glyph-name="B" unicode="B" horiz-adv-x="685" 
d="M374 0h-279v740h257q124 0 187.5 -48.5t63.5 -137.5q0 -70 -39.5 -113.5t-100.5 -57.5v-2q73 -13 118.5 -58.5t45.5 -121.5q0 -91 -64.5 -146t-188.5 -55zM165 676v-265h181q187 0 187 134q0 68 -44.5 99.5t-140.5 31.5h-183zM165 349v-286h208q184 0 184 141
q0 73 -54 109t-152 36h-186z" />
    <glyph glyph-name="C" unicode="C" horiz-adv-x="697" 
d="M367 -14q-140 0 -224 106t-84 281q0 168 84.5 274.5t221.5 106.5q183 0 254 -163l-61 -32q-55 130 -193 130q-107 0 -171 -86t-64 -228q0 -152 64 -238.5t174 -86.5q148 0 206 148l61 -28q-34 -88 -102 -136t-166 -48z" />
    <glyph glyph-name="D" unicode="D" horiz-adv-x="709" 
d="M282 0h-187v740h187q181 0 274.5 -93.5t93.5 -275.5t-94.5 -276.5t-273.5 -94.5zM166 674v-609h127q286 0 286 305q0 304 -288 304h-125z" />
    <glyph glyph-name="E" unicode="E" horiz-adv-x="604" 
d="M558 0h-463v740h442v-66h-371v-251h277l11 -64h-288v-294h392v-65z" />
    <glyph glyph-name="F" unicode="F" horiz-adv-x="566" 
d="M166 0h-71v740h433v-66h-362v-255h267l10 -64h-277v-355z" />
    <glyph glyph-name="G" unicode="G" horiz-adv-x="723" 
d="M363 -14q-141 0 -222.5 108.5t-81.5 278.5q0 172 86.5 276.5t222.5 104.5q183 0 254 -173l-63 -30q-53 138 -191 138q-102 0 -170 -82.5t-68 -230.5q0 -152 65.5 -239t173.5 -87q94 0 150 63.5t55 173.5h-174l-11 61h254v-348h-64v107h-2q-62 -121 -214 -121z" />
    <glyph glyph-name="H" unicode="H" horiz-adv-x="732" 
d="M166 0h-71v740h71v-317h401v317h71v-740h-71v358h-401v-358z" />
    <glyph glyph-name="I" unicode="I" horiz-adv-x="281" 
d="M176 0h-71v740h71v-740z" />
    <glyph glyph-name="J" unicode="J" horiz-adv-x="498" 
d="M219 -14q-113 0 -175 77l39 52q48 -66 133 -66q123 0 123 151v540h71v-541q0 -104 -50 -158.5t-141 -54.5z" />
    <glyph glyph-name="K" unicode="K" horiz-adv-x="668" 
d="M166 0h-71v740h71v-399l354 399h87l-254 -280l293 -454l-74 -12l-267 411l-139 -152v-253z" />
    <glyph glyph-name="L" unicode="L" horiz-adv-x="565" 
d="M533 0h-438v740h71v-675h356z" />
    <glyph glyph-name="M" unicode="M" horiz-adv-x="871" 
d="M161 0h-66v740h92l248 -648h2l247 648h93v-740h-71v621h-2q-13 -43 -46 -130l-192 -491h-65l-192 491q-30 80 -46 131h-2v-622z" />
    <glyph glyph-name="N" unicode="N" horiz-adv-x="743" 
d="M162 0h-67v740h76l408 -610h2v610h67v-740h-63l-421 629h-2v-629z" />
    <glyph glyph-name="O" unicode="O" horiz-adv-x="742" 
d="M371 -14q-136 0 -224 106t-88 278t88 278t224 106q135 0 223.5 -106t88.5 -278t-88.5 -278t-223.5 -106zM371 50q107 0 174 86t67 234q0 147 -67 233t-174 86t-174 -86t-67 -233q0 -148 67 -234t174 -86z" />
    <glyph glyph-name="P" unicode="P" horiz-adv-x="643" 
d="M166 0h-71v740h246q123 0 191 -50.5t68 -151.5q0 -108 -71 -159t-195 -51h-168v-328zM166 675v-284h173q95 0 142.5 34t47.5 111q0 73 -47.5 106t-143.5 33h-172z" />
    <glyph glyph-name="Q" unicode="Q" horiz-adv-x="742" 
d="M613 -186h-61q-107 0 -163 48t-57 127q-122 14 -197.5 118t-75.5 263q0 172 88 278t224 106q135 0 223 -106t88 -278q0 -161 -77.5 -265.5t-201.5 -116.5q10 -111 164 -111h57zM371 50q106 0 173 86.5t67 233.5t-67 233t-173 86q-107 0 -174 -86t-67 -233q0 -148 67 -234
t174 -86z" />
    <glyph glyph-name="R" unicode="R" horiz-adv-x="671" 
d="M165 0h-70v740h248q124 0 190 -51.5t66 -150.5q0 -163 -176 -198l189 -334l-73 -12l-190 338h-184v-332zM165 675v-280h173q96 0 143.5 32.5t47.5 109.5q0 74 -48 106t-144 32h-172z" />
    <glyph glyph-name="S" unicode="S" horiz-adv-x="649" 
d="M331 -14q-177 0 -295 118l41 53q105 -107 253 -107q86 0 136.5 36t50.5 97q0 59 -40 94.5t-155 71.5q-131 41 -185.5 85t-54.5 130q0 80 65 135t165 55q146 0 263 -105l-36 -56q-108 97 -227 97q-73 0 -116.5 -35t-43.5 -86q0 -60 42 -91.5t163 -69.5
q123 -39 176.5 -86.5t53.5 -134.5q0 -90 -72 -145.5t-184 -55.5z" />
    <glyph glyph-name="T" unicode="T" horiz-adv-x="617" 
d="M344 0h-71v674h-239v66h543l11 -66h-244v-674z" />
    <glyph glyph-name="U" unicode="U" horiz-adv-x="715" 
d="M357 -14q-130 0 -199.5 74.5t-69.5 189.5v490h71v-480q0 -94 50 -151.5t149 -57.5t148.5 56.5t49.5 150.5v482h71v-488q0 -116 -70 -191t-200 -75z" />
    <glyph glyph-name="V" unicode="V" horiz-adv-x="659" 
d="M363 -3h-67l-258 737l69 12l223 -652h2l222 646h69z" />
    <glyph glyph-name="W" unicode="W" horiz-adv-x="925" 
d="M304 0h-67l-196 734l69 12l117 -455q26 -100 45 -186h2q15 73 43 185l110 450h75l112 -454q38 -160 42 -181h2q5 22 43 177l116 458h68l-196 -740h-67l-157 642h-2z" />
    <glyph glyph-name="X" unicode="X" horiz-adv-x="657" 
d="M105 0h-73l258 397l-221 337l73 12l189 -293l184 287h76l-223 -343l254 -391l-70 -12l-224 347z" />
    <glyph glyph-name="Y" unicode="Y" horiz-adv-x="618" 
d="M344 0h-71v326l-244 408l69 12l212 -359l208 353h74l-248 -414v-326z" />
    <glyph glyph-name="Z" unicode="Z" horiz-adv-x="623" 
d="M578 0h-536v51l444 629h-409l-12 60h507v-52l-442 -628h436z" />
    <glyph glyph-name="bracketleft" unicode="[" horiz-adv-x="389" 
d="M342 -200h-254v940h254v-53h-184v-834h184v-53z" />
    <glyph glyph-name="backslash" unicode="\" horiz-adv-x="543" 
d="M523 0h-73l-430 740h73z" />
    <glyph glyph-name="bracketright" unicode="]" horiz-adv-x="389" 
d="M301 -200h-254v53h184v833h-184v54h254v-940z" />
    <glyph glyph-name="asciicircum" unicode="^" horiz-adv-x="636" 
d="M67 338l226 402h51l226 -402h-64l-188 331l-187 -331h-64z" />
    <glyph glyph-name="underscore" unicode="_" horiz-adv-x="500" 
d="M500 -126h-500v56h500v-56z" />
    <glyph glyph-name="grave" unicode="`" horiz-adv-x="500" 
d="M286 583l-141 156h91l95 -156h-45z" />
    <glyph glyph-name="a" unicode="a" horiz-adv-x="547" 
d="M212 48q107 0 193 83v164q-164 -28 -226.5 -67.5t-62.5 -95.5q0 -41 25 -62.5t71 -21.5zM197 -9q-70 0 -109.5 35.5t-39.5 97.5q0 82 82 136t275 84v27q0 108 -108 108q-102 0 -195 -83l-39 43q106 98 239 98q86 0 128.5 -43.5t42.5 -124.5v-369h-61l-7 75
q-95 -84 -208 -84z" />
    <glyph glyph-name="b" unicode="b" horiz-adv-x="593" 
d="M323 -9q-95 0 -174 81l-2 -72h-67v735l69 10v-295q76 87 176 87q96 0 156.5 -70.5t60.5 -202.5t-61.5 -202.5t-157.5 -70.5zM315 49q70 0 114 53.5t44 160.5q0 104 -45 159.5t-115 55.5q-46 0 -83 -21t-81 -65v-258q83 -85 166 -85z" />
    <glyph glyph-name="c" unicode="c" horiz-adv-x="531" 
d="M278 -11q-95 0 -161.5 74t-66.5 200q0 133 69 203.5t166 70.5q132 0 194 -125l-54 -33q-24 50 -57 75t-85 25q-67 0 -115.5 -53.5t-48.5 -162.5q0 -99 46 -157.5t117 -58.5q52 0 86 25t61 78l51 -33q-67 -128 -202 -128z" />
    <glyph glyph-name="d" unicode="d" horiz-adv-x="593" 
d="M280 50q46 0 83.5 21t80.5 65v257q-84 86 -166 86q-69 0 -113.5 -54.5t-44.5 -161.5q0 -104 45 -158.5t115 -54.5zM268 -9q-96 0 -156.5 69.5t-60.5 201.5q0 133 61.5 204t157.5 71q103 0 174 -83v281l69 10v-745h-62l-7 76q-78 -85 -176 -85z" />
    <glyph glyph-name="e" unicode="e" horiz-adv-x="546" 
d="M291 -11q-104 0 -172.5 72.5t-68.5 202.5t69.5 201.5t161.5 71.5q95 0 155 -71.5t60 -202.5v-13h-377q1 -94 49 -148.5t124 -54.5q94 0 169 78l34 -45q-45 -47 -92.5 -69t-111.5 -22zM120 304h309q-6 79 -43.5 127t-105.5 48q-61 0 -106 -45.5t-54 -129.5z" />
    <glyph glyph-name="f" unicode="f" horiz-adv-x="330" 
d="M187 0h-69v468h-91v58h91v80q0 135 152 135q20 0 36 -2l7 -57q-10 2 -39 2q-87 0 -87 -76v-82h116v-58h-116v-468z" />
    <glyph glyph-name="g" unicode="g" horiz-adv-x="566" 
d="M265 213q64 0 102.5 36t38.5 97q0 63 -37.5 99.5t-104.5 36.5q-65 0 -103 -37t-38 -99q0 -61 38.5 -97t103.5 -36zM272 -202q-125 0 -187.5 34.5t-62.5 97.5q0 82 97 120q-47 19 -47 67q0 45 64 79q-80 51 -80 151q0 83 59 136.5t149 53.5q91 0 150 -54q55 40 116 48
l10 -65q-57 0 -100 -18q31 -42 31 -101q0 -85 -58.5 -136t-148.5 -51q-46 0 -85 15q-42 -17 -42 -45q0 -17 17.5 -26.5t60.5 -13.5l115 -9q186 -15 186 -134q0 -71 -67 -110t-177 -39zM279 -148q80 0 126.5 24.5t46.5 64.5q0 38 -33.5 57.5t-110.5 25.5l-105 8l-27 3
q-43 -14 -65.5 -39.5t-22.5 -56.5q0 -87 191 -87z" />
    <glyph glyph-name="h" unicode="h" horiz-adv-x="581" 
d="M149 0h-69v735l69 10v-302q94 94 199 94q78 0 118.5 -40.5t40.5 -114.5v-382h-69v368q0 56 -25.5 83t-80.5 27q-88 0 -183 -92v-386z" />
    <glyph glyph-name="i" unicode="i" horiz-adv-x="240" 
d="M120 642q-19 0 -30.5 12t-11.5 32t11 31t31 11t31 -11t11 -31t-11.5 -32t-30.5 -12zM155 0h-69v526h69v-526z" />
    <glyph glyph-name="j" unicode="j" horiz-adv-x="240" 
d="M120 642q-19 0 -30.5 12t-11.5 32t11 31t31 11t31 -11t11 -31t-11.5 -32t-30.5 -12zM44 -201q-18 0 -39 3l-6 56q13 -3 35 -3q52 0 52 58v613h69v-609q0 -118 -111 -118z" />
    <glyph glyph-name="k" unicode="k" horiz-adv-x="530" 
d="M149 0h-69v735l69 10v-496l251 277h81l-172 -185l191 -335l-68 -12l-169 295l-114 -123v-166z" />
    <glyph glyph-name="l" unicode="l" horiz-adv-x="240" 
d="M155 0h-69v735l69 10v-745z" />
    <glyph glyph-name="m" unicode="m" horiz-adv-x="913" 
d="M149 0h-69v526h62l7 -83q94 94 193 94q121 0 146 -95q99 95 198 95q152 0 152 -156v-381h-69v368q0 57 -22.5 83.5t-76.5 26.5q-81 0 -176 -92v-386h-69v368q0 57 -22.5 83.5t-77.5 26.5q-81 0 -176 -92v-386z" />
    <glyph glyph-name="n" unicode="n" horiz-adv-x="581" 
d="M149 0h-69v526h62l7 -83q94 94 199 94q78 0 118.5 -40.5t40.5 -114.5v-382h-69v368q0 111 -106 111q-88 0 -183 -92v-387z" />
    <glyph glyph-name="o" unicode="o" horiz-adv-x="577" 
d="M289 -11q-101 0 -170 73.5t-69 200.5t68.5 200.5t170.5 73.5q101 0 169.5 -73.5t68.5 -200.5t-68.5 -200.5t-169.5 -73.5zM289 48q78 0 123.5 60t45.5 155q0 92 -44.5 153.5t-124.5 61.5q-79 0 -124.5 -60t-45.5 -155q0 -93 44.5 -154t125.5 -61z" />
    <glyph glyph-name="p" unicode="p" horiz-adv-x="593" 
d="M315 49q71 0 114.5 53t43.5 161q0 104 -45 159.5t-115 55.5q-46 0 -83 -21t-81 -65v-258q83 -85 166 -85zM149 -195l-69 -10v731h62l7 -74q78 85 176 85q96 0 156.5 -70.5t60.5 -202.5t-61.5 -202.5t-157.5 -70.5q-95 0 -174 81v-267z" />
    <glyph glyph-name="q" unicode="q" horiz-adv-x="593" 
d="M444 -205v282q-80 -86 -176 -86t-156.5 69.5t-60.5 201.5q0 133 61.5 204t157.5 71q95 0 174 -81l7 70h62v-721zM280 50q46 0 83.5 21t80.5 65v257q-84 86 -166 86q-69 0 -113.5 -54.5t-44.5 -161.5q0 -104 45 -158.5t115 -54.5z" />
    <glyph glyph-name="r" unicode="r" horiz-adv-x="394" 
d="M149 0h-69v526h62l7 -103h2q71 114 207 114h7l6 -64q-2 1 -25 1q-65 0 -116 -34t-81 -97v-343z" />
    <glyph glyph-name="s" unicode="s" horiz-adv-x="506" 
d="M250 -9q-133 0 -206 93l38 42q69 -79 169 -79q66 0 101.5 24t35.5 67t-31 65.5t-114 41.5q-100 24 -141.5 56.5t-41.5 97.5q0 59 48 98.5t131 39.5q117 0 194 -74l-35 -48q-68 65 -157 65q-57 0 -85.5 -22.5t-28.5 -55.5q0 -37 26.5 -57t99.5 -37q112 -26 157 -60
t45 -105t-57 -111.5t-148 -40.5z" />
    <glyph glyph-name="t" unicode="t" horiz-adv-x="364" 
d="M254 -7q-72 0 -105.5 30.5t-33.5 101.5v343h-91v58h91v185l69 10v-195h137v-58h-137v-333q0 -43 18.5 -63.5t63.5 -20.5q28 0 52 7l8 -59q-34 -6 -72 -6z" />
    <glyph glyph-name="u" unicode="u" horiz-adv-x="581" 
d="M233 -11q-78 0 -118 40.5t-40 114.5v382h69v-368q0 -56 25 -83t80 -27q85 0 184 92v386h69v-526h-62l-7 83q-98 -94 -200 -94z" />
    <glyph glyph-name="v" unicode="v" horiz-adv-x="509" 
d="M289 -3h-69l-192 523l69 13l159 -451h2l155 444h70z" />
    <glyph glyph-name="w" unicode="w" horiz-adv-x="747" 
d="M252 0h-63l-160 520l69 13l75 -267l49 -179h2q23 91 48 179l72 260h63l73 -265q13 -45 47 -174h2q26 102 47 172l78 267h66l-162 -526h-64l-119 433h-2z" />
    <glyph glyph-name="x" unicode="x" horiz-adv-x="511" 
d="M105 0h-74l189 273l-172 247l69 13l141 -210l138 203h74l-177 -253l185 -267l-68 -12l-155 227z" />
    <glyph glyph-name="y" unicode="y" horiz-adv-x="527" 
d="M98 -201q-43 0 -70 7l-5 60q41 -9 76 -9q42 0 67 19.5t42 62.5l22 58l-201 523l69 13l166 -451h2l163 444h72l-227 -587q-29 -75 -66.5 -107.5t-109.5 -32.5z" />
    <glyph glyph-name="z" unicode="z" horiz-adv-x="506" 
d="M468 0h-427v44l321 425h-290l-10 57h387v-44l-321 -425h330z" />
    <glyph glyph-name="braceleft" unicode="{" horiz-adv-x="380" 
d="M338 -200h-62q-130 0 -130 136v188q0 70 -25.5 95t-85.5 25v52q60 0 85.5 25t25.5 95v188q0 136 130 136h62v-53h-44q-78 0 -78 -77v-197q0 -69 -20 -98t-65 -44v-2q45 -15 65 -44t20 -98v-197q0 -77 78 -77h44v-53z" />
    <glyph glyph-name="bar" unicode="|" horiz-adv-x="345" 
d="M206 -200h-67v940h67v-940z" />
    <glyph glyph-name="braceright" unicode="}" horiz-adv-x="380" 
d="M107 -200h-65v53h44q78 0 78 77v200q0 68 20 96t65 43v2q-45 15 -65 43t-20 96v200q0 80 -74 80h-44l-4 50h65q67 0 97 -33t30 -100v-191q0 -70 25.5 -95t85.5 -25v-52q-60 0 -85.5 -25t-25.5 -95v-191q0 -67 -30 -100t-97 -33z" />
    <glyph glyph-name="asciitilde" unicode="~" horiz-adv-x="636" 
d="M456 268q-34 2 -148 36.5t-134 36.5q-50 3 -55 -47l-47 6q4 54 33 79.5t75 22.5q34 -2 147.5 -37t133.5 -36q52 -3 56 47l48 -4q-6 -55 -34.5 -81t-74.5 -23z" />
    <glyph glyph-name="exclamdown" unicode="&#xa1;" horiz-adv-x="313" 
d="M156 745q22 0 35.5 -14.5t13.5 -37.5q0 -24 -13 -38t-36 -14t-36 14t-13 38t13 38t36 14zM135 538h41l23 -538h-86z" />
    <glyph glyph-name="cent" unicode="&#xa2;" horiz-adv-x="532" 
d="M190 76l110 402q-5 1 -17 1q-68 0 -117 -52.5t-49 -162.5q0 -130 73 -188zM131 -129l41 146q-56 32 -89 95.5t-33 150.5q0 133 69 203.5t166 70.5q20 0 29 -1l28 102h48l-31 -112q83 -30 128 -133l-57 -26q-33 81 -90 102l-112 -413q24 -9 53 -9q54 0 89 26.5t64 86.5
l54 -24q-69 -147 -210 -147q-34 0 -64 10l-35 -128h-48z" />
    <glyph glyph-name="sterling" unicode="&#xa3;" horiz-adv-x="609" 
d="M214 362h-127v55h97q-48 90 -48 150q0 83 51.5 135t139.5 52q94 0 141.5 -53.5t54.5 -132.5l-67 -8q-9 133 -130 133q-58 0 -89.5 -33.5t-31.5 -91.5q0 -25 9 -54t16.5 -44.5t27.5 -52.5h172v-55h-144q32 -73 32 -140q0 -63 -16 -110q26 -22 40.5 -33t38.5 -22t46 -11
q46 0 67 32t26 104h63q-7 -196 -152 -196q-42 0 -77.5 20t-76.5 57q-48 -77 -138 -77q-43 0 -75.5 26.5t-32.5 72.5q0 50 30.5 81t83.5 31q49 0 105 -42q4 24 4 62q0 67 -40 145zM234 101q-51 46 -90 46q-27 0 -43 -16.5t-16 -43.5q0 -24 16 -38t41 -14q66 0 92 66z" />
    <glyph glyph-name="currency" unicode="&#xa4;" horiz-adv-x="636" 
d="M317 191q-56 0 -96 28l-104 -104l-41 41l103 103q-31 46 -31 100q0 55 29 97l-101 101l41 41l101 -101q44 30 99 30q57 0 100 -30l101 101l41 -41l-101 -100q30 -43 30 -98t-32 -100l103 -103l-40 -41l-104 104q-42 -28 -98 -28zM317 238q52 0 85.5 33.5t33.5 87.5
t-33.5 87.5t-85.5 33.5t-85 -33.5t-33 -87.5t33.5 -87.5t84.5 -33.5z" />
    <glyph glyph-name="yen" unicode="&#xa5;" horiz-adv-x="616" 
d="M343 0h-71v126h-191v56h191v95h-191v56h189l-244 407h77l207 -350l205 350h75l-245 -407h191v-56h-193v-95h193v-56h-193v-126z" />
    <glyph glyph-name="brokenbar" unicode="&#xa6;" horiz-adv-x="345" 
d="M206 331h-67v409h67v-409zM206 -200h-67v409h67v-409z" />
    <glyph glyph-name="section" unicode="&#xa7;" horiz-adv-x="530" 
d="M300 129q111 48 111 126q0 41 -31.5 70.5t-136.5 92.5q-2 1 -6.5 3.5t-6.5 3.5q-111 -49 -111 -126q0 -41 31.5 -71t136.5 -92q2 -1 6.5 -3.5t6.5 -3.5zM265 -200q-160 0 -194 146l59 18q29 -107 133 -107q56 0 82.5 26t26.5 64q0 37 -25.5 66.5t-97.5 71.5
q-113 66 -153.5 106.5t-40.5 100.5q0 100 127 164q-55 39 -75.5 71.5t-20.5 76.5q0 61 48.5 105.5t129.5 44.5q165 0 199 -146l-59 -18q-14 53 -46 80t-91 27q-57 0 -85 -26t-28 -64q0 -36 27 -65.5t100 -72.5q113 -66 153.5 -106.5t40.5 -100.5q0 -56 -37 -97.5t-90 -67.5
q54 -38 73 -70t19 -77q0 -61 -47 -105.5t-128 -44.5z" />
    <glyph glyph-name="dieresis" unicode="&#xa8;" horiz-adv-x="506" 
d="M340 577q-20 0 -31.5 13.5t-11.5 35.5q0 21 12 34t31 13q21 0 32.5 -13t11.5 -34q0 -23 -11.5 -36t-32.5 -13zM164 577q-20 0 -31.5 13t-11.5 36q0 21 11.5 34t31.5 13t31.5 -13t11.5 -34q0 -23 -11.5 -36t-31.5 -13z" />
    <glyph glyph-name="copyright" unicode="&#xa9;" horiz-adv-x="863" 
d="M431 -14q-159 0 -270 112t-111 272t111 272t271 112q159 0 270 -112t111 -272t-111 -272t-271 -112zM432 27q141 0 239 100t98 243q0 142 -98.5 242.5t-239.5 100.5t-239 -100t-98 -243q0 -142 98.5 -242.5t239.5 -100.5zM430 156q-79 0 -127 60.5t-48 160.5
q0 95 48.5 156.5t127.5 61.5q117 0 154 -127l-45 -16q-15 50 -40.5 74t-68.5 24q-57 0 -91.5 -47.5t-34.5 -124.5q0 -83 34 -130.5t93 -47.5q86 0 113 103q41 -13 46 -14q-38 -133 -161 -133z" />
    <glyph glyph-name="ordfeminine" unicode="&#xaa;" horiz-adv-x="415" 
d="M170 415q71 0 131 58v107q-110 -18 -152.5 -45t-42.5 -66q0 -26 17 -40t47 -14zM159 369q-51 0 -79.5 25t-28.5 69q0 58 57.5 96t192.5 59v17q0 73 -71 73q-73 0 -134 -56l-34 30q76 71 172 71q61 0 91.5 -31t30.5 -88v-257h-48l-7 50q-68 -58 -142 -58z" />
    <glyph glyph-name="guillemotleft" unicode="&#xab;" horiz-adv-x="522" 
d="M265 0h-72l-148 264l148 262h72l-145 -262zM463 0h-72l-148 264l148 262h72l-146 -262z" />
    <glyph glyph-name="logicalnot" unicode="&#xac;" horiz-adv-x="631" 
d="M565 364v-284h-59v225h-441v59h500z" />
    <glyph glyph-name="registered" unicode="&#xae;" horiz-adv-x="547" 
d="M273 291q-97 0 -164 67.5t-67 165.5q0 97 67.5 165t164.5 68t164 -68t67 -165q0 -98 -67.5 -165.5t-164.5 -67.5zM274 321q83 0 141.5 59t58.5 144q0 84 -58.5 143.5t-142.5 59.5q-83 0 -141 -59.5t-58 -143.5q0 -85 58 -144t142 -59zM224 540h52q58 0 58 44q0 41 -59 41
h-51v-85zM188 399v258h90q44 0 67.5 -19t23.5 -53q0 -58 -56 -71l63 -115h-38l-61 111h-53v-111h-36z" />
    <glyph glyph-name="macron" unicode="&#xaf;" horiz-adv-x="500" 
d="M123 582v59h254v-59h-254z" />
    <glyph glyph-name="degree" unicode="&#xb0;" horiz-adv-x="403" 
d="M201 474q-60 0 -100.5 40t-40.5 100t40.5 100t100.5 40q61 0 101.5 -39.5t40.5 -100.5t-40.5 -100.5t-101.5 -39.5zM201 519q40 0 65.5 26.5t25.5 68.5t-25.5 68t-65.5 26q-39 0 -64.5 -26t-25.5 -68t25.5 -68.5t64.5 -26.5z" />
    <glyph glyph-name="plusminus" unicode="&#xb1;" horiz-adv-x="636" 
d="M65 50v58h223v217h-223v59h223v225h61v-225h222v-59h-222v-217h222v-58h-506z" />
    <glyph glyph-name="two.sups" unicode="&#xb2;" horiz-adv-x="446" 
d="M67 279v19q0 54 33 102.5t120 103.5q50 31 70 55.5t20 57.5q0 36 -21 57.5t-61 21.5q-67 0 -107 -81l-48 27q53 108 157 108q65 0 102.5 -36t37.5 -95q0 -48 -27 -84t-95 -77q-104 -66 -114 -124h238v-55h-305z" />
    <glyph glyph-name="three.sups" unicode="&#xb3;" horiz-adv-x="446" 
d="M221 270q-107 0 -165 96l44 32q46 -74 120 -74q46 0 72 23t26 61q0 46 -31 69t-102 23h-26v48h29q121 0 121 77q0 32 -21 51.5t-64 19.5q-60 0 -107 -58l-41 34q63 78 150 78q71 0 107.5 -34.5t36.5 -85.5q0 -80 -78 -105q88 -27 88 -117q0 -60 -43.5 -99t-115.5 -39z
" />
    <glyph glyph-name="acute" unicode="&#xb4;" horiz-adv-x="500" 
d="M169 583l95 156h91l-141 -156h-45z" />
    <glyph glyph-name="uni00B5" unicode="&#xb5;" horiz-adv-x="586" 
d="M149 -200h-69v726h69v-368q0 -56 25 -83t80 -27q86 0 184 91v387h69v-526h-69v86q-96 -92 -189 -95q-70 -2 -100 36v-227z" />
    <glyph glyph-name="paragraph" unicode="&#xb6;" horiz-adv-x="619" 
d="M364 -200h-59v537q-119 2 -181 52.5t-62 147.5q0 90 60.5 146.5t168.5 56.5h236v-940h-59v881h-104v-881z" />
    <glyph glyph-name="periodcentered" unicode="&#xb7;" horiz-adv-x="269" 
d="M134 267q-22 0 -35 14t-13 38t13 38t35 14q23 0 36.5 -14t13.5 -38t-13.5 -38t-36.5 -14z" />
    <glyph glyph-name="cedilla" unicode="&#xb8;" horiz-adv-x="500" 
d="M251 -195q-68 0 -124 37l19 29q45 -30 97 -30q75 0 75 48q0 35 -42 35q-28 0 -53 -20l-28 13l26 83h42l-16 -54q23 15 54 15q30 0 50.5 -18t20.5 -50q0 -44 -34 -66t-87 -22z" />
    <glyph glyph-name="one.sups" unicode="&#xb9;" horiz-adv-x="349" 
d="M224 278h-60v403l-74 -21l-11 50l102 30h43v-462z" />
    <glyph glyph-name="ordmasculine" unicode="&#xba;" horiz-adv-x="429" 
d="M214 369q-72 0 -121 51.5t-49 140.5q0 90 49 141t121 51q73 0 122 -51t49 -141q0 -89 -49 -140.5t-122 -51.5zM214 414q54 0 85 41.5t31 105.5q0 62 -30.5 104.5t-85.5 42.5q-53 0 -84 -41.5t-31 -105.5q0 -62 30 -104.5t85 -42.5z" />
    <glyph glyph-name="guillemotright" unicode="&#xbb;" horiz-adv-x="522" 
d="M130 0h-71l145 264l-145 262h71l149 -262zM328 0h-71l145 264l-145 262h71l149 -262z" />
    <glyph glyph-name="onequarter" unicode="&#xbc;" horiz-adv-x="936" 
d="M205 0l445 740h63l-442 -740h-66zM241 279h-60v393l-69 -15l-23 57l128 25h24v-460zM738 0v111h-215v40l208 312h67v-299h75v-53h-75v-111h-60zM594 163h145v220z" />
    <glyph glyph-name="onehalf" unicode="&#xbd;" horiz-adv-x="975" 
d="M205 0l445 740h63l-442 -740h-66zM241 279h-60v393l-69 -15l-23 57l128 25h24v-460zM594 0v19q0 53 33.5 102t118.5 104q49 30 70 55t21 58q0 35 -22 57.5t-61 22.5q-65 0 -106 -82l-48 27q53 108 157 108q63 0 100.5 -36.5t37.5 -94.5q0 -48 -26 -83.5t-93 -76.5
q-107 -68 -115 -125h237v-55h-304z" />
    <glyph glyph-name="threequarters" unicode="&#xbe;" horiz-adv-x="962" 
d="M254 0l442 740h65l-443 -740h-64zM764 0v111h-213v40l206 312h68v-298h72l5 -54h-77v-111h-61zM221 270q-107 0 -165 96l44 32q46 -74 120 -74q46 0 72 23t26 61q0 46 -31 69t-102 23h-26v48h29q121 0 121 77q0 32 -21 51.5t-64 19.5q-60 0 -107 -58l-41 34q63 78 150 78
q71 0 107.5 -34.5t36.5 -85.5q0 -80 -78 -105q88 -27 88 -117q0 -60 -43.5 -99t-115.5 -39zM620 163h146v220z" />
    <glyph glyph-name="questiondown" unicode="&#xbf;" horiz-adv-x="539" 
d="M298 745q22 0 35 -14.5t13 -38.5q0 -23 -13 -37t-35 -14q-23 0 -36.5 14t-13.5 37q0 24 13.5 38.5t36.5 14.5zM269 539h56q2 -40 2 -66q0 -53 -20 -88t-69 -64q-66 -41 -91 -70t-25 -81q0 -56 40 -88.5t109 -32.5q116 0 190 99l45 -46q-93 -116 -239 -116
q-96 0 -155.5 50t-59.5 130q0 67 32.5 107.5t95.5 77.5q60 35 74.5 68.5t14.5 119.5z" />
    <glyph glyph-name="Agrave" unicode="&#xc0;" horiz-adv-x="672" 
d="M315 786l-141 156h91l95 -156h-45zM105 0h-69l262 743h76l261 -737l-70 -12l-81 234h-300zM333 659l-127 -368h256l-127 368h-2z" />
    <glyph glyph-name="Aacute" unicode="&#xc1;" horiz-adv-x="672" 
d="M313 786l95 156h91l-141 -156h-45zM105 0h-69l262 743h76l261 -737l-70 -12l-81 234h-300zM333 659l-127 -368h256l-127 368h-2z" />
    <glyph glyph-name="Acircumflex" unicode="&#xc2;" horiz-adv-x="672" 
d="M181 783l129 159h52l129 -159h-44l-112 98l-112 -98h-42zM105 0h-69l262 743h76l261 -737l-70 -12l-81 234h-300zM333 659l-127 -368h256l-127 368h-2z" />
    <glyph glyph-name="Atilde" unicode="&#xc3;" horiz-adv-x="672" 
d="M411 783q-30 0 -79.5 28t-68.5 28q-22 0 -31.5 -13.5t-8.5 -44.5l-44 8q0 106 84 106q30 0 79.5 -28t68.5 -28q22 0 31.5 13.5t9.5 44.5l43 -8q0 -106 -84 -106zM105 0h-69l262 743h76l261 -737l-70 -12l-81 234h-300zM333 659l-127 -368h256l-127 368h-2z" />
    <glyph glyph-name="Adieresis" unicode="&#xc4;" horiz-adv-x="672" 
d="M423 780q-20 0 -31.5 13.5t-11.5 35.5q0 21 12 34t31 13q21 0 32.5 -13t11.5 -34q0 -23 -11.5 -36t-32.5 -13zM247 780q-20 0 -31.5 13t-11.5 36q0 21 11.5 34t31.5 13t31.5 -13t11.5 -34q0 -23 -11.5 -36t-31.5 -13zM105 0h-69l262 743h76l261 -737l-70 -12l-81 234
h-300zM333 659l-127 -368h256l-127 368h-2z" />
    <glyph glyph-name="Aring" unicode="&#xc5;" horiz-adv-x="672" 
d="M36 0l255 723q-46 23 -46 78q0 39 26 65t65 26t65 -26t26 -65q0 -54 -46 -77l254 -718l-70 -12l-81 234h-300l-79 -228h-69zM336 745q23 0 38 15.5t15 40.5q0 24 -15 39.5t-38 15.5t-38.5 -15.5t-15.5 -39.5q0 -25 15.5 -40.5t38.5 -15.5zM206 291h256l-127 368h-2z" />
    <glyph glyph-name="AE" unicode="&#xc6;" horiz-adv-x="996" 
d="M486 683l-216 -383h217v383h-1zM99 0h-72l421 740h481v-66h-371v-251h271l11 -64h-282v-294h392v-65h-463v237h-254z" />
    <glyph glyph-name="Ccedilla" unicode="&#xc7;" horiz-adv-x="697" 
d="M376 -195q-68 0 -124 37l19 29q45 -30 97 -30q75 0 75 48q0 35 -42 35q-28 0 -53 -20l-28 13l22 70q-129 10 -206 114.5t-77 271.5q0 168 84.5 274.5t221.5 106.5q183 0 254 -163l-61 -32q-55 130 -193 130q-107 0 -171 -86t-64 -228q0 -152 64 -238.5t174 -86.5
q148 0 206 148l61 -28q-67 -175 -251 -184l-12 -40q23 15 54 15q30 0 50.5 -18t20.5 -50q0 -44 -34 -66t-87 -22z" />
    <glyph glyph-name="Egrave" unicode="&#xc8;" horiz-adv-x="604" 
d="M315 786l-141 156h91l95 -156h-45zM558 0h-463v740h442v-66h-371v-251h277l11 -64h-288v-294h392v-65z" />
    <glyph glyph-name="Eacute" unicode="&#xc9;" horiz-adv-x="604" 
d="M272 786l95 156h91l-141 -156h-45zM558 0h-463v740h442v-66h-371v-251h277l11 -64h-288v-294h392v-65z" />
    <glyph glyph-name="Ecircumflex" unicode="&#xca;" horiz-adv-x="604" 
d="M160 783l129 159h52l129 -159h-44l-112 98l-112 -98h-42zM558 0h-463v740h442v-66h-371v-251h277l11 -64h-288v-294h392v-65z" />
    <glyph glyph-name="Edieresis" unicode="&#xcb;" horiz-adv-x="604" 
d="M408 780q-20 0 -31.5 13.5t-11.5 35.5q0 21 12 34t31 13q21 0 32.5 -13t11.5 -34q0 -23 -11.5 -36t-32.5 -13zM232 780q-20 0 -31.5 13t-11.5 36q0 21 11.5 34t31.5 13t31.5 -13t11.5 -34q0 -23 -11.5 -36t-31.5 -13zM558 0h-463v740h442v-66h-371v-251h277l11 -64h-288
v-294h392v-65z" />
    <glyph glyph-name="Igrave" unicode="&#xcc;" horiz-adv-x="281" 
d="M127 786l-141 156h91l95 -156h-45zM176 0h-71v740h71v-740z" />
    <glyph glyph-name="Iacute" unicode="&#xcd;" horiz-adv-x="281" 
d="M120 786l95 156h91l-141 -156h-45zM176 0h-71v740h71v-740z" />
    <glyph glyph-name="Icircumflex" unicode="&#xce;" horiz-adv-x="281" 
d="M-14 783l129 159h52l129 -159h-44l-112 98l-112 -98h-42zM176 0h-71v740h71v-740z" />
    <glyph glyph-name="Idieresis" unicode="&#xcf;" horiz-adv-x="281" 
d="M228 780q-20 0 -31.5 13.5t-11.5 35.5q0 21 12 34t31 13q21 0 32.5 -13t11.5 -34q0 -23 -11.5 -36t-32.5 -13zM52 780q-20 0 -31.5 13t-11.5 36q0 21 11.5 34t31.5 13t31.5 -13t11.5 -34q0 -23 -11.5 -36t-31.5 -13zM176 0h-71v740h71v-740z" />
    <glyph glyph-name="Eth" unicode="&#xd0;" horiz-adv-x="709" 
d="M282 0h-187v360h-83v60h83v320h187q181 0 274.5 -93.5t93.5 -276.5q0 -181 -95 -275.5t-273 -94.5zM166 360v-296h127q286 0 286 306q0 304 -288 304h-125v-254h159v-60h-159z" />
    <glyph glyph-name="Ntilde" unicode="&#xd1;" horiz-adv-x="743" 
d="M455 783q-30 0 -79.5 28t-68.5 28q-22 0 -31.5 -13.5t-8.5 -44.5l-44 8q0 106 84 106q30 0 79.5 -28t68.5 -28q22 0 31.5 13.5t9.5 44.5l43 -8q0 -106 -84 -106zM162 0h-67v740h76l408 -610h2v610h67v-740h-63l-421 629h-2v-629z" />
    <glyph glyph-name="Ograve" unicode="&#xd2;" horiz-adv-x="742" 
d="M358 786l-141 156h91l95 -156h-45zM371 -14q-136 0 -224 106t-88 278t88 278t224 106q135 0 223.5 -106t88.5 -278t-88.5 -278t-223.5 -106zM371 50q107 0 174 86t67 234q0 147 -67 233t-174 86t-174 -86t-67 -233q0 -148 67 -234t174 -86z" />
    <glyph glyph-name="Oacute" unicode="&#xd3;" horiz-adv-x="742" 
d="M335 786l95 156h91l-141 -156h-45zM371 -14q-136 0 -224 106t-88 278t88 278t224 106q135 0 223.5 -106t88.5 -278t-88.5 -278t-223.5 -106zM371 50q107 0 174 86t67 234q0 147 -67 233t-174 86t-174 -86t-67 -233q0 -148 67 -234t174 -86z" />
    <glyph glyph-name="Ocircumflex" unicode="&#xd4;" horiz-adv-x="742" 
d="M215 783l129 159h52l129 -159h-44l-112 98l-112 -98h-42zM371 -14q-136 0 -224 106t-88 278t88 278t224 106q135 0 223.5 -106t88.5 -278t-88.5 -278t-223.5 -106zM371 50q107 0 174 86t67 234q0 147 -67 233t-174 86t-174 -86t-67 -233q0 -148 67 -234t174 -86z" />
    <glyph glyph-name="Otilde" unicode="&#xd5;" horiz-adv-x="742" 
d="M443 783q-30 0 -79.5 28t-68.5 28q-22 0 -31.5 -13.5t-8.5 -44.5l-44 8q0 106 84 106q30 0 79.5 -28t68.5 -28q22 0 31.5 13.5t9.5 44.5l43 -8q0 -106 -84 -106zM371 -14q-136 0 -224 106t-88 278t88 278t224 106q135 0 223.5 -106t88.5 -278t-88.5 -278t-223.5 -106z
M371 50q107 0 174 86t67 234q0 147 -67 233t-174 86t-174 -86t-67 -233q0 -148 67 -234t174 -86z" />
    <glyph glyph-name="Odieresis" unicode="&#xd6;" horiz-adv-x="742" 
d="M457 780q-20 0 -31.5 13.5t-11.5 35.5q0 21 12 34t31 13q21 0 32.5 -13t11.5 -34q0 -23 -11.5 -36t-32.5 -13zM281 780q-20 0 -31.5 13t-11.5 36q0 21 11.5 34t31.5 13t31.5 -13t11.5 -34q0 -23 -11.5 -36t-31.5 -13zM371 -14q-136 0 -224 106t-88 278t88 278t224 106
q135 0 223.5 -106t88.5 -278t-88.5 -278t-223.5 -106zM371 50q107 0 174 86t67 234q0 147 -67 233t-174 86t-174 -86t-67 -233q0 -148 67 -234t174 -86z" />
    <glyph glyph-name="multiply" unicode="&#xd7;" horiz-adv-x="636" 
d="M317 276l-172 -173l-41 42l172 171l-172 173l41 41l172 -173l172 173l42 -41l-173 -173l173 -171l-41 -41z" />
    <glyph glyph-name="Oslash" unicode="&#xd8;" horiz-adv-x="742" 
d="M181 159l351 461q-65 70 -161 70q-107 0 -174.5 -85.5t-67.5 -234.5q0 -127 52 -211zM562 580l-352 -460q63 -71 161 -71q107 0 174 86t67 235q0 127 -50 210zM678 728l-72 -93q77 -104 77 -265q0 -172 -87.5 -278t-224.5 -106q-117 0 -200 80l-65 -84l-42 30l71 93
q-76 105 -76 265q0 172 87.5 278t224.5 106q117 0 200 -80l65 84z" />
    <glyph glyph-name="Ugrave" unicode="&#xd9;" horiz-adv-x="715" 
d="M350 786l-141 156h91l95 -156h-45zM357 -14q-130 0 -199.5 74.5t-69.5 189.5v490h71v-480q0 -94 50 -151.5t149 -57.5t148.5 56.5t49.5 150.5v482h71v-488q0 -116 -70 -191t-200 -75z" />
    <glyph glyph-name="Uacute" unicode="&#xda;" horiz-adv-x="715" 
d="M312 786l95 156h91l-141 -156h-45zM357 -14q-130 0 -199.5 74.5t-69.5 189.5v490h71v-480q0 -94 50 -151.5t149 -57.5t148.5 56.5t49.5 150.5v482h71v-488q0 -116 -70 -191t-200 -75z" />
    <glyph glyph-name="Ucircumflex" unicode="&#xdb;" horiz-adv-x="715" 
d="M202 783l129 159h52l129 -159h-44l-112 98l-112 -98h-42zM357 -14q-130 0 -199.5 74.5t-69.5 189.5v490h71v-480q0 -94 50 -151.5t149 -57.5t148.5 56.5t49.5 150.5v482h71v-488q0 -116 -70 -191t-200 -75z" />
    <glyph glyph-name="Udieresis" unicode="&#xdc;" horiz-adv-x="715" 
d="M444 780q-20 0 -31.5 13.5t-11.5 35.5q0 21 12 34t31 13q21 0 32.5 -13t11.5 -34q0 -23 -11.5 -36t-32.5 -13zM268 780q-20 0 -31.5 13t-11.5 36q0 21 11.5 34t31.5 13t31.5 -13t11.5 -34q0 -23 -11.5 -36t-31.5 -13zM357 -14q-130 0 -199.5 74.5t-69.5 189.5v490h71
v-480q0 -94 50 -151.5t149 -57.5t148.5 56.5t49.5 150.5v482h71v-488q0 -116 -70 -191t-200 -75z" />
    <glyph glyph-name="Yacute" unicode="&#xdd;" horiz-adv-x="618" 
d="M259 786l95 156h91l-141 -156h-45zM344 0h-71v326l-244 408l69 12l212 -359l208 353h74l-248 -414v-326z" />
    <glyph glyph-name="Thorn" unicode="&#xde;" horiz-adv-x="647" 
d="M166 0h-71v740h71v-141h174q124 0 192 -50.5t68 -151.5q0 -108 -71.5 -159.5t-195.5 -51.5h-167v-186zM166 534v-284h171q96 0 143.5 34t47.5 111q0 73 -48 106t-144 33h-170z" />
    <glyph glyph-name="germandbls" unicode="&#xdf;" horiz-adv-x="613" 
d="M371 -11q-81 0 -135 39l22 54q51 -36 112 -36q57 0 92 43t35 116q0 91 -59.5 132.5t-176.5 46.5v53q85 1 127 36.5t42 92.5q0 54 -37 84.5t-101 30.5q-69 0 -106.5 -41.5t-37.5 -119.5v-520h-68v516q0 107 56 165.5t156 58.5q94 0 149.5 -45t55.5 -126q0 -56 -33.5 -97
t-94.5 -57q87 -12 140.5 -62.5t53.5 -144.5q0 -100 -52 -159.5t-140 -59.5z" />
    <glyph glyph-name="agrave" unicode="&#xe0;" horiz-adv-x="547" 
d="M279 583l-141 156h91l95 -156h-45zM212 48q107 0 193 83v164q-164 -28 -226.5 -67.5t-62.5 -95.5q0 -41 25 -62.5t71 -21.5zM197 -9q-70 0 -109.5 35.5t-39.5 97.5q0 82 82 136t275 84v27q0 108 -108 108q-102 0 -195 -83l-39 43q106 98 239 98q86 0 128.5 -43.5
t42.5 -124.5v-369h-61l-7 75q-95 -84 -208 -84z" />
    <glyph glyph-name="aacute" unicode="&#xe1;" horiz-adv-x="547" 
d="M244 583l95 156h91l-141 -156h-45zM212 48q107 0 193 83v164q-164 -28 -226.5 -67.5t-62.5 -95.5q0 -41 25 -62.5t71 -21.5zM197 -9q-70 0 -109.5 35.5t-39.5 97.5q0 82 82 136t275 84v27q0 108 -108 108q-102 0 -195 -83l-39 43q106 98 239 98q86 0 128.5 -43.5
t42.5 -124.5v-369h-61l-7 75q-95 -84 -208 -84z" />
    <glyph glyph-name="acircumflex" unicode="&#xe2;" horiz-adv-x="547" 
d="M125 580l129 159h52l129 -159h-44l-112 98l-112 -98h-42zM212 48q107 0 193 83v164q-164 -28 -226.5 -67.5t-62.5 -95.5q0 -41 25 -62.5t71 -21.5zM197 -9q-70 0 -109.5 35.5t-39.5 97.5q0 82 82 136t275 84v27q0 108 -108 108q-102 0 -195 -83l-39 43q106 98 239 98
q86 0 128.5 -43.5t42.5 -124.5v-369h-61l-7 75q-95 -84 -208 -84z" />
    <glyph glyph-name="atilde" unicode="&#xe3;" horiz-adv-x="547" 
d="M352 580q-30 0 -79.5 28t-68.5 28q-22 0 -31.5 -13.5t-8.5 -44.5l-44 8q0 106 84 106q30 0 79.5 -28t68.5 -28q22 0 31.5 13.5t9.5 44.5l43 -8q0 -106 -84 -106zM212 48q107 0 193 83v164q-164 -28 -226.5 -67.5t-62.5 -95.5q0 -41 25 -62.5t71 -21.5zM197 -9
q-70 0 -109.5 35.5t-39.5 97.5q0 82 82 136t275 84v27q0 108 -108 108q-102 0 -195 -83l-39 43q106 98 239 98q86 0 128.5 -43.5t42.5 -124.5v-369h-61l-7 75q-95 -84 -208 -84z" />
    <glyph glyph-name="adieresis" unicode="&#xe4;" horiz-adv-x="547" 
d="M373 577q-20 0 -31.5 13.5t-11.5 35.5q0 21 12 34t31 13q21 0 32.5 -13t11.5 -34q0 -23 -11.5 -36t-32.5 -13zM197 577q-20 0 -31.5 13t-11.5 36q0 21 11.5 34t31.5 13t31.5 -13t11.5 -34q0 -23 -11.5 -36t-31.5 -13zM212 48q107 0 193 83v164q-164 -28 -226.5 -67.5
t-62.5 -95.5q0 -41 25 -62.5t71 -21.5zM197 -9q-70 0 -109.5 35.5t-39.5 97.5q0 82 82 136t275 84v27q0 108 -108 108q-102 0 -195 -83l-39 43q106 98 239 98q86 0 128.5 -43.5t42.5 -124.5v-369h-61l-7 75q-95 -84 -208 -84z" />
    <glyph glyph-name="aring" unicode="&#xe5;" horiz-adv-x="547" 
d="M288 576q-40 0 -65.5 26t-25.5 65t25.5 65t65.5 26t65.5 -26t25.5 -65t-25.5 -65t-65.5 -26zM288 611q23 0 38 15.5t15 40.5q0 24 -15 40t-38 16t-38 -16t-15 -40q0 -25 15 -40.5t38 -15.5zM212 48q107 0 193 83v164q-164 -28 -226.5 -67.5t-62.5 -95.5q0 -41 25 -62.5
t71 -21.5zM197 -9q-70 0 -109.5 35.5t-39.5 97.5q0 82 82 136t275 84v27q0 108 -108 108q-102 0 -195 -83l-39 43q106 98 239 98q86 0 128.5 -43.5t42.5 -124.5v-369h-61l-7 75q-95 -84 -208 -84z" />
    <glyph glyph-name="ae" unicode="&#xe6;" horiz-adv-x="894" 
d="M197 -11q-70 0 -109.5 35t-39.5 97q0 83 81.5 138.5t273.5 84.5v27q0 108 -105 108q-58 0 -103.5 -21t-92.5 -62l-39 43q106 98 240 98q126 0 150 -108q27 48 73 78t103 30q96 0 155.5 -71.5t59.5 -202.5v-11h-376q1 -96 50 -150.5t124 -54.5q87 0 164 79l34 -46
q-47 -47 -94 -69t-109 -22q-63 0 -116 29.5t-84 85.5q-110 -115 -240 -115zM469 305h307q-6 78 -43 126t-105 48q-60 0 -105 -45t-54 -129zM212 46q110 0 207 101q-17 48 -17 110q-1 14 1 38q-164 -27 -225.5 -67.5t-61.5 -98.5q0 -40 25.5 -61.5t70.5 -21.5z" />
    <glyph glyph-name="ccedilla" unicode="&#xe7;" horiz-adv-x="533" 
d="M277 -195q-68 0 -124 37l19 29q45 -30 97 -30q75 0 75 48q0 35 -42 35q-28 0 -53 -20l-28 13l23 75q-84 13 -139 84.5t-55 186.5q0 133 69 203.5t166 70.5q132 0 194 -125l-54 -33q-24 50 -57 75t-85 25q-67 0 -115.5 -53.5t-48.5 -162.5q0 -99 46 -157.5t117 -58.5
q52 0 86 25t61 78l51 -33q-66 -125 -194 -128l-13 -43q23 15 54 15q30 0 50.5 -18t20.5 -50q0 -44 -34 -66t-87 -22z" />
    <glyph glyph-name="egrave" unicode="&#xe8;" horiz-adv-x="546" 
d="M264 583l-141 156h91l95 -156h-45zM291 -11q-104 0 -172.5 72.5t-68.5 202.5t69.5 201.5t161.5 71.5q95 0 155 -71.5t60 -202.5v-13h-377q1 -94 49 -148.5t124 -54.5q94 0 169 78l34 -45q-45 -47 -92.5 -69t-111.5 -22zM120 304h309q-6 79 -43.5 127t-105.5 48
q-61 0 -106 -45.5t-54 -129.5z" />
    <glyph glyph-name="eacute" unicode="&#xe9;" horiz-adv-x="546" 
d="M245 583l95 156h91l-141 -156h-45zM291 -11q-104 0 -172.5 72.5t-68.5 202.5t69.5 201.5t161.5 71.5q95 0 155 -71.5t60 -202.5v-13h-377q1 -94 49 -148.5t124 -54.5q94 0 169 78l34 -45q-45 -47 -92.5 -69t-111.5 -22zM120 304h309q-6 79 -43.5 127t-105.5 48
q-61 0 -106 -45.5t-54 -129.5z" />
    <glyph glyph-name="ecircumflex" unicode="&#xea;" horiz-adv-x="546" 
d="M125 580l129 159h52l129 -159h-44l-112 98l-112 -98h-42zM291 -11q-104 0 -172.5 72.5t-68.5 202.5t69.5 201.5t161.5 71.5q95 0 155 -71.5t60 -202.5v-13h-377q1 -94 49 -148.5t124 -54.5q94 0 169 78l34 -45q-45 -47 -92.5 -69t-111.5 -22zM120 304h309
q-6 79 -43.5 127t-105.5 48q-61 0 -106 -45.5t-54 -129.5z" />
    <glyph glyph-name="edieresis" unicode="&#xeb;" horiz-adv-x="546" 
d="M364 577q-20 0 -31.5 13.5t-11.5 35.5q0 21 12 34t31 13q21 0 32.5 -13t11.5 -34q0 -23 -11.5 -36t-32.5 -13zM188 577q-20 0 -31.5 13t-11.5 36q0 21 11.5 34t31.5 13t31.5 -13t11.5 -34q0 -23 -11.5 -36t-31.5 -13zM291 -11q-104 0 -172.5 72.5t-68.5 202.5t69.5 201.5
t161.5 71.5q95 0 155 -71.5t60 -202.5v-13h-377q1 -94 49 -148.5t124 -54.5q94 0 169 78l34 -45q-45 -47 -92.5 -69t-111.5 -22zM120 304h309q-6 79 -43.5 127t-105.5 48q-61 0 -106 -45.5t-54 -129.5z" />
    <glyph glyph-name="igrave" unicode="&#xec;" horiz-adv-x="240" 
d="M109 583l-141 156h91l95 -156h-45zM155 0h-69v526h69v-526z" />
    <glyph glyph-name="iacute" unicode="&#xed;" horiz-adv-x="240" 
d="M103 583l95 156h91l-141 -156h-45zM155 0h-69v526h69v-526z" />
    <glyph glyph-name="icircumflex" unicode="&#xee;" horiz-adv-x="240" 
d="M-35 580l129 159h52l129 -159h-44l-112 98l-112 -98h-42zM155 0h-69v526h69v-526z" />
    <glyph glyph-name="idieresis" unicode="&#xef;" horiz-adv-x="240" 
d="M207 577q-20 0 -31.5 13.5t-11.5 35.5q0 21 12 34t31 13q21 0 32.5 -13t11.5 -34q0 -23 -11.5 -36t-32.5 -13zM31 577q-20 0 -31.5 13t-11.5 36q0 21 11.5 34t31.5 13t31.5 -13t11.5 -34q0 -23 -11.5 -36t-31.5 -13zM155 0h-69v526h69v-526z" />
    <glyph glyph-name="eth" unicode="&#xf0;" horiz-adv-x="577" 
d="M289 -11q-104 0 -171.5 73.5t-67.5 195.5t65.5 191.5t165.5 69.5q49 0 94 -25.5t73 -66.5q-27 106 -92 178l-109 -42l-21 48l92 34q-31 29 -77 57l33 45q58 -32 104 -75l100 38l21 -48l-83 -32q111 -134 111 -368q0 -124 -67.5 -198.5t-170.5 -74.5zM289 47
q77 0 123 58.5t46 153.5q0 88 -45.5 145.5t-123.5 57.5t-124 -55.5t-46 -147.5q0 -91 45 -151.5t125 -60.5z" />
    <glyph glyph-name="ntilde" unicode="&#xf1;" horiz-adv-x="581" 
d="M372 580q-30 0 -79.5 28t-68.5 28q-22 0 -31.5 -13.5t-8.5 -44.5l-44 8q0 106 84 106q30 0 79.5 -28t68.5 -28q22 0 31.5 13.5t9.5 44.5l43 -8q0 -106 -84 -106zM149 0h-69v526h62l7 -83q94 94 199 94q78 0 118.5 -40.5t40.5 -114.5v-382h-69v368q0 111 -106 111
q-88 0 -183 -92v-387z" />
    <glyph glyph-name="ograve" unicode="&#xf2;" horiz-adv-x="577" 
d="M275 583l-141 156h91l95 -156h-45zM289 -11q-101 0 -170 73.5t-69 200.5t68.5 200.5t170.5 73.5q101 0 169.5 -73.5t68.5 -200.5t-68.5 -200.5t-169.5 -73.5zM289 48q78 0 123.5 60t45.5 155q0 92 -44.5 153.5t-124.5 61.5q-79 0 -124.5 -60t-45.5 -155q0 -93 44.5 -154
t125.5 -61z" />
    <glyph glyph-name="oacute" unicode="&#xf3;" horiz-adv-x="577" 
d="M254 583l95 156h91l-141 -156h-45zM289 -11q-101 0 -170 73.5t-69 200.5t68.5 200.5t170.5 73.5q101 0 169.5 -73.5t68.5 -200.5t-68.5 -200.5t-169.5 -73.5zM289 48q78 0 123.5 60t45.5 155q0 92 -44.5 153.5t-124.5 61.5q-79 0 -124.5 -60t-45.5 -155q0 -93 44.5 -154
t125.5 -61z" />
    <glyph glyph-name="ocircumflex" unicode="&#xf4;" horiz-adv-x="577" 
d="M134 580l129 159h52l129 -159h-44l-112 98l-112 -98h-42zM289 -11q-101 0 -170 73.5t-69 200.5t68.5 200.5t170.5 73.5q101 0 169.5 -73.5t68.5 -200.5t-68.5 -200.5t-169.5 -73.5zM289 48q78 0 123.5 60t45.5 155q0 92 -44.5 153.5t-124.5 61.5q-79 0 -124.5 -60
t-45.5 -155q0 -93 44.5 -154t125.5 -61z" />
    <glyph glyph-name="otilde" unicode="&#xf5;" horiz-adv-x="577" 
d="M364 580q-30 0 -79.5 28t-68.5 28q-22 0 -31.5 -13.5t-8.5 -44.5l-44 8q0 106 84 106q30 0 79.5 -28t68.5 -28q22 0 31.5 13.5t9.5 44.5l43 -8q0 -106 -84 -106zM289 -11q-101 0 -170 73.5t-69 200.5t68.5 200.5t170.5 73.5q101 0 169.5 -73.5t68.5 -200.5t-68.5 -200.5
t-169.5 -73.5zM289 48q78 0 123.5 60t45.5 155q0 92 -44.5 153.5t-124.5 61.5q-79 0 -124.5 -60t-45.5 -155q0 -93 44.5 -154t125.5 -61z" />
    <glyph glyph-name="odieresis" unicode="&#xf6;" horiz-adv-x="577" 
d="M375 577q-20 0 -31.5 13.5t-11.5 35.5q0 21 12 34t31 13q21 0 32.5 -13t11.5 -34q0 -23 -11.5 -36t-32.5 -13zM199 577q-20 0 -31.5 13t-11.5 36q0 21 11.5 34t31.5 13t31.5 -13t11.5 -34q0 -23 -11.5 -36t-31.5 -13zM289 -11q-101 0 -170 73.5t-69 200.5t68.5 200.5
t170.5 73.5q101 0 169.5 -73.5t68.5 -200.5t-68.5 -200.5t-169.5 -73.5zM289 48q78 0 123.5 60t45.5 155q0 92 -44.5 153.5t-124.5 61.5q-79 0 -124.5 -60t-45.5 -155q0 -93 44.5 -154t125.5 -61z" />
    <glyph glyph-name="divide" unicode="&#xf7;" horiz-adv-x="636" 
d="M315 456q-21 0 -33 13t-12 36t12 36t33 13t34 -13.5t13 -35.5t-13 -35.5t-34 -13.5zM571 299h-506v60h506v-60zM315 101q-21 0 -33 13.5t-12 36.5t12 36t33 13t34 -13.5t13 -35.5q0 -23 -13 -36.5t-34 -13.5z" />
    <glyph glyph-name="oslash" unicode="&#xf8;" horiz-adv-x="577" 
d="M157 119l235 323q-42 37 -103 37q-79 0 -125 -60t-46 -155q0 -88 39 -145zM421 406l-235 -322q41 -38 103 -38q78 0 124 60.5t46 157.5q0 84 -38 142zM517 529l-53 -70q63 -76 63 -196q0 -127 -68.5 -200.5t-169.5 -73.5q-78 0 -139 45l-51 -67l-37 29l53 71
q-65 75 -65 196q0 127 68.5 200.5t170.5 73.5q79 0 139 -45l50 68z" />
    <glyph glyph-name="ugrave" unicode="&#xf9;" horiz-adv-x="581" 
d="M280 583l-141 156h91l95 -156h-45zM233 -11q-78 0 -118 40.5t-40 114.5v382h69v-368q0 -56 25 -83t80 -27q85 0 184 92v386h69v-526h-62l-7 83q-98 -94 -200 -94z" />
    <glyph glyph-name="uacute" unicode="&#xfa;" horiz-adv-x="581" 
d="M253 583l95 156h91l-141 -156h-45zM233 -11q-78 0 -118 40.5t-40 114.5v382h69v-368q0 -56 25 -83t80 -27q85 0 184 92v386h69v-526h-62l-7 83q-98 -94 -200 -94z" />
    <glyph glyph-name="ucircumflex" unicode="&#xfb;" horiz-adv-x="581" 
d="M133 580l129 159h52l129 -159h-44l-112 98l-112 -98h-42zM233 -11q-78 0 -118 40.5t-40 114.5v382h69v-368q0 -56 25 -83t80 -27q85 0 184 92v386h69v-526h-62l-7 83q-98 -94 -200 -94z" />
    <glyph glyph-name="udieresis" unicode="&#xfc;" horiz-adv-x="581" 
d="M377 577q-20 0 -31.5 13.5t-11.5 35.5q0 21 12 34t31 13q21 0 32.5 -13t11.5 -34q0 -23 -11.5 -36t-32.5 -13zM201 577q-20 0 -31.5 13t-11.5 36q0 21 11.5 34t31.5 13t31.5 -13t11.5 -34q0 -23 -11.5 -36t-31.5 -13zM233 -11q-78 0 -118 40.5t-40 114.5v382h69v-368
q0 -56 25 -83t80 -27q85 0 184 92v386h69v-526h-62l-7 83q-98 -94 -200 -94z" />
    <glyph glyph-name="yacute" unicode="&#xfd;" horiz-adv-x="527" 
d="M229 583l95 156h91l-141 -156h-45zM98 -201q-43 0 -70 7l-5 60q41 -9 76 -9q42 0 67 19.5t42 62.5l22 58l-201 523l69 13l166 -451h2l163 444h72l-227 -587q-29 -75 -66.5 -107.5t-109.5 -32.5z" />
    <glyph glyph-name="thorn" unicode="&#xfe;" horiz-adv-x="593" 
d="M315 49q70 0 114 53.5t44 160.5q0 104 -45 159.5t-115 55.5q-46 0 -83 -21t-81 -65v-258q83 -85 166 -85zM149 -195l-69 -10v940l69 10v-293q78 85 176 85q96 0 156.5 -70.5t60.5 -202.5t-61.5 -202.5t-157.5 -70.5q-95 0 -174 81v-267z" />
    <glyph glyph-name="ydieresis" unicode="&#xff;" horiz-adv-x="527" 
d="M352 577q-20 0 -31.5 13.5t-11.5 35.5q0 21 12 34t31 13q21 0 32.5 -13t11.5 -34q0 -23 -11.5 -36t-32.5 -13zM176 577q-20 0 -31.5 13t-11.5 36q0 21 11.5 34t31.5 13t31.5 -13t11.5 -34q0 -23 -11.5 -36t-31.5 -13zM98 -201q-43 0 -70 7l-5 60q41 -9 76 -9
q42 0 67 19.5t42 62.5l22 58l-201 523l69 13l166 -451h2l163 444h72l-227 -587q-29 -75 -66.5 -107.5t-109.5 -32.5z" />
    <glyph glyph-name="Amacron" unicode="&#x100;" horiz-adv-x="672" 
d="M209 785v59h254v-59h-254zM105 0h-69l262 743h76l261 -737l-70 -12l-81 234h-300zM333 659l-127 -368h256l-127 368h-2z" />
    <glyph glyph-name="amacron" unicode="&#x101;" horiz-adv-x="547" 
d="M146 582v59h254v-59h-254zM212 48q107 0 193 83v164q-164 -28 -226.5 -67.5t-62.5 -95.5q0 -41 25 -62.5t71 -21.5zM197 -9q-70 0 -109.5 35.5t-39.5 97.5q0 82 82 136t275 84v27q0 108 -108 108q-102 0 -195 -83l-39 43q106 98 239 98q86 0 128.5 -43.5t42.5 -124.5
v-369h-61l-7 75q-95 -84 -208 -84z" />
    <glyph glyph-name="Abreve" unicode="&#x102;" horiz-adv-x="672" 
d="M336 782q-66 0 -106 44t-44 120h44q13 -109 106 -109t106 109h44q-4 -76 -44 -120t-106 -44zM105 0h-69l262 743h76l261 -737l-70 -12l-81 234h-300zM333 659l-127 -368h256l-127 368h-2z" />
    <glyph glyph-name="abreve" unicode="&#x103;" horiz-adv-x="547" 
d="M273 579q-66 0 -106 44t-44 120h44q13 -109 106 -109t106 109h44q-4 -76 -44 -120t-106 -44zM212 48q107 0 193 83v164q-164 -28 -226.5 -67.5t-62.5 -95.5q0 -41 25 -62.5t71 -21.5zM197 -9q-70 0 -109.5 35.5t-39.5 97.5q0 82 82 136t275 84v27q0 108 -108 108
q-102 0 -195 -83l-39 43q106 98 239 98q86 0 128.5 -43.5t42.5 -124.5v-369h-61l-7 75q-95 -84 -208 -84z" />
    <glyph glyph-name="Aogonek" unicode="&#x104;" horiz-adv-x="672" 
d="M574 -187q-43 0 -68 20.5t-25 56.5q0 56 82 111l-79 227h-300l-79 -228h-69l262 743h76l261 -737l-23 -4q-73 -49 -73 -101q0 -48 52 -48q42 0 95 24l15 -26q-66 -38 -127 -38zM333 659l-127 -368h256l-127 368h-2z" />
    <glyph glyph-name="aogonek" unicode="&#x105;" horiz-adv-x="547" 
d="M212 48q107 0 193 83v164q-164 -28 -226.5 -67.5t-62.5 -95.5q0 -41 25 -62.5t71 -21.5zM548 -149q-66 -38 -127 -38q-43 0 -68 20.5t-25 56.5q0 29 24.5 59.5t59.5 52.5l-7 73q-95 -84 -208 -84q-70 0 -109.5 35.5t-39.5 97.5q0 82 82 136t275 84v27q0 108 -108 108
q-102 0 -195 -83l-39 43q106 98 239 98q86 0 128.5 -43.5t42.5 -124.5v-369h-17q-70 -49 -70 -99q0 -48 52 -48q42 0 95 24z" />
    <glyph glyph-name="Cacute" unicode="&#x106;" horiz-adv-x="699" 
d="M306 786l95 156h91l-141 -156h-45zM367 -14q-140 0 -224 106t-84 281q0 168 84.5 274.5t221.5 106.5q183 0 254 -163l-61 -32q-55 130 -193 130q-107 0 -171 -86t-64 -228q0 -152 64 -238.5t174 -86.5q148 0 206 148l61 -28q-34 -88 -102 -136t-166 -48z" />
    <glyph glyph-name="cacute" unicode="&#x107;" horiz-adv-x="531" 
d="M236 583l95 156h91l-141 -156h-45zM278 -11q-95 0 -161.5 74t-66.5 200q0 133 69 203.5t166 70.5q132 0 194 -125l-54 -33q-24 50 -57 75t-85 25q-67 0 -115.5 -53.5t-48.5 -162.5q0 -99 46 -157.5t117 -58.5q52 0 86 25t61 78l51 -33q-67 -128 -202 -128z" />
    <glyph glyph-name="Ccircumflex" unicode="&#x108;" horiz-adv-x="699" 
d="M209 783l129 159h52l129 -159h-44l-112 98l-112 -98h-42zM367 -14q-140 0 -224 106t-84 281q0 168 84.5 274.5t221.5 106.5q183 0 254 -163l-61 -32q-55 130 -193 130q-107 0 -171 -86t-64 -228q0 -152 64 -238.5t174 -86.5q148 0 206 148l61 -28q-34 -88 -102 -136
t-166 -48z" />
    <glyph glyph-name="ccircumflex" unicode="&#x109;" horiz-adv-x="531" 
d="M113 580l129 159h52l129 -159h-44l-112 98l-112 -98h-42zM278 -11q-95 0 -161.5 74t-66.5 200q0 133 69 203.5t166 70.5q132 0 194 -125l-54 -33q-24 50 -57 75t-85 25q-67 0 -115.5 -53.5t-48.5 -162.5q0 -99 46 -157.5t117 -58.5q52 0 86 25t61 78l51 -33
q-67 -128 -202 -128z" />
    <glyph glyph-name="Cdotaccent" unicode="&#x10a;" horiz-adv-x="699" 
d="M364 783q-23 0 -35.5 13.5t-12.5 37.5q0 23 13 36t35 13t35.5 -13.5t13.5 -35.5q0 -24 -13 -37.5t-36 -13.5zM367 -14q-140 0 -224 106t-84 281q0 168 84.5 274.5t221.5 106.5q183 0 254 -163l-61 -32q-55 130 -193 130q-107 0 -171 -86t-64 -228q0 -152 64 -238.5
t174 -86.5q148 0 206 148l61 -28q-34 -88 -102 -136t-166 -48z" />
    <glyph glyph-name="cdotaccent" unicode="&#x10b;" horiz-adv-x="531" 
d="M268 580q-23 0 -35.5 13.5t-12.5 37.5q0 23 13 36t35 13t35.5 -13t13.5 -36q0 -24 -13 -37.5t-36 -13.5zM278 -11q-95 0 -161.5 74t-66.5 200q0 133 69 203.5t166 70.5q132 0 194 -125l-54 -33q-24 50 -57 75t-85 25q-67 0 -115.5 -53.5t-48.5 -162.5q0 -99 46 -157.5
t117 -58.5q52 0 86 25t61 78l51 -33q-67 -128 -202 -128z" />
    <glyph glyph-name="Ccaron" unicode="&#x10c;" horiz-adv-x="699" 
d="M323 787l-129 159h44l112 -99l112 99h42l-129 -159h-52zM367 -14q-140 0 -224 106t-84 281q0 168 84.5 274.5t221.5 106.5q183 0 254 -163l-61 -32q-55 130 -193 130q-107 0 -171 -86t-64 -228q0 -152 64 -238.5t174 -86.5q148 0 206 148l61 -28q-34 -88 -102 -136
t-166 -48z" />
    <glyph glyph-name="ccaron" unicode="&#x10d;" horiz-adv-x="531" 
d="M240 584l-129 159h44l112 -99l112 99h42l-129 -159h-52zM278 -11q-95 0 -161.5 74t-66.5 200q0 133 69 203.5t166 70.5q132 0 194 -125l-54 -33q-24 50 -57 75t-85 25q-67 0 -115.5 -53.5t-48.5 -162.5q0 -99 46 -157.5t117 -58.5q52 0 86 25t61 78l51 -33
q-67 -128 -202 -128z" />
    <glyph glyph-name="Dcaron" unicode="&#x10e;" horiz-adv-x="709" 
d="M315 787l-129 159h44l112 -99l112 99h42l-129 -159h-52zM282 0h-187v740h187q181 0 274.5 -93.5t93.5 -275.5t-94.5 -276.5t-273.5 -94.5zM166 674v-609h127q286 0 286 305q0 304 -288 304h-125z" />
    <glyph glyph-name="dcaron" unicode="&#x10f;" horiz-adv-x="593" 
d="M607 568h-39l24 189h84zM280 50q46 0 83.5 21t80.5 65v257q-84 86 -166 86q-69 0 -113.5 -54.5t-44.5 -161.5q0 -104 45 -158.5t115 -54.5zM268 -9q-96 0 -156.5 69.5t-60.5 201.5q0 133 61.5 204t157.5 71q103 0 174 -83v281l69 10v-745h-62l-7 76q-78 -85 -176 -85z
" />
    <glyph glyph-name="Dcroat" unicode="&#x110;" horiz-adv-x="709" 
d="M282 0h-187v360h-83v60h83v320h187q181 0 274.5 -93.5t93.5 -276.5q0 -181 -95 -275.5t-273 -94.5zM166 360v-296h127q286 0 286 306q0 304 -288 304h-125v-254h159v-60h-159z" />
    <glyph glyph-name="dcroat" unicode="&#x111;" horiz-adv-x="593" 
d="M280 48q46 0 83.5 21t80.5 65v259q-84 86 -166 86q-69 0 -113.5 -54.5t-44.5 -161.5q0 -105 45 -160t115 -55zM444 79q-81 -88 -176 -88q-96 0 -156.5 69.5t-60.5 201.5q0 133 61.5 204t157.5 71q101 0 174 -86v151h-110v53h110v80l69 10v-90h87v-53h-87v-602h-62z" />
    <glyph glyph-name="Emacron" unicode="&#x112;" horiz-adv-x="604" 
d="M194 785v59h254v-59h-254zM558 0h-463v740h442v-66h-371v-251h277l11 -64h-288v-294h392v-65z" />
    <glyph glyph-name="emacron" unicode="&#x113;" horiz-adv-x="546" 
d="M145 582v59h254v-59h-254zM291 -11q-104 0 -172.5 72.5t-68.5 202.5t69.5 201.5t161.5 71.5q95 0 155 -71.5t60 -202.5v-13h-377q1 -94 49 -148.5t124 -54.5q94 0 169 78l34 -45q-45 -47 -92.5 -69t-111.5 -22zM120 304h309q-6 79 -43.5 127t-105.5 48q-61 0 -106 -45.5
t-54 -129.5z" />
    <glyph glyph-name="Ebreve" unicode="&#x114;" horiz-adv-x="604" 
d="M303 780q-66 0 -106 44t-44 120h44q13 -109 106 -109t106 109h44q-4 -76 -44 -120t-106 -44zM558 0h-463v740h442v-66h-371v-251h277l11 -64h-288v-294h392v-65z" />
    <glyph glyph-name="ebreve" unicode="&#x115;" horiz-adv-x="546" 
d="M274 579q-66 0 -106 44t-44 120h44q13 -109 106 -109t106 109h44q-4 -76 -44 -120t-106 -44zM291 -11q-104 0 -172.5 72.5t-68.5 202.5t69.5 201.5t161.5 71.5q95 0 155 -71.5t60 -202.5v-13h-377q1 -94 49 -148.5t124 -54.5q94 0 169 78l34 -45q-45 -47 -92.5 -69
t-111.5 -22zM120 304h309q-6 79 -43.5 127t-105.5 48q-61 0 -106 -45.5t-54 -129.5z" />
    <glyph glyph-name="Edotaccent" unicode="&#x116;" horiz-adv-x="604" 
d="M321 783q-23 0 -35.5 13.5t-12.5 37.5q0 23 13 36t35 13q23 0 36 -13.5t13 -35.5q0 -24 -13 -37.5t-36 -13.5zM558 0h-463v740h442v-66h-371v-251h277l11 -64h-288v-294h392v-65z" />
    <glyph glyph-name="edotaccent" unicode="&#x117;" horiz-adv-x="546" 
d="M272 580q-23 0 -35.5 13.5t-12.5 37.5q0 23 13 36t35 13t35.5 -13t13.5 -36q0 -24 -13 -37.5t-36 -13.5zM291 -11q-104 0 -172.5 72.5t-68.5 202.5t69.5 201.5t161.5 71.5q95 0 155 -71.5t60 -202.5v-13h-377q1 -94 49 -148.5t124 -54.5q94 0 169 78l34 -45
q-45 -47 -92.5 -69t-111.5 -22zM120 304h309q-6 79 -43.5 127t-105.5 48q-61 0 -106 -45.5t-54 -129.5z" />
    <glyph glyph-name="Eogonek" unicode="&#x118;" horiz-adv-x="604" 
d="M571 -149q-66 -38 -127 -38q-43 0 -68 20.5t-25 56.5q0 55 80 110h-336v740h442v-66h-371v-251h277l11 -64h-288v-294h392v-65h-79q-70 -49 -70 -99q0 -48 52 -48q42 0 95 24z" />
    <glyph glyph-name="eogonek" unicode="&#x119;" horiz-adv-x="546" 
d="M306 -187q-43 0 -68 20.5t-25 56.5q0 50 65 99q-100 5 -164 77t-64 198q0 130 69.5 201.5t161.5 71.5q95 0 155 -71.5t60 -202.5v-13h-377q1 -94 49 -148.5t124 -54.5q94 0 169 78l34 -45q-73 -78 -166 -89q-58 -44 -58 -90q0 -48 52 -48q42 0 95 24l15 -26
q-66 -38 -127 -38zM120 304h309q-6 79 -43.5 127t-105.5 48q-61 0 -106 -45.5t-54 -129.5z" />
    <glyph glyph-name="Ecaron" unicode="&#x11a;" horiz-adv-x="604" 
d="M295 787l-129 159h44l112 -99l112 99h42l-129 -159h-52zM558 0h-463v740h442v-66h-371v-251h277l11 -64h-288v-294h392v-65z" />
    <glyph glyph-name="ecaron" unicode="&#x11b;" horiz-adv-x="546" 
d="M247 584l-129 159h44l112 -99l112 99h42l-129 -159h-52zM291 -11q-104 0 -172.5 72.5t-68.5 202.5t69.5 201.5t161.5 71.5q95 0 155 -71.5t60 -202.5v-13h-377q1 -94 49 -148.5t124 -54.5q94 0 169 78l34 -45q-45 -47 -92.5 -69t-111.5 -22zM120 304h309q-6 79 -43.5 127
t-105.5 48q-61 0 -106 -45.5t-54 -129.5z" />
    <glyph glyph-name="Gcircumflex" unicode="&#x11c;" horiz-adv-x="723" 
d="M212 783l129 159h52l129 -159h-44l-112 98l-112 -98h-42zM363 -14q-141 0 -222.5 108.5t-81.5 278.5q0 172 86.5 276.5t222.5 104.5q183 0 254 -173l-63 -30q-53 138 -191 138q-102 0 -170 -82.5t-68 -230.5q0 -152 65.5 -239t173.5 -87q94 0 150 63.5t55 173.5h-174
l-11 61h254v-348h-64v107h-2q-62 -121 -214 -121z" />
    <glyph glyph-name="gcircumflex" unicode="&#x11d;" horiz-adv-x="566" 
d="M110 580l129 159h52l129 -159h-44l-112 98l-112 -98h-42zM265 213q64 0 102.5 36t38.5 97q0 63 -37.5 99.5t-104.5 36.5q-65 0 -103 -37t-38 -99q0 -61 38.5 -97t103.5 -36zM272 -202q-125 0 -187.5 34.5t-62.5 97.5q0 82 97 120q-47 19 -47 67q0 45 64 79
q-80 51 -80 151q0 83 59 136.5t149 53.5q91 0 150 -54q55 40 116 48l10 -65q-57 0 -100 -18q31 -42 31 -101q0 -85 -58.5 -136t-148.5 -51q-46 0 -85 15q-42 -17 -42 -45q0 -17 17.5 -26.5t60.5 -13.5l115 -9q186 -15 186 -134q0 -71 -67 -110t-177 -39zM279 -148
q80 0 126.5 24.5t46.5 64.5q0 38 -33.5 57.5t-110.5 25.5l-105 8l-27 3q-43 -14 -65.5 -39.5t-22.5 -56.5q0 -87 191 -87z" />
    <glyph glyph-name="Gbreve" unicode="&#x11e;" horiz-adv-x="723" 
d="M361 782q-66 0 -106 44t-44 120h44q13 -109 106 -109t106 109h44q-4 -76 -44 -120t-106 -44zM363 -14q-141 0 -222.5 108.5t-81.5 278.5q0 172 86.5 276.5t222.5 104.5q183 0 254 -173l-63 -30q-53 138 -191 138q-102 0 -170 -82.5t-68 -230.5q0 -152 65.5 -239
t173.5 -87q94 0 150 63.5t55 173.5h-174l-11 61h254v-348h-64v107h-2q-62 -121 -214 -121z" />
    <glyph glyph-name="gbreve" unicode="&#x11f;" horiz-adv-x="566" 
d="M274 579q-66 0 -106 44t-44 120h44q13 -109 106 -109t106 109h44q-4 -76 -44 -120t-106 -44zM265 213q64 0 102.5 36t38.5 97q0 63 -37.5 99.5t-104.5 36.5q-65 0 -103 -37t-38 -99q0 -61 38.5 -97t103.5 -36zM272 -202q-125 0 -187.5 34.5t-62.5 97.5q0 82 97 120
q-47 19 -47 67q0 45 64 79q-80 51 -80 151q0 83 59 136.5t149 53.5q91 0 150 -54q55 40 116 48l10 -65q-57 0 -100 -18q31 -42 31 -101q0 -85 -58.5 -136t-148.5 -51q-46 0 -85 15q-42 -17 -42 -45q0 -17 17.5 -26.5t60.5 -13.5l115 -9q186 -15 186 -134q0 -71 -67 -110
t-177 -39zM279 -148q80 0 126.5 24.5t46.5 64.5q0 38 -33.5 57.5t-110.5 25.5l-105 8l-27 3q-43 -14 -65.5 -39.5t-22.5 -56.5q0 -87 191 -87z" />
    <glyph glyph-name="Gdotaccent" unicode="&#x120;" horiz-adv-x="723" 
d="M360 783q-23 0 -35.5 13.5t-12.5 37.5q0 23 13 36t35 13t35.5 -13.5t13.5 -35.5q0 -24 -13 -37.5t-36 -13.5zM363 -14q-141 0 -222.5 108.5t-81.5 278.5q0 172 86.5 276.5t222.5 104.5q183 0 254 -173l-63 -30q-53 138 -191 138q-102 0 -170 -82.5t-68 -230.5
q0 -152 65.5 -239t173.5 -87q94 0 150 63.5t55 173.5h-174l-11 61h254v-348h-64v107h-2q-62 -121 -214 -121z" />
    <glyph glyph-name="gdotaccent" unicode="&#x121;" horiz-adv-x="566" 
d="M264 580q-23 0 -35.5 13.5t-12.5 37.5q0 23 13 36t35 13t35.5 -13t13.5 -36q0 -24 -13 -37.5t-36 -13.5zM265 213q64 0 102.5 36t38.5 97q0 63 -37.5 99.5t-104.5 36.5q-65 0 -103 -37t-38 -99q0 -61 38.5 -97t103.5 -36zM272 -202q-125 0 -187.5 34.5t-62.5 97.5
q0 82 97 120q-47 19 -47 67q0 45 64 79q-80 51 -80 151q0 83 59 136.5t149 53.5q91 0 150 -54q55 40 116 48l10 -65q-57 0 -100 -18q31 -42 31 -101q0 -85 -58.5 -136t-148.5 -51q-46 0 -85 15q-42 -17 -42 -45q0 -17 17.5 -26.5t60.5 -13.5l115 -9q186 -15 186 -134
q0 -71 -67 -110t-177 -39zM279 -148q80 0 126.5 24.5t46.5 64.5q0 38 -33.5 57.5t-110.5 25.5l-105 8l-27 3q-43 -14 -65.5 -39.5t-22.5 -56.5q0 -87 191 -87z" />
    <glyph glyph-name="Gcommaaccent" unicode="&#x122;" horiz-adv-x="723" 
d="M363 -14q-141 0 -222.5 108.5t-81.5 278.5q0 172 86.5 276.5t222.5 104.5q183 0 254 -173l-63 -30q-53 138 -191 138q-102 0 -170 -82.5t-68 -230.5q0 -152 65.5 -239t173.5 -87q94 0 150 63.5t55 173.5h-174l-11 61h254v-348h-64v107h-2q-62 -121 -214 -121zM349 -236
h-39l24 191h84z" />
    <glyph glyph-name="gcommaaccent" unicode="&#x123;" horiz-adv-x="566" 
d="M290 773h39l-24 -190h-84zM265 213q64 0 102.5 36t38.5 97q0 63 -37.5 99.5t-104.5 36.5q-65 0 -103 -37t-38 -99q0 -61 38.5 -97t103.5 -36zM272 -202q-125 0 -187.5 34.5t-62.5 97.5q0 82 97 120q-47 19 -47 67q0 45 64 79q-80 51 -80 151q0 83 59 136.5t149 53.5
q91 0 150 -54q55 40 116 48l10 -65q-57 0 -100 -18q31 -42 31 -101q0 -85 -58.5 -136t-148.5 -51q-46 0 -85 15q-42 -17 -42 -45q0 -17 17.5 -26.5t60.5 -13.5l115 -9q186 -15 186 -134q0 -71 -67 -110t-177 -39zM279 -148q80 0 126.5 24.5t46.5 64.5q0 38 -33.5 57.5
t-110.5 25.5l-105 8l-27 3q-43 -14 -65.5 -39.5t-22.5 -56.5q0 -87 191 -87z" />
    <glyph glyph-name="Hcircumflex" unicode="&#x124;" horiz-adv-x="732" 
d="M211 783l129 159h52l129 -159h-44l-112 98l-112 -98h-42zM166 0h-71v740h71v-317h401v317h71v-740h-71v358h-401v-358z" />
    <glyph glyph-name="hcircumflex" unicode="&#x125;" horiz-adv-x="581" 
d="M-42 783l129 159h52l129 -159h-44l-112 98l-112 -98h-42zM149 0h-69v735l69 10v-302q94 94 199 94q78 0 118.5 -40.5t40.5 -114.5v-382h-69v368q0 56 -25.5 83t-80.5 27q-88 0 -183 -92v-386z" />
    <glyph glyph-name="Hbar" unicode="&#x126;" horiz-adv-x="732" 
d="M166 423h401v125h-401v-125zM166 358v-358h-71v548h-83v60h83v132h71v-132h401v132h71v-132h83v-60h-83v-548h-71v358h-401z" />
    <glyph glyph-name="hbar" unicode="&#x127;" horiz-adv-x="581" 
d="M149 386v-386h-69v602h-87v53h87v82l69 6v-88h110v-53h-110v-159q94 94 199 94q78 0 118.5 -40.5t40.5 -114.5v-382h-69v367q0 111 -106 111q-88 0 -183 -92z" />
    <glyph glyph-name="Itilde" unicode="&#x128;" horiz-adv-x="281" 
d="M215 783q-30 0 -79.5 28t-68.5 28q-22 0 -31.5 -13.5t-8.5 -44.5l-44 8q0 106 84 106q30 0 79.5 -28t68.5 -28q22 0 31.5 13.5t9.5 44.5l43 -8q0 -106 -84 -106zM176 0h-71v740h71v-740z" />
    <glyph glyph-name="itilde" unicode="&#x129;" horiz-adv-x="240" 
d="M194 580q-30 0 -79.5 28t-68.5 28q-22 0 -31.5 -13.5t-8.5 -44.5l-44 8q0 106 84 106q30 0 79.5 -28t68.5 -28q22 0 31.5 13.5t9.5 44.5l43 -8q0 -106 -84 -106zM155 0h-69v526h69v-526z" />
    <glyph glyph-name="Imacron" unicode="&#x12a;" horiz-adv-x="281" 
d="M14 785v59h254v-59h-254zM176 0h-71v740h71v-740z" />
    <glyph glyph-name="imacron" unicode="&#x12b;" horiz-adv-x="240" 
d="M-7 582v59h254v-59h-254zM155 0h-69v526h69v-526z" />
    <glyph glyph-name="Ibreve" unicode="&#x12c;" horiz-adv-x="281" 
d="M141 780q-66 0 -106 44t-44 120h44q13 -109 106 -109t106 109h44q-4 -76 -44 -120t-106 -44zM176 0h-71v740h71v-740z" />
    <glyph glyph-name="ibreve" unicode="&#x12d;" horiz-adv-x="240" 
d="M120 579q-66 0 -106 44t-44 120h44q13 -109 106 -109t106 109h44q-4 -76 -44 -120t-106 -44zM155 0h-69v526h69v-526z" />
    <glyph glyph-name="Iogonek" unicode="&#x12e;" horiz-adv-x="281" 
d="M242 -149q-66 -38 -127 -38q-43 0 -68 20.5t-25 56.5q0 29 24 59.5t59 52.5v738h71v-740h-26q-70 -49 -70 -99q0 -48 52 -48q42 0 95 24z" />
    <glyph glyph-name="iogonek" unicode="&#x12f;" horiz-adv-x="240" 
d="M120 642q-19 0 -30.5 12t-11.5 32t11 31t31 11t31 -11t11 -31t-11.5 -32t-30.5 -12zM223 -149q-66 -38 -127 -38q-43 0 -68 20.5t-25 56.5q0 29 24 59.5t59 52.5v524h69v-526h-24q-70 -49 -70 -99q0 -48 52 -48q42 0 95 24z" />
    <glyph glyph-name="Idotaccent" unicode="&#x130;" horiz-adv-x="281" 
d="M141 783q-23 0 -35.5 13.5t-12.5 37.5q0 23 13 36t35 13q23 0 36 -13.5t13 -35.5q0 -24 -13 -37.5t-36 -13.5zM176 0h-71v740h71v-740z" />
    <glyph glyph-name="dotlessi" unicode="&#x131;" horiz-adv-x="240" 
d="M155 0h-69v526h69v-526z" />
    <glyph glyph-name="IJ" unicode="&#x132;" horiz-adv-x="740" 
d="M176 0h-71v740h71v-740zM460 -13q-113 0 -175 77l39 52q48 -66 133 -66q123 0 123 151v540h71v-541q0 -104 -50 -158.5t-141 -54.5z" />
    <glyph glyph-name="ij" unicode="&#x133;" horiz-adv-x="481" 
d="M360 643q-19 0 -30.5 12t-11.5 32q0 19 11 30.5t31 11.5t31 -11.5t11 -30.5q0 -20 -11.5 -32t-30.5 -12zM120 642q-19 0 -30.5 12t-11.5 32t11 31t31 11t31 -11t11 -31t-11.5 -32t-30.5 -12zM155 0h-69v526h69v-526zM284 -200q-18 0 -39 3l-6 56q14 -3 35 -3q52 0 52 58
v613h69v-609q0 -118 -111 -118z" />
    <glyph glyph-name="Jcircumflex" unicode="&#x134;" horiz-adv-x="498" 
d="M219 783l129 159h52l129 -159h-44l-112 98l-112 -98h-42zM219 -14q-113 0 -175 77l39 52q48 -66 133 -66q123 0 123 151v540h71v-541q0 -104 -50 -158.5t-141 -54.5z" />
    <glyph glyph-name="jcircumflex" unicode="&#x135;" horiz-adv-x="240" 
d="M-35 580l129 159h52l129 -159h-44l-112 98l-112 -98h-42zM44 -201q-19 0 -40 3l-2 56q13 -3 32 -3q52 0 52 58v613h69v-609q0 -118 -111 -118z" />
    <glyph glyph-name="Kcommaaccent" unicode="&#x136;" horiz-adv-x="668" 
d="M166 0h-71v740h71v-399l354 399h87l-254 -280l293 -454l-74 -12l-267 411l-139 -152v-253zM321 -236h-39l24 191h84z" />
    <glyph glyph-name="kcommaaccent" unicode="&#x137;" horiz-adv-x="530" 
d="M149 0h-69v735l69 10v-496l251 277h81l-172 -185l191 -335l-68 -12l-169 295l-114 -123v-166zM252 -236h-39l24 191h84z" />
    <glyph glyph-name="kgreenlandic" unicode="&#x138;" horiz-adv-x="530" 
d="M80 0v526h69v-277l251 277h81l-172 -185l191 -335l-68 -12l-169 295l-114 -123v-166h-69z" />
    <glyph glyph-name="Lacute" unicode="&#x139;" horiz-adv-x="565" 
d="M105 786l95 156h91l-141 -156h-45zM533 0h-438v740h71v-675h356z" />
    <glyph glyph-name="lacute" unicode="&#x13a;" horiz-adv-x="240" 
d="M96 786l95 156h91l-141 -156h-45zM155 0h-69v735l69 10v-745z" />
    <glyph glyph-name="Lcommaaccent" unicode="&#x13b;" horiz-adv-x="565" 
d="M533 0h-438v740h71v-675h356zM270 -236h-39l24 191h84z" />
    <glyph glyph-name="lcommaaccent" unicode="&#x13c;" horiz-adv-x="240" 
d="M155 0h-69v735l69 10v-745zM107 -236h-39l24 191h84z" />
    <glyph glyph-name="Lcaron" unicode="&#x13d;" horiz-adv-x="565" 
d="M533 0h-438v740h71v-675h356zM328 549h-39l24 191h84z" />
    <glyph glyph-name="lcaron" unicode="&#x13e;" horiz-adv-x="240" 
d="M248 568h-39l24 189h84zM155 0h-69v735l69 10v-745z" />
    <glyph glyph-name="Ldot" unicode="&#x13f;" horiz-adv-x="572" 
d="M533 0h-438v740h71v-675h356zM414 348q-21 0 -33.5 13.5t-12.5 35.5t12.5 35.5t33.5 13.5q22 0 34.5 -13t12.5 -36t-12.5 -36t-34.5 -13z" />
    <glyph glyph-name="ldot" unicode="&#x140;" horiz-adv-x="332" 
d="M155 0h-69v735l69 10v-745zM287 274q-21 0 -33.5 13t-12.5 34q0 20 12 32t34 12q20 0 32.5 -12t12.5 -32q0 -21 -12.5 -34t-32.5 -13z" />
    <glyph glyph-name="Lslash" unicode="&#x141;" horiz-adv-x="565" 
d="M533 0h-437v347l-86 -23v60l86 23v333h71v-314l158 43v-60l-158 -42v-302h355z" />
    <glyph glyph-name="lslash" unicode="&#x142;" horiz-adv-x="296" 
d="M114 0v448l-94 -25v56l94 24v234l68 6v-222l96 26v-56l-96 -26v-465h-68z" />
    <glyph glyph-name="Nacute" unicode="&#x143;" horiz-adv-x="743" 
d="M301 786l95 156h91l-141 -156h-45zM162 0h-67v740h76l408 -610h2v610h67v-740h-63l-421 629h-2v-629z" />
    <glyph glyph-name="nacute" unicode="&#x144;" horiz-adv-x="581" 
d="M234 583l95 156h91l-141 -156h-45zM149 0h-69v526h62l7 -83q94 94 199 94q78 0 118.5 -40.5t40.5 -114.5v-382h-69v368q0 111 -106 111q-88 0 -183 -92v-387z" />
    <glyph glyph-name="Ncommaaccent" unicode="&#x145;" horiz-adv-x="743" 
d="M162 0h-67v740h76l408 -610h2v610h67v-740h-63l-421 629h-2v-629zM358 -236h-39l24 191h84z" />
    <glyph glyph-name="ncommaaccent" unicode="&#x146;" horiz-adv-x="581" 
d="M149 0h-69v526h62l7 -83q94 94 199 94q78 0 118.5 -40.5t40.5 -114.5v-382h-69v368q0 111 -106 111q-88 0 -183 -92v-387zM278 -236h-39l24 191h84z" />
    <glyph glyph-name="Ncaron" unicode="&#x147;" horiz-adv-x="743" 
d="M345 787l-129 159h44l112 -99l112 99h42l-129 -159h-52zM162 0h-67v740h76l408 -610h2v610h67v-740h-63l-421 629h-2v-629z" />
    <glyph glyph-name="ncaron" unicode="&#x148;" horiz-adv-x="581" 
d="M265 584l-129 159h44l112 -99l112 99h42l-129 -159h-52zM149 0h-69v526h62l7 -83q94 94 199 94q78 0 118.5 -40.5t40.5 -114.5v-382h-69v368q0 111 -106 111q-88 0 -183 -92v-387z" />
    <glyph glyph-name="Eng" unicode="&#x14a;" horiz-adv-x="743" 
d="M95 0v740h76l408 -610h2v610h67v-732q0 -102 -51.5 -155.5t-145.5 -53.5q-115 0 -177 79l42 47q49 -65 132 -65q128 0 132 144v3l-416 622h-2v-629h-67z" />
    <glyph glyph-name="eng" unicode="&#x14b;" horiz-adv-x="581" 
d="M80 0v526h64l5 -86q97 97 199 97q78 0 118.5 -40.5t40.5 -114.5v-470q0 -56 -26 -84.5t-85 -28.5q-19 0 -40 3l-4 55q14 -3 35 -3q51 0 51 57v457q0 111 -106 111q-88 0 -183 -92v-387h-69z" />
    <glyph glyph-name="Omacron" unicode="&#x14c;" horiz-adv-x="742" 
d="M243 785v59h254v-59h-254zM371 -14q-136 0 -224 106t-88 278t88 278t224 106q135 0 223.5 -106t88.5 -278t-88.5 -278t-223.5 -106zM371 50q107 0 174 86t67 234q0 147 -67 233t-174 86t-174 -86t-67 -233q0 -148 67 -234t174 -86z" />
    <glyph glyph-name="omacron" unicode="&#x14d;" horiz-adv-x="577" 
d="M162 582v59h254v-59h-254zM289 -11q-101 0 -170 73.5t-69 200.5t68.5 200.5t170.5 73.5q101 0 169.5 -73.5t68.5 -200.5t-68.5 -200.5t-169.5 -73.5zM289 48q78 0 123.5 60t45.5 155q0 92 -44.5 153.5t-124.5 61.5q-79 0 -124.5 -60t-45.5 -155q0 -93 44.5 -154
t125.5 -61z" />
    <glyph glyph-name="Obreve" unicode="&#x14e;" horiz-adv-x="742" 
d="M370 782q-66 0 -106 44t-44 120h44q13 -109 106 -109t106 109h44q-4 -76 -44 -120t-106 -44zM371 -14q-136 0 -224 106t-88 278t88 278t224 106q135 0 223.5 -106t88.5 -278t-88.5 -278t-223.5 -106zM371 50q107 0 174 86t67 234q0 147 -67 233t-174 86t-174 -86
t-67 -233q0 -148 67 -234t174 -86z" />
    <glyph glyph-name="obreve" unicode="&#x14f;" horiz-adv-x="577" 
d="M289 579q-66 0 -106 44t-44 120h44q13 -109 106 -109t106 109h44q-4 -76 -44 -120t-106 -44zM289 -11q-101 0 -170 73.5t-69 200.5t68.5 200.5t170.5 73.5q101 0 169.5 -73.5t68.5 -200.5t-68.5 -200.5t-169.5 -73.5zM289 48q78 0 123.5 60t45.5 155q0 92 -44.5 153.5
t-124.5 61.5q-79 0 -124.5 -60t-45.5 -155q0 -93 44.5 -154t125.5 -61z" />
    <glyph glyph-name="Ohungarumlaut" unicode="&#x150;" horiz-adv-x="742" 
d="M400 786l97 156h93l-143 -156h-47zM239 786l95 156h93l-141 -156h-47zM371 -14q-136 0 -224 106t-88 278t88 278t224 106q135 0 223.5 -106t88.5 -278t-88.5 -278t-223.5 -106zM371 50q107 0 174 86t67 234q0 147 -67 233t-174 86t-174 -86t-67 -233q0 -148 67 -234
t174 -86z" />
    <glyph glyph-name="ohungarumlaut" unicode="&#x151;" horiz-adv-x="577" 
d="M325 583l97 156h93l-143 -156h-47zM164 583l95 156h93l-141 -156h-47zM289 -11q-101 0 -170 73.5t-69 200.5t68.5 200.5t170.5 73.5q101 0 169.5 -73.5t68.5 -200.5t-68.5 -200.5t-169.5 -73.5zM289 48q78 0 123.5 60t45.5 155q0 92 -44.5 153.5t-124.5 61.5
q-79 0 -124.5 -60t-45.5 -155q0 -93 44.5 -154t125.5 -61z" />
    <glyph glyph-name="OE" unicode="&#x152;" horiz-adv-x="1119" 
d="M371 50q106 0 173 86.5t67 233.5t-67 233t-173 86q-107 0 -174 -86t-67 -233q0 -148 67 -234t174 -86zM370 -14q-136 0 -223.5 106t-87.5 278t88 278t224 106q84 0 146.5 -42t97.5 -114v142h437v-66h-371v-251h271l11 -64h-282v-294h392v-65h-458v147q-35 -74 -98 -117.5
t-147 -43.5z" />
    <glyph glyph-name="oe" unicode="&#x153;" horiz-adv-x="946" 
d="M287 -11q-101 0 -169 73.5t-68 200.5q0 128 67.5 201t169.5 73q70 0 123 -37.5t78 -101.5q25 63 77.5 101t117.5 38q95 0 154 -71.5t59 -202.5v-11h-374q1 -97 49.5 -151t123.5 -54q88 0 168 78l34 -45q-47 -47 -95 -69t-112 -22q-68 0 -123 38t-80 101
q-25 -64 -77.5 -101.5t-122.5 -37.5zM523 305h306q-6 80 -43 127t-104 47q-61 0 -105.5 -44t-53.5 -130zM287 48q78 0 123 59.5t45 155.5q0 92 -44 153.5t-124 61.5q-78 0 -123 -59.5t-45 -155.5q0 -92 43.5 -153.5t124.5 -61.5z" />
    <glyph glyph-name="Racute" unicode="&#x154;" horiz-adv-x="671" 
d="M283 786l95 156h91l-141 -156h-45zM165 0h-70v740h248q124 0 190 -51.5t66 -150.5q0 -163 -176 -198l189 -334l-73 -12l-190 338h-184v-332zM165 675v-280h173q96 0 143.5 32.5t47.5 109.5q0 74 -48 106t-144 32h-172z" />
    <glyph glyph-name="racute" unicode="&#x155;" horiz-adv-x="394" 
d="M145 583l95 156h91l-141 -156h-45zM149 0h-69v526h62l7 -103h2q71 114 207 114h7l6 -64q-2 1 -25 1q-65 0 -116 -34t-81 -97v-343z" />
    <glyph glyph-name="Rcommaaccent" unicode="&#x156;" horiz-adv-x="671" 
d="M165 0h-70v740h248q124 0 190 -51.5t66 -150.5q0 -163 -176 -198l189 -334l-73 -12l-190 338h-184v-332zM165 675v-280h173q96 0 143.5 32.5t47.5 109.5q0 74 -48 106t-144 32h-172zM322 -236h-39l24 191h84z" />
    <glyph glyph-name="rcommaaccent" unicode="&#x157;" horiz-adv-x="394" 
d="M149 0h-69v526h62l7 -103h2q71 114 207 114h7l6 -64q-2 1 -25 1q-65 0 -116 -34t-81 -97v-343zM101 -236h-39l24 191h84z" />
    <glyph glyph-name="Rcaron" unicode="&#x158;" horiz-adv-x="671" 
d="M309 787l-129 159h44l112 -99l112 99h42l-129 -159h-52zM165 0h-70v740h248q124 0 190 -51.5t66 -150.5q0 -163 -176 -198l189 -334l-73 -12l-190 338h-184v-332zM165 675v-280h173q96 0 143.5 32.5t47.5 109.5q0 74 -48 106t-144 32h-172z" />
    <glyph glyph-name="rcaron" unicode="&#x159;" horiz-adv-x="394" 
d="M171 584l-129 159h44l112 -99l112 99h42l-129 -159h-52zM149 0h-69v526h62l7 -103h2q71 114 207 114h7l6 -64q-2 1 -25 1q-65 0 -116 -34t-81 -97v-343z" />
    <glyph glyph-name="Sacute" unicode="&#x15a;" horiz-adv-x="649" 
d="M271 786l95 156h91l-141 -156h-45zM331 -14q-177 0 -295 118l41 53q105 -107 253 -107q86 0 136.5 36t50.5 97q0 59 -40 94.5t-155 71.5q-131 41 -185.5 85t-54.5 130q0 80 65 135t165 55q146 0 263 -105l-36 -56q-108 97 -227 97q-73 0 -116.5 -35t-43.5 -86
q0 -60 42 -91.5t163 -69.5q123 -39 176.5 -86.5t53.5 -134.5q0 -90 -72 -145.5t-184 -55.5z" />
    <glyph glyph-name="sacute" unicode="&#x15b;" horiz-adv-x="506" 
d="M201 583l95 156h91l-141 -156h-45zM250 -9q-133 0 -206 93l38 42q69 -79 169 -79q66 0 101.5 24t35.5 67t-31 65.5t-114 41.5q-100 24 -141.5 56.5t-41.5 97.5q0 59 48 98.5t131 39.5q117 0 194 -74l-35 -48q-68 65 -157 65q-57 0 -85.5 -22.5t-28.5 -55.5
q0 -37 26.5 -57t99.5 -37q112 -26 157 -60t45 -105t-57 -111.5t-148 -40.5z" />
    <glyph glyph-name="Scircumflex" unicode="&#x15c;" horiz-adv-x="649" 
d="M168 783l129 159h52l129 -159h-44l-112 98l-112 -98h-42zM331 -14q-177 0 -295 118l41 53q105 -107 253 -107q86 0 136.5 36t50.5 97q0 59 -40 94.5t-155 71.5q-131 41 -185.5 85t-54.5 130q0 80 65 135t165 55q146 0 263 -105l-36 -56q-108 97 -227 97q-73 0 -116.5 -35
t-43.5 -86q0 -60 42 -91.5t163 -69.5q123 -39 176.5 -86.5t53.5 -134.5q0 -90 -72 -145.5t-184 -55.5z" />
    <glyph glyph-name="scircumflex" unicode="&#x15d;" horiz-adv-x="506" 
d="M82 580l129 159h52l129 -159h-44l-112 98l-112 -98h-42zM250 -9q-133 0 -206 93l38 42q69 -79 169 -79q66 0 101.5 24t35.5 67t-31 65.5t-114 41.5q-100 24 -141.5 56.5t-41.5 97.5q0 59 48 98.5t131 39.5q117 0 194 -74l-35 -48q-68 65 -157 65q-57 0 -85.5 -22.5
t-28.5 -55.5q0 -37 26.5 -57t99.5 -37q112 -26 157 -60t45 -105t-57 -111.5t-148 -40.5z" />
    <glyph glyph-name="Scedilla" unicode="&#x15e;" horiz-adv-x="649" 
d="M325 -195q-68 0 -124 37l19 29q45 -30 97 -30q75 0 75 48q0 35 -42 35q-28 0 -53 -20l-28 13l22 71q-151 12 -255 116l41 53q105 -107 253 -107q86 0 136.5 36t50.5 97q0 59 -40 94.5t-155 71.5q-131 41 -185.5 85t-54.5 130q0 80 65 135t165 55q146 0 263 -105l-36 -56
q-108 97 -227 97q-73 0 -116.5 -35t-43.5 -86q0 -60 42 -91.5t163 -69.5q123 -39 176.5 -86.5t53.5 -134.5q0 -90 -71.5 -145.5t-182.5 -55.5l-12 -40q23 15 54 15q30 0 50.5 -18t20.5 -50q0 -44 -34 -66t-87 -22z" />
    <glyph glyph-name="scedilla" unicode="&#x15f;" horiz-adv-x="506" 
d="M254 -195q-68 0 -124 37l19 29q45 -30 97 -30q75 0 75 48q0 35 -42 35q-28 0 -53 -20l-28 13l24 75q-113 10 -178 92l38 42q69 -79 169 -79q66 0 101.5 24t35.5 67t-31 65.5t-114 41.5q-100 24 -141.5 56.5t-41.5 97.5q0 59 48 98.5t131 39.5q117 0 194 -74l-35 -48
q-68 65 -157 65q-57 0 -85.5 -22.5t-28.5 -55.5q0 -37 26.5 -57t99.5 -37q112 -26 157 -60t45 -105q0 -68 -53 -108.5t-139 -43.5l-13 -45q23 15 54 15q30 0 50.5 -18t20.5 -50q0 -44 -34 -66t-87 -22z" />
    <glyph glyph-name="Scaron" unicode="&#x160;" horiz-adv-x="649" 
d="M298 795l-129 159h44l112 -99l112 99h42l-129 -159h-52zM331 -14q-177 0 -295 118l41 53q105 -107 253 -107q86 0 136.5 36t50.5 97q0 59 -40 94.5t-155 71.5q-131 41 -185.5 85t-54.5 130q0 80 65 135t165 55q146 0 263 -105l-36 -56q-108 97 -227 97q-73 0 -116.5 -35
t-43.5 -86q0 -60 42 -91.5t163 -69.5q123 -39 176.5 -86.5t53.5 -134.5q0 -90 -72 -145.5t-184 -55.5z" />
    <glyph glyph-name="scaron" unicode="&#x161;" horiz-adv-x="506" 
d="M227 584l-129 159h44l112 -99l112 99h42l-129 -159h-52zM250 -9q-133 0 -206 93l38 42q69 -79 169 -79q66 0 101.5 24t35.5 67t-31 65.5t-114 41.5q-100 24 -141.5 56.5t-41.5 97.5q0 59 48 98.5t131 39.5q117 0 194 -74l-35 -48q-68 65 -157 65q-57 0 -85.5 -22.5
t-28.5 -55.5q0 -37 26.5 -57t99.5 -37q112 -26 157 -60t45 -105t-57 -111.5t-148 -40.5z" />
    <glyph glyph-name="Tcaron" unicode="&#x164;" horiz-adv-x="617" 
d="M283 787l-129 159h44l112 -99l112 99h42l-129 -159h-52zM344 0h-71v674h-239v66h543l11 -66h-244v-674z" />
    <glyph glyph-name="tcaron" unicode="&#x165;" horiz-adv-x="364" 
d="M289 609h-39l24 189h84zM254 -7q-72 0 -105.5 30.5t-33.5 101.5v343h-91v58h91v185l69 10v-195h137v-58h-137v-333q0 -43 18.5 -63.5t63.5 -20.5q28 0 52 7l8 -59q-34 -6 -72 -6z" />
    <glyph glyph-name="Tbar" unicode="&#x166;" horiz-adv-x="617" 
d="M582 340h-238v-340h-71v340h-239v60h239v274h-239v66h547l4 -66h-241v-274h238v-60z" />
    <glyph glyph-name="tbar" unicode="&#x167;" horiz-adv-x="364" 
d="M327 -1q-36 -6 -73 -6q-72 0 -105.5 30.5t-33.5 101.5v124h-91v54h91v165h-91v58h91v188l69 4v-192h137v-58h-137v-165h137v-54h-137v-115q0 -43 18.5 -63.5t63.5 -20.5q33 0 54 7z" />
    <glyph glyph-name="Utilde" unicode="&#x168;" horiz-adv-x="715" 
d="M431 783q-30 0 -79.5 28t-68.5 28q-22 0 -31.5 -13.5t-8.5 -44.5l-44 8q0 106 84 106q30 0 79.5 -28t68.5 -28q22 0 31.5 13.5t9.5 44.5l43 -8q0 -106 -84 -106zM357 -14q-130 0 -199.5 74.5t-69.5 189.5v490h71v-480q0 -94 50 -151.5t149 -57.5t148.5 56.5t49.5 150.5
v482h71v-488q0 -116 -70 -191t-200 -75z" />
    <glyph glyph-name="utilde" unicode="&#x169;" horiz-adv-x="581" 
d="M366 580q-30 0 -79.5 28t-68.5 28q-22 0 -31.5 -13.5t-8.5 -44.5l-44 8q0 106 84 106q30 0 79.5 -28t68.5 -28q22 0 31.5 13.5t9.5 44.5l43 -8q0 -106 -84 -106zM233 -11q-78 0 -118 40.5t-40 114.5v382h69v-368q0 -56 25 -83t80 -27q85 0 184 92v386h69v-526h-62l-7 83
q-98 -94 -200 -94z" />
    <glyph glyph-name="Umacron" unicode="&#x16a;" horiz-adv-x="715" 
d="M230 785v59h254v-59h-254zM357 -14q-130 0 -199.5 74.5t-69.5 189.5v490h71v-480q0 -94 50 -151.5t149 -57.5t148.5 56.5t49.5 150.5v482h71v-488q0 -116 -70 -191t-200 -75z" />
    <glyph glyph-name="umacron" unicode="&#x16b;" horiz-adv-x="581" 
d="M163 582v59h254v-59h-254zM233 -11q-78 0 -118 40.5t-40 114.5v382h69v-368q0 -56 25 -83t80 -27q85 0 184 92v386h69v-526h-62l-7 83q-98 -94 -200 -94z" />
    <glyph glyph-name="Ubreve" unicode="&#x16c;" horiz-adv-x="715" 
d="M357 782q-66 0 -106 44t-44 120h44q13 -109 106 -109t106 109h44q-4 -76 -44 -120t-106 -44zM357 -14q-130 0 -199.5 74.5t-69.5 189.5v490h71v-480q0 -94 50 -151.5t149 -57.5t148.5 56.5t49.5 150.5v482h71v-488q0 -116 -70 -191t-200 -75z" />
    <glyph glyph-name="ubreve" unicode="&#x16d;" horiz-adv-x="581" 
d="M290 579q-66 0 -106 44t-44 120h44q13 -109 106 -109t106 109h44q-4 -76 -44 -120t-106 -44zM233 -11q-78 0 -118 40.5t-40 114.5v382h69v-368q0 -56 25 -83t80 -27q85 0 184 92v386h69v-526h-62l-7 83q-98 -94 -200 -94z" />
    <glyph glyph-name="Uring" unicode="&#x16e;" horiz-adv-x="715" 
d="M357 779q-40 0 -65.5 26t-25.5 65t25.5 65t65.5 26t65.5 -26t25.5 -65t-25.5 -65t-65.5 -26zM357 814q23 0 38 15.5t15 40.5q0 24 -15 40t-38 16t-38 -16t-15 -40q0 -25 15 -40.5t38 -15.5zM357 -14q-130 0 -199.5 74.5t-69.5 189.5v490h71v-480q0 -94 50 -151.5
t149 -57.5t148.5 56.5t49.5 150.5v482h71v-488q0 -116 -70 -191t-200 -75z" />
    <glyph glyph-name="uring" unicode="&#x16f;" horiz-adv-x="581" 
d="M290 576q-40 0 -65.5 26t-25.5 65t25.5 65t65.5 26t65.5 -26t25.5 -65t-25.5 -65t-65.5 -26zM290 611q23 0 38 15.5t15 40.5q0 24 -15 40t-38 16t-38 -16t-15 -40q0 -25 15 -40.5t38 -15.5zM233 -11q-78 0 -118 40.5t-40 114.5v382h69v-368q0 -56 25 -83t80 -27
q85 0 184 92v386h69v-526h-62l-7 83q-98 -94 -200 -94z" />
    <glyph glyph-name="Uhungarumlaut" unicode="&#x170;" horiz-adv-x="715" 
d="M388 786l97 156h93l-143 -156h-47zM227 786l95 156h93l-141 -156h-47zM357 -14q-130 0 -199.5 74.5t-69.5 189.5v490h71v-480q0 -94 50 -151.5t149 -57.5t148.5 56.5t49.5 150.5v482h71v-488q0 -116 -70 -191t-200 -75z" />
    <glyph glyph-name="uhungarumlaut" unicode="&#x171;" horiz-adv-x="581" 
d="M322 583l97 156h93l-143 -156h-47zM161 583l95 156h93l-141 -156h-47zM233 -11q-78 0 -118 40.5t-40 114.5v382h69v-368q0 -56 25 -83t80 -27q85 0 184 92v386h69v-526h-62l-7 83q-98 -94 -200 -94z" />
    <glyph glyph-name="Uogonek" unicode="&#x172;" horiz-adv-x="715" 
d="M365 -187q-43 0 -68 20.5t-25 56.5q0 49 62 97q-119 6 -182.5 79.5t-63.5 183.5v490h71v-480q0 -94 50 -151.5t149 -57.5t148.5 56.5t49.5 150.5v482h71v-488q0 -110 -63.5 -184t-181.5 -81q-52 -43 -52 -86q0 -48 52 -48q42 0 95 24l15 -26q-66 -38 -127 -38z" />
    <glyph glyph-name="uogonek" unicode="&#x173;" horiz-adv-x="581" 
d="M571 -149q-66 -38 -127 -38q-43 0 -68 20.5t-25 56.5q0 29 25 60t63 55h1l-7 78q-98 -94 -200 -94q-78 0 -118 40.5t-40 114.5v382h69v-368q0 -56 25 -83t80 -27q85 0 184 92v386h69v-526h-23q-70 -49 -70 -99q0 -48 52 -48q42 0 95 24z" />
    <glyph glyph-name="Wcircumflex" unicode="&#x174;" horiz-adv-x="925" 
d="M308 783l129 159h52l129 -159h-44l-112 98l-112 -98h-42zM304 0h-67l-196 734l69 12l117 -455q26 -100 45 -186h2q15 73 43 185l110 450h75l112 -454q38 -160 42 -181h2q5 22 43 177l116 458h68l-196 -740h-67l-157 642h-2z" />
    <glyph glyph-name="wcircumflex" unicode="&#x175;" horiz-adv-x="747" 
d="M218 580l129 159h52l129 -159h-44l-112 98l-112 -98h-42zM252 0h-63l-160 520l69 13l75 -267l49 -179h2q23 91 48 179l72 260h63l73 -265q13 -45 47 -174h2q26 102 47 172l78 267h66l-162 -526h-64l-119 433h-2z" />
    <glyph glyph-name="Ycircumflex" unicode="&#x176;" horiz-adv-x="618" 
d="M153 783l129 159h52l129 -159h-44l-112 98l-112 -98h-42zM344 0h-71v326l-244 408l69 12l212 -359l208 353h74l-248 -414v-326z" />
    <glyph glyph-name="ycircumflex" unicode="&#x177;" horiz-adv-x="527" 
d="M110 580l129 159h52l129 -159h-44l-112 98l-112 -98h-42zM98 -201q-43 0 -70 7l-5 60q41 -9 76 -9q42 0 67 19.5t42 62.5l22 58l-201 523l69 13l166 -451h2l163 444h72l-227 -587q-29 -75 -66.5 -107.5t-109.5 -32.5z" />
    <glyph glyph-name="Ydieresis" unicode="&#x178;" horiz-adv-x="618" 
d="M396 780q-20 0 -31.5 13.5t-11.5 35.5q0 21 12 34t31 13q21 0 32.5 -13t11.5 -34q0 -23 -11.5 -36t-32.5 -13zM220 780q-20 0 -31.5 13t-11.5 36q0 21 11.5 34t31.5 13t31.5 -13t11.5 -34q0 -23 -11.5 -36t-31.5 -13zM344 0h-71v326l-244 408l69 12l212 -359l208 353h74
l-248 -414v-326z" />
    <glyph glyph-name="Zacute" unicode="&#x179;" horiz-adv-x="623" 
d="M253 786l95 156h91l-141 -156h-45zM578 0h-536v51l444 629h-409l-12 60h507v-52l-442 -628h436z" />
    <glyph glyph-name="zacute" unicode="&#x17a;" horiz-adv-x="506" 
d="M200 583l95 156h91l-141 -156h-45zM468 0h-427v44l321 425h-290l-10 57h387v-44l-321 -425h330z" />
    <glyph glyph-name="Zdotaccent" unicode="&#x17b;" horiz-adv-x="623" 
d="M311 783q-23 0 -35.5 13.5t-12.5 37.5q0 23 13 36t35 13q23 0 36 -13.5t13 -35.5q0 -24 -13 -37.5t-36 -13.5zM578 0h-536v51l444 629h-409l-12 60h507v-52l-442 -628h436z" />
    <glyph glyph-name="zdotaccent" unicode="&#x17c;" horiz-adv-x="506" 
d="M253 580q-23 0 -35.5 13.5t-12.5 37.5q0 23 13 36t35 13q23 0 36 -13t13 -36q0 -24 -13 -37.5t-36 -13.5zM468 0h-427v44l321 425h-290l-10 57h387v-44l-321 -425h330z" />
    <glyph glyph-name="Zcaron" unicode="&#x17d;" horiz-adv-x="623" 
d="M287 795l-129 159h44l112 -99l112 99h42l-129 -159h-52zM578 0h-536v51l444 629h-409l-12 60h507v-52l-442 -628h436z" />
    <glyph glyph-name="zcaron" unicode="&#x17e;" horiz-adv-x="506" 
d="M228 584l-129 159h44l112 -99l112 99h42l-129 -159h-52zM468 0h-427v44l321 425h-290l-10 57h387v-44l-321 -425h330z" />
    <glyph glyph-name="florin" unicode="&#x192;" horiz-adv-x="333" 
d="M-96 -199l9 56q7 -2 33 -2q89 0 99 79l68 481h-92l7 56h92l18 135q18 135 170 135q22 0 40 -2l-9 -56q-7 1 -34 1q-87 0 -98 -76l-18 -137h116l-7 -56h-116l-69 -484q-18 -132 -170 -132q-23 0 -39 2z" />
    <glyph glyph-name="Scommaaccent" unicode="&#x218;" horiz-adv-x="649" 
d="M331 -14q-177 0 -295 118l41 53q105 -107 253 -107q86 0 136.5 36t50.5 97q0 59 -40 94.5t-155 71.5q-131 41 -185.5 85t-54.5 130q0 80 65 135t165 55q146 0 263 -105l-36 -56q-108 97 -227 97q-73 0 -116.5 -35t-43.5 -86q0 -60 42 -91.5t163 -69.5
q123 -39 176.5 -86.5t53.5 -134.5q0 -90 -72 -145.5t-184 -55.5zM311 -236h-39l24 191h84z" />
    <glyph glyph-name="scommaaccent" unicode="&#x219;" horiz-adv-x="506" 
d="M250 -9q-133 0 -206 93l38 42q69 -79 169 -79q66 0 101.5 24t35.5 67t-31 65.5t-114 41.5q-100 24 -141.5 56.5t-41.5 97.5q0 59 48 98.5t131 39.5q117 0 194 -74l-35 -48q-68 65 -157 65q-57 0 -85.5 -22.5t-28.5 -55.5q0 -37 26.5 -57t99.5 -37q112 -26 157 -60
t45 -105t-57 -111.5t-148 -40.5zM240 -236h-39l24 191h84z" />
    <glyph glyph-name="Tcommaaccent" unicode="&#x21a;" horiz-adv-x="617" 
d="M344 0h-71v674h-239v66h543l11 -66h-244v-674zM296 -236h-39l24 191h84z" />
    <glyph glyph-name="tcommaaccent" unicode="&#x21b;" horiz-adv-x="364" 
d="M254 -7q-72 0 -105.5 30.5t-33.5 101.5v343h-91v58h91v185l69 10v-195h137v-58h-137v-333q0 -43 18.5 -63.5t63.5 -20.5q28 0 52 7l8 -59q-34 -6 -72 -6zM147 -236h-39l24 191h84z" />
    <glyph glyph-name="schwa" unicode="&#x259;" horiz-adv-x="546" 
d="M255 537q104 0 172.5 -72.5t68.5 -201.5q0 -131 -69 -202.5t-162 -71.5q-95 0 -155 72t-60 202v13h377q-1 97 -49 150.5t-124 53.5q-94 0 -168 -79l-35 45q46 47 93 69t111 22zM426 222h-309q6 -79 43.5 -127t105.5 -48q61 0 106 45t54 130z" />
    <glyph glyph-name="uni02BB" unicode="&#x2bb;" horiz-adv-x="268" 
d="M150 740h42l-26 -195h-86z" />
    <glyph glyph-name="uni02BC" unicode="&#x2bc;" horiz-adv-x="268" 
d="M122 545h-42l26 195h86z" />
    <glyph glyph-name="circumflex" unicode="&#x2c6;" horiz-adv-x="510" 
d="M100 580l129 159h52l129 -159h-44l-112 98l-112 -98h-42z" />
    <glyph glyph-name="caron" unicode="&#x2c7;" horiz-adv-x="510" 
d="M229 584l-129 159h44l112 -99l112 99h42l-129 -159h-52z" />
    <glyph glyph-name="uni02C9" unicode="&#x2c9;" horiz-adv-x="500" 
d="M123 582v59h254v-59h-254z" />
    <glyph glyph-name="breve" unicode="&#x2d8;" horiz-adv-x="500" 
d="M250 579q-66 0 -106 44t-44 120h44q13 -109 106 -109t106 109h44q-4 -76 -44 -120t-106 -44z" />
    <glyph glyph-name="dotaccent" unicode="&#x2d9;" horiz-adv-x="500" 
d="M250 580q-23 0 -35.5 13.5t-12.5 37.5q0 23 13 36t35 13t35.5 -13t13.5 -36q0 -24 -13 -37.5t-36 -13.5z" />
    <glyph glyph-name="ring" unicode="&#x2da;" horiz-adv-x="540" 
d="M270 576q-40 0 -65.5 26t-25.5 65t25.5 65t65.5 26t65.5 -26t25.5 -65t-25.5 -65t-65.5 -26zM270 611q23 0 38 15.5t15 40.5q0 24 -15 40t-38 16t-38 -16t-15 -40q0 -25 15 -40.5t38 -15.5z" />
    <glyph glyph-name="ogonek" unicode="&#x2db;" horiz-adv-x="500" 
d="M249 -187q-43 0 -68 20.5t-25 56.5q0 29 25 60t63 55h47q-77 -51 -77 -104q0 -48 52 -48q42 0 95 24l15 -26q-66 -38 -127 -38z" />
    <glyph glyph-name="tilde" unicode="&#x2dc;" horiz-adv-x="504" 
d="M326 580q-30 0 -79.5 28t-68.5 28q-22 0 -31.5 -13.5t-8.5 -44.5l-44 8q0 106 84 106q30 0 79.5 -28t68.5 -28q22 0 31.5 13.5t9.5 44.5l43 -8q0 -106 -84 -106z" />
    <glyph glyph-name="hungarumlaut" unicode="&#x2dd;" horiz-adv-x="505" 
d="M243 583l97 156h93l-143 -156h-47zM82 583l95 156h93l-141 -156h-47z" />
    <glyph glyph-name="Delta" unicode="&#x394;" horiz-adv-x="669" 
d="M33 0l267 744h68l267 -744h-602zM119 61h425l-211 591h-1z" />
    <glyph glyph-name="Omega" unicode="&#x3a9;" horiz-adv-x="742" 
d="M371 754q142 0 222.5 -103.5t80.5 -256.5q0 -101 -45 -188t-123 -145h161v-61h-230v61q167 135 167 332q0 130 -62.5 214.5t-171.5 84.5q-106 0 -169.5 -82.5t-63.5 -215.5q0 -196 168 -333v-61h-230v61h161q-78 57 -123.5 144.5t-45.5 188.5q0 153 81.5 256.5
t222.5 103.5z" />
    <glyph glyph-name="mu" unicode="&#x3bc;" horiz-adv-x="586" 
d="M149 -200h-69v726h69v-368q0 -56 25 -83t80 -27q86 0 184 91v387h69v-526h-69v86q-96 -92 -189 -95q-70 -2 -100 36v-227z" />
    <glyph glyph-name="pi" unicode="&#x3c0;" horiz-adv-x="643" 
d="M9 471v57h625v-57h-99v-471h-69v471h-290v-471h-68v471h-99z" />
    <glyph glyph-name="Wgrave" unicode="&#x1e80;" horiz-adv-x="925" 
d="M493 786l-141 156h91l95 -156h-45zM304 0h-67l-196 734l69 12l117 -455q26 -100 45 -186h2q15 73 43 185l110 450h75l112 -454q38 -160 42 -181h2q5 22 43 177l116 458h68l-196 -740h-67l-157 642h-2z" />
    <glyph glyph-name="wgrave" unicode="&#x1e81;" horiz-adv-x="747" 
d="M355 583l-141 156h91l95 -156h-45zM252 0h-63l-160 520l69 13l75 -267l49 -179h2q23 91 48 179l72 260h63l73 -265q13 -45 47 -174h2q26 102 47 172l78 267h66l-162 -526h-64l-119 433h-2z" />
    <glyph glyph-name="Wacute" unicode="&#x1e82;" horiz-adv-x="925" 
d="M389 786l95 156h91l-141 -156h-45zM304 0h-67l-196 734l69 12l117 -455q26 -100 45 -186h2q15 73 43 185l110 450h75l112 -454q38 -160 42 -181h2q5 22 43 177l116 458h68l-196 -740h-67l-157 642h-2z" />
    <glyph glyph-name="wacute" unicode="&#x1e83;" horiz-adv-x="747" 
d="M350 583l95 156h91l-141 -156h-45zM252 0h-63l-160 520l69 13l75 -267l49 -179h2q23 91 48 179l72 260h63l73 -265q13 -45 47 -174h2q26 102 47 172l78 267h66l-162 -526h-64l-119 433h-2z" />
    <glyph glyph-name="Wdieresis" unicode="&#x1e84;" horiz-adv-x="925" 
d="M550 780q-20 0 -31.5 13.5t-11.5 35.5q0 21 12 34t31 13q21 0 32.5 -13t11.5 -34q0 -23 -11.5 -36t-32.5 -13zM374 780q-20 0 -31.5 13t-11.5 36q0 21 11.5 34t31.5 13t31.5 -13t11.5 -34q0 -23 -11.5 -36t-31.5 -13zM304 0h-67l-196 734l69 12l117 -455q26 -100 45 -186
h2q15 73 43 185l110 450h75l112 -454q38 -160 42 -181h2q5 22 43 177l116 458h68l-196 -740h-67l-157 642h-2z" />
    <glyph glyph-name="wdieresis" unicode="&#x1e85;" horiz-adv-x="747" 
d="M460 577q-20 0 -31.5 13.5t-11.5 35.5q0 21 12 34t31 13q21 0 32.5 -13t11.5 -34q0 -23 -11.5 -36t-32.5 -13zM284 577q-20 0 -31.5 13t-11.5 36q0 21 11.5 34t31.5 13t31.5 -13t11.5 -34q0 -23 -11.5 -36t-31.5 -13zM252 0h-63l-160 520l69 13l75 -267l49 -179h2
q23 91 48 179l72 260h63l73 -265q13 -45 47 -174h2q26 102 47 172l78 267h66l-162 -526h-64l-119 433h-2z" />
    <glyph glyph-name="Ygrave" unicode="&#x1ef2;" horiz-adv-x="618" 
d="M301 786l-141 156h91l95 -156h-45zM344 0h-71v326l-244 408l69 12l212 -359l208 353h74l-248 -414v-326z" />
    <glyph glyph-name="ygrave" unicode="&#x1ef3;" horiz-adv-x="527" 
d="M254 583l-141 156h91l95 -156h-45zM98 -201q-43 0 -70 7l-5 60q41 -9 76 -9q42 0 67 19.5t42 62.5l22 58l-201 523l69 13l166 -451h2l163 444h72l-227 -587q-29 -75 -66.5 -107.5t-109.5 -32.5z" />
    <glyph glyph-name="uni2000" unicode="&#x2000;" horiz-adv-x="500" 
 />
    <glyph glyph-name="uni2001" unicode="&#x2001;" horiz-adv-x="1000" 
 />
    <glyph glyph-name="space.en" unicode="&#x2002;" horiz-adv-x="500" 
 />
    <glyph glyph-name="space.em" unicode="&#x2003;" horiz-adv-x="1000" 
 />
    <glyph glyph-name="uni2004" unicode="&#x2004;" horiz-adv-x="333" 
 />
    <glyph glyph-name="uni2005" unicode="&#x2005;" horiz-adv-x="250" 
 />
    <glyph glyph-name="space.tab_en" unicode="&#x2007;" 
 />
    <glyph glyph-name="space.thin" unicode="&#x2009;" horiz-adv-x="200" 
 />
    <glyph glyph-name="uni200A" unicode="&#x200a;" horiz-adv-x="100" 
 />
    <glyph glyph-name="uni200B" unicode="&#x200b;" horiz-adv-x="0" 
 />
    <glyph glyph-name="endash.tab" unicode="&#x2012;" 
d="M69 282v63h512v-63h-512z" />
    <glyph glyph-name="endash" unicode="&#x2013;" horiz-adv-x="647" 
d="M580 282h-513v63h513v-63z" />
    <glyph glyph-name="emdash" unicode="&#x2014;" horiz-adv-x="924" 
d="M857 282h-790v63h790v-63z" />
    <glyph glyph-name="emdash.salt_em" unicode="&#x2015;" horiz-adv-x="1000" 
d="M0 282v63h1000v-63h-1000z" />
    <glyph glyph-name="quoteleft" unicode="&#x2018;" horiz-adv-x="268" 
d="M150 740h42l-26 -195h-86z" />
    <glyph glyph-name="quoteright" unicode="&#x2019;" horiz-adv-x="268" 
d="M122 545h-42l26 195h86z" />
    <glyph glyph-name="quotesinglbase" unicode="&#x201a;" horiz-adv-x="268" 
d="M121 -101h-42l26 195h86z" />
    <glyph glyph-name="quotedblleft" unicode="&#x201c;" horiz-adv-x="452" 
d="M150 740h42l-26 -195h-86zM333 740h41l-25 -195h-86z" />
    <glyph glyph-name="quotedblright" unicode="&#x201d;" horiz-adv-x="452" 
d="M304 545h-41l25 195h86zM122 545h-42l26 195h86z" />
    <glyph glyph-name="quotedblbase" unicode="&#x201e;" horiz-adv-x="452" 
d="M303 -101h-41l25 195h86zM121 -101h-42l26 195h86z" />
    <glyph glyph-name="dagger" unicode="&#x2020;" horiz-adv-x="556" 
d="M316 -200h-76l13 623l-204 -10v67l204 -11l-13 271h76l-13 -271l204 11v-67l-204 10z" />
    <glyph glyph-name="daggerdbl" unicode="&#x2021;" horiz-adv-x="556" 
d="M316 -200h-76l13 239l-196 -11v66l196 -11l-9 189l9 186l-196 -11v66l196 -11l-13 238h76l-13 -238l196 11v-66l-196 11l9 -186l-9 -189l196 11v-66l-196 11z" />
    <glyph glyph-name="bullet" unicode="&#x2022;" horiz-adv-x="463" 
d="M231 233q-51 0 -84 33t-33 84q0 52 33 85t84 33q52 0 85 -33t33 -85q0 -51 -33 -84t-85 -33z" />
    <glyph glyph-name="ellipsis" unicode="&#x2026;" horiz-adv-x="804" 
d="M670 -5q-23 0 -36 14.5t-13 38.5q0 23 13 37t36 14q22 0 35.5 -14t13.5 -37q0 -24 -13.5 -38.5t-35.5 -14.5zM402 -5q-23 0 -36 14.5t-13 38.5q0 23 13 37t36 14q22 0 35.5 -14t13.5 -37q0 -24 -13.5 -38.5t-35.5 -14.5zM134 -5q-23 0 -36 14.5t-13 38.5q0 23 13 37
t36 14q22 0 35.5 -14t13.5 -37q0 -24 -13.5 -38.5t-35.5 -14.5z" />
    <glyph glyph-name="perthousand" unicode="&#x2030;" horiz-adv-x="1378" 
d="M228 306q-79 0 -122.5 60t-43.5 160q0 103 45 163.5t122 60.5q76 0 120.5 -59.5t44.5 -160.5q0 -100 -44.5 -162t-121.5 -62zM296 0h-64l442 740h64zM229 360q48 0 75 47.5t27 120.5q0 76 -27 122t-76 46t-76 -46.5t-27 -119.5q0 -77 27.5 -123.5t76.5 -46.5zM1150 -10
q-78 0 -122 60.5t-44 159.5q0 103 45.5 163.5t122.5 60.5q76 0 120.5 -59.5t44.5 -161.5q0 -99 -45 -161t-122 -62zM741 -10q-78 0 -122 60.5t-44 159.5q0 103 45.5 163.5t122.5 60.5q76 0 120.5 -59.5t44.5 -161.5q0 -99 -44.5 -161t-122.5 -62zM1151 44q49 0 75.5 47
t26.5 121q0 77 -27 122.5t-76 45.5t-75.5 -47t-26.5 -120q0 -77 27 -123t76 -46zM742 44q49 0 75.5 47t26.5 121q0 77 -27 122.5t-76 45.5t-75.5 -47t-26.5 -120q0 -77 27 -123t76 -46z" />
    <glyph glyph-name="minute" unicode="&#x2032;" horiz-adv-x="233" 
d="M72 489l17 196l10 55h69l-61 -251h-35z" />
    <glyph glyph-name="second" unicode="&#x2033;" horiz-adv-x="405" 
d="M244 489l17 196l10 55h69l-61 -251h-35zM72 489l17 196l10 55h69l-61 -251h-35z" />
    <glyph glyph-name="guilsinglleft" unicode="&#x2039;" horiz-adv-x="324" 
d="M265 0h-72l-148 264l148 262h72l-145 -262z" />
    <glyph glyph-name="guilsinglright" unicode="&#x203a;" horiz-adv-x="324" 
d="M130 0h-71l145 264l-145 262h71l149 -262z" />
    <glyph glyph-name="fraction" unicode="&#x2044;" horiz-adv-x="466" 
d="M50 0h-65l431 740h65z" />
    <glyph glyph-name="zero.sups" unicode="&#x2070;" horiz-adv-x="472" 
d="M237 270q-84 0 -129.5 63.5t-45.5 174.5q0 110 45.5 175t129.5 65q81 0 127 -65t46 -175t-45.5 -174t-127.5 -64zM237 321q55 0 84.5 48t29.5 139q0 89 -30.5 139t-83.5 50q-56 0 -86 -49.5t-30 -139.5q0 -91 30.5 -139t85.5 -48z" />
    <glyph glyph-name="four.sups" unicode="&#x2074;" horiz-adv-x="438" 
d="M267 278v111h-212v39l207 312h63v-299h73l4 -52h-77v-111h-58zM123 440h145v220z" />
    <glyph glyph-name="five.sups" unicode="&#x2075;" horiz-adv-x="426" 
d="M208 270q-99 0 -158 89l40 33q47 -72 119 -72q51 0 78.5 31t27.5 77q0 50 -26.5 78t-69.5 28q-58 0 -93 -50l-50 19l16 237h252l1 -53h-203l-11 -142q31 38 99 38q61 0 102 -41.5t41 -111.5q0 -73 -44.5 -116.5t-120.5 -43.5z" />
    <glyph glyph-name="six.sups" unicode="&#x2076;" horiz-adv-x="444" 
d="M231 270q-76 0 -122.5 59t-46.5 174q0 112 49 178.5t135 66.5q82 0 132 -47l-31 -42q-52 39 -102 39q-58 0 -91 -47t-35 -134q55 57 125 57q73 0 110.5 -40t37.5 -107q0 -68 -44 -112.5t-117 -44.5zM232 320q46 0 73.5 28t27.5 78q0 99 -97 99q-66 0 -114 -64
q6 -70 36.5 -105.5t73.5 -35.5z" />
    <glyph glyph-name="seven.sups" unicode="&#x2077;" horiz-adv-x="405" 
d="M97 278l188 408h-226l-4 54h295v-46l-191 -416h-62z" />
    <glyph glyph-name="eight.sups" unicode="&#x2078;" horiz-adv-x="441" 
d="M220 270q-78 0 -123.5 35t-45.5 88q0 45 27.5 74.5t83.5 54.5q-46 22 -68 47t-22 64q0 47 40.5 81t107.5 34q69 0 109 -34t40 -81q0 -37 -23.5 -61.5t-71.5 -46.5q59 -27 87.5 -56.5t28.5 -75.5q0 -53 -46 -88t-124 -35zM223 546q50 23 69.5 40t19.5 44q0 29 -23.5 49.5
t-67.5 20.5q-43 0 -67 -20t-24 -48t20 -45.5t73 -40.5zM220 317q49 0 79.5 21.5t30.5 56.5q0 33 -28.5 57.5t-87.5 48.5q-57 -25 -81 -49t-24 -57q0 -34 31 -56t80 -22z" />
    <glyph glyph-name="nine.sups" unicode="&#x2079;" horiz-adv-x="444" 
d="M208 493q66 0 114 64q-6 70 -36.5 105.5t-73.5 35.5q-46 0 -73.5 -28t-27.5 -78q0 -99 97 -99zM198 270q-82 0 -132 47l31 42q49 -38 102 -38q59 0 91.5 46t34.5 134q-56 -58 -125 -58q-72 0 -110 40.5t-38 107.5q0 68 44 112.5t117 44.5q76 0 122.5 -59t46.5 -173
q0 -111 -49.5 -178.5t-134.5 -67.5z" />
    <glyph glyph-name="zero.sinf" unicode="&#x2080;" horiz-adv-x="472" 
d="M237 -208q-84 0 -129.5 63.5t-45.5 174.5q0 110 45.5 175t129.5 65q81 0 127 -65t46 -175t-45.5 -174t-127.5 -64zM237 -157q55 0 84.5 48t29.5 139q0 89 -30.5 139t-83.5 50q-56 0 -86 -49.5t-30 -139.5q0 -91 30.5 -139t85.5 -48z" />
    <glyph glyph-name="one.sinf" unicode="&#x2081;" horiz-adv-x="356" 
d="M221 -200h-60v403l-74 -21l-11 50l102 30h43v-462z" />
    <glyph glyph-name="two.sinf" unicode="&#x2082;" horiz-adv-x="446" 
d="M67 -199v19q0 54 33 102.5t120 103.5q50 31 70 55.5t20 57.5q0 36 -21 57.5t-61 21.5q-67 0 -107 -81l-48 27q53 108 157 108q65 0 102.5 -36t37.5 -95q0 -48 -27 -84t-95 -77q-104 -66 -114 -124h238v-55h-305z" />
    <glyph glyph-name="three.sinf" unicode="&#x2083;" horiz-adv-x="446" 
d="M221 -208q-107 0 -165 96l44 32q46 -74 120 -74q46 0 72 23t26 61q0 46 -31 69t-102 23h-26v48h29q121 0 121 77q0 32 -21 51.5t-64 19.5q-60 0 -107 -58l-41 34q63 78 150 78q71 0 107.5 -34.5t36.5 -85.5q0 -80 -78 -105q88 -27 88 -117q0 -60 -43.5 -99t-115.5 -39z
" />
    <glyph glyph-name="four.sinf" unicode="&#x2084;" horiz-adv-x="438" 
d="M267 -200v111h-212v39l207 312h63v-299h73l4 -52h-77v-111h-58zM123 -38h145v220z" />
    <glyph glyph-name="five.sinf" unicode="&#x2085;" horiz-adv-x="426" 
d="M208 -208q-99 0 -158 89l40 33q47 -72 119 -72q51 0 78.5 31t27.5 77q0 50 -26.5 78t-69.5 28q-58 0 -93 -50l-50 19l16 237h252l1 -53h-203l-11 -142q31 38 99 38q61 0 102 -41.5t41 -111.5q0 -73 -44.5 -116.5t-120.5 -43.5z" />
    <glyph glyph-name="six.sinf" unicode="&#x2086;" horiz-adv-x="444" 
d="M231 -208q-76 0 -122.5 59t-46.5 174q0 112 49 178.5t135 66.5q82 0 132 -47l-31 -42q-52 39 -102 39q-58 0 -91 -47t-35 -134q55 57 125 57q73 0 110.5 -40t37.5 -107q0 -68 -44 -112.5t-117 -44.5zM232 -158q46 0 73.5 28t27.5 78q0 99 -97 99q-66 0 -114 -64
q6 -70 36.5 -105.5t73.5 -35.5z" />
    <glyph glyph-name="seven.sinf" unicode="&#x2087;" horiz-adv-x="405" 
d="M97 -200l188 408h-226l-4 54h295v-46l-191 -416h-62z" />
    <glyph glyph-name="eight.sinf" unicode="&#x2088;" horiz-adv-x="441" 
d="M220 -208q-78 0 -123.5 35t-45.5 88q0 45 27.5 74.5t83.5 54.5q-46 22 -68 47t-22 64q0 47 40.5 81t107.5 34q69 0 109 -34t40 -81q0 -37 -23.5 -61.5t-71.5 -46.5q59 -27 87.5 -56.5t28.5 -75.5q0 -53 -46 -88t-124 -35zM223 68q50 23 69.5 40t19.5 44q0 29 -23.5 49.5
t-67.5 20.5q-43 0 -67 -20t-24 -48t20 -45.5t73 -40.5zM220 -161q49 0 79.5 21.5t30.5 56.5q0 33 -28.5 57.5t-87.5 48.5q-57 -25 -81 -49t-24 -57q0 -34 31 -56t80 -22z" />
    <glyph glyph-name="nine.sinf" unicode="&#x2089;" horiz-adv-x="444" 
d="M208 15q66 0 114 64q-6 70 -36.5 105.5t-73.5 35.5q-46 0 -73.5 -28t-27.5 -78q0 -99 97 -99zM198 -208q-82 0 -132 47l31 42q49 -38 102 -38q59 0 91.5 46t34.5 134q-56 -58 -125 -58q-72 0 -110 40.5t-38 107.5q0 68 44 112.5t117 44.5q76 0 122.5 -59t46.5 -173
q0 -111 -49.5 -178.5t-134.5 -67.5z" />
    <glyph glyph-name="Euro" unicode="&#x20ac;" horiz-adv-x="717" 
d="M140 374q0 6 0.5 22t0.5 21h-120v55h126q21 139 95.5 210.5t174.5 71.5q176 0 235 -200l-64 -24q-25 83 -62 122t-110 39q-76 0 -130 -55t-70 -164h227v-55h-233q-1 -11 -1 -39q0 -22 2 -56h232v-57h-226q16 -106 68 -161.5t133 -55.5q73 0 115.5 42t65.5 128l63 -25
q-62 -207 -245 -207q-105 0 -176.5 70.5t-92.5 208.5h-127v57h121q-2 32 -2 52z" />
    <glyph glyph-name="uni2117" unicode="&#x2117;" horiz-adv-x="863" 
d="M431 -14q-159 0 -270 112t-111 272t111 272t271 112q159 0 270 -112t111 -272t-111 -272t-271 -112zM432 27q141 0 239 100t98 243q0 142 -98.5 242.5t-239.5 100.5t-239 -100t-98 -243q0 -142 98.5 -242.5t239.5 -100.5zM355 159h-49v424h144q71 0 109.5 -30t38.5 -87
q0 -61 -40 -91.5t-112 -30.5h-91v-185zM355 538v-150h93q101 0 101 76q0 74 -102 74h-92z" />
    <glyph glyph-name="trademark" unicode="&#x2122;" horiz-adv-x="876" 
d="M215 317h-53v376h-132v47h316v-47h-131v-376zM470 317h-49v423h69l127 -353l129 353h70v-423h-54v332l-123 -332h-45l-124 332v-332z" />
    <glyph glyph-name="uni2126" unicode="&#x2126;" horiz-adv-x="742" 
d="M371 754q142 0 222.5 -103.5t80.5 -256.5q0 -101 -45 -188t-123 -145h161v-61h-230v61q167 135 167 332q0 130 -62.5 214.5t-171.5 84.5q-106 0 -169.5 -82.5t-63.5 -215.5q0 -196 168 -333v-61h-230v61h161q-78 57 -123.5 144.5t-45.5 188.5q0 153 81.5 256.5
t222.5 103.5z" />
    <glyph glyph-name="estimated" unicode="&#x212e;" horiz-adv-x="697" 
d="M664 318h-490v-220q71 -71 174 -71q84 0 137.5 37t99.5 108l37 -23q-50 -78 -114 -119.5t-160 -41.5q-138 0 -224 96t-86 235q0 141 85.5 236t227.5 95t226.5 -95.5t86.5 -236.5zM525 358v182q-76 71 -175 71q-105 0 -176 -71v-182h351z" />
    <glyph glyph-name="onethird" unicode="&#x2153;" horiz-adv-x="1037" 
d="M309 0h-65l431 740h65zM201 272h-60v403l-74 -21l-11 50l102 30h43v-462zM832 -8q-107 0 -165 96l44 32q46 -74 120 -74q46 0 72 23t26 61q0 46 -31 69t-102 23h-26v48h29q121 0 121 77q0 32 -21 51.5t-64 19.5q-60 0 -107 -58l-41 34q63 78 150 78q71 0 107.5 -34.5
t36.5 -85.5q0 -80 -78 -105q88 -27 88 -117q0 -60 -43.5 -99t-115.5 -39z" />
    <glyph glyph-name="twothirds" unicode="&#x2154;" horiz-adv-x="1120" 
d="M47 273v19q0 54 33 102.5t120 103.5q50 31 70 55.5t20 57.5q0 36 -21 57.5t-61 21.5q-67 0 -107 -81l-48 27q53 108 157 108q65 0 102.5 -36t37.5 -95q0 -48 -27 -84t-95 -77q-104 -66 -114 -124h238v-55h-305zM392 0h-65l431 740h65zM915 -8q-107 0 -165 96l44 32
q46 -74 120 -74q46 0 72 23t26 61q0 46 -31 69t-102 23h-26v48h29q121 0 121 77q0 32 -21 51.5t-64 19.5q-60 0 -107 -58l-41 34q63 78 150 78q71 0 107.5 -34.5t36.5 -85.5q0 -80 -78 -105q88 -27 88 -117q0 -60 -43.5 -99t-115.5 -39z" />
    <glyph glyph-name="oneeighth" unicode="&#x215b;" horiz-adv-x="1025" 
d="M309 0h-65l431 740h65zM201 272h-60v403l-74 -21l-11 50l102 30h43v-462zM824 -8q-78 0 -123.5 35t-45.5 88q0 45 27.5 74.5t83.5 54.5q-46 22 -68 47t-22 64q0 47 40.5 81t107.5 34q69 0 109 -34t40 -81q0 -37 -23.5 -61.5t-71.5 -46.5q59 -27 87.5 -56.5t28.5 -75.5
q0 -53 -46 -88t-124 -35zM827 268q50 23 69.5 40t19.5 44q0 29 -23.5 49.5t-67.5 20.5q-43 0 -67 -20t-24 -48t20 -45.5t73 -40.5zM824 39q49 0 79.5 21.5t30.5 56.5q0 33 -28.5 57.5t-87.5 48.5q-57 -25 -81 -49t-24 -57q0 -34 31 -56t80 -22z" />
    <glyph glyph-name="threeeighths" unicode="&#x215c;" horiz-adv-x="1069" 
d="M353 0h-65l431 740h65zM868 -8q-78 0 -123.5 35t-45.5 88q0 45 27.5 74.5t83.5 54.5q-46 22 -68 47t-22 64q0 47 40.5 81t107.5 34q69 0 109 -34t40 -81q0 -37 -23.5 -61.5t-71.5 -46.5q59 -27 87.5 -56.5t28.5 -75.5q0 -53 -46 -88t-124 -35zM871 268q50 23 69.5 40
t19.5 44q0 29 -23.5 49.5t-67.5 20.5q-43 0 -67 -20t-24 -48t20 -45.5t73 -40.5zM201 264q-107 0 -165 96l44 32q46 -74 120 -74q46 0 72 23t26 61q0 46 -31 69t-102 23h-26v48h29q121 0 121 77q0 32 -21 51.5t-64 19.5q-60 0 -107 -58l-41 34q63 78 150 78
q71 0 107.5 -34.5t36.5 -85.5q0 -80 -78 -105q88 -27 88 -117q0 -60 -43.5 -99t-115.5 -39zM868 39q49 0 79.5 21.5t30.5 56.5q0 33 -28.5 57.5t-87.5 48.5q-57 -25 -81 -49t-24 -57q0 -34 31 -56t80 -22z" />
    <glyph glyph-name="fiveeighths" unicode="&#x215d;" horiz-adv-x="1051" 
d="M335 0h-65l431 740h65zM850 -8q-78 0 -123.5 35t-45.5 88q0 45 27.5 74.5t83.5 54.5q-46 22 -68 47t-22 64q0 47 40.5 81t107.5 34q69 0 109 -34t40 -81q0 -37 -23.5 -61.5t-71.5 -46.5q59 -27 87.5 -56.5t28.5 -75.5q0 -53 -46 -88t-124 -35zM853 268q50 23 69.5 40
t19.5 44q0 29 -23.5 49.5t-67.5 20.5q-43 0 -67 -20t-24 -48t20 -45.5t73 -40.5zM188 264q-99 0 -158 89l40 33q47 -72 119 -72q51 0 78.5 31t27.5 77q0 50 -26.5 78t-69.5 28q-58 0 -93 -50l-50 19l16 237h252l1 -53h-203l-11 -142q31 38 99 38q61 0 102 -41.5t41 -111.5
q0 -73 -44.5 -116.5t-120.5 -43.5zM850 39q49 0 79.5 21.5t30.5 56.5q0 33 -28.5 57.5t-87.5 48.5q-57 -25 -81 -49t-24 -57q0 -34 31 -56t80 -22z" />
    <glyph glyph-name="seveneighths" unicode="&#x215e;" horiz-adv-x="957" 
d="M241 0h-65l431 740h65zM77 272l188 408h-226l-4 54h295v-46l-191 -416h-62zM756 -8q-78 0 -123.5 35t-45.5 88q0 45 27.5 74.5t83.5 54.5q-46 22 -68 47t-22 64q0 47 40.5 81t107.5 34q69 0 109 -34t40 -81q0 -37 -23.5 -61.5t-71.5 -46.5q59 -27 87.5 -56.5t28.5 -75.5
q0 -53 -46 -88t-124 -35zM759 268q50 23 69.5 40t19.5 44q0 29 -23.5 49.5t-67.5 20.5q-43 0 -67 -20t-24 -48t20 -45.5t73 -40.5zM756 39q49 0 79.5 21.5t30.5 56.5q0 33 -28.5 57.5t-87.5 48.5q-57 -25 -81 -49t-24 -57q0 -34 31 -56t80 -22z" />
    <glyph glyph-name="partialdiff" unicode="&#x2202;" horiz-adv-x="570" 
d="M342 753q95 -80 135 -187.5t40 -250.5q0 -142 -80.5 -234t-191.5 -92q-98 0 -154.5 64.5t-56.5 165.5q0 132 80 217t181 85t153 -89q-23 171 -146 282zM247 41q77 0 138 72t61 179q0 79 -37.5 128.5t-101.5 49.5q-80 0 -142 -71.5t-62 -179.5q0 -78 39 -128t105 -50z" />
    <glyph glyph-name="uni2206" unicode="&#x2206;" horiz-adv-x="669" 
d="M33 0l267 744h68l267 -744h-602zM119 61h425l-211 591h-1z" />
    <glyph glyph-name="product" unicode="&#x220f;" horiz-adv-x="725" 
d="M95 -200v940h535v-940h-70v877h-394v-877h-71z" />
    <glyph glyph-name="summation" unicode="&#x2211;" horiz-adv-x="591" 
d="M368 287l-237 -426h404v-61h-480v55l239 429l-226 394v62h456v-63h-379z" />
    <glyph glyph-name="minus" unicode="&#x2212;" horiz-adv-x="636" 
d="M571 299h-506v60h506v-60z" />
    <glyph glyph-name="uni2215" unicode="&#x2215;" horiz-adv-x="466" 
d="M50 0h-65l431 740h65z" />
    <glyph glyph-name="uni2219" unicode="&#x2219;" horiz-adv-x="269" 
d="M134 267q-22 0 -35 14t-13 38t13 38t35 14q23 0 36.5 -14t13.5 -38t-13.5 -38t-36.5 -14z" />
    <glyph glyph-name="radical" unicode="&#x221a;" horiz-adv-x="654" 
d="M365 -3h-69l-173 470h-85v59h137l156 -444h2l233 658h70z" />
    <glyph glyph-name="infinity" unicode="&#x221e;" horiz-adv-x="762" 
d="M202 188q-80 0 -122.5 43.5t-42.5 127.5q0 83 42.5 127.5t122.5 44.5q108 0 179 -120q71 120 179 120q80 0 122.5 -44.5t42.5 -127.5q0 -84 -42.5 -127.5t-122.5 -43.5q-107 0 -179 122q-72 -122 -179 -122zM558 244q52 0 79.5 29.5t27.5 85.5t-27.5 86t-79.5 30
q-47 0 -80 -29.5t-67 -84.5q34 -57 67 -87t80 -30zM204 244q48 0 80.5 29.5t66.5 85.5q-23 36 -40 58t-45.5 40t-61.5 18q-52 0 -79.5 -30t-27.5 -86t27.5 -85.5t79.5 -29.5z" />
    <glyph glyph-name="integral" unicode="&#x222b;" horiz-adv-x="330" 
d="M118 606q0 135 152 135q35 0 39 -2v-56q-8 1 -35 1q-87 0 -87 -76v-696q0 -56 -26 -84.5t-85 -28.5q-20 0 -41 3v56q12 -4 32 -4q51 0 51 58v694z" />
    <glyph glyph-name="approxequal" unicode="&#x2248;" horiz-adv-x="596" 
d="M422 356q-34 2 -131 37.5t-116 37.5q-51 5 -56 -47l-47 6q5 55 33.5 80t74.5 22q35 -2 131.5 -38t115.5 -38q52 -3 56 48l47 -5q-5 -54 -34 -80t-74 -23zM416 154q-34 2 -130.5 38t-116.5 38q-52 3 -57 -48l-47 6q12 109 108 102q35 -2 131.5 -38t116.5 -37q51 -5 56 47
l47 -5q-5 -54 -34 -80t-74 -23z" />
    <glyph glyph-name="notequal" unicode="&#x2260;" horiz-adv-x="636" 
d="M135 0l87 181h-157v59h183l82 169h-265v59h291l94 195h66l-93 -195h147v-59h-173l-83 -169h256v-59h-282l-87 -181h-66z" />
    <glyph glyph-name="lessequal" unicode="&#x2264;" horiz-adv-x="636" 
d="M580 139l-529 193v50l529 194v-65l-438 -154l438 -153v-65zM51 50v58h529v-58h-529z" />
    <glyph glyph-name="greaterequal" unicode="&#x2265;" horiz-adv-x="636" 
d="M57 139v65l438 153l-438 154v65l529 -194v-50zM57 50v58h529v-58h-529z" />
    <glyph glyph-name="lozenge" unicode="&#x25ca;" 
d="M294 740h61l236 -370l-235 -370h-62l-235 370zM325 71l193 299l-193 299l-193 -299z" />
    <glyph glyph-name="uni2713" unicode="&#x2713;" horiz-adv-x="578" 
d="M289 -3h-69l-194 529h74l156 -444h2l232 658h71z" />
    <glyph glyph-name="commaaccent" unicode="&#xf6c3;" horiz-adv-x="268" 
d="M121 -236h-39l24 191h84z" />
    <glyph glyph-name="apple" unicode="&#xf8ff;" horiz-adv-x="760" 
d="M406 513v-118h117l-5 112zM244 508l-6 -113h117v118zM406 344v-116l111 5l6 111h-117zM243 234l112 -6v116h-117zM418 0h-76l13 188l-109 -6l2 -34h-62l2 30l-29 -2v62l33 -1l6 107l-188 -13v76l188 -12l-6 110l-33 -2v61l29 -1l-2 28h62l-1 -32l108 -6l-13 187h76
l-12 -187l109 6l-2 32h61l-1 -29l29 2v-61l-33 1l-6 -109l187 12v-76l-187 13l6 -108l33 2v-62l-30 2l2 -30h-61l1 34l-108 6z" />
    <glyph glyph-name="uniFEFF" unicode="&#xfeff;" horiz-adv-x="0" 
 />
    <glyph glyph-name="commaaccent.scrap" horiz-adv-x="268" 
d="M151 773h39l-24 -190h-84z" />
    <glyph glyph-name="space.frac" horiz-adv-x="80" 
 />
    <glyph glyph-name="space.tab_em" horiz-adv-x="1300" 
 />
    <glyph glyph-name="space.tab_thin" horiz-adv-x="163" 
 />
    <glyph glyph-name="space.thin_fra" horiz-adv-x="120" 
 />
    <glyph glyph-name="hyphen.uc" horiz-adv-x="357" 
d="M291 354h-225v60h225v-60z" />
    <glyph glyph-name="endash.uc" horiz-adv-x="647" 
d="M580 352h-513v63h513v-63z" />
    <glyph glyph-name="emdash.uc" horiz-adv-x="924" 
d="M857 352h-790v63h790v-63z" />
    <glyph glyph-name="parenleft.uc" horiz-adv-x="397" 
d="M344 -101l-32 -34q-249 209 -249 478t249 478l31 -35q-204 -188 -204 -443q0 -129 54 -242.5t151 -201.5z" />
    <glyph glyph-name="parenright.uc" horiz-adv-x="397" 
d="M85 -135l-31 34q96 89 150.5 202t54.5 242q0 128 -54.5 241t-150.5 202l31 35q250 -210 250 -478t-250 -478z" />
    <glyph glyph-name="bracketleft.uc" horiz-adv-x="389" 
d="M342 -130h-254v940h254v-53h-184v-834h184v-53z" />
    <glyph glyph-name="bracketright.uc" horiz-adv-x="389" 
d="M301 -130h-254v53h184v833h-184v54h254v-940z" />
    <glyph glyph-name="braceleft.uc" horiz-adv-x="380" 
d="M338 -130h-62q-130 0 -130 136v188q0 70 -25.5 95t-85.5 25v52q60 0 85.5 25t25.5 95v188q0 136 130 136h62v-53h-44q-78 0 -78 -77v-197q0 -69 -20 -98t-65 -44v-2q45 -15 65 -44t20 -98v-197q0 -77 78 -77h44v-53z" />
    <glyph glyph-name="braceright.uc" horiz-adv-x="380" 
d="M107 -130h-65v53h44q78 0 78 77v200q0 68 20 96t65 43v2q-45 15 -65 43t-20 96v200q0 80 -74 80h-44l-4 50h65q67 0 97 -33t30 -100v-191q0 -70 25.5 -95t85.5 -25v-52q-60 0 -85.5 -25t-25.5 -95v-191q0 -67 -30 -100t-97 -33z" />
    <glyph glyph-name="guilsinglleft.uc" horiz-adv-x="324" 
d="M265 70h-72l-148 264l148 262h72l-145 -262z" />
    <glyph glyph-name="guilsinglright.uc" horiz-adv-x="324" 
d="M130 70h-71l145 264l-145 262h71l149 -262z" />
    <glyph glyph-name="guillemotleft.uc" horiz-adv-x="522" 
d="M265 70h-72l-148 264l148 262h72l-145 -262zM463 70h-72l-148 264l148 262h72l-146 -262z" />
    <glyph glyph-name="guillemotright.uc" horiz-adv-x="522" 
d="M130 70h-71l145 264l-145 262h71l149 -262zM328 70h-71l145 264l-145 262h71l149 -262z" />
    <glyph glyph-name="periodcentered.uc" horiz-adv-x="269" 
d="M134 337q-22 0 -35 14t-13 38t13 38t35 14q23 0 36.5 -14t13.5 -38t-13.5 -38t-36.5 -14z" />
    <glyph glyph-name="endash.salt_en" horiz-adv-x="500" 
d="M0 282v63h500v-63h-500z" />
    <glyph glyph-name="emdash.uc_salt_em" horiz-adv-x="1000" 
d="M0 352v63h1000v-63h-1000z" />
    <glyph glyph-name="endash.uc_salt_en" horiz-adv-x="500" 
d="M0 352v63h500v-63h-500z" />
    <glyph glyph-name="registered.salt_big" horiz-adv-x="863" 
d="M431 -14q-159 0 -270 112t-111 272t111 272t271 112q159 0 270 -112t111 -272t-111 -272t-271 -112zM432 27q141 0 239 100t98 243q0 142 -98.5 242.5t-239.5 100.5t-239 -100t-98 -243q0 -142 98.5 -242.5t239.5 -100.5zM343 166h-50v423h144q72 0 110.5 -30.5
t38.5 -86.5q0 -94 -96 -114l103 -191l-53 -2l-101 186h-96v-185zM343 543v-150h92q102 0 102 77q0 73 -103 73h-91z" />
    <glyph glyph-name="zero.dnom" horiz-adv-x="432" 
d="M217 -8q-84 0 -129.5 63.5t-45.5 174.5q0 110 45.5 175t129.5 65q81 0 127 -65t46 -175t-45.5 -174t-127.5 -64zM217 43q55 0 84.5 48t29.5 139q0 89 -30.5 139t-83.5 50q-56 0 -86 -49.5t-30 -139.5q0 -91 30.5 -139t85.5 -48z" />
    <glyph glyph-name="one.dnom" horiz-adv-x="316" 
d="M201 0h-60v403l-74 -21l-11 50l102 30h43v-462z" />
    <glyph glyph-name="two.dnom" horiz-adv-x="406" 
d="M47 1v19q0 54 33 102.5t120 103.5q50 31 70 55.5t20 57.5q0 36 -21 57.5t-61 21.5q-67 0 -107 -81l-48 27q53 108 157 108q65 0 102.5 -36t37.5 -95q0 -48 -27 -84t-95 -77q-104 -66 -114 -124h238v-55h-305z" />
    <glyph glyph-name="three.dnom" horiz-adv-x="406" 
d="M201 -8q-107 0 -165 96l44 32q46 -74 120 -74q46 0 72 23t26 61q0 46 -31 69t-102 23h-26v48h29q121 0 121 77q0 32 -21 51.5t-64 19.5q-60 0 -107 -58l-41 34q63 78 150 78q71 0 107.5 -34.5t36.5 -85.5q0 -80 -78 -105q88 -27 88 -117q0 -60 -43.5 -99t-115.5 -39z" />
    <glyph glyph-name="four.dnom" horiz-adv-x="398" 
d="M247 0v111h-212v39l207 312h63v-299h73l4 -52h-77v-111h-58zM103 162h145v220z" />
    <glyph glyph-name="five.dnom" horiz-adv-x="386" 
d="M188 -8q-99 0 -158 89l40 33q47 -72 119 -72q51 0 78.5 31t27.5 77q0 50 -26.5 78t-69.5 28q-58 0 -93 -50l-50 19l16 237h252l1 -53h-203l-11 -142q31 38 99 38q61 0 102 -41.5t41 -111.5q0 -73 -44.5 -116.5t-120.5 -43.5z" />
    <glyph glyph-name="six.dnom" horiz-adv-x="404" 
d="M211 -8q-76 0 -122.5 59t-46.5 174q0 112 49 178.5t135 66.5q82 0 132 -47l-31 -42q-52 39 -102 39q-58 0 -91 -47t-35 -134q55 57 125 57q73 0 110.5 -40t37.5 -107q0 -68 -44 -112.5t-117 -44.5zM212 42q46 0 73.5 28t27.5 78q0 99 -97 99q-66 0 -114 -64
q6 -70 36.5 -105.5t73.5 -35.5z" />
    <glyph glyph-name="seven.dnom" horiz-adv-x="365" 
d="M77 0l188 408h-226l-4 54h295v-46l-191 -416h-62z" />
    <glyph glyph-name="eight.dnom" horiz-adv-x="401" 
d="M200 -8q-78 0 -123.5 35t-45.5 88q0 45 27.5 74.5t83.5 54.5q-46 22 -68 47t-22 64q0 47 40.5 81t107.5 34q69 0 109 -34t40 -81q0 -37 -23.5 -61.5t-71.5 -46.5q59 -27 87.5 -56.5t28.5 -75.5q0 -53 -46 -88t-124 -35zM203 268q50 23 69.5 40t19.5 44q0 29 -23.5 49.5
t-67.5 20.5q-43 0 -67 -20t-24 -48t20 -45.5t73 -40.5zM200 39q49 0 79.5 21.5t30.5 56.5q0 33 -28.5 57.5t-87.5 48.5q-57 -25 -81 -49t-24 -57q0 -34 31 -56t80 -22z" />
    <glyph glyph-name="nine.dnom" horiz-adv-x="404" 
d="M188 215q66 0 114 64q-6 70 -36.5 105.5t-73.5 35.5q-46 0 -73.5 -28t-27.5 -78q0 -99 97 -99zM178 -8q-82 0 -132 47l31 42q49 -38 102 -38q59 0 91.5 46t34.5 134q-56 -58 -125 -58q-72 0 -110 40.5t-38 107.5q0 68 44 112.5t117 44.5q76 0 122.5 -59t46.5 -173
q0 -111 -49.5 -178.5t-134.5 -67.5z" />
    <glyph glyph-name="zero.numr" horiz-adv-x="432" 
d="M217 264q-84 0 -129.5 63.5t-45.5 174.5q0 110 45.5 175t129.5 65q81 0 127 -65t46 -175t-45.5 -174t-127.5 -64zM217 315q55 0 84.5 48t29.5 139q0 89 -30.5 139t-83.5 50q-56 0 -86 -49.5t-30 -139.5q0 -91 30.5 -139t85.5 -48z" />
    <glyph glyph-name="one.numr" horiz-adv-x="316" 
d="M201 272h-60v403l-74 -21l-11 50l102 30h43v-462z" />
    <glyph glyph-name="two.numr" horiz-adv-x="406" 
d="M47 273v19q0 54 33 102.5t120 103.5q50 31 70 55.5t20 57.5q0 36 -21 57.5t-61 21.5q-67 0 -107 -81l-48 27q53 108 157 108q65 0 102.5 -36t37.5 -95q0 -48 -27 -84t-95 -77q-104 -66 -114 -124h238v-55h-305z" />
    <glyph glyph-name="three.numr" horiz-adv-x="406" 
d="M201 264q-107 0 -165 96l44 32q46 -74 120 -74q46 0 72 23t26 61q0 46 -31 69t-102 23h-26v48h29q121 0 121 77q0 32 -21 51.5t-64 19.5q-60 0 -107 -58l-41 34q63 78 150 78q71 0 107.5 -34.5t36.5 -85.5q0 -80 -78 -105q88 -27 88 -117q0 -60 -43.5 -99t-115.5 -39z
" />
    <glyph glyph-name="four.numr" horiz-adv-x="398" 
d="M247 272v111h-212v39l207 312h63v-299h73l4 -52h-77v-111h-58zM103 434h145v220z" />
    <glyph glyph-name="five.numr" horiz-adv-x="386" 
d="M188 264q-99 0 -158 89l40 33q47 -72 119 -72q51 0 78.5 31t27.5 77q0 50 -26.5 78t-69.5 28q-58 0 -93 -50l-50 19l16 237h252l1 -53h-203l-11 -142q31 38 99 38q61 0 102 -41.5t41 -111.5q0 -73 -44.5 -116.5t-120.5 -43.5z" />
    <glyph glyph-name="six.numr" horiz-adv-x="404" 
d="M211 264q-76 0 -122.5 59t-46.5 174q0 112 49 178.5t135 66.5q82 0 132 -47l-31 -42q-52 39 -102 39q-58 0 -91 -47t-35 -134q55 57 125 57q73 0 110.5 -40t37.5 -107q0 -68 -44 -112.5t-117 -44.5zM212 314q46 0 73.5 28t27.5 78q0 99 -97 99q-66 0 -114 -64
q6 -70 36.5 -105.5t73.5 -35.5z" />
    <glyph glyph-name="seven.numr" horiz-adv-x="365" 
d="M77 272l188 408h-226l-4 54h295v-46l-191 -416h-62z" />
    <glyph glyph-name="eight.numr" horiz-adv-x="401" 
d="M200 264q-78 0 -123.5 35t-45.5 88q0 45 27.5 74.5t83.5 54.5q-46 22 -68 47t-22 64q0 47 40.5 81t107.5 34q69 0 109 -34t40 -81q0 -37 -23.5 -61.5t-71.5 -46.5q59 -27 87.5 -56.5t28.5 -75.5q0 -53 -46 -88t-124 -35zM203 540q50 23 69.5 40t19.5 44q0 29 -23.5 49.5
t-67.5 20.5q-43 0 -67 -20t-24 -48t20 -45.5t73 -40.5zM200 311q49 0 79.5 21.5t30.5 56.5q0 33 -28.5 57.5t-87.5 48.5q-57 -25 -81 -49t-24 -57q0 -34 31 -56t80 -22z" />
    <glyph glyph-name="nine.numr" horiz-adv-x="404" 
d="M188 487q66 0 114 64q-6 70 -36.5 105.5t-73.5 35.5q-46 0 -73.5 -28t-27.5 -78q0 -99 97 -99zM178 264q-82 0 -132 47l31 42q49 -38 102 -38q59 0 91.5 46t34.5 134q-56 -58 -125 -58q-72 0 -110 40.5t-38 107.5q0 68 44 112.5t117 44.5q76 0 122.5 -59t46.5 -173
q0 -111 -49.5 -178.5t-134.5 -67.5z" />
    <glyph glyph-name="zero.salt_slash" horiz-adv-x="653" 
d="M327 -14q-129 0 -200.5 104t-71.5 280t71.5 280t200.5 104q128 0 199 -104t71 -280t-71 -280t-199 -104zM125 370q0 -110 30 -189l320 422q-53 88 -148 88t-148.5 -83.5t-53.5 -237.5zM327 48q94 0 147 84t53 238q0 109 -28 185l-321 -420q53 -87 149 -87z" />
    <glyph glyph-name="zero.sc_salt_slash" horiz-adv-x="524" 
d="M262 -14q-104 0 -162.5 84t-58.5 225t58.5 225t162.5 84q105 0 163.5 -84t58.5 -225t-58.5 -225t-163.5 -84zM107 295q0 -83 22 -144l242 336q-42 60 -109 60q-73 0 -114 -65.5t-41 -186.5zM262 44q74 0 114.5 65.5t40.5 185.5q0 85 -22 146l-242 -337q42 -60 109 -60z
" />
    <glyph glyph-name="zero.tab_salt_slash" 
d="M325 -14q-129 0 -200 104t-71 280t71 280t200 104q128 0 199 -104t71 -280t-71 -280t-199 -104zM124 370q0 -113 29 -188l321 422q-53 87 -149 87q-95 0 -148 -83t-53 -238zM325 48q95 0 148 83.5t53 238.5q0 111 -29 186l-321 -421q53 -87 149 -87z" />
    <glyph glyph-name="i.trk" horiz-adv-x="240" 
d="M120 642q-19 0 -30.5 12t-11.5 32t11 31t31 11t31 -11t11 -31t-11.5 -32t-30.5 -12zM155 0h-69v526h69v-526z" />
    <glyph glyph-name="A.sc" horiz-adv-x="576" 
d="M30 0l223 594h71l220 -589l-67 -10l-66 180h-249l-66 -175h-66zM180 230h210l-51 142l-52 143h-2l-52 -143z" />
    <glyph glyph-name="Agrave.sc" horiz-adv-x="576" 
d="M272 643l-141 156h91l95 -156h-45zM30 0l223 594h71l220 -589l-67 -10l-66 180h-249l-66 -175h-66zM180 230h210l-51 142l-52 143h-2l-52 -143z" />
    <glyph glyph-name="Aacute.sc" horiz-adv-x="576" 
d="M261 643l95 156h91l-141 -156h-45zM30 0l223 594h71l220 -589l-67 -10l-66 180h-249l-66 -175h-66zM180 230h210l-51 142l-52 143h-2l-52 -143z" />
    <glyph glyph-name="Acircumflex.sc" horiz-adv-x="576" 
d="M133 640l129 159h52l129 -159h-44l-112 98l-112 -98h-42zM30 0l223 594h71l220 -589l-67 -10l-66 180h-249l-66 -175h-66zM180 230h210l-51 142l-52 143h-2l-52 -143z" />
    <glyph glyph-name="Atilde.sc" horiz-adv-x="576" 
d="M362 640q-30 0 -79.5 28t-68.5 28q-22 0 -31.5 -13.5t-8.5 -44.5l-44 8q0 106 84 106q30 0 79.5 -28t68.5 -28q22 0 31.5 13.5t9.5 44.5l43 -8q0 -106 -84 -106zM30 0l223 594h71l220 -589l-67 -10l-66 180h-249l-66 -175h-66zM180 230h210l-51 142l-52 143h-2l-52 -143z
" />
    <glyph glyph-name="Adieresis.sc" horiz-adv-x="576" 
d="M375 637q-20 0 -31.5 13.5t-11.5 35.5q0 21 12 34t31 13q21 0 32.5 -13t11.5 -34q0 -23 -11.5 -36t-32.5 -13zM199 637q-20 0 -31.5 13t-11.5 36q0 21 11.5 34t31.5 13t31.5 -13t11.5 -34q0 -23 -11.5 -36t-31.5 -13zM30 0l223 594h71l220 -589l-67 -10l-66 180h-249
l-66 -175h-66zM180 230h210l-51 142l-52 143h-2l-52 -143z" />
    <glyph glyph-name="Aring.sc" horiz-adv-x="576" 
d="M477 -5l-66 180h-249l-66 -175h-66l214 570q-47 24 -47 81q0 39 25.5 65t65.5 26t65.5 -26t25.5 -65q0 -55 -46 -80l211 -566zM288 595q23 0 38 15.5t15 40.5q0 24 -15 40t-38 16t-38 -16t-15 -40q0 -25 15 -40.5t38 -15.5zM180 230h210l-51 142l-52 143h-2l-52 -143z
" />
    <glyph glyph-name="Amacron.sc" horiz-adv-x="576" 
d="M161 642v59h254v-59h-254zM30 0l223 594h71l220 -589l-67 -10l-66 180h-249l-66 -175h-66zM180 230h210l-51 142l-52 143h-2l-52 -143z" />
    <glyph glyph-name="Abreve.sc" horiz-adv-x="576" 
d="M288 639q-66 0 -106 44t-44 120h44q13 -109 106 -109t106 109h44q-4 -76 -44 -120t-106 -44zM30 0l223 594h71l220 -589l-67 -10l-66 180h-249l-66 -175h-66zM180 230h210l-51 142l-52 143h-2l-52 -143z" />
    <glyph glyph-name="Aogonek.sc" horiz-adv-x="576" 
d="M483 -187q-43 0 -68 20.5t-25 56.5q0 29 24 59.5t60 53.5l-63 172h-249l-66 -175h-66l223 594h71l220 -589l-24 -4q-72 -50 -72 -100q0 -48 52 -48q42 0 95 24l15 -26q-66 -38 -127 -38zM180 230h210l-51 142l-52 143h-2l-52 -143z" />
    <glyph glyph-name="B.sc" horiz-adv-x="585" 
d="M80 0v592h222q108 0 161 -34.5t53 -114.5q0 -56 -31.5 -91t-78.5 -45v-2q130 -21 130 -144q0 -79 -55 -120t-160 -41h-241zM147 537v-206h148q76 0 114.5 24t38.5 79q0 56 -35 79.5t-114 23.5h-152zM147 276v-221h171q77 0 113.5 27t36.5 83q0 111 -167 111h-154z" />
    <glyph glyph-name="C.sc" horiz-adv-x="597" 
d="M313 -11q-119 0 -191.5 83.5t-72.5 225.5q0 136 73.5 220.5t190.5 84.5q160 0 219 -135l-59 -29q-43 107 -161 107q-89 0 -141.5 -67.5t-52.5 -178.5q0 -119 53 -186.5t143 -67.5q124 0 168 114l61 -24q-63 -147 -230 -147z" />
    <glyph glyph-name="Ccedilla.sc" horiz-adv-x="597" 
d="M299 -195q-68 0 -124 37l19 29q45 -30 97 -30q75 0 75 48q0 35 -42 35q-28 0 -53 -20l-28 13l24 76q-100 16 -159 97t-59 208q0 136 73.5 220.5t190.5 84.5q160 0 219 -135l-59 -29q-43 107 -161 107q-89 0 -141.5 -67.5t-52.5 -178.5q0 -119 53 -186.5t143 -67.5
q124 0 168 114l61 -24q-63 -147 -230 -147h-5l-13 -43q23 15 54 15q30 0 50.5 -18t20.5 -50q0 -44 -34 -66t-87 -22z" />
    <glyph glyph-name="Cacute.sc" horiz-adv-x="597" 
d="M247 643l95 156h91l-141 -156h-45zM313 -11q-119 0 -191.5 83.5t-72.5 225.5q0 136 73.5 220.5t190.5 84.5q160 0 219 -135l-59 -29q-43 107 -161 107q-89 0 -141.5 -67.5t-52.5 -178.5q0 -119 53 -186.5t143 -67.5q124 0 168 114l61 -24q-63 -147 -230 -147z" />
    <glyph glyph-name="Ccircumflex.sc" horiz-adv-x="597" 
d="M157 640l129 159h52l129 -159h-44l-112 98l-112 -98h-42zM313 -11q-119 0 -191.5 83.5t-72.5 225.5q0 136 73.5 220.5t190.5 84.5q160 0 219 -135l-59 -29q-43 107 -161 107q-89 0 -141.5 -67.5t-52.5 -178.5q0 -119 53 -186.5t143 -67.5q124 0 168 114l61 -24
q-63 -147 -230 -147z" />
    <glyph glyph-name="Cdotaccent.sc" horiz-adv-x="597" 
d="M311 640q-23 0 -35.5 13.5t-12.5 37.5q0 23 13 36t35 13q23 0 36 -13t13 -36q0 -24 -13 -37.5t-36 -13.5zM313 -11q-119 0 -191.5 83.5t-72.5 225.5q0 136 73.5 220.5t190.5 84.5q160 0 219 -135l-59 -29q-43 107 -161 107q-89 0 -141.5 -67.5t-52.5 -178.5
q0 -119 53 -186.5t143 -67.5q124 0 168 114l61 -24q-63 -147 -230 -147z" />
    <glyph glyph-name="Ccaron.sc" horiz-adv-x="597" 
d="M272 644l-129 159h44l112 -99l112 99h42l-129 -159h-52zM313 -11q-119 0 -191.5 83.5t-72.5 225.5q0 136 73.5 220.5t190.5 84.5q160 0 219 -135l-59 -29q-43 107 -161 107q-89 0 -141.5 -67.5t-52.5 -178.5q0 -119 53 -186.5t143 -67.5q124 0 168 114l61 -24
q-63 -147 -230 -147z" />
    <glyph glyph-name="D.sc" horiz-adv-x="607" 
d="M80 0v592h164q313 0 313 -295q0 -297 -313 -297h-164zM148 534v-477h104q119 0 177.5 56.5t58.5 182.5q0 125 -59.5 181.5t-177.5 56.5h-103z" />
    <glyph glyph-name="Dcaron.sc" horiz-adv-x="607" 
d="M277 644l-129 159h44l112 -99l112 99h42l-129 -159h-52zM80 0v592h164q313 0 313 -295q0 -297 -313 -297h-164zM148 534v-477h104q119 0 177.5 56.5t58.5 182.5q0 125 -59.5 181.5t-177.5 56.5h-103z" />
    <glyph glyph-name="E.sc" horiz-adv-x="518" 
d="M478 0h-398v592h381v-58h-313v-194h228l10 -57h-238v-225h330v-58z" />
    <glyph glyph-name="Egrave.sc" horiz-adv-x="518" 
d="M276 643l-141 156h91l95 -156h-45zM478 0h-398v592h381v-58h-313v-194h228l10 -57h-238v-225h330v-58z" />
    <glyph glyph-name="Eacute.sc" horiz-adv-x="518" 
d="M215 643l95 156h91l-141 -156h-45zM478 0h-398v592h381v-58h-313v-194h228l10 -57h-238v-225h330v-58z" />
    <glyph glyph-name="Ecircumflex.sc" horiz-adv-x="518" 
d="M113 640l129 159h52l129 -159h-44l-112 98l-112 -98h-42zM478 0h-398v592h381v-58h-313v-194h228l10 -57h-238v-225h330v-58z" />
    <glyph glyph-name="Edieresis.sc" horiz-adv-x="518" 
d="M356 637q-20 0 -31.5 13.5t-11.5 35.5q0 21 12 34t31 13q21 0 32.5 -13t11.5 -34q0 -23 -11.5 -36t-32.5 -13zM180 637q-20 0 -31.5 13t-11.5 36q0 21 11.5 34t31.5 13t31.5 -13t11.5 -34q0 -23 -11.5 -36t-31.5 -13zM478 0h-398v592h381v-58h-313v-194h228l10 -57h-238
v-225h330v-58z" />
    <glyph glyph-name="Emacron.sc" horiz-adv-x="518" 
d="M133 642v59h254v-59h-254zM478 0h-398v592h381v-58h-313v-194h228l10 -57h-238v-225h330v-58z" />
    <glyph glyph-name="Ebreve.sc" horiz-adv-x="518" 
d="M267 639q-66 0 -106 44t-44 120h44q13 -109 106 -109t106 109h44q-4 -76 -44 -120t-106 -44zM478 0h-398v592h381v-58h-313v-194h228l10 -57h-238v-225h330v-58z" />
    <glyph glyph-name="Edotaccent.sc" horiz-adv-x="518" 
d="M268 640q-23 0 -35.5 13.5t-12.5 37.5q0 23 13 36t35 13t35.5 -13t13.5 -36q0 -24 -13 -37.5t-36 -13.5zM478 0h-398v592h381v-58h-313v-194h228l10 -57h-238v-225h330v-58z" />
    <glyph glyph-name="Eogonek.sc" horiz-adv-x="518" 
d="M520 -149q-66 -38 -127 -38q-43 0 -68 20.5t-25 56.5q0 55 80 110h-300v592h381v-58h-313v-194h228l10 -57h-238v-225h330v-58h-50q-70 -49 -70 -99q0 -48 52 -48q42 0 95 24z" />
    <glyph glyph-name="Ecaron.sc" horiz-adv-x="518" 
d="M242 644l-129 159h44l112 -99l112 99h42l-129 -159h-52zM478 0h-398v592h381v-58h-313v-194h228l10 -57h-238v-225h330v-58z" />
    <glyph glyph-name="F.sc" horiz-adv-x="484" 
d="M148 0h-68v592h374v-58h-306v-200h221l10 -56h-231v-278z" />
    <glyph glyph-name="G.sc" horiz-adv-x="619" 
d="M307 -11q-121 0 -189.5 86.5t-68.5 222.5q0 138 74 221.5t192 83.5q160 0 217 -143l-60 -26q-46 112 -157 112q-86 0 -141.5 -64t-55.5 -181q0 -119 53 -187.5t144 -68.5q78 0 125 49t47 133h-144l-9 55h217v-282h-59v87h-1q-53 -98 -184 -98z" />
    <glyph glyph-name="Gcircumflex.sc" horiz-adv-x="619" 
d="M161 640l129 159h52l129 -159h-44l-112 98l-112 -98h-42zM307 -11q-121 0 -189.5 86.5t-68.5 222.5q0 138 74 221.5t192 83.5q160 0 217 -143l-60 -26q-46 112 -157 112q-86 0 -141.5 -64t-55.5 -181q0 -119 53 -187.5t144 -68.5q78 0 125 49t47 133h-144l-9 55h217v-282
h-59v87h-1q-53 -98 -184 -98z" />
    <glyph glyph-name="Gbreve.sc" horiz-adv-x="619" 
d="M309 639q-66 0 -106 44t-44 120h44q13 -109 106 -109t106 109h44q-4 -76 -44 -120t-106 -44zM307 -11q-121 0 -189.5 86.5t-68.5 222.5q0 138 74 221.5t192 83.5q160 0 217 -143l-60 -26q-46 112 -157 112q-86 0 -141.5 -64t-55.5 -181q0 -119 53 -187.5t144 -68.5
q78 0 125 49t47 133h-144l-9 55h217v-282h-59v87h-1q-53 -98 -184 -98z" />
    <glyph glyph-name="Gdotaccent.sc" horiz-adv-x="619" 
d="M315 640q-23 0 -35.5 13.5t-12.5 37.5q0 23 13 36t35 13q23 0 36 -13t13 -36q0 -24 -13 -37.5t-36 -13.5zM307 -11q-121 0 -189.5 86.5t-68.5 222.5q0 138 74 221.5t192 83.5q160 0 217 -143l-60 -26q-46 112 -157 112q-86 0 -141.5 -64t-55.5 -181q0 -119 53 -187.5
t144 -68.5q78 0 125 49t47 133h-144l-9 55h217v-282h-59v87h-1q-53 -98 -184 -98z" />
    <glyph glyph-name="Gcommaaccent.sc" horiz-adv-x="619" 
d="M307 -11q-121 0 -189.5 86.5t-68.5 222.5q0 138 74 221.5t192 83.5q160 0 217 -143l-60 -26q-46 112 -157 112q-86 0 -141.5 -64t-55.5 -181q0 -119 53 -187.5t144 -68.5q78 0 125 49t47 133h-144l-9 55h217v-282h-59v87h-1q-53 -98 -184 -98zM300 -236h-39l24 191h84z
" />
    <glyph glyph-name="H.sc" horiz-adv-x="627" 
d="M148 0h-68v592h68v-250h330v250h69v-592h-69v282h-330v-282z" />
    <glyph glyph-name="Hcircumflex.sc" horiz-adv-x="627" 
d="M158 640l129 159h52l129 -159h-44l-112 98l-112 -98h-42zM148 0h-68v592h68v-250h330v250h69v-592h-69v282h-330v-282z" />
    <glyph glyph-name="I.sc" horiz-adv-x="245" 
d="M158 0h-70v592h70v-592z" />
    <glyph glyph-name="Igrave.sc" horiz-adv-x="245" 
d="M106 643l-141 156h91l95 -156h-45zM158 0h-70v592h70v-592z" />
    <glyph glyph-name="Iacute.sc" horiz-adv-x="245" 
d="M94 643l95 156h91l-141 -156h-45zM158 0h-70v592h70v-592z" />
    <glyph glyph-name="Icircumflex.sc" horiz-adv-x="245" 
d="M-32 640l129 159h52l129 -159h-44l-112 98l-112 -98h-42zM158 0h-70v592h70v-592z" />
    <glyph glyph-name="Idieresis.sc" horiz-adv-x="245" 
d="M210 637q-20 0 -31.5 13.5t-11.5 35.5q0 21 12 34t31 13q21 0 32.5 -13t11.5 -34q0 -23 -11.5 -36t-32.5 -13zM34 637q-20 0 -31.5 13t-11.5 36q0 21 11.5 34t31.5 13t31.5 -13t11.5 -34q0 -23 -11.5 -36t-31.5 -13zM158 0h-70v592h70v-592z" />
    <glyph glyph-name="Itilde.sc" horiz-adv-x="245" 
d="M196 641q-30 0 -79.5 28t-68.5 28q-22 0 -31.5 -13.5t-8.5 -44.5l-44 8q0 106 84 106q30 0 79.5 -28t68.5 -28q22 0 31.5 13.5t9.5 44.5l43 -8q0 -106 -84 -106zM158 0h-70v592h70v-592z" />
    <glyph glyph-name="Imacron.sc" horiz-adv-x="245" 
d="M-5 642v59h254v-59h-254zM158 0h-70v592h70v-592z" />
    <glyph glyph-name="Ibreve.sc" horiz-adv-x="245" 
d="M122 639q-66 0 -106 44t-44 120h44q13 -109 106 -109t106 109h44q-4 -76 -44 -120t-106 -44zM158 0h-70v592h70v-592z" />
    <glyph glyph-name="Iogonek.sc" horiz-adv-x="245" 
d="M227 -149q-66 -38 -126 -38q-44 0 -68.5 20.5t-24.5 56.5q0 29 23 59.5t57 52.5v590h70v-592h-26q-66 -50 -66 -99q0 -48 51 -48q42 0 95 24z" />
    <glyph glyph-name="Idotaccent.sc" horiz-adv-x="245" 
d="M122 640q-23 0 -35.5 13.5t-12.5 37.5q0 23 13 36t35 13t35.5 -13t13.5 -36q0 -24 -13 -37.5t-36 -13.5zM158 0h-70v592h70v-592z" />
    <glyph glyph-name="J.sc" horiz-adv-x="429" 
d="M181 -11q-91 0 -165 54l33 50q66 -48 129 -48q108 0 108 116v431h68v-431q0 -172 -173 -172z" />
    <glyph glyph-name="Jcircumflex.sc" horiz-adv-x="429" 
d="M165 640l129 159h52l129 -159h-44l-112 98l-112 -98h-42zM181 -11q-91 0 -165 54l33 50q66 -48 129 -48q108 0 108 116v431h68v-431q0 -172 -173 -172z" />
    <glyph glyph-name="K.sc" horiz-adv-x="574" 
d="M148 0h-68v592h68v-312l110 118l183 194h80l-214 -225l241 -361l-71 -12l-217 322l-112 -115v-201z" />
    <glyph glyph-name="Kcommaaccent.sc" horiz-adv-x="574" 
d="M148 0h-68v592h68v-312l110 118l183 194h80l-214 -225l241 -361l-71 -12l-217 322l-112 -115v-201zM274 -236h-39l24 191h84z" />
    <glyph glyph-name="L.sc" horiz-adv-x="484" 
d="M458 0h-378v592h68v-534h300z" />
    <glyph glyph-name="Lacute.sc" horiz-adv-x="484" 
d="M92 643l95 156h91l-141 -156h-45zM458 0h-378v592h68v-534h300z" />
    <glyph glyph-name="Lcommaaccent.sc" horiz-adv-x="484" 
d="M458 0h-378v592h68v-534h300zM229 -236h-39l24 191h84z" />
    <glyph glyph-name="Lcaron.sc" horiz-adv-x="484" 
d="M298 403h-39l24 189h84zM458 0h-378v592h68v-534h300z" />
    <glyph glyph-name="M.sc" horiz-adv-x="744" 
d="M142 0h-62v592h89l202 -509h2l200 509h91v-592h-68v495h-1q-13 -43 -38 -107q-1 -5 -78 -192.5t-79 -195.5h-61q-2 10 -79.5 198t-78.5 190l-38 109h-1v-497z" />
    <glyph glyph-name="N.sc" horiz-adv-x="635" 
d="M144 0h-64v592h74l260 -367l76 -108h1v475h66v-592h-63l-285 398l-64 91h-1v-489z" />
    <glyph glyph-name="Ntilde.sc" horiz-adv-x="635" 
d="M390 640q-30 0 -79.5 28t-68.5 28q-22 0 -31.5 -13.5t-8.5 -44.5l-44 8q0 106 84 106q30 0 79.5 -28t68.5 -28q22 0 31.5 13.5t9.5 44.5l43 -8q0 -106 -84 -106zM144 0h-64v592h74l260 -367l76 -108h1v475h66v-592h-63l-285 398l-64 91h-1v-489z" />
    <glyph glyph-name="Nacute.sc" horiz-adv-x="635" 
d="M264 643l95 156h91l-141 -156h-45zM144 0h-64v592h74l260 -367l76 -108h1v475h66v-592h-63l-285 398l-64 91h-1v-489z" />
    <glyph glyph-name="Ncommaaccent.sc" horiz-adv-x="635" 
d="M144 0h-64v592h74l260 -367l76 -108h1v475h66v-592h-63l-285 398l-64 91h-1v-489zM304 -236h-39l24 191h84z" />
    <glyph glyph-name="Ncaron.sc" horiz-adv-x="635" 
d="M290 644l-129 159h44l112 -99l112 99h42l-129 -159h-52zM144 0h-64v592h74l260 -367l76 -108h1v475h66v-592h-63l-285 398l-64 91h-1v-489z" />
    <glyph glyph-name="O.sc" horiz-adv-x="635" 
d="M318 -11q-116 0 -192.5 84t-76.5 223t76.5 223t192.5 84q115 0 191 -84t76 -223t-76 -223t-191 -84zM318 47q88 0 143.5 67t55.5 182t-55 182t-144 67t-144.5 -67t-55.5 -182q0 -114 55.5 -181.5t144.5 -67.5z" />
    <glyph glyph-name="Ograve.sc" horiz-adv-x="635" 
d="M325 643l-141 156h91l95 -156h-45zM318 -11q-116 0 -192.5 84t-76.5 223t76.5 223t192.5 84q115 0 191 -84t76 -223t-76 -223t-191 -84zM318 47q88 0 143.5 67t55.5 182t-55 182t-144 67t-144.5 -67t-55.5 -182q0 -114 55.5 -181.5t144.5 -67.5z" />
    <glyph glyph-name="Oacute.sc" horiz-adv-x="635" 
d="M265 643l95 156h91l-141 -156h-45zM318 -11q-116 0 -192.5 84t-76.5 223t76.5 223t192.5 84q115 0 191 -84t76 -223t-76 -223t-191 -84zM318 47q88 0 143.5 67t55.5 182t-55 182t-144 67t-144.5 -67t-55.5 -182q0 -114 55.5 -181.5t144.5 -67.5z" />
    <glyph glyph-name="Ocircumflex.sc" horiz-adv-x="635" 
d="M162 640l129 159h52l129 -159h-44l-112 98l-112 -98h-42zM318 -11q-116 0 -192.5 84t-76.5 223t76.5 223t192.5 84q115 0 191 -84t76 -223t-76 -223t-191 -84zM318 47q88 0 143.5 67t55.5 182t-55 182t-144 67t-144.5 -67t-55.5 -182q0 -114 55.5 -181.5t144.5 -67.5z
" />
    <glyph glyph-name="Otilde.sc" horiz-adv-x="635" 
d="M391 640q-30 0 -79.5 28t-68.5 28q-22 0 -31.5 -13.5t-8.5 -44.5l-44 8q0 106 84 106q30 0 79.5 -28t68.5 -28q22 0 31.5 13.5t9.5 44.5l43 -8q0 -106 -84 -106zM318 -11q-116 0 -192.5 84t-76.5 223t76.5 223t192.5 84q115 0 191 -84t76 -223t-76 -223t-191 -84zM318 47
q88 0 143.5 67t55.5 182t-55 182t-144 67t-144.5 -67t-55.5 -182q0 -114 55.5 -181.5t144.5 -67.5z" />
    <glyph glyph-name="Odieresis.sc" horiz-adv-x="635" 
d="M405 637q-20 0 -31.5 13.5t-11.5 35.5q0 21 12 34t31 13q21 0 32.5 -13t11.5 -34q0 -23 -11.5 -36t-32.5 -13zM229 637q-20 0 -31.5 13t-11.5 36q0 21 11.5 34t31.5 13t31.5 -13t11.5 -34q0 -23 -11.5 -36t-31.5 -13zM318 -11q-116 0 -192.5 84t-76.5 223t76.5 223
t192.5 84q115 0 191 -84t76 -223t-76 -223t-191 -84zM318 47q88 0 143.5 67t55.5 182t-55 182t-144 67t-144.5 -67t-55.5 -182q0 -114 55.5 -181.5t144.5 -67.5z" />
    <glyph glyph-name="Omacron.sc" horiz-adv-x="635" 
d="M190 642v59h254v-59h-254zM318 -11q-116 0 -192.5 84t-76.5 223t76.5 223t192.5 84q115 0 191 -84t76 -223t-76 -223t-191 -84zM318 47q88 0 143.5 67t55.5 182t-55 182t-144 67t-144.5 -67t-55.5 -182q0 -114 55.5 -181.5t144.5 -67.5z" />
    <glyph glyph-name="Obreve.sc" horiz-adv-x="635" 
d="M317 640q-66 0 -106 44t-44 120h44q13 -109 106 -109t106 109h44q-4 -76 -44 -120t-106 -44zM318 -11q-116 0 -192.5 84t-76.5 223t76.5 223t192.5 84q115 0 191 -84t76 -223t-76 -223t-191 -84zM318 47q88 0 143.5 67t55.5 182t-55 182t-144 67t-144.5 -67t-55.5 -182
q0 -114 55.5 -181.5t144.5 -67.5z" />
    <glyph glyph-name="Ohungarumlaut.sc" horiz-adv-x="635" 
d="M348 643l97 156h93l-143 -156h-47zM187 643l95 156h93l-141 -156h-47zM318 -11q-116 0 -192.5 84t-76.5 223t76.5 223t192.5 84q115 0 191 -84t76 -223t-76 -223t-191 -84zM318 47q88 0 143.5 67t55.5 182t-55 182t-144 67t-144.5 -67t-55.5 -182q0 -114 55.5 -181.5
t144.5 -67.5z" />
    <glyph glyph-name="P.sc" horiz-adv-x="550" 
d="M148 0h-68v592h211q223 0 223 -165q0 -93 -60 -131.5t-167 -38.5h-139v-257zM148 535v-223h142q80 0 118.5 25.5t38.5 88.5q0 59 -39 84t-119 25h-141z" />
    <glyph glyph-name="Q.sc" horiz-adv-x="635" 
d="M535 -96l-10 -55h-53q-94 0 -142.5 40t-49.5 105q-102 11 -166.5 93.5t-64.5 208.5q0 139 76.5 223t192.5 84q115 0 191 -84t76 -223q0 -129 -66.5 -211.5t-170.5 -92.5q4 -49 38.5 -68.5t99.5 -19.5h49zM318 46q88 0 143 67.5t55 182.5t-55 182.5t-143 67.5
q-89 0 -144.5 -67.5t-55.5 -182.5t55.5 -182.5t144.5 -67.5z" />
    <glyph glyph-name="R.sc" horiz-adv-x="574" 
d="M148 0h-68v592h213q220 0 220 -162q0 -137 -145 -160l152 -265l-71 -10l-153 268h-148v-263zM148 535v-219h142q79 0 117.5 24.5t38.5 86.5q0 59 -39 83.5t-118 24.5h-141z" />
    <glyph glyph-name="Racute.sc" horiz-adv-x="574" 
d="M235 643l95 156h91l-141 -156h-45zM148 0h-68v592h213q220 0 220 -162q0 -137 -145 -160l152 -265l-71 -10l-153 268h-148v-263zM148 535v-219h142q79 0 117.5 24.5t38.5 86.5q0 59 -39 83.5t-118 24.5h-141z" />
    <glyph glyph-name="Rcommaaccent.sc" horiz-adv-x="574" 
d="M148 0h-68v592h213q220 0 220 -162q0 -137 -145 -160l152 -265l-71 -10l-153 268h-148v-263zM148 535v-219h142q79 0 117.5 24.5t38.5 86.5q0 59 -39 83.5t-118 24.5h-141zM274 -236h-39l24 191h84z" />
    <glyph glyph-name="Rcaron.sc" horiz-adv-x="574" 
d="M261 644l-129 159h44l112 -99l112 99h42l-129 -159h-52zM148 0h-68v592h213q220 0 220 -162q0 -137 -145 -160l152 -265l-71 -10l-153 268h-148v-263zM148 535v-219h142q79 0 117.5 24.5t38.5 86.5q0 59 -39 83.5t-118 24.5h-141z" />
    <glyph glyph-name="S.sc" horiz-adv-x="557" 
d="M284 -11q-80 0 -139 25t-107 82l44 44q82 -96 202 -96q72 0 112 27.5t40 76.5q0 17 -5 31.5t-9.5 24.5t-19 20t-22 14.5t-30.5 12.5t-31 10.5t-37 10.5q-104 28 -140 48q-72 43 -72 130q0 71 56 112t147 41q143 0 224 -106l-42 -43q-74 92 -182 92q-64 0 -99.5 -24
t-35.5 -69q0 -63 65 -92q22 -10 101 -32q97 -26 131 -47q69 -43 69 -130q0 -79 -61 -121t-159 -42z" />
    <glyph glyph-name="Sacute.sc" horiz-adv-x="557" 
d="M225 643l95 156h91l-141 -156h-45zM284 -11q-80 0 -139 25t-107 82l44 44q82 -96 202 -96q72 0 112 27.5t40 76.5q0 17 -5 31.5t-9.5 24.5t-19 20t-22 14.5t-30.5 12.5t-31 10.5t-37 10.5q-104 28 -140 48q-72 43 -72 130q0 71 56 112t147 41q143 0 224 -106l-42 -43
q-74 92 -182 92q-64 0 -99.5 -24t-35.5 -69q0 -63 65 -92q22 -10 101 -32q97 -26 131 -47q69 -43 69 -130q0 -79 -61 -121t-159 -42z" />
    <glyph glyph-name="Scircumflex.sc" horiz-adv-x="557" 
d="M114 640l129 159h52l129 -159h-44l-112 98l-112 -98h-42zM284 -11q-80 0 -139 25t-107 82l44 44q82 -96 202 -96q72 0 112 27.5t40 76.5q0 17 -5 31.5t-9.5 24.5t-19 20t-22 14.5t-30.5 12.5t-31 10.5t-37 10.5q-104 28 -140 48q-72 43 -72 130q0 71 56 112t147 41
q143 0 224 -106l-42 -43q-74 92 -182 92q-64 0 -99.5 -24t-35.5 -69q0 -63 65 -92q22 -10 101 -32q97 -26 131 -47q69 -43 69 -130q0 -79 -61 -121t-159 -42z" />
    <glyph glyph-name="Scedilla.sc" horiz-adv-x="557" 
d="M279 -195q-68 0 -124 37l19 29q45 -30 97 -30q75 0 75 48q0 35 -42 35q-28 0 -53 -20l-28 13l23 73q-127 10 -208 106l44 44q82 -96 202 -96q72 0 112 27.5t40 76.5q0 17 -5 31.5t-9.5 24.5t-19 20t-22 14.5t-30.5 12.5t-31 10.5t-37 10.5q-104 28 -140 48
q-72 43 -72 130q0 71 56 112t147 41q143 0 224 -106l-42 -43q-74 92 -182 92q-64 0 -99.5 -24t-35.5 -69q0 -63 65 -92q22 -10 101 -32q97 -26 131 -47q69 -43 69 -130q0 -79 -60.5 -121t-155.5 -42l-13 -43q23 15 54 15q30 0 50.5 -18t20.5 -50q0 -44 -34 -66t-87 -22z" />
    <glyph glyph-name="Scaron.sc" horiz-adv-x="557" 
d="M252 644l-129 159h44l112 -99l112 99h42l-129 -159h-52zM284 -11q-80 0 -139 25t-107 82l44 44q82 -96 202 -96q72 0 112 27.5t40 76.5q0 17 -5 31.5t-9.5 24.5t-19 20t-22 14.5t-30.5 12.5t-31 10.5t-37 10.5q-104 28 -140 48q-72 43 -72 130q0 71 56 112t147 41
q143 0 224 -106l-42 -43q-74 92 -182 92q-64 0 -99.5 -24t-35.5 -69q0 -63 65 -92q22 -10 101 -32q97 -26 131 -47q69 -43 69 -130q0 -79 -61 -121t-159 -42z" />
    <glyph glyph-name="Scommaaccent.sc" horiz-adv-x="557" 
d="M284 -11q-80 0 -139 25t-107 82l44 44q82 -96 202 -96q72 0 112 27.5t40 76.5q0 17 -5 31.5t-9.5 24.5t-19 20t-22 14.5t-30.5 12.5t-31 10.5t-37 10.5q-104 28 -140 48q-72 43 -72 130q0 71 56 112t147 41q143 0 224 -106l-42 -43q-74 92 -182 92q-64 0 -99.5 -24
t-35.5 -69q0 -63 65 -92q22 -10 101 -32q97 -26 131 -47q69 -43 69 -130q0 -79 -61 -121t-159 -42zM265 -236h-39l24 191h84z" />
    <glyph glyph-name="T.sc" horiz-adv-x="528" 
d="M299 0h-69v534h-200v58h464l10 -58h-205v-534z" />
    <glyph glyph-name="Tcaron.sc" horiz-adv-x="528" 
d="M238 644l-129 159h44l112 -99l112 99h42l-129 -159h-52zM299 0h-69v534h-200v58h464l10 -58h-205v-534z" />
    <glyph glyph-name="Tcommaaccent.sc" horiz-adv-x="528" 
d="M299 0h-69v534h-200v58h464l10 -58h-205v-534zM251 -236h-39l24 191h84z" />
    <glyph glyph-name="U.sc" horiz-adv-x="609" 
d="M305 -11q-111 0 -171 60t-60 155v388h69v-381q0 -75 40 -119.5t123 -44.5q81 0 121 44t40 119v382h69v-386q0 -96 -59.5 -156.5t-171.5 -60.5z" />
    <glyph glyph-name="Ugrave.sc" horiz-adv-x="609" 
d="M312 643l-141 156h91l95 -156h-45zM305 -11q-111 0 -171 60t-60 155v388h69v-381q0 -75 40 -119.5t123 -44.5q81 0 121 44t40 119v382h69v-386q0 -96 -59.5 -156.5t-171.5 -60.5z" />
    <glyph glyph-name="Uacute.sc" horiz-adv-x="609" 
d="M226 643l95 156h91l-141 -156h-45zM305 -11q-111 0 -171 60t-60 155v388h69v-381q0 -75 40 -119.5t123 -44.5q81 0 121 44t40 119v382h69v-386q0 -96 -59.5 -156.5t-171.5 -60.5z" />
    <glyph glyph-name="Ucircumflex.sc" horiz-adv-x="609" 
d="M149 640l129 159h52l129 -159h-44l-112 98l-112 -98h-42zM305 -11q-111 0 -171 60t-60 155v388h69v-381q0 -75 40 -119.5t123 -44.5q81 0 121 44t40 119v382h69v-386q0 -96 -59.5 -156.5t-171.5 -60.5z" />
    <glyph glyph-name="Udieresis.sc" horiz-adv-x="609" 
d="M391 637q-20 0 -31.5 13.5t-11.5 35.5q0 21 12 34t31 13q21 0 32.5 -13t11.5 -34q0 -23 -11.5 -36t-32.5 -13zM215 637q-20 0 -31.5 13t-11.5 36q0 21 11.5 34t31.5 13t31.5 -13t11.5 -34q0 -23 -11.5 -36t-31.5 -13zM305 -11q-111 0 -171 60t-60 155v388h69v-381
q0 -75 40 -119.5t123 -44.5q81 0 121 44t40 119v382h69v-386q0 -96 -59.5 -156.5t-171.5 -60.5z" />
    <glyph glyph-name="Utilde.sc" horiz-adv-x="609" 
d="M378 640q-30 0 -79.5 28t-68.5 28q-22 0 -31.5 -13.5t-8.5 -44.5l-44 8q0 106 84 106q30 0 79.5 -28t68.5 -28q22 0 31.5 13.5t9.5 44.5l43 -8q0 -106 -84 -106zM305 -11q-111 0 -171 60t-60 155v388h69v-381q0 -75 40 -119.5t123 -44.5q81 0 121 44t40 119v382h69v-386
q0 -96 -59.5 -156.5t-171.5 -60.5z" />
    <glyph glyph-name="Umacron.sc" horiz-adv-x="609" 
d="M177 642v59h254v-59h-254zM305 -11q-111 0 -171 60t-60 155v388h69v-381q0 -75 40 -119.5t123 -44.5q81 0 121 44t40 119v382h69v-386q0 -96 -59.5 -156.5t-171.5 -60.5z" />
    <glyph glyph-name="Ubreve.sc" horiz-adv-x="609" 
d="M304 639q-66 0 -106 44t-44 120h44q13 -109 106 -109t106 109h44q-4 -76 -44 -120t-106 -44zM305 -11q-111 0 -171 60t-60 155v388h69v-381q0 -75 40 -119.5t123 -44.5q81 0 121 44t40 119v382h69v-386q0 -96 -59.5 -156.5t-171.5 -60.5z" />
    <glyph glyph-name="Uring.sc" horiz-adv-x="609" 
d="M304 636q-40 0 -65.5 26t-25.5 65t25.5 65t65.5 26t65.5 -26t25.5 -65t-25.5 -65t-65.5 -26zM304 671q23 0 38 15.5t15 40.5q0 24 -15 40t-38 16t-38 -16t-15 -40q0 -25 15 -40.5t38 -15.5zM305 -11q-111 0 -171 60t-60 155v388h69v-381q0 -75 40 -119.5t123 -44.5
q81 0 121 44t40 119v382h69v-386q0 -96 -59.5 -156.5t-171.5 -60.5z" />
    <glyph glyph-name="Uhungarumlaut.sc" horiz-adv-x="609" 
d="M335 643l97 156h93l-143 -156h-47zM174 643l95 156h93l-141 -156h-47zM305 -11q-111 0 -171 60t-60 155v388h69v-381q0 -75 40 -119.5t123 -44.5q81 0 121 44t40 119v382h69v-386q0 -96 -59.5 -156.5t-171.5 -60.5z" />
    <glyph glyph-name="Uogonek.sc" horiz-adv-x="609" 
d="M309 -187q-43 0 -68 20.5t-25 56.5q0 50 66 100q-101 7 -154.5 65.5t-53.5 148.5v388h69v-381q0 -75 40 -119.5t123 -44.5q81 0 121 44t40 119v382h69v-386q0 -90 -52.5 -149.5t-153.5 -66.5q-56 -45 -56 -89q0 -48 52 -48q42 0 95 24l15 -26q-66 -38 -127 -38z" />
    <glyph glyph-name="V.sc" horiz-adv-x="565" 
d="M314 -2h-63l-219 588l67 12l150 -416l34 -95h2l34 94l150 411h66z" />
    <glyph glyph-name="W.sc" horiz-adv-x="789" 
d="M264 0h-63l-167 586l68 12l96 -353q24 -89 37 -147h2q7 36 34 146l91 348h70l91 -351q26 -90 35 -143h2q6 28 19.5 78.5l16.5 61.5l95 354h64l-165 -592h-64l-128 500h-2z" />
    <glyph glyph-name="Wcircumflex.sc" horiz-adv-x="789" 
d="M239 640l129 159h52l129 -159h-44l-112 98l-112 -98h-42zM264 0h-63l-167 586l68 12l96 -353q24 -89 37 -147h2q7 36 34 146l91 348h70l91 -351q26 -90 35 -143h2q6 28 19.5 78.5l16.5 61.5l95 354h64l-165 -592h-64l-128 500h-2z" />
    <glyph glyph-name="Wgrave.sc" horiz-adv-x="789" 
d="M373 643l-141 156h91l95 -156h-45zM264 0h-63l-167 586l68 12l96 -353q24 -89 37 -147h2q7 36 34 146l91 348h70l91 -351q26 -90 35 -143h2q6 28 19.5 78.5l16.5 61.5l95 354h64l-165 -592h-64l-128 500h-2z" />
    <glyph glyph-name="Wacute.sc" horiz-adv-x="789" 
d="M372 643l95 156h91l-141 -156h-45zM264 0h-63l-167 586l68 12l96 -353q24 -89 37 -147h2q7 36 34 146l91 348h70l91 -351q26 -90 35 -143h2q6 28 19.5 78.5l16.5 61.5l95 354h64l-165 -592h-64l-128 500h-2z" />
    <glyph glyph-name="Wdieresis.sc" horiz-adv-x="789" 
d="M481 637q-20 0 -31.5 13.5t-11.5 35.5q0 21 12 34t31 13q21 0 32.5 -13t11.5 -34q0 -23 -11.5 -36t-32.5 -13zM305 637q-20 0 -31.5 13t-11.5 36q0 21 11.5 34t31.5 13t31.5 -13t11.5 -34q0 -23 -11.5 -36t-31.5 -13zM264 0h-63l-167 586l68 12l96 -353q24 -89 37 -147h2
q7 36 34 146l91 348h70l91 -351q26 -90 35 -143h2q6 28 19.5 78.5l16.5 61.5l95 354h64l-165 -592h-64l-128 500h-2z" />
    <glyph glyph-name="X.sc" horiz-adv-x="560" 
d="M99 0h-74l215 318l-185 268l70 12l160 -234l153 228h73l-189 -280l211 -306l-69 -12l-186 271z" />
    <glyph glyph-name="Y.sc" horiz-adv-x="534" 
d="M231 0v259l-207 327l68 12l176 -283l172 277h72l-211 -333v-259h-70z" />
    <glyph glyph-name="Yacute.sc" horiz-adv-x="534" 
d="M214 643l95 156h91l-141 -156h-45zM231 0v259l-207 327l68 12l176 -283l172 277h72l-211 -333v-259h-70z" />
    <glyph glyph-name="Ycircumflex.sc" horiz-adv-x="534" 
d="M111 640l129 159h52l129 -159h-44l-112 98l-112 -98h-42zM231 0v259l-207 327l68 12l176 -283l172 277h72l-211 -333v-259h-70z" />
    <glyph glyph-name="Ydieresis.sc" horiz-adv-x="534" 
d="M354 637q-20 0 -31.5 13.5t-11.5 35.5q0 21 12 34t31 13q21 0 32.5 -13t11.5 -34q0 -23 -11.5 -36t-32.5 -13zM178 637q-20 0 -31.5 13t-11.5 36q0 21 11.5 34t31.5 13t31.5 -13t11.5 -34q0 -23 -11.5 -36t-31.5 -13zM231 0v259l-207 327l68 12l176 -283l172 277h72
l-211 -333v-259h-70z" />
    <glyph glyph-name="Ygrave.sc" horiz-adv-x="534" 
d="M284 643l-141 156h91l95 -156h-45zM231 0v259l-207 327l68 12l176 -283l172 277h72l-211 -333v-259h-70z" />
    <glyph glyph-name="Z.sc" horiz-adv-x="536" 
d="M497 0h-461v48l371 488h-342l-10 56h436v-49l-369 -488h364z" />
    <glyph glyph-name="Zacute.sc" horiz-adv-x="536" 
d="M215 643l95 156h91l-141 -156h-45zM497 0h-461v48l371 488h-342l-10 56h436v-49l-369 -488h364z" />
    <glyph glyph-name="Zdotaccent.sc" horiz-adv-x="536" 
d="M267 640q-23 0 -35.5 13.5t-12.5 37.5q0 23 13 36t35 13q23 0 36 -13t13 -36q0 -24 -13 -37.5t-36 -13.5zM497 0h-461v48l371 488h-342l-10 56h436v-49l-369 -488h364z" />
    <glyph glyph-name="Zcaron.sc" horiz-adv-x="536" 
d="M241 644l-129 159h44l112 -99l112 99h42l-129 -159h-52zM497 0h-461v48l371 488h-342l-10 56h436v-49l-369 -488h364z" />
    <glyph glyph-name="AE.sc" horiz-adv-x="861" 
d="M423 542l-183 -301h184v301h-1zM208 186l-115 -186h-72l365 592h417v-58h-312v-194h231l4 -57h-235v-225h330v-58h-397v186h-216z" />
    <glyph glyph-name="Eth.sc" horiz-adv-x="607" 
d="M80 0v285h-69v51h69v256h164q313 0 313 -295q0 -297 -313 -297h-164zM148 285v-228h104q119 0 177.5 56.5t58.5 182.5q0 125 -59.5 181.5t-177.5 56.5h-103v-198h134v-51h-134z" />
    <glyph glyph-name="Oslash.sc" horiz-adv-x="635" 
d="M165 124l273 380q-51 43 -120 43q-89 0 -145 -67.5t-56 -183.5q0 -109 48 -172zM318 44q89 0 144.5 68t55.5 184q0 106 -48 173l-273 -381q52 -44 121 -44zM113 -29l-39 29l52 71q-77 87 -77 225q0 139 76.5 223t192.5 84q85 0 154 -51l51 71l39 -29l-54 -74
q77 -85 77 -224t-76 -223t-191 -84q-89 0 -156 50z" />
    <glyph glyph-name="Thorn.sc" horiz-adv-x="551" 
d="M148 0h-68v592h68v-111h141q107 0 166 -40t59 -124q0 -88 -62 -129t-169 -41h-135v-147zM148 425v-224h139q160 0 160 114q0 110 -162 110h-137z" />
    <glyph glyph-name="Dcroat.sc" horiz-adv-x="607" 
d="M80 0v285h-69v51h69v256h164q313 0 313 -295q0 -297 -313 -297h-164zM148 285v-228h104q119 0 177.5 56.5t58.5 182.5q0 125 -59.5 181.5t-177.5 56.5h-103v-198h134v-51h-134z" />
    <glyph glyph-name="Hbar.sc" horiz-adv-x="627" 
d="M148 336h330v92h-330v-92zM148 279v-279h-68v428h-69v52h69v112h68v-112h330v112h69v-112h69v-52h-69v-428h-69v279h-330z" />
    <glyph glyph-name="IJ.sc" horiz-adv-x="643" 
d="M158 0h-70v592h70v-592zM396 -10q-91 0 -165 54l33 50q66 -48 129 -48q108 0 108 116v431h68v-431q0 -172 -173 -172z" />
    <glyph glyph-name="Ldot.sc" horiz-adv-x="507" 
d="M458 0h-378v592h68v-534h300zM368 270q-23 0 -35.5 13.5t-12.5 37.5q0 23 13 36t35 13t35.5 -13t13.5 -36q0 -24 -13 -37.5t-36 -13.5z" />
    <glyph glyph-name="Lslash.sc" horiz-adv-x="484" 
d="M451 57l4 -57h-375v274l-69 -18v51l69 17v268h68v-250l134 34v-51l-134 -34v-234h303z" />
    <glyph glyph-name="Eng.sc" horiz-adv-x="635" 
d="M80 0v592h74l260 -367l76 -108h1v475h66v-621q0 -84 -43 -128t-128 -44q-91 0 -165 54l34 49q64 -48 128 -48q107 0 108 115v34l-282 395l-64 91h-1v-489h-64z" />
    <glyph glyph-name="OE.sc" horiz-adv-x="951" 
d="M317 46q88 0 143.5 67.5t55.5 182.5t-55 182t-144 67t-144 -67t-55 -182t55.5 -182.5t143.5 -67.5zM316 -11q-116 0 -191.5 84t-75.5 223t76 223t191 84q141 0 206 -126v115h372v-58h-313v-194h231l4 -57h-235v-225h330v-58h-389v114q-64 -125 -206 -125z" />
    <glyph glyph-name="Tbar.sc" horiz-adv-x="528" 
d="M499 259h-200v-259h-69v259h-200v52h200v223h-200v58h467l4 -58h-202v-223h200v-52z" />
    <glyph glyph-name="ordfeminine.sc" horiz-adv-x="413" 
d="M191 491l-43 -117h113l-43 115l-12 39h-2zM96 233h-55l136 359h57l135 -359h-57l-36 97h-143z" />
    <glyph glyph-name="ordmasculine.sc" horiz-adv-x="429" 
d="M214 220q-72 0 -121 51t-49 140q0 90 49 141.5t121 51.5q73 0 122 -51.5t49 -141.5q0 -89 -49 -140t-122 -51zM214 265q54 0 85 41t31 106q0 62 -30.5 104.5t-85.5 42.5q-53 0 -84 -41.5t-31 -105.5q0 -62 30 -104.5t85 -42.5z" />
    <glyph glyph-name="germandbls.sc" horiz-adv-x="1114" 
d="M841 -11q-80 0 -139 25t-107 82l44 44q83 -96 202 -96q72 0 112 27.5t40 76.5q0 17 -5 31.5t-9.5 24.5t-19 20t-22 14.5t-30.5 12.5t-31 10.5t-37 10.5q-104 28 -140 48q-72 43 -72 130q0 71 56 112t147 41q143 0 224 -106l-42 -43q-74 92 -182 92q-64 0 -99.5 -24
t-35.5 -69q0 -63 65 -92q22 -10 101 -32q97 -26 131 -47q69 -43 69 -130q0 -79 -61 -121t-159 -42zM284 -11q-80 0 -139 25t-107 82l44 44q82 -96 202 -96q72 0 112 27.5t40 76.5q0 17 -5 31.5t-9.5 24.5t-19 20t-22 14.5t-30.5 12.5t-31 10.5t-37 10.5q-104 28 -140 48
q-72 43 -72 130q0 71 56 112t147 41q143 0 224 -106l-42 -43q-74 92 -182 92q-64 0 -99.5 -24t-35.5 -69q0 -63 65 -92q22 -10 101 -32q97 -26 131 -47q69 -43 69 -130q0 -79 -61 -121t-159 -42z" />
    <glyph glyph-name="zero.sc" horiz-adv-x="524" 
d="M262 -14q-104 0 -162.5 84t-58.5 225t58.5 225t162.5 84q105 0 163.5 -84t58.5 -225t-58.5 -225t-163.5 -84zM262 44q74 0 114.5 65.5t40.5 185.5t-41.5 186t-113.5 66q-73 0 -114 -65.5t-41 -186.5q0 -119 42 -185t113 -66z" />
    <glyph glyph-name="one.sc" horiz-adv-x="397" 
d="M256 0h-63v528l-132 -37l-13 55l164 46h44v-592z" />
    <glyph glyph-name="two.sc" horiz-adv-x="474" 
d="M427 0h-390v16q0 70 44 132.5t156 134.5q65 41 92 75.5t27 77.5q0 51 -29 80.5t-85 29.5q-93 0 -142 -103l-53 29q65 133 198 133q81 0 129.5 -46t48.5 -119q0 -61 -34.5 -105t-118.5 -98q-152 -96 -158 -177h311z" />
    <glyph glyph-name="three.sc" horiz-adv-x="481" 
d="M231 -14q-65 0 -118.5 30t-88.5 85l48 35q59 -92 159 -92q63 0 99 31.5t36 83.5q0 65 -40 95.5t-139 30.5h-24v57h28q89 0 126.5 26t37.5 80q0 44 -30 71t-91 27q-79 0 -137 -73l-46 38q76 94 187 94q90 0 136.5 -43.5t46.5 -107.5q0 -54 -31 -92t-85 -48q63 -10 96 -51
t33 -104q0 -75 -56 -124t-147 -49z" />
    <glyph glyph-name="four.sc" horiz-adv-x="491" 
d="M374 0h-65v140h-284v49l270 403h79v-393h99v-59h-99v-140zM308 509l-206 -310h207v310h-1z" />
    <glyph glyph-name="five.sc" horiz-adv-x="469" 
d="M229 -13q-64 0 -116 30t-85 81l46 40q60 -92 155 -92q68 0 104.5 43t36.5 105q0 67 -35.5 104t-93.5 37q-82 0 -134 -75l-48 18l22 314h319v-61h-263q0 -1 -7.5 -96t-7.5 -96q42 52 127 52q83 0 135 -53t52 -141q0 -93 -56.5 -151.5t-150.5 -58.5z" />
    <glyph glyph-name="six.sc" horiz-adv-x="490" 
d="M256 -14q-93 0 -153.5 77t-60.5 223q0 137 66.5 227.5t167.5 90.5q89 0 148 -47l-34 -50q-49 41 -114 41q-76 0 -121.5 -70.5t-47.5 -178.5q27 31 71 53t92 22q92 0 140.5 -52t48.5 -136q0 -87 -55 -143.5t-148 -56.5zM259 42q62 0 98.5 38t36.5 105q0 61 -32 97t-99 36
q-95 0 -154 -83q9 -94 50.5 -143.5t99.5 -49.5z" />
    <glyph glyph-name="seven.sc" horiz-adv-x="442" 
d="M162 0h-70l245 530h-297l-4 62h373v-58z" />
    <glyph glyph-name="eight.sc" horiz-adv-x="489" 
d="M244 -14q-100 0 -156.5 45t-56.5 112q0 59 37 98t112 72q-60 28 -90.5 62t-30.5 84q0 60 51 102.5t134 42.5q87 0 136.5 -42.5t49.5 -102.5q0 -50 -30.5 -82.5t-93.5 -61.5q78 -34 115 -72.5t37 -99.5q0 -66 -57.5 -111.5t-156.5 -45.5zM247 341q65 27 90.5 52t25.5 63
t-29.5 65.5t-88.5 27.5q-57 0 -88.5 -27t-31.5 -63q0 -39 27 -64t95 -54zM244 40q66 0 106.5 29t40.5 77q0 45 -36 76.5t-114 63.5q-79 -35 -111 -65t-32 -75q0 -46 41 -76t105 -30z" />
    <glyph glyph-name="nine.sc" horiz-adv-x="492" 
d="M229 272q93 0 154 82q-6 93 -48 143t-101 50q-62 0 -99 -37.5t-37 -103.5q0 -61 32.5 -97.5t98.5 -36.5zM216 -14q-95 0 -159 57l33 49q30 -26 57.5 -37t68.5 -11q75 0 120.5 69.5t48.5 178.5q-70 -76 -163 -76q-91 0 -141 52.5t-50 136.5q0 87 56.5 143t148.5 56
q94 0 154 -76t60 -222q0 -138 -66 -229t-168 -91z" />
    <glyph glyph-name="exclam.sc" horiz-adv-x="272" 
d="M94 592h83l-19 -428h-42zM136 -4q-22 0 -34 12t-12 33t12 33t34 12t34.5 -12t12.5 -33t-12.5 -33t-34.5 -12z" />
    <glyph glyph-name="exclamdown.sc" horiz-adv-x="272" 
d="M137 597q22 0 34 -12t12 -32q0 -21 -12 -33t-34 -12t-34.5 12t-12.5 33q0 20 12.5 32t34.5 12zM157 428l21 -428h-83l20 428h42z" />
    <glyph glyph-name="question.sc" horiz-adv-x="466" 
d="M236 162h-55q-2 17 -2 53q0 42 17.5 69.5t58.5 50.5q57 32 78 55t21 63q0 95 -124 95q-92 0 -157 -80l-43 38q75 98 204 98q90 0 139 -40.5t49 -105.5q0 -55 -28.5 -87t-83.5 -62q-49 -28 -62.5 -55t-11.5 -92zM207 -4q-22 0 -34 12t-12 33t12 33t34 12t34.5 -12
t12.5 -33t-12.5 -33t-34.5 -12z" />
    <glyph glyph-name="questiondown.sc" horiz-adv-x="463" 
d="M256 597q22 0 34 -12t12 -32q0 -21 -12 -33t-34 -12t-35 12t-13 33q0 20 13 32t35 12zM228 430h55q2 -17 2 -53q0 -43 -17.5 -70t-58.5 -51q-56 -32 -77.5 -54.5t-21.5 -62.5q0 -95 124 -95q92 0 157 80l43 -38q-75 -98 -204 -98q-90 0 -139 40.5t-49 105.5
q0 55 28.5 87.5t83.5 61.5q49 28 62.5 55t11.5 92z" />
    <glyph glyph-name="numbersign.sc" horiz-adv-x="608" 
d="M246 367l-30 -140h143l30 140h-143zM168 0h-62l36 170h-92v57h104l29 140h-98v56h110l36 169h62l-35 -169h143l36 169h62l-36 -169h95v-56h-107l-30 -140h103v-57h-114l-36 -170h-62l35 170h-142z" />
    <glyph glyph-name="percent.sc" horiz-adv-x="794" 
d="M170 246q-64 0 -100 49t-36 129q0 83 38 132.5t100 49.5q61 0 97 -48.5t36 -130.5q0 -80 -36 -130.5t-99 -50.5zM187 0l354 592h63l-354 -592h-63zM171 297q37 0 57.5 36t20.5 93q0 60 -20.5 95t-58.5 35t-59 -36t-21 -93q0 -60 21 -95t60 -35zM625 -12q-63 0 -100 49
t-37 128q0 83 38.5 132.5t100.5 49.5q60 0 96.5 -48.5t36.5 -130.5q0 -80 -37 -130t-98 -50zM626 37q37 0 57 36t20 94q0 61 -20 96t-58 35t-58 -36t-20 -94q0 -61 20 -96t59 -35z" />
    <glyph glyph-name="perthousand.sc" horiz-adv-x="1132" 
d="M169 246q-64 0 -100 49t-36 129q0 83 37.5 132.5t99.5 49.5q61 0 97.5 -48.5t36.5 -130.5q0 -80 -36.5 -130.5t-98.5 -50.5zM186 0l354 592h63l-354 -592h-63zM170 297q37 0 57.5 36t20.5 93q0 59 -21 94.5t-58 35.5q-38 0 -59 -36t-21 -93q0 -60 21 -95t60 -35zM964 -12
q-63 0 -99.5 49t-36.5 128q0 84 37.5 133t100.5 49q60 0 97 -48.5t37 -130.5q0 -80 -37 -130t-99 -50zM623 -12q-62 0 -99.5 49t-37.5 128q0 83 38.5 132.5t100.5 49.5q60 0 96.5 -48.5t36.5 -130.5q0 -80 -36.5 -130t-98.5 -50zM965 37q37 0 57.5 36t20.5 94q0 61 -20.5 96
t-58.5 35q-37 0 -58 -36t-21 -94q0 -60 21 -95.5t59 -35.5zM624 37q38 0 58 36t20 94q0 61 -20.5 96t-58.5 35q-37 0 -57.5 -36t-20.5 -94q0 -61 20.5 -96t58.5 -35z" />
    <glyph glyph-name="ampersand.sc" horiz-adv-x="623" 
d="M203 464q0 -52 34 -107q55 29 84 57t29 67q0 72 -63 72q-42 0 -63 -24t-21 -65zM249 41q73 0 135 48q-51 46 -111 117q-29 31 -66 82q-52 -29 -80 -60.5t-28 -75.5q0 -52 38.5 -81.5t111.5 -29.5zM498 299l61 -4q-17 -119 -83 -199q55 -41 122 -48l4 -56q-95 5 -170 60
q-80 -63 -184 -63q-107 0 -161 42t-54 116q0 64 39 105t110 79q-43 74 -43 132q0 59 37.5 100t109.5 41q60 0 92.5 -31t32.5 -88q0 -31 -11.5 -56.5t-36 -46.5t-45.5 -34t-56 -32q24 -35 62 -77q64 -73 106 -111q55 68 68 171z" />
    <glyph glyph-name="slash.sc" horiz-adv-x="462" 
d="M95 0h-72l344 592h72z" />
    <glyph glyph-name="backslash.sc" horiz-adv-x="462" 
d="M95 592l344 -592h-72l-344 592h72z" />
    <glyph glyph-name="plus.sc" horiz-adv-x="636" 
d="M349 48h-61v224h-223v60h223v224h61v-224h222v-60h-222v-224z" />
    <glyph glyph-name="minus.sc" horiz-adv-x="636" 
d="M571 272h-506v60h506v-60z" />
    <glyph glyph-name="divide.sc" horiz-adv-x="636" 
d="M314 430q-21 0 -33 13.5t-12 36.5q0 22 12 35t33 13t34 -13t13 -35q0 -23 -13 -36.5t-34 -13.5zM571 272h-506v60h506v-60zM314 75q-21 0 -33 13.5t-12 36.5t12 36t33 13t34 -13.5t13 -35.5q0 -23 -13 -36.5t-34 -13.5z" />
    <glyph glyph-name="multiply.sc" horiz-adv-x="636" 
d="M317 261l-172 -173l-41 41l172 172l-172 172l41 42l172 -173l172 173l42 -42l-173 -172l173 -171l-41 -41z" />
    <glyph glyph-name="equal.sc" horiz-adv-x="636" 
d="M570 387h-505v58h505v-58zM570 159h-505v58h505v-58z" />
    <glyph glyph-name="less.sc" horiz-adv-x="636" 
d="M580 115v-65l-529 227v50l529 226v-64l-449 -187z" />
    <glyph glyph-name="greater.sc" horiz-adv-x="636" 
d="M586 277l-529 -227v65l449 187l-449 187v64l529 -226v-50z" />
    <glyph glyph-name="dollar.sc" horiz-adv-x="547" 
d="M247 345v198q-54 -4 -81 -30t-27 -63q0 -41 28 -64t80 -41zM297 269v-219q55 4 90 28.5t35 73.5t-30.5 72.5t-94.5 44.5zM299 -75h-53v71q-127 11 -190 117q3 1 26 15.5t26 16.5q54 -87 139 -95v234q-83 26 -127 60t-44 102q0 61 46 104t124 47v58h52v-59
q104 -10 164 -105l-49 -34q-25 39 -50 58.5t-66 25.5v-210q44 -13 70 -24t57 -30.5t46 -49.5t15 -71q0 -67 -50 -110.5t-136 -50.5v-70z" />
    <glyph glyph-name="sterling.sc" horiz-adv-x="508" 
d="M117 -14q-40 0 -69.5 22.5t-29.5 65.5t28.5 68.5t75.5 25.5q45 0 85 -36q3 16 3 44q-1 45 -33 111h-110v48h79q-38 68 -38 115q0 67 45.5 109t122.5 42q82 0 122 -43.5t46 -112.5l-62 -7q-9 108 -106 108q-47 0 -73.5 -25.5t-26.5 -69.5q0 -43 43 -116h145v-48h-119
q27 -59 27 -110q0 -47 -11 -85q56 -50 100 -50q35 0 52.5 25.5t21.5 82.5h59q-9 -164 -129 -164q-60 0 -133 59q-39 -59 -115 -59zM119 35q53 0 72 47q-36 38 -70 38q-23 0 -37 -11.5t-14 -30.5q0 -43 49 -43z" />
    <glyph glyph-name="yen.sc" horiz-adv-x="526" 
d="M228 0v104h-150v49h150v68h-150v48h148l-194 323h73l159 -270l159 270h71l-196 -323h152v-48h-153v-68h153v-49h-153v-104h-69z" />
    <glyph glyph-name="Euro.sc" horiz-adv-x="580" 
d="M335 -13q-85 0 -143.5 56t-75.5 167h-100v49h95q-1 14 -1 36q0 23 1 35h-95v48h99q16 110 78 168.5t142 58.5q147 0 193 -176l-60 -16q-19 69 -47.5 102t-85.5 33t-99.5 -44t-54.5 -126h178v-48h-183q-1 -10 -1 -35q0 -14 2 -36h182v-49h-177q13 -81 53.5 -123.5
t101.5 -42.5q55 0 87.5 35t52.5 106l60 -14q-50 -184 -202 -184z" />
    <glyph glyph-name="florin.sc" horiz-adv-x="326" 
d="M-59 -171l8 53q12 -2 31 -2q65 0 74 59q1 3 26.5 186.5t25.5 186.5h-72l7 53h73q0 1 8 59l7 57q15 111 134 111q27 0 47 -4l-9 -53q-11 2 -31 2q-66 0 -74 -57l-16 -115h93l-7 -53h-93q-1 -3 -27.5 -189.5t-26.5 -189.5q-8 -54 -40.5 -80.5t-95.5 -26.5q-27 0 -42 3z" />
    <glyph glyph-name="fi.sc" horiz-adv-x="729" 
d="M642 0h-70v592h70v-592zM148 0h-68v592h374v-58h-306v-200h221l10 -56h-231v-278z" />
    <glyph glyph-name="fl.sc" horiz-adv-x="969" 
d="M942 0h-378v592h68v-534h300zM148 0h-68v592h374v-58h-306v-200h221l10 -56h-231v-278z" />
    <glyph glyph-name="space.tab" horiz-adv-x="325" 
 />
    <glyph glyph-name="zero.tab" 
d="M325 -14q-127 0 -198.5 104t-71.5 280t71.5 280t198.5 104t198 -104t71 -280t-71 -280t-198 -104zM325 48q94 0 147 84t53 238q0 153 -54 237.5t-146 84.5q-95 0 -148 -84t-53 -238q0 -153 54 -237.5t147 -84.5z" />
    <glyph glyph-name="one.tab" 
d="M149 0v64h159v603q-19 -10 -75 -22.5t-79 -12.5l-6 60q34 1 93.5 17t76.5 31h60v-676h146v-64h-375z" />
    <glyph glyph-name="two.tab" 
d="M79 0v16q0 86 54.5 163.5t193.5 166.5q86 55 121 99t35 102q0 65 -39.5 104.5t-112.5 39.5q-120 0 -184 -130l-53 35q77 158 240 158q100 0 159 -56.5t59 -146.5q0 -75 -42 -131t-149 -124q-199 -127 -204 -232h396l5 -64h-479z" />
    <glyph glyph-name="three.tab" 
d="M312 -14q-81 0 -146.5 36t-106.5 101l49 42q76 -116 204 -116q82 0 129.5 41t47.5 109q0 83 -55 123t-183 40h-26l-4 61h35q115 0 165.5 34.5t50.5 104.5q0 58 -38.5 93.5t-117.5 35.5q-103 0 -178 -93l-46 45q92 111 228 111q110 0 166 -53t56 -132q0 -71 -39.5 -117.5
t-108.5 -57.5q165 -33 165 -195q0 -93 -67.5 -153t-179.5 -60z" />
    <glyph glyph-name="four.tab" 
d="M411 0v179h-351v53l332 508h87v-498h119l4 -63h-123v-179h-68zM139 242h272v415h-2z" />
    <glyph glyph-name="five.tab" 
d="M318 -14q-78 0 -141 35.5t-101 96.5l46 45q75 -114 195 -114q89 0 135.5 56.5t46.5 136.5q0 87 -46 135.5t-120 48.5q-105 0 -169 -93l-53 20l29 387h385l2 -65h-328l-20 -257q59 69 164 69q100 0 163 -66t63 -176q0 -113 -68.5 -186t-182.5 -73z" />
    <glyph glyph-name="six.tab" 
d="M336 -14q-113 0 -186.5 94.5t-73.5 276.5q0 172 81 284.5t207 112.5q102 0 174 -56l-33 -56q-33 26 -64 38t-77 12q-100 0 -159.5 -93t-59.5 -235q91 99 209 99q112 0 170.5 -63t58.5 -168q0 -107 -67 -176.5t-180 -69.5zM340 47q79 0 126.5 49t47.5 135
q0 78 -41.5 124.5t-127.5 46.5q-119 0 -198 -109q11 -122 63.5 -184t129.5 -62z" />
    <glyph glyph-name="seven.tab" 
d="M170 2l311 673h-377l-6 65h457v-61l-314 -681z" />
    <glyph glyph-name="eight.tab" 
d="M325 -15q-121 0 -191.5 55.5t-70.5 138.5q0 74 48.5 122.5t147.5 91.5q-82 37 -122 78t-40 105q0 72 62.5 125.5t165.5 53.5q106 0 167 -53t61 -126q0 -62 -39.5 -102.5t-123.5 -78.5q103 -45 150 -92.5t47 -123.5q0 -82 -71 -138t-191 -56zM328 422q87 38 121.5 69.5
t34.5 81.5q0 49 -40.5 85.5t-118.5 36.5q-75 0 -117 -35.5t-42 -83.5q0 -50 36 -82.5t126 -71.5zM325 45q85 0 138.5 37.5t53.5 100.5q0 59 -46.5 99t-149.5 83q-102 -45 -145 -85t-43 -97q0 -61 53.5 -99.5t138.5 -38.5z" />
    <glyph glyph-name="nine.tab" 
d="M303 338q120 0 199 109q-11 122 -63.5 183.5t-129.5 61.5q-80 0 -127 -48.5t-47 -134.5q0 -78 41.5 -124.5t126.5 -46.5zM288 -14q-114 0 -191 66l33 56q38 -32 71.5 -46t85.5 -14q98 0 157.5 93.5t59.5 234.5q-91 -99 -209 -99q-112 0 -170.5 63t-58.5 168
q0 107 67 176.5t179 69.5q114 0 187.5 -94.5t73.5 -276.5q0 -171 -80.5 -284t-204.5 -113z" />
    <glyph glyph-name="parenleft.tab" horiz-adv-x="325" 
d="M275 -205q-249 209 -249 478t249 478l31 -35q-204 -188 -204 -443q0 -129 54.5 -242t150.5 -202z" />
    <glyph glyph-name="parenright.tab" horiz-adv-x="325" 
d="M49 -205l-32 34q96 89 150.5 202t54.5 242q0 255 -204 443l31 35q249 -209 249 -478t-249 -478z" />
    <glyph glyph-name="numbersign.tab" 
d="M209 274h189l40 192h-189zM94 0l44 217h-110v57h121l39 192h-118v57h129l44 217h61l-45 -217h189l45 217h60l-44 -217h112v-57h-123l-39 -192h120v-57h-131l-44 -217h-61l44 217h-188l-45 -217h-60z" />
    <glyph glyph-name="percent.tab" horiz-adv-x="980" 
d="M240 306q-76 0 -119.5 60t-43.5 160q0 104 45 164t120 60t118.5 -59t43.5 -162q0 -100 -44 -161.5t-120 -61.5zM245 0l432 740h58l-432 -740h-58zM241 362q48 0 75 46.5t27 119.5q0 76 -27 121t-76 45q-47 0 -74 -46.5t-27 -118.5q0 -76 27 -121.5t75 -45.5zM739 -10
q-77 0 -120 59.5t-43 160.5q0 104 44.5 164t119.5 60t119 -59.5t44 -161.5q0 -100 -44 -161.5t-120 -61.5zM740 46q47 0 74 47t27 119q0 76 -27 121t-75 45t-75 -46.5t-27 -118.5q0 -76 27 -121.5t76 -45.5z" />
    <glyph glyph-name="asterisk.tab" 
d="M246 353l-50 29l104 151l-183 -13v55l184 -13l-105 151l50 29l79 -166l79 166l50 -29l-104 -151l183 13v-55l-183 13l104 -151l-50 -29l-79 166z" />
    <glyph glyph-name="period.tab" horiz-adv-x="325" 
d="M162 -5q-23 0 -36 14.5t-13 38.5q0 23 13 37t36 14q22 0 35.5 -14t13.5 -37q0 -24 -13.5 -38.5t-35.5 -14.5z" />
    <glyph glyph-name="comma.tab" horiz-adv-x="325" 
d="M151 -101h-42l26 195h86z" />
    <glyph glyph-name="colon.tab" horiz-adv-x="325" 
d="M162 427q-23 0 -36 14t-13 38t13 38t36 14t36 -14t13 -38t-13 -38t-36 -14zM162 -5q-23 0 -36 14.5t-13 38.5q0 23 13 37t36 14q22 0 35.5 -14t13.5 -37q0 -24 -13.5 -38.5t-35.5 -14.5z" />
    <glyph glyph-name="semicolon.tab" horiz-adv-x="325" 
d="M163 427q-23 0 -36 14t-13 38t13 38t36 14t36 -14t13 -38t-13 -38t-36 -14zM151 -101h-42l26 195h85z" />
    <glyph glyph-name="slash.tab" 
d="M74 0l430 740h72l-430 -740h-72z" />
    <glyph glyph-name="periodcentered.tab" horiz-adv-x="325" 
d="M162 267q-22 0 -35 14t-13 38t13 38t35 14q23 0 36.5 -14t13.5 -38t-13.5 -38t-36.5 -14z" />
    <glyph glyph-name="minute.tab" horiz-adv-x="325" 
d="M120 489l17 196l10 55h70l-61 -251h-36z" />
    <glyph glyph-name="second.tab" 
d="M368 489l17 196l10 55h69l-61 -251h-35zM197 489l17 196l9 55h70l-61 -251h-35z" />
    <glyph glyph-name="plus.tab" 
d="M294 75v224h-222v60h222v224h62v-224h222v-60h-222v-224h-62z" />
    <glyph glyph-name="minus.tab" 
d="M72 299v60h506v-60h-506z" />
    <glyph glyph-name="divide.tab" 
d="M322 456q-21 0 -33.5 13.5t-12.5 36.5q0 22 12.5 35t33.5 13t33.5 -13t12.5 -35q0 -23 -12.5 -36.5t-33.5 -13.5zM72 299v60h506v-60h-506zM322 101q-21 0 -33.5 13.5t-12.5 36.5q0 22 12.5 35.5t33.5 13.5t33.5 -13.5t12.5 -35.5q0 -23 -12.5 -36.5t-33.5 -13.5z" />
    <glyph glyph-name="multiply.tab" 
d="M152 103l-41 42l172 171l-172 173l41 41l172 -173l172 173l41 -41l-172 -173l173 -171l-41 -41l-173 172z" />
    <glyph glyph-name="equal.tab" 
d="M72 409v59h505v-59h-505zM72 181v59h505v-59h-505z" />
    <glyph glyph-name="less.tab" 
d="M587 72l-529 227v50l529 227v-65l-449 -187l449 -187v-65z" />
    <glyph glyph-name="greater.tab" 
d="M64 72v65l449 187l-449 187v65l529 -227v-50z" />
    <glyph glyph-name="dollar.tab" 
d="M301 423v265q-21 -1 -41.5 -6.5t-47 -17.5t-43 -37.5t-16.5 -61.5q0 -56 39.5 -88.5t108.5 -53.5zM349 53q168 12 168 135q0 65 -45 99.5t-123 57.5v-292zM299 -93v89q-142 9 -230 116l48 40q85 -94 184 -99v305q-50 15 -83 29.5t-66.5 37.5t-50 56.5t-16.5 78.5
q0 76 56.5 129t157.5 57v73h52v-75q126 -12 201 -114l-49 -41q-37 45 -72 68t-82 28v-274q42 -12 70.5 -22t62.5 -28.5t54.5 -39.5t34.5 -54t14 -74q0 -85 -61.5 -138.5t-172.5 -58.5v-89h-52z" />
    <glyph glyph-name="cent.tab" 
d="M175 263q0 -129 73 -188l112 407q-6 1 -18 1q-67 0 -117 -54.5t-50 -165.5zM336 -11q-33 0 -63 9l-35 -127h-48l41 145q-57 34 -89.5 99.5t-32.5 147.5q0 133 68.5 203.5t165.5 70.5q9 0 29 -2l29 103h48l-32 -114q89 -31 129 -131l-57 -26q-30 80 -90 105l-113 -418
q23 -10 53 -10q54 0 89.5 28t64.5 88l54 -24q-69 -147 -211 -147z" />
    <glyph glyph-name="sterling.tab" 
d="M451 -14q-42 0 -77 20.5t-77 57.5q-47 -78 -135 -78q-43 0 -75.5 26t-32.5 73q0 50 31 81t82 31q50 0 102 -43q4 28 4 70q-2 63 -40 138h-125v55h96q-47 88 -47 150q0 83 51 135t139 52q94 0 141 -53.5t53 -132.5l-65 -8q-9 135 -130 135q-57 0 -89 -34t-32 -93
q0 -23 9 -51.5t17 -45.5t27 -54h171v-55h-145q34 -77 34 -140q0 -62 -15 -110q26 -24 39.5 -34.5t37.5 -22.5t46 -12q44 0 64.5 33t25.5 106h62q-9 -196 -147 -196zM164 35q65 0 91 66q-49 47 -89 47q-27 0 -42.5 -16.5t-15.5 -43.5q0 -25 15.5 -39t40.5 -14z" />
    <glyph glyph-name="yen.tab" 
d="M289 0v126h-190v56h190v96h-190v55h187l-242 407h77l205 -351l204 351h75l-243 -407h189v-55h-191v-96h191v-56h-191v-126h-71z" />
    <glyph glyph-name="Euro.tab" 
d="M382 -14q-104 0 -175 70t-91 209h-123v56h118q-3 30 -1 96h-117v55h123q19 140 93 211t173 71q175 0 231 -201l-63 -21q-24 82 -60.5 121t-108.5 39q-76 0 -129 -55t-68 -165h224v-55h-230q-3 -40 1 -96h229v-56h-223q15 -107 66 -162t132 -55q72 0 113.5 42t64.5 126
l62 -21q-28 -97 -88 -153t-153 -56z" />
    <glyph glyph-name="florin.tab" 
d="M67 -199l9 56q7 -2 34 -2q87 0 98 79l68 481h-92l7 56h92l18 135q19 135 171 135q35 0 39 -2l-9 -56q-14 2 -33 2q-88 0 -99 -77l-18 -137h116l-7 -56h-116l-68 -484q-19 -132 -170 -132q-36 0 -40 2z" />
    </font>
</defs>
</svg>
